ISO-10303-21;
HEADER;
/* Generated by software containing ST-Developer
 * from STEP Tools, Inc. (www.steptools.com) 
 */
/* OPTION: using custom renumber hook */

FILE_DESCRIPTION(
/* description */ ('STEP AP242 Edition 2',
'CAx-IF Rec.Pracs.---Representation and Presentation of Product Manufa
cturing Information (PMI)---4.0---2014-10-13',
'CAx-IF Rec.Pracs.---3D Tessellated Geometry---0.4---2014-09-14','2;1',
'CAx-IF Rec.Pracs.---User Defined Attributes---1.5---2016-08-15'),
/* implementation_level */ '2;1');

FILE_NAME(
/* name */ 'All - Nose flap 2',
/* time_stamp */ '2026-09-01T00:15:52Z',
/* author */ (''),
/* organization */ (''),
/* preprocessor_version */ 'ST-DEVELOPER v20',
/* originating_system */ 'ONSHAPE BY PTC INC, 1.220',
/* authorisation */ '  ');

FILE_SCHEMA (('AP242_MANAGED_MODEL_BASED_3D_ENGINEERING_MIM_LF { 1 0 10303 442 3 1 4 }'));
ENDSEC;

DATA;
#10=SHAPE_REPRESENTATION_RELATIONSHIP('','',#366,#11);
#11=ADVANCED_BREP_SHAPE_REPRESENTATION('',(#364),#647);
#12=ELLIPSE('',#410,0.100002139540956,0.1);
#13=CYLINDRICAL_SURFACE('',#403,3.74962982578782);
#14=CYLINDRICAL_SURFACE('',#407,4.91143288566552);
#15=CYLINDRICAL_SURFACE('',#412,0.1);
#16=B_SPLINE_CURVE_WITH_KNOTS('',3,(#579,#580,#581,#582),.UNSPECIFIED.,
 .F.,.F.,(4,4),(0.040355883777549,0.0484807889260921),.UNSPECIFIED.);
#17=B_SPLINE_CURVE_WITH_KNOTS('',3,(#587,#588,#589,#590),.UNSPECIFIED.,
 .F.,.F.,(4,4),(0.0403570635759965,0.0484820284517957),.UNSPECIFIED.);
#18=VERTEX_LOOP('',#198);
#19=VERTEX_LOOP('',#204);
#20=DEGENERATE_TOROIDAL_SURFACE('',#377,0.924520641030989,3.12032610460945,
 .F.);
#21=DEGENERATE_TOROIDAL_SURFACE('',#382,2.47717369996695,4.56427839919116,
 .F.);
#22=DEGENERATE_TOROIDAL_SURFACE('',#386,0.0209812730422438,2.61690019550346,
 .T.);
#23=DEGENERATE_TOROIDAL_SURFACE('',#390,44.2736392977338,48.270473837089,
 .F.);
#24=DEGENERATE_TOROIDAL_SURFACE('',#398,35.3760934240889,40.0762896518554,
 .F.);
#25=CIRCLE('',#369,4.64718014437437);
#26=CIRCLE('',#370,3.90991252652526);
#27=CIRCLE('',#372,4.91143288566552);
#28=CIRCLE('',#373,4.64718014437437);
#29=CIRCLE('',#375,3.90991252652526);
#30=CIRCLE('',#376,3.74962982578782);
#31=CIRCLE('',#378,1.70617774128914);
#32=CIRCLE('',#380,1.93778406828642);
#33=CIRCLE('',#381,1.93778406828642);
#34=CIRCLE('',#383,4.56427839919116);
#35=CIRCLE('',#384,1.27424983203272);
#36=CIRCLE('',#385,4.56427839919116);
#37=CIRCLE('',#387,2.61690019550343);
#38=CIRCLE('',#388,2.49416157603264);
#39=CIRCLE('',#389,2.61690019550343);
#40=CIRCLE('',#391,3.7600508438945);
#41=CIRCLE('',#392,3.83365055808712);
#42=CIRCLE('',#393,48.270473837089);
#43=CIRCLE('',#394,48.270473837089);
#44=CIRCLE('',#395,3.90991252652526);
#45=CIRCLE('',#397,4.64718014437437);
#46=CIRCLE('',#399,40.0762896518554);
#47=CIRCLE('',#400,40.0762896518554);
#48=CIRCLE('',#404,3.74962982578782);
#49=CIRCLE('',#406,0.1);
#50=CIRCLE('',#408,4.91143288566552);
#51=ORIENTED_EDGE('',*,*,#145,.F.);
#52=ORIENTED_EDGE('',*,*,#146,.F.);
#53=ORIENTED_EDGE('',*,*,#147,.F.);
#54=ORIENTED_EDGE('',*,*,#148,.T.);
#55=ORIENTED_EDGE('',*,*,#149,.F.);
#56=ORIENTED_EDGE('',*,*,#150,.F.);
#57=ORIENTED_EDGE('',*,*,#151,.T.);
#58=ORIENTED_EDGE('',*,*,#152,.T.);
#59=ORIENTED_EDGE('',*,*,#153,.F.);
#60=ORIENTED_EDGE('',*,*,#154,.F.);
#61=ORIENTED_EDGE('',*,*,#155,.F.);
#62=ORIENTED_EDGE('',*,*,#153,.T.);
#63=ORIENTED_EDGE('',*,*,#154,.T.);
#64=ORIENTED_EDGE('',*,*,#156,.T.);
#65=ORIENTED_EDGE('',*,*,#157,.F.);
#66=ORIENTED_EDGE('',*,*,#158,.F.);
#67=ORIENTED_EDGE('',*,*,#157,.T.);
#68=ORIENTED_EDGE('',*,*,#159,.F.);
#69=ORIENTED_EDGE('',*,*,#160,.T.);
#70=ORIENTED_EDGE('',*,*,#161,.T.);
#71=ORIENTED_EDGE('',*,*,#162,.F.);
#72=ORIENTED_EDGE('',*,*,#163,.T.);
#73=ORIENTED_EDGE('',*,*,#164,.T.);
#74=ORIENTED_EDGE('',*,*,#165,.F.);
#75=ORIENTED_EDGE('',*,*,#148,.F.);
#76=ORIENTED_EDGE('',*,*,#166,.T.);
#77=ORIENTED_EDGE('',*,*,#155,.T.);
#78=ORIENTED_EDGE('',*,*,#167,.F.);
#79=ORIENTED_EDGE('',*,*,#168,.F.);
#80=ORIENTED_EDGE('',*,*,#151,.F.);
#81=ORIENTED_EDGE('',*,*,#169,.F.);
#82=ORIENTED_EDGE('',*,*,#170,.T.);
#83=ORIENTED_EDGE('',*,*,#168,.T.);
#84=ORIENTED_EDGE('',*,*,#171,.T.);
#85=ORIENTED_EDGE('',*,*,#160,.F.);
#86=ORIENTED_EDGE('',*,*,#172,.F.);
#87=ORIENTED_EDGE('',*,*,#146,.T.);
#88=ORIENTED_EDGE('',*,*,#150,.T.);
#89=ORIENTED_EDGE('',*,*,#169,.T.);
#90=ORIENTED_EDGE('',*,*,#173,.T.);
#91=ORIENTED_EDGE('',*,*,#166,.F.);
#92=ORIENTED_EDGE('',*,*,#147,.T.);
#93=ORIENTED_EDGE('',*,*,#172,.T.);
#94=ORIENTED_EDGE('',*,*,#159,.T.);
#95=ORIENTED_EDGE('',*,*,#156,.F.);
#96=ORIENTED_EDGE('',*,*,#167,.T.);
#97=ORIENTED_EDGE('',*,*,#158,.T.);
#98=ORIENTED_EDGE('',*,*,#161,.F.);
#99=ORIENTED_EDGE('',*,*,#173,.F.);
#100=ORIENTED_EDGE('',*,*,#171,.F.);
#101=ORIENTED_EDGE('',*,*,#152,.F.);
#102=ORIENTED_EDGE('',*,*,#174,.F.);
#103=ORIENTED_EDGE('',*,*,#175,.T.);
#104=ORIENTED_EDGE('',*,*,#176,.T.);
#105=ORIENTED_EDGE('',*,*,#177,.F.);
#106=ORIENTED_EDGE('',*,*,#170,.F.);
#107=ORIENTED_EDGE('',*,*,#178,.F.);
#108=ORIENTED_EDGE('',*,*,#179,.T.);
#109=ORIENTED_EDGE('',*,*,#174,.T.);
#110=ORIENTED_EDGE('',*,*,#149,.T.);
#111=ORIENTED_EDGE('',*,*,#180,.F.);
#112=ORIENTED_EDGE('',*,*,#181,.F.);
#113=ORIENTED_EDGE('',*,*,#178,.T.);
#114=ORIENTED_EDGE('',*,*,#182,.T.);
#115=ORIENTED_EDGE('',*,*,#145,.T.);
#116=ORIENTED_EDGE('',*,*,#176,.F.);
#117=ORIENTED_EDGE('',*,*,#183,.F.);
#118=ORIENTED_EDGE('',*,*,#180,.T.);
#119=ORIENTED_EDGE('',*,*,#175,.F.);
#120=ORIENTED_EDGE('',*,*,#179,.F.);
#121=ORIENTED_EDGE('',*,*,#181,.T.);
#122=ORIENTED_EDGE('',*,*,#183,.T.);
#123=ORIENTED_EDGE('',*,*,#177,.T.);
#124=ORIENTED_EDGE('',*,*,#182,.F.);
#125=ORIENTED_EDGE('',*,*,#184,.T.);
#126=ORIENTED_EDGE('',*,*,#185,.T.);
#127=ORIENTED_EDGE('',*,*,#186,.F.);
#128=ORIENTED_EDGE('',*,*,#163,.F.);
#129=ORIENTED_EDGE('',*,*,#187,.F.);
#130=ORIENTED_EDGE('',*,*,#188,.F.);
#131=ORIENTED_EDGE('',*,*,#165,.T.);
#132=ORIENTED_EDGE('',*,*,#189,.T.);
#133=ORIENTED_EDGE('',*,*,#190,.F.);
#134=ORIENTED_EDGE('',*,*,#184,.F.);
#135=ORIENTED_EDGE('',*,*,#162,.T.);
#136=ORIENTED_EDGE('',*,*,#188,.T.);
#137=ORIENTED_EDGE('',*,*,#186,.T.);
#138=ORIENTED_EDGE('',*,*,#191,.T.);
#139=ORIENTED_EDGE('',*,*,#189,.F.);
#140=ORIENTED_EDGE('',*,*,#164,.F.);
#141=ORIENTED_EDGE('',*,*,#190,.T.);
#142=ORIENTED_EDGE('',*,*,#187,.T.);
#143=ORIENTED_EDGE('',*,*,#191,.F.);
#144=ORIENTED_EDGE('',*,*,#185,.F.);
#145=EDGE_CURVE('',#192,#193,#223,.T.);
#146=EDGE_CURVE('',#194,#192,#25,.T.);
#147=EDGE_CURVE('',#195,#194,#224,.T.);
#148=EDGE_CURVE('',#195,#193,#26,.T.);
#149=EDGE_CURVE('',#196,#192,#27,.T.);
#150=EDGE_CURVE('',#192,#196,#28,.T.);
#151=EDGE_CURVE('',#193,#197,#29,.T.);
#152=EDGE_CURVE('',#197,#193,#30,.T.);
#153=EDGE_CURVE('',#199,#199,#31,.T.);
#154=EDGE_CURVE('',#200,#201,#32,.T.);
#155=EDGE_CURVE('',#201,#200,#33,.T.);
#156=EDGE_CURVE('',#201,#202,#34,.T.);
#157=EDGE_CURVE('',#203,#202,#35,.T.);
#158=EDGE_CURVE('',#200,#203,#36,.T.);
#159=EDGE_CURVE('',#205,#202,#37,.T.);
#160=EDGE_CURVE('',#205,#206,#38,.T.);
#161=EDGE_CURVE('',#206,#203,#39,.T.);
#162=EDGE_CURVE('',#207,#208,#16,.T.);
#163=EDGE_CURVE('',#207,#209,#40,.T.);
#164=EDGE_CURVE('',#209,#210,#17,.T.);
#165=EDGE_CURVE('',#208,#210,#41,.T.);
#166=EDGE_CURVE('',#195,#201,#42,.T.);
#167=EDGE_CURVE('',#211,#200,#43,.T.);
#168=EDGE_CURVE('',#197,#211,#44,.T.);
#169=EDGE_CURVE('',#196,#212,#45,.T.);
#170=EDGE_CURVE('',#196,#197,#225,.T.);
#171=EDGE_CURVE('',#211,#212,#226,.T.);
#172=EDGE_CURVE('',#194,#205,#46,.T.);
#173=EDGE_CURVE('',#212,#206,#47,.T.);
#174=EDGE_CURVE('',#213,#197,#227,.T.);
#175=EDGE_CURVE('',#213,#214,#48,.T.);
#176=EDGE_CURVE('',#214,#193,#228,.T.);
#177=EDGE_CURVE('',#215,#215,#49,.T.);
#178=EDGE_CURVE('',#216,#196,#229,.T.);
#179=EDGE_CURVE('',#216,#213,#230,.T.);
#180=EDGE_CURVE('',#217,#192,#231,.T.);
#181=EDGE_CURVE('',#216,#217,#50,.T.);
#182=EDGE_CURVE('',#218,#218,#12,.T.);
#183=EDGE_CURVE('',#217,#214,#232,.T.);
#184=EDGE_CURVE('',#207,#219,#233,.T.);
#185=EDGE_CURVE('',#219,#220,#234,.T.);
#186=EDGE_CURVE('',#209,#220,#235,.T.);
#187=EDGE_CURVE('',#221,#222,#236,.T.);
#188=EDGE_CURVE('',#208,#221,#237,.T.);
#189=EDGE_CURVE('',#210,#222,#238,.T.);
#190=EDGE_CURVE('',#219,#221,#239,.T.);
#191=EDGE_CURVE('',#220,#222,#240,.T.);
#192=VERTEX_POINT('',#541);
#193=VERTEX_POINT('',#542);
#194=VERTEX_POINT('',#544);
#195=VERTEX_POINT('',#546);
#196=VERTEX_POINT('',#550);
#197=VERTEX_POINT('',#554);
#198=VERTEX_POINT('',#557);
#199=VERTEX_POINT('',#559);
#200=VERTEX_POINT('',#562);
#201=VERTEX_POINT('',#563);
#202=VERTEX_POINT('',#567);
#203=VERTEX_POINT('',#569);
#204=VERTEX_POINT('',#572);
#205=VERTEX_POINT('',#574);
#206=VERTEX_POINT('',#576);
#207=VERTEX_POINT('',#583);
#208=VERTEX_POINT('',#584);
#209=VERTEX_POINT('',#586);
#210=VERTEX_POINT('',#591);
#211=VERTEX_POINT('',#595);
#212=VERTEX_POINT('',#599);
#213=VERTEX_POINT('',#609);
#214=VERTEX_POINT('',#611);
#215=VERTEX_POINT('',#615);
#216=VERTEX_POINT('',#617);
#217=VERTEX_POINT('',#621);
#218=VERTEX_POINT('',#625);
#219=VERTEX_POINT('',#631);
#220=VERTEX_POINT('',#633);
#221=VERTEX_POINT('',#637);
#222=VERTEX_POINT('',#638);
#223=LINE('',#540,#241);
#224=LINE('',#545,#242);
#225=LINE('',#600,#243);
#226=LINE('',#601,#244);
#227=LINE('',#608,#245);
#228=LINE('',#612,#246);
#229=LINE('',#616,#247);
#230=LINE('',#618,#248);
#231=LINE('',#620,#249);
#232=LINE('',#626,#250);
#233=LINE('',#630,#251);
#234=LINE('',#632,#252);
#235=LINE('',#634,#253);
#236=LINE('',#636,#254);
#237=LINE('',#639,#255);
#238=LINE('',#640,#256);
#239=LINE('',#642,#257);
#240=LINE('',#644,#258);
#241=VECTOR('',#422,100.);
#242=VECTOR('',#425,100.);
#243=VECTOR('',#482,100.);
#244=VECTOR('',#483,100.);
#245=VECTOR('',#496,100.);
#246=VECTOR('',#499,100.);
#247=VECTOR('',#504,100.);
#248=VECTOR('',#505,100.);
#249=VECTOR('',#508,100.);
#250=VECTOR('',#515,100.);
#251=VECTOR('',#522,100.);
#252=VECTOR('',#523,100.);
#253=VECTOR('',#524,100.);
#254=VECTOR('',#527,100.);
#255=VECTOR('',#528,100.);
#256=VECTOR('',#529,100.);
#257=VECTOR('',#532,100.);
#258=VECTOR('',#535,100.);
#259=EDGE_LOOP('',(#51,#52,#53,#54));
#260=EDGE_LOOP('',(#55,#56));
#261=EDGE_LOOP('',(#57,#58));
#262=EDGE_LOOP('',(#59));
#263=EDGE_LOOP('',(#60,#61));
#264=EDGE_LOOP('',(#62));
#265=EDGE_LOOP('',(#63,#64,#65,#66));
#266=EDGE_LOOP('',(#67,#68,#69,#70));
#267=EDGE_LOOP('',(#71,#72,#73,#74));
#268=EDGE_LOOP('',(#75,#76,#77,#78,#79,#80));
#269=EDGE_LOOP('',(#81,#82,#83,#84));
#270=EDGE_LOOP('',(#85,#86,#87,#88,#89,#90));
#271=EDGE_LOOP('',(#91,#92,#93,#94,#95));
#272=EDGE_LOOP('',(#96,#97,#98,#99,#100));
#273=EDGE_LOOP('',(#101,#102,#103,#104));
#274=EDGE_LOOP('',(#105));
#275=EDGE_LOOP('',(#106,#107,#108,#109));
#276=EDGE_LOOP('',(#110,#111,#112,#113));
#277=EDGE_LOOP('',(#114));
#278=EDGE_LOOP('',(#115,#116,#117,#118));
#279=EDGE_LOOP('',(#119,#120,#121,#122));
#280=EDGE_LOOP('',(#123));
#281=EDGE_LOOP('',(#124));
#282=EDGE_LOOP('',(#125,#126,#127,#128));
#283=EDGE_LOOP('',(#129,#130,#131,#132));
#284=EDGE_LOOP('',(#133,#134,#135,#136));
#285=EDGE_LOOP('',(#137,#138,#139,#140));
#286=EDGE_LOOP('',(#141,#142,#143,#144));
#287=FACE_BOUND('',#259,.T.);
#288=FACE_BOUND('',#260,.T.);
#289=FACE_BOUND('',#261,.T.);
#290=FACE_BOUND('',#18,.T.);
#291=FACE_BOUND('',#262,.T.);
#292=FACE_BOUND('',#263,.T.);
#293=FACE_BOUND('',#264,.T.);
#294=FACE_BOUND('',#265,.T.);
#295=FACE_BOUND('',#19,.T.);
#296=FACE_BOUND('',#266,.T.);
#297=FACE_BOUND('',#267,.T.);
#298=FACE_BOUND('',#268,.T.);
#299=FACE_BOUND('',#269,.T.);
#300=FACE_BOUND('',#270,.T.);
#301=FACE_BOUND('',#271,.T.);
#302=FACE_BOUND('',#272,.T.);
#303=FACE_BOUND('',#273,.T.);
#304=FACE_BOUND('',#274,.T.);
#305=FACE_BOUND('',#275,.T.);
#306=FACE_BOUND('',#276,.T.);
#307=FACE_BOUND('',#277,.T.);
#308=FACE_BOUND('',#278,.T.);
#309=FACE_BOUND('',#279,.T.);
#310=FACE_BOUND('',#280,.T.);
#311=FACE_BOUND('',#281,.T.);
#312=FACE_BOUND('',#282,.T.);
#313=FACE_BOUND('',#283,.T.);
#314=FACE_BOUND('',#284,.T.);
#315=FACE_BOUND('',#285,.T.);
#316=FACE_BOUND('',#286,.T.);
#317=PLANE('',#368);
#318=PLANE('',#371);
#319=PLANE('',#374);
#320=PLANE('',#379);
#321=PLANE('',#396);
#322=PLANE('',#401);
#323=PLANE('',#402);
#324=PLANE('',#405);
#325=PLANE('',#409);
#326=PLANE('',#411);
#327=PLANE('',#413);
#328=PLANE('',#414);
#329=PLANE('',#415);
#330=PLANE('',#416);
#331=PLANE('',#417);
#332=ADVANCED_FACE('',(#287),#317,.F.);
#333=ADVANCED_FACE('',(#288),#318,.F.);
#334=ADVANCED_FACE('',(#289),#319,.F.);
#335=ADVANCED_FACE('',(#290,#291),#20,.T.);
#336=ADVANCED_FACE('',(#292,#293),#320,.F.);
#337=ADVANCED_FACE('',(#294),#21,.F.);
#338=ADVANCED_FACE('',(#295,#296),#22,.T.);
#339=ADVANCED_FACE('',(#297,#298),#23,.T.);
#340=ADVANCED_FACE('',(#299),#321,.F.);
#341=ADVANCED_FACE('',(#300),#24,.F.);
#342=ADVANCED_FACE('',(#301),#322,.T.);
#343=ADVANCED_FACE('',(#302),#323,.F.);
#344=ADVANCED_FACE('',(#303),#13,.F.);
#345=ADVANCED_FACE('',(#304,#305),#324,.T.);
#346=ADVANCED_FACE('',(#306),#14,.T.);
#347=ADVANCED_FACE('',(#307,#308),#325,.F.);
#348=ADVANCED_FACE('',(#309),#326,.T.);
#349=ADVANCED_FACE('',(#310,#311),#15,.F.);
#350=ADVANCED_FACE('',(#312),#327,.F.);
#351=ADVANCED_FACE('',(#313),#328,.T.);
#352=ADVANCED_FACE('',(#314),#329,.T.);
#353=ADVANCED_FACE('',(#315),#330,.F.);
#354=ADVANCED_FACE('',(#316),#331,.F.);
#355=CLOSED_SHELL('',(#332,#333,#334,#335,#336,#337,#338,#339,#340,#341,
#342,#343,#344,#345,#346,#347,#348,#349,#350,#351,#352,#353,#354));
#356=STYLED_ITEM('',(#357),#364);
#357=PRESENTATION_STYLE_ASSIGNMENT((#358));
#358=SURFACE_STYLE_USAGE(.BOTH.,#359);
#359=SURFACE_SIDE_STYLE('',(#360));
#360=SURFACE_STYLE_FILL_AREA(#361);
#361=FILL_AREA_STYLE('',(#362));
#362=FILL_AREA_STYLE_COLOUR('',#363);
#363=COLOUR_RGB('',0.972549019607843,0.529411764705882,0.00392156862745098);
#364=MANIFOLD_SOLID_BREP('Nose flap 2',#355);
#365=SHAPE_DEFINITION_REPRESENTATION(#652,#366);
#366=SHAPE_REPRESENTATION('Nose flap 2',(#367),#647);
#367=AXIS2_PLACEMENT_3D('',#538,#418,#419);
#368=AXIS2_PLACEMENT_3D('',#539,#420,#421);
#369=AXIS2_PLACEMENT_3D('',#543,#423,#424);
#370=AXIS2_PLACEMENT_3D('',#547,#426,#427);
#371=AXIS2_PLACEMENT_3D('',#548,#428,#429);
#372=AXIS2_PLACEMENT_3D('',#549,#430,#431);
#373=AXIS2_PLACEMENT_3D('',#551,#432,#433);
#374=AXIS2_PLACEMENT_3D('',#552,#434,#435);
#375=AXIS2_PLACEMENT_3D('',#553,#436,#437);
#376=AXIS2_PLACEMENT_3D('',#555,#438,#439);
#377=AXIS2_PLACEMENT_3D('',#556,#440,#441);
#378=AXIS2_PLACEMENT_3D('',#558,#442,#443);
#379=AXIS2_PLACEMENT_3D('',#560,#444,#445);
#380=AXIS2_PLACEMENT_3D('',#561,#446,#447);
#381=AXIS2_PLACEMENT_3D('',#564,#448,#449);
#382=AXIS2_PLACEMENT_3D('',#565,#450,#451);
#383=AXIS2_PLACEMENT_3D('',#566,#452,#453);
#384=AXIS2_PLACEMENT_3D('',#568,#454,#455);
#385=AXIS2_PLACEMENT_3D('',#570,#456,#457);
#386=AXIS2_PLACEMENT_3D('',#571,#458,#459);
#387=AXIS2_PLACEMENT_3D('',#573,#460,#461);
#388=AXIS2_PLACEMENT_3D('',#575,#462,#463);
#389=AXIS2_PLACEMENT_3D('',#577,#464,#465);
#390=AXIS2_PLACEMENT_3D('',#578,#466,#467);
#391=AXIS2_PLACEMENT_3D('',#585,#468,#469);
#392=AXIS2_PLACEMENT_3D('',#592,#470,#471);
#393=AXIS2_PLACEMENT_3D('',#593,#472,#473);
#394=AXIS2_PLACEMENT_3D('',#594,#474,#475);
#395=AXIS2_PLACEMENT_3D('',#596,#476,#477);
#396=AXIS2_PLACEMENT_3D('',#597,#478,#479);
#397=AXIS2_PLACEMENT_3D('',#598,#480,#481);
#398=AXIS2_PLACEMENT_3D('',#602,#484,#485);
#399=AXIS2_PLACEMENT_3D('',#603,#486,#487);
#400=AXIS2_PLACEMENT_3D('',#604,#488,#489);
#401=AXIS2_PLACEMENT_3D('',#605,#490,#491);
#402=AXIS2_PLACEMENT_3D('',#606,#492,#493);
#403=AXIS2_PLACEMENT_3D('',#607,#494,#495);
#404=AXIS2_PLACEMENT_3D('',#610,#497,#498);
#405=AXIS2_PLACEMENT_3D('',#613,#500,#501);
#406=AXIS2_PLACEMENT_3D('',#614,#502,#503);
#407=AXIS2_PLACEMENT_3D('',#619,#506,#507);
#408=AXIS2_PLACEMENT_3D('',#622,#509,#510);
#409=AXIS2_PLACEMENT_3D('',#623,#511,#512);
#410=AXIS2_PLACEMENT_3D('',#624,#513,#514);
#411=AXIS2_PLACEMENT_3D('',#627,#516,#517);
#412=AXIS2_PLACEMENT_3D('',#628,#518,#519);
#413=AXIS2_PLACEMENT_3D('',#629,#520,#521);
#414=AXIS2_PLACEMENT_3D('',#635,#525,#526);
#415=AXIS2_PLACEMENT_3D('',#641,#530,#531);
#416=AXIS2_PLACEMENT_3D('',#643,#533,#534);
#417=AXIS2_PLACEMENT_3D('',#645,#536,#537);
#418=DIRECTION('',(0.,0.,1.));
#419=DIRECTION('',(1.,0.,0.));
#420=DIRECTION('',(0.,0.,1.));
#421=DIRECTION('',(1.,0.,0.));
#422=DIRECTION('',(0.00654136421995533,0.999978605048199,0.));
#423=DIRECTION('',(0.,0.,1.));
#424=DIRECTION('',(1.,0.,0.));
#425=DIRECTION('',(-1.,-1.22464679914735E-16,0.));
#426=DIRECTION('',(0.,0.,1.));
#427=DIRECTION('',(1.,0.,0.));
#428=DIRECTION('',(0.,0.,1.));
#429=DIRECTION('',(1.,0.,0.));
#430=DIRECTION('',(0.,0.,-1.));
#431=DIRECTION('',(-1.,0.,0.));
#432=DIRECTION('',(0.,0.,1.));
#433=DIRECTION('',(1.,0.,0.));
#434=DIRECTION('',(0.,0.,1.));
#435=DIRECTION('',(1.,0.,0.));
#436=DIRECTION('',(0.,0.,1.));
#437=DIRECTION('',(1.,0.,0.));
#438=DIRECTION('',(0.,0.,-1.));
#439=DIRECTION('',(-1.,0.,0.));
#440=DIRECTION('',(0.,0.,1.));
#441=DIRECTION('',(1.,0.,0.));
#442=DIRECTION('',(0.,0.,1.));
#443=DIRECTION('',(1.,0.,0.));
#444=DIRECTION('',(0.,0.,1.));
#445=DIRECTION('',(1.,0.,0.));
#446=DIRECTION('',(0.,0.,1.));
#447=DIRECTION('',(1.,0.,0.));
#448=DIRECTION('',(0.,0.,1.));
#449=DIRECTION('',(1.,0.,0.));
#450=DIRECTION('',(0.,0.,1.));
#451=DIRECTION('',(1.,0.,0.));
#452=DIRECTION('',(-1.22464679914735E-16,1.,0.));
#453=DIRECTION('',(0.,0.,-1.));
#454=DIRECTION('',(0.,0.,1.));
#455=DIRECTION('',(1.,0.,0.));
#456=DIRECTION('',(0.,-1.,0.));
#457=DIRECTION('',(0.,0.,-1.));
#458=DIRECTION('',(0.,0.,1.));
#459=DIRECTION('',(1.,0.,0.));
#460=DIRECTION('',(-1.22464679914735E-16,1.,0.));
#461=DIRECTION('',(0.,0.,-1.));
#462=DIRECTION('',(0.,0.,1.));
#463=DIRECTION('',(1.,0.,0.));
#464=DIRECTION('',(0.,-1.,0.));
#465=DIRECTION('',(0.,0.,-1.));
#466=DIRECTION('',(0.,0.,1.));
#467=DIRECTION('',(1.,0.,0.));
#468=DIRECTION('',(0.,0.,-1.));
#469=DIRECTION('',(-1.,0.,0.));
#470=DIRECTION('',(0.,0.,-1.));
#471=DIRECTION('',(-1.,0.,0.));
#472=DIRECTION('',(-1.22464679914735E-16,1.,0.));
#473=DIRECTION('',(0.,0.,-1.));
#474=DIRECTION('',(0.,-1.,0.));
#475=DIRECTION('',(0.,0.,-1.));
#476=DIRECTION('',(0.,0.,1.));
#477=DIRECTION('',(1.,0.,0.));
#478=DIRECTION('',(0.,0.,1.));
#479=DIRECTION('',(1.,0.,0.));
#480=DIRECTION('',(0.,0.,1.));
#481=DIRECTION('',(1.,0.,0.));
#482=DIRECTION('',(0.,1.,0.));
#483=DIRECTION('',(1.,0.,0.));
#484=DIRECTION('',(0.,0.,1.));
#485=DIRECTION('',(1.,0.,0.));
#486=DIRECTION('',(-1.22464679914735E-16,1.,0.));
#487=DIRECTION('',(0.,0.,-1.));
#488=DIRECTION('',(0.,-1.,0.));
#489=DIRECTION('',(0.,0.,-1.));
#490=DIRECTION('',(-1.22464679914735E-16,1.,0.));
#491=DIRECTION('',(-1.,-1.22464679914735E-16,0.));
#492=DIRECTION('',(0.,-1.,0.));
#493=DIRECTION('',(1.,0.,0.));
#494=DIRECTION('',(0.,0.,1.));
#495=DIRECTION('',(1.,0.,0.));
#496=DIRECTION('',(0.,0.,1.));
#497=DIRECTION('',(0.,0.,-1.));
#498=DIRECTION('',(-1.,0.,0.));
#499=DIRECTION('',(0.,0.,1.));
#500=DIRECTION('',(1.,0.,0.));
#501=DIRECTION('',(0.,0.,-1.));
#502=DIRECTION('',(1.,0.,0.));
#503=DIRECTION('',(0.,0.,-1.));
#504=DIRECTION('',(0.,0.,1.));
#505=DIRECTION('',(0.,1.,0.));
#506=DIRECTION('',(0.,0.,1.));
#507=DIRECTION('',(1.,0.,0.));
#508=DIRECTION('',(0.,0.,1.));
#509=DIRECTION('',(0.,0.,-1.));
#510=DIRECTION('',(-1.,0.,0.));
#511=DIRECTION('',(0.999978605048199,-0.00654136421995533,0.));
#512=DIRECTION('',(0.00654136421995533,0.999978605048199,0.));
#513=DIRECTION('',(0.999978605048199,-0.00654136421995533,0.));
#514=DIRECTION('',(0.00654136421995533,0.999978605048199,0.));
#515=DIRECTION('',(0.00654136421995533,0.999978605048199,0.));
#516=DIRECTION('',(0.,0.,-1.));
#517=DIRECTION('',(1.,0.,0.));
#518=DIRECTION('',(1.,0.,0.));
#519=DIRECTION('',(0.,0.,-1.));
#520=DIRECTION('',(0.,0.,-1.));
#521=DIRECTION('',(-1.,0.,0.));
#522=DIRECTION('',(0.,1.,0.));
#523=DIRECTION('',(-1.,0.,0.));
#524=DIRECTION('',(0.,1.,0.));
#525=DIRECTION('',(0.,0.,-1.));
#526=DIRECTION('',(-1.,0.,0.));
#527=DIRECTION('',(-1.,0.,0.));
#528=DIRECTION('',(0.,1.,0.));
#529=DIRECTION('',(0.,1.,0.));
#530=DIRECTION('',(1.,0.,0.));
#531=DIRECTION('',(0.,0.,-1.));
#532=DIRECTION('',(0.,0.,-1.));
#533=DIRECTION('',(1.,0.,0.));
#534=DIRECTION('',(0.,0.,-1.));
#535=DIRECTION('',(0.,0.,-1.));
#536=DIRECTION('',(0.,-1.,0.));
#537=DIRECTION('',(1.,0.,0.));
#538=CARTESIAN_POINT('',(0.,0.,0.));
#539=CARTESIAN_POINT('',(-4.27854633544981,-5.23970807471225E-16,47.1861313785627));
#540=CARTESIAN_POINT('',(-0.962569162664575,-4.16803833696684,47.1861313785627));
#541=CARTESIAN_POINT('',(-0.965040782821071,-4.54587500727412,47.1861313785627));
#542=CARTESIAN_POINT('',(-0.960097542508148,-3.79020166665957,47.1861313785627));
#543=CARTESIAN_POINT('',(0.,0.,47.1861313785627));
#544=CARTESIAN_POINT('',(-4.64718014437437,-5.69115428886921E-16,47.1861313785627));
#545=CARTESIAN_POINT('',(-4.27854633544981,-5.23970807471225E-16,47.1861313785627));
#546=CARTESIAN_POINT('',(-3.90991252652526,-4.7882618605553E-16,47.1861313785627));
#547=CARTESIAN_POINT('',(0.,0.,47.1861313785627));
#548=CARTESIAN_POINT('',(-4.27854633544981,-5.23970807471225E-16,47.1861313785627));
#549=CARTESIAN_POINT('',(0.000388162476807046,0.26973709732668,47.1861313785627));
#550=CARTESIAN_POINT('',(0.951953420955279,-4.54863363864347,47.1861313785627));
#551=CARTESIAN_POINT('',(0.,0.,47.1861313785627));
#552=CARTESIAN_POINT('',(-4.27854633544981,-5.23970807471225E-16,47.1861313785627));
#553=CARTESIAN_POINT('',(0.,0.,47.1861313785627));
#554=CARTESIAN_POINT('',(0.951953420955282,-3.79225535129304,47.1861313785627));
#555=CARTESIAN_POINT('',(-0.00017778658525959,-0.165525420065042,47.1861313785627));
#556=CARTESIAN_POINT('',(0.,0.,56.5604356891471));
#557=CARTESIAN_POINT('',(0.,0.,59.5406532287598));
#558=CARTESIAN_POINT('',(0.,0.,58.2384884357452));
#559=CARTESIAN_POINT('',(1.70617774128914,0.,58.2384884357452));
#560=CARTESIAN_POINT('',(1.82198090478778,0.,58.2384884357452));
#561=CARTESIAN_POINT('',(0.,0.,58.2384884357452));
#562=CARTESIAN_POINT('',(1.93778406828642,0.,58.2384884357452));
#563=CARTESIAN_POINT('',(-1.93778406828642,-2.3731010566657E-16,58.2384884357452));
#564=CARTESIAN_POINT('',(0.,0.,58.2384884357452));
#565=CARTESIAN_POINT('',(0.,0.,57.0805656361328));
#566=CARTESIAN_POINT('',(2.47717369996695,3.03366284259653E-16,57.0805656361328));
#567=CARTESIAN_POINT('',(-1.2742498320339,-1.56050597811436E-16,59.6804615549851));
#568=CARTESIAN_POINT('',(0.,0.,59.6804615549851));
#569=CARTESIAN_POINT('',(1.27424983203272,0.,59.6804615549851));
#570=CARTESIAN_POINT('',(-2.47717369996695,0.,57.0805656361328));
#571=CARTESIAN_POINT('',(0.,0.,57.3831839156319));
#572=CARTESIAN_POINT('',(0.,0.,60.));
#573=CARTESIAN_POINT('',(-0.0209812730422554,-2.56946488732347E-18,57.3831839156319));
#574=CARTESIAN_POINT('',(-2.49416157603264,-3.0544669906447E-16,58.2384884357452));
#575=CARTESIAN_POINT('',(0.,0.,58.2384884357452));
#576=CARTESIAN_POINT('',(2.49416157603264,0.,58.2384884357452));
#577=CARTESIAN_POINT('',(0.0209812730422554,0.,57.3831839156319));
#578=CARTESIAN_POINT('',(0.,0.,44.2906213965335));
#579=CARTESIAN_POINT('',(0.951070990413427,-3.63778041116637,49.0658968687058));
#580=CARTESIAN_POINT('',(0.951070990413427,-3.66547588443481,48.7963718556966));
#581=CARTESIAN_POINT('',(0.951070990413427,-3.69081557783874,48.5265354671864));
#582=CARTESIAN_POINT('',(0.951070990413427,-3.71380405685542,48.2563883066177));
#583=CARTESIAN_POINT('',(0.951070990413427,-3.63778041116637,49.0658968687058));
#584=CARTESIAN_POINT('',(0.951070990413427,-3.71380405685541,48.2563883066177));
#585=CARTESIAN_POINT('',(0.,0.,49.0658968687058));
#586=CARTESIAN_POINT('',(-0.967111997306347,-3.63354877954557,49.0658968687068));
#587=CARTESIAN_POINT('',(-0.967111997306347,-3.63354877954556,49.0658968687068));
#588=CARTESIAN_POINT('',(-0.967111997306347,-3.66127641930373,48.7963727078268));
#589=CARTESIAN_POINT('',(-0.967111997306347,-3.68664491084809,48.5265363046069));
#590=CARTESIAN_POINT('',(-0.967111997306347,-3.70965914690121,48.2563883066177));
#591=CARTESIAN_POINT('',(-0.967111997306347,-3.70965914690121,48.2563883066177));
#592=CARTESIAN_POINT('',(0.,0.,48.2563883066177));
#593=CARTESIAN_POINT('',(44.2736392977338,5.42195706525742E-15,44.2906213965335));
#594=CARTESIAN_POINT('',(-44.2736392977338,0.,44.2906213965335));
#595=CARTESIAN_POINT('',(3.90991252652526,0.,47.1861313785627));
#596=CARTESIAN_POINT('',(0.,0.,47.1861313785627));
#597=CARTESIAN_POINT('',(-4.27854633544981,-5.23970807471225E-16,47.1861313785627));
#598=CARTESIAN_POINT('',(0.,0.,47.1861313785627));
#599=CARTESIAN_POINT('',(4.64718014437437,0.,47.1861313785627));
#600=CARTESIAN_POINT('',(0.951953420955282,-4.17044449496825,47.1861313785627));
#601=CARTESIAN_POINT('',(4.27854633544981,0.,47.1861313785627));
#602=CARTESIAN_POINT('',(0.,0.,45.1254118140982));
#603=CARTESIAN_POINT('',(35.3760934240889,4.33232195781482E-15,45.1254118140982));
#604=CARTESIAN_POINT('',(-35.3760934240889,0.,45.1254118140982));
#605=CARTESIAN_POINT('',(-2.35009811388329,-2.87804013284939E-16,52.5000420555677));
#606=CARTESIAN_POINT('',(2.35009811388329,0.,52.5000420555677));
#607=CARTESIAN_POINT('',(-0.00017778658525959,-0.165525420065042,46.1861313785627));
#608=CARTESIAN_POINT('',(0.951953420955279,-3.79225535129304,46.1861313785627));
#609=CARTESIAN_POINT('',(0.951953420955279,-3.79225535129304,46.1861313785627));
#610=CARTESIAN_POINT('',(-0.00017778658525959,-0.165525420065042,46.1861313785627));
#611=CARTESIAN_POINT('',(-0.960097542508148,-3.79020166665957,46.1861313785627));
#612=CARTESIAN_POINT('',(-0.960097542508148,-3.79020166665957,46.1861313785627));
#613=CARTESIAN_POINT('',(0.951953420955282,-4.17044449496825,46.1861313785627));
#614=CARTESIAN_POINT('',(0.951953420955283,-4.18559983372688,46.7358082532883));
#615=CARTESIAN_POINT('',(0.951953420955283,-4.18559983372688,46.6358082532883));
#616=CARTESIAN_POINT('',(0.951953420955279,-4.54863363864347,46.1861313785627));
#617=CARTESIAN_POINT('',(0.951953420955279,-4.54863363864347,46.1861313785627));
#618=CARTESIAN_POINT('',(0.951953420955282,-4.17044449496825,46.1861313785627));
#619=CARTESIAN_POINT('',(0.000388162476807046,0.26973709732668,46.1861313785627));
#620=CARTESIAN_POINT('',(-0.965040782821071,-4.54587500727412,46.1861313785627));
#621=CARTESIAN_POINT('',(-0.965040782821071,-4.54587500727412,46.1861313785627));
#622=CARTESIAN_POINT('',(0.000388162476807046,0.26973709732668,46.1861313785627));
#623=CARTESIAN_POINT('',(-0.962569162664575,-4.16803833696684,46.1861313785627));
#624=CARTESIAN_POINT('',(-0.962684041268951,-4.18559983372688,46.7358082532883));
#625=CARTESIAN_POINT('',(-0.962029890851439,-4.08559983372689,46.7358082532883));
#626=CARTESIAN_POINT('',(-0.962569162664575,-4.16803833696684,46.1861313785627));
#627=CARTESIAN_POINT('',(0.,-2.32359007218718,46.1861313785627));
#628=CARTESIAN_POINT('',(-9.02363012590458,-4.18559983372688,46.7358082532883));
#629=CARTESIAN_POINT('',(-0.00802050344645977,-4.38,49.0658968687058));
#630=CARTESIAN_POINT('',(0.951070990413427,-4.38,49.0658968687058));
#631=CARTESIAN_POINT('',(0.951070990413427,-3.,49.0658968687058));
#632=CARTESIAN_POINT('',(-0.00802050344645977,-3.,49.0658968687058));
#633=CARTESIAN_POINT('',(-0.967111997306347,-3.,49.0658968687058));
#634=CARTESIAN_POINT('',(-0.967111997306347,-4.38,49.0658968687058));
#635=CARTESIAN_POINT('',(-0.00802050344645977,-4.38,48.2563883066177));
#636=CARTESIAN_POINT('',(-0.00802050344645977,-3.,48.2563883066177));
#637=CARTESIAN_POINT('',(0.951070990413427,-3.,48.2563883066177));
#638=CARTESIAN_POINT('',(-0.967111997306347,-3.,48.2563883066177));
#639=CARTESIAN_POINT('',(0.951070990413427,-4.38,48.2563883066177));
#640=CARTESIAN_POINT('',(-0.967111997306347,-4.38,48.2563883066177));
#641=CARTESIAN_POINT('',(0.951070990413427,-4.38,48.6611425876617));
#642=CARTESIAN_POINT('',(0.951070990413427,-3.,48.6611425876617));
#643=CARTESIAN_POINT('',(-0.967111997306347,-4.38,48.6611425876617));
#644=CARTESIAN_POINT('',(-0.967111997306347,-3.,48.6611425876617));
#645=CARTESIAN_POINT('',(-0.00802050344645977,-3.,48.6611425876617));
#646=MECHANICAL_DESIGN_GEOMETRIC_PRESENTATION_REPRESENTATION('',(#356),
#647);
#647=(
GEOMETRIC_REPRESENTATION_CONTEXT(3)
GLOBAL_UNCERTAINTY_ASSIGNED_CONTEXT((#648))
GLOBAL_UNIT_ASSIGNED_CONTEXT((#651,#650,#649))
REPRESENTATION_CONTEXT('Nose flap 2','TOP_LEVEL_ASSEMBLY_PART')
);
#648=UNCERTAINTY_MEASURE_WITH_UNIT(LENGTH_MEASURE(0.002),#651,
'DISTANCE_ACCURACY_VALUE','Maximum Tolerance applied to model');
#649=(
NAMED_UNIT(*)
SI_UNIT($,.STERADIAN.)
SOLID_ANGLE_UNIT()
);
#650=(
NAMED_UNIT(*)
PLANE_ANGLE_UNIT()
SI_UNIT($,.RADIAN.)
);
#651=(
LENGTH_UNIT()
NAMED_UNIT(*)
SI_UNIT(.CENTI.,.METRE.)
);
#652=PRODUCT_DEFINITION_SHAPE('','',#653);
#653=PRODUCT_DEFINITION('','',#655,#654);
#654=PRODUCT_DEFINITION_CONTEXT('',#661,'design');
#655=PRODUCT_DEFINITION_FORMATION_WITH_SPECIFIED_SOURCE('','',#657,
 .NOT_KNOWN.);
#656=PRODUCT_RELATED_PRODUCT_CATEGORY('','',(#657));
#657=PRODUCT('Nose flap 2','Nose flap 2','Nose flap 2',(#659));
#658=PRODUCT_CATEGORY('','');
#659=PRODUCT_CONTEXT('',#661,'mechanical');
#660=APPLICATION_PROTOCOL_DEFINITION('international standard',
'ap242_managed_model_based_3d_engineering',2020,#661);
#661=APPLICATION_CONTEXT('managed model based 3d engineering');
ENDSEC;
END-ISO-10303-21;
