ISO-10303-21;
HEADER;
/* Generated by software containing ST-Developer
 * from STEP Tools, Inc. (www.steptools.com) 
 */
/* OPTION: using custom renumber hook */

FILE_DESCRIPTION(
/* description */ ('STEP AP242 Edition 2',
'CAx-IF Rec.Pracs.---Representation and Presentation of Product Manufa
cturing Information (PMI)---4.0---2014-10-13',
'CAx-IF Rec.Pracs.---3D Tessellated Geometry---0.4---2014-09-14','2;1',
'CAx-IF Rec.Pracs.---User Defined Attributes---1.5---2016-08-15'),
/* implementation_level */ '2;1');

FILE_NAME(
/* name */ 'All - Upper tube',
/* time_stamp */ '2026-09-01T00:15:22Z',
/* author */ (''),
/* organization */ (''),
/* preprocessor_version */ 'ST-DEVELOPER v20',
/* originating_system */ 'ONSHAPE BY PTC INC, 1.220',
/* authorisation */ '  ');

FILE_SCHEMA (('AP242_MANAGED_MODEL_BASED_3D_ENGINEERING_MIM_LF { 1 0 10303 442 3 1 4 }'));
ENDSEC;

DATA;
#10=SHAPE_REPRESENTATION_RELATIONSHIP('','',#469,#11);
#11=ADVANCED_BREP_SHAPE_REPRESENTATION('',(#467),#897);
#12=PLANE('',#483);
#13=PLANE('',#484);
#14=PLANE('',#488);
#15=PLANE('',#491);
#16=PLANE('',#496);
#17=PLANE('',#501);
#18=PLANE('',#506);
#19=PLANE('',#509);
#20=PLANE('',#510);
#21=PLANE('',#511);
#22=PLANE('',#512);
#23=PLANE('',#515);
#24=PLANE('',#522);
#25=PLANE('',#523);
#26=PLANE('',#525);
#27=LINE('',#732,#37);
#28=LINE('',#737,#38);
#29=LINE('',#740,#39);
#30=LINE('',#745,#40);
#31=LINE('',#752,#41);
#32=LINE('',#756,#42);
#33=LINE('',#870,#43);
#34=LINE('',#871,#44);
#35=LINE('',#873,#45);
#36=LINE('',#874,#46);
#37=VECTOR('',#536,100.);
#38=VECTOR('',#539,100.);
#39=VECTOR('',#542,100.);
#40=VECTOR('',#545,100.);
#41=VECTOR('',#552,100.);
#42=VECTOR('',#555,100.);
#43=VECTOR('',#614,100.);
#44=VECTOR('',#615,100.);
#45=VECTOR('',#618,100.);
#46=VECTOR('',#619,100.);
#47=CIRCLE('',#472,4.5);
#48=CIRCLE('',#473,4.5);
#49=CIRCLE('',#474,4.5);
#50=CIRCLE('',#475,4.5);
#51=CIRCLE('',#476,4.5);
#52=CIRCLE('',#477,4.5);
#53=CIRCLE('',#479,4.7);
#54=CIRCLE('',#480,4.7);
#55=CIRCLE('',#481,4.7);
#56=CIRCLE('',#482,4.7);
#57=CIRCLE('',#485,4.6);
#58=CIRCLE('',#487,4.6);
#59=CIRCLE('',#490,0.383223122328431);
#60=CIRCLE('',#492,0.18);
#61=CIRCLE('',#495,0.383223122328431);
#62=CIRCLE('',#497,0.18);
#63=CIRCLE('',#500,0.319470748090426);
#64=CIRCLE('',#502,0.18);
#65=CIRCLE('',#505,0.319470748090426);
#66=CIRCLE('',#507,0.18);
#67=CIRCLE('',#514,0.45);
#68=CIRCLE('',#516,0.18);
#69=CIRCLE('',#518,0.18);
#70=CIRCLE('',#521,0.45);
#71=CIRCLE('',#524,3.96595570440111);
#72=CIRCLE('',#526,3.96595570440111);
#73=ORIENTED_EDGE('',*,*,#169,.F.);
#74=ORIENTED_EDGE('',*,*,#170,.F.);
#75=ORIENTED_EDGE('',*,*,#171,.F.);
#76=ORIENTED_EDGE('',*,*,#172,.F.);
#77=ORIENTED_EDGE('',*,*,#173,.F.);
#78=ORIENTED_EDGE('',*,*,#174,.T.);
#79=ORIENTED_EDGE('',*,*,#175,.F.);
#80=ORIENTED_EDGE('',*,*,#176,.F.);
#81=ORIENTED_EDGE('',*,*,#177,.F.);
#82=ORIENTED_EDGE('',*,*,#178,.T.);
#83=ORIENTED_EDGE('',*,*,#179,.F.);
#84=ORIENTED_EDGE('',*,*,#180,.F.);
#85=ORIENTED_EDGE('',*,*,#181,.F.);
#86=ORIENTED_EDGE('',*,*,#182,.T.);
#87=ORIENTED_EDGE('',*,*,#183,.F.);
#88=ORIENTED_EDGE('',*,*,#184,.F.);
#89=ORIENTED_EDGE('',*,*,#185,.F.);
#90=ORIENTED_EDGE('',*,*,#186,.T.);
#91=ORIENTED_EDGE('',*,*,#187,.T.);
#92=ORIENTED_EDGE('',*,*,#188,.T.);
#93=ORIENTED_EDGE('',*,*,#189,.F.);
#94=ORIENTED_EDGE('',*,*,#190,.T.);
#95=ORIENTED_EDGE('',*,*,#191,.F.);
#96=ORIENTED_EDGE('',*,*,#192,.F.);
#97=ORIENTED_EDGE('',*,*,#193,.T.);
#98=ORIENTED_EDGE('',*,*,#194,.F.);
#99=ORIENTED_EDGE('',*,*,#195,.T.);
#100=ORIENTED_EDGE('',*,*,#196,.F.);
#101=ORIENTED_EDGE('',*,*,#191,.T.);
#102=ORIENTED_EDGE('',*,*,#174,.F.);
#103=ORIENTED_EDGE('',*,*,#197,.F.);
#104=ORIENTED_EDGE('',*,*,#190,.F.);
#105=ORIENTED_EDGE('',*,*,#197,.T.);
#106=ORIENTED_EDGE('',*,*,#198,.T.);
#107=ORIENTED_EDGE('',*,*,#198,.F.);
#108=ORIENTED_EDGE('',*,*,#173,.T.);
#109=ORIENTED_EDGE('',*,*,#199,.T.);
#110=ORIENTED_EDGE('',*,*,#189,.T.);
#111=ORIENTED_EDGE('',*,*,#200,.F.);
#112=ORIENTED_EDGE('',*,*,#199,.F.);
#113=ORIENTED_EDGE('',*,*,#172,.T.);
#114=ORIENTED_EDGE('',*,*,#200,.T.);
#115=ORIENTED_EDGE('',*,*,#201,.F.);
#116=ORIENTED_EDGE('',*,*,#192,.T.);
#117=ORIENTED_EDGE('',*,*,#202,.T.);
#118=ORIENTED_EDGE('',*,*,#201,.T.);
#119=ORIENTED_EDGE('',*,*,#175,.T.);
#120=ORIENTED_EDGE('',*,*,#202,.F.);
#121=ORIENTED_EDGE('',*,*,#203,.F.);
#122=ORIENTED_EDGE('',*,*,#193,.F.);
#123=ORIENTED_EDGE('',*,*,#204,.F.);
#124=ORIENTED_EDGE('',*,*,#203,.T.);
#125=ORIENTED_EDGE('',*,*,#171,.T.);
#126=ORIENTED_EDGE('',*,*,#204,.T.);
#127=ORIENTED_EDGE('',*,*,#205,.T.);
#128=ORIENTED_EDGE('',*,*,#194,.T.);
#129=ORIENTED_EDGE('',*,*,#206,.T.);
#130=ORIENTED_EDGE('',*,*,#205,.F.);
#131=ORIENTED_EDGE('',*,*,#176,.T.);
#132=ORIENTED_EDGE('',*,*,#206,.F.);
#133=ORIENTED_EDGE('',*,*,#177,.T.);
#134=ORIENTED_EDGE('',*,*,#207,.F.);
#135=ORIENTED_EDGE('',*,*,#186,.F.);
#136=ORIENTED_EDGE('',*,*,#208,.T.);
#137=ORIENTED_EDGE('',*,*,#179,.T.);
#138=ORIENTED_EDGE('',*,*,#209,.T.);
#139=ORIENTED_EDGE('',*,*,#188,.F.);
#140=ORIENTED_EDGE('',*,*,#210,.F.);
#141=ORIENTED_EDGE('',*,*,#208,.F.);
#142=ORIENTED_EDGE('',*,*,#185,.T.);
#143=ORIENTED_EDGE('',*,*,#209,.F.);
#144=ORIENTED_EDGE('',*,*,#178,.F.);
#145=ORIENTED_EDGE('',*,*,#180,.T.);
#146=ORIENTED_EDGE('',*,*,#210,.T.);
#147=ORIENTED_EDGE('',*,*,#187,.F.);
#148=ORIENTED_EDGE('',*,*,#207,.T.);
#149=ORIENTED_EDGE('',*,*,#211,.F.);
#150=ORIENTED_EDGE('',*,*,#195,.F.);
#151=ORIENTED_EDGE('',*,*,#212,.F.);
#152=ORIENTED_EDGE('',*,*,#211,.T.);
#153=ORIENTED_EDGE('',*,*,#213,.T.);
#154=ORIENTED_EDGE('',*,*,#169,.T.);
#155=ORIENTED_EDGE('',*,*,#170,.T.);
#156=ORIENTED_EDGE('',*,*,#212,.T.);
#157=ORIENTED_EDGE('',*,*,#214,.T.);
#158=ORIENTED_EDGE('',*,*,#196,.T.);
#159=ORIENTED_EDGE('',*,*,#214,.F.);
#160=ORIENTED_EDGE('',*,*,#213,.F.);
#161=ORIENTED_EDGE('',*,*,#215,.F.);
#162=ORIENTED_EDGE('',*,*,#182,.F.);
#163=ORIENTED_EDGE('',*,*,#184,.T.);
#164=ORIENTED_EDGE('',*,*,#216,.F.);
#165=ORIENTED_EDGE('',*,*,#181,.T.);
#166=ORIENTED_EDGE('',*,*,#216,.T.);
#167=ORIENTED_EDGE('',*,*,#183,.T.);
#168=ORIENTED_EDGE('',*,*,#215,.T.);
#169=EDGE_CURVE('',#217,#217,#259,.T.);
#170=EDGE_CURVE('',#218,#218,#260,.T.);
#171=EDGE_CURVE('',#219,#219,#261,.T.);
#172=EDGE_CURVE('',#220,#220,#262,.T.);
#173=EDGE_CURVE('',#221,#221,#47,.T.);
#174=EDGE_CURVE('',#222,#222,#48,.T.);
#175=EDGE_CURVE('',#223,#223,#263,.T.);
#176=EDGE_CURVE('',#224,#224,#264,.T.);
#177=EDGE_CURVE('',#225,#226,#27,.T.);
#178=EDGE_CURVE('',#225,#227,#49,.T.);
#179=EDGE_CURVE('',#228,#227,#28,.F.);
#180=EDGE_CURVE('',#226,#228,#50,.T.);
#181=EDGE_CURVE('',#229,#230,#29,.T.);
#182=EDGE_CURVE('',#229,#231,#51,.T.);
#183=EDGE_CURVE('',#232,#231,#30,.F.);
#184=EDGE_CURVE('',#230,#232,#52,.T.);
#185=EDGE_CURVE('',#233,#234,#53,.T.);
#186=EDGE_CURVE('',#233,#235,#31,.T.);
#187=EDGE_CURVE('',#235,#236,#54,.T.);
#188=EDGE_CURVE('',#236,#234,#32,.F.);
#189=EDGE_CURVE('',#237,#237,#265,.T.);
#190=EDGE_CURVE('',#238,#238,#55,.T.);
#191=EDGE_CURVE('',#239,#239,#56,.T.);
#192=EDGE_CURVE('',#240,#240,#266,.T.);
#193=EDGE_CURVE('',#241,#241,#267,.T.);
#194=EDGE_CURVE('',#242,#242,#268,.T.);
#195=EDGE_CURVE('',#243,#243,#269,.T.);
#196=EDGE_CURVE('',#244,#244,#270,.T.);
#197=EDGE_CURVE('',#245,#245,#57,.F.);
#198=EDGE_CURVE('',#246,#246,#58,.T.);
#199=EDGE_CURVE('',#247,#247,#59,.T.);
#200=EDGE_CURVE('',#248,#248,#60,.T.);
#201=EDGE_CURVE('',#249,#249,#61,.T.);
#202=EDGE_CURVE('',#250,#250,#62,.T.);
#203=EDGE_CURVE('',#251,#251,#63,.T.);
#204=EDGE_CURVE('',#252,#252,#64,.T.);
#205=EDGE_CURVE('',#253,#253,#65,.T.);
#206=EDGE_CURVE('',#254,#254,#66,.T.);
#207=EDGE_CURVE('',#235,#226,#33,.T.);
#208=EDGE_CURVE('',#233,#225,#34,.T.);
#209=EDGE_CURVE('',#227,#234,#35,.T.);
#210=EDGE_CURVE('',#228,#236,#36,.T.);
#211=EDGE_CURVE('',#255,#255,#67,.T.);
#212=EDGE_CURVE('',#256,#256,#68,.T.);
#213=EDGE_CURVE('',#257,#257,#69,.F.);
#214=EDGE_CURVE('',#258,#258,#70,.T.);
#215=EDGE_CURVE('',#231,#229,#71,.F.);
#216=EDGE_CURVE('',#230,#232,#72,.T.);
#217=VERTEX_POINT('',#667);
#218=VERTEX_POINT('',#679);
#219=VERTEX_POINT('',#691);
#220=VERTEX_POINT('',#703);
#221=VERTEX_POINT('',#705);
#222=VERTEX_POINT('',#707);
#223=VERTEX_POINT('',#719);
#224=VERTEX_POINT('',#731);
#225=VERTEX_POINT('',#733);
#226=VERTEX_POINT('',#734);
#227=VERTEX_POINT('',#736);
#228=VERTEX_POINT('',#738);
#229=VERTEX_POINT('',#741);
#230=VERTEX_POINT('',#742);
#231=VERTEX_POINT('',#744);
#232=VERTEX_POINT('',#746);
#233=VERTEX_POINT('',#750);
#234=VERTEX_POINT('',#751);
#235=VERTEX_POINT('',#753);
#236=VERTEX_POINT('',#755);
#237=VERTEX_POINT('',#768);
#238=VERTEX_POINT('',#770);
#239=VERTEX_POINT('',#772);
#240=VERTEX_POINT('',#784);
#241=VERTEX_POINT('',#796);
#242=VERTEX_POINT('',#808);
#243=VERTEX_POINT('',#820);
#244=VERTEX_POINT('',#832);
#245=VERTEX_POINT('',#836);
#246=VERTEX_POINT('',#839);
#247=VERTEX_POINT('',#843);
#248=VERTEX_POINT('',#846);
#249=VERTEX_POINT('',#850);
#250=VERTEX_POINT('',#853);
#251=VERTEX_POINT('',#857);
#252=VERTEX_POINT('',#860);
#253=VERTEX_POINT('',#864);
#254=VERTEX_POINT('',#867);
#255=VERTEX_POINT('',#879);
#256=VERTEX_POINT('',#882);
#257=VERTEX_POINT('',#885);
#258=VERTEX_POINT('',#889);
#259=B_SPLINE_CURVE_WITH_KNOTS('',3,(#656,#657,#658,#659,#660,#661,#662,
#663,#664,#665,#666),.UNSPECIFIED.,.T.,.F.,(1,1,1,1,1,1,1,1,1,1,1,1,1,1,
1),(-0.0042214566503635,-0.00281430443357566,-0.00140715221678783,2.32413789896334E-18,
0.00140715221678783,0.00281430443357567,0.0042214566503635,0.00562860886715133,
0.00703576108393916,0.008442913300727,0.00985006551751483,0.0112572177343027,
0.0126643699510905,0.0140715221678783,0.0154786743846662),.UNSPECIFIED.);
#260=B_SPLINE_CURVE_WITH_KNOTS('',3,(#668,#669,#670,#671,#672,#673,#674,
#675,#676,#677,#678),.UNSPECIFIED.,.T.,.F.,(1,1,1,1,1,1,1,1,1,1,1,1,1,1,
1),(-0.00422138080157978,-0.00281425386771985,-0.00140712693385993,0.,0.00140712693385993,
0.00281425386771985,0.00422138080157978,0.0056285077354397,0.00703563466929963,
0.00844276160315955,0.00984988853701948,0.0112570154708794,0.0126641424047393,
0.0140712693385993,0.0154783962724592),.UNSPECIFIED.);
#261=B_SPLINE_CURVE_WITH_KNOTS('',3,(#680,#681,#682,#683,#684,#685,#686,
#687,#688,#689,#690),.UNSPECIFIED.,.T.,.F.,(1,1,1,1,1,1,1,1,1,1,1,1,1,1,
1),(-0.00422065824801944,-0.00281377216534629,-0.00140688608267314,4.24397815753148E-18,
0.00140688608267315,0.0028137721653463,0.00422065824801945,0.0056275443306926,
0.00703443041336575,0.00844131649603889,0.00984820257871204,0.0112550886613852,
0.0126619747440583,0.0140688608267315,0.0154757469094046),.UNSPECIFIED.);
#262=B_SPLINE_CURVE_WITH_KNOTS('',3,(#692,#693,#694,#695,#696,#697,#698,
#699,#700,#701,#702),.UNSPECIFIED.,.T.,.F.,(1,1,1,1,1,1,1,1,1,1,1,1,1,1,
1),(-0.00422065824801885,-0.0028137721653459,-0.00140688608267295,4.19953148656676E-18,
0.00140688608267296,0.00281377216534591,0.00422065824801886,0.00562754433069181,
0.00703443041336477,0.00844131649603772,0.00984820257871067,0.0112550886613836,
0.0126619747440566,0.0140688608267295,0.0154757469094025),.UNSPECIFIED.);
#263=B_SPLINE_CURVE_WITH_KNOTS('',3,(#708,#709,#710,#711,#712,#713,#714,
#715,#716,#717,#718),.UNSPECIFIED.,.T.,.F.,(1,1,1,1,1,1,1,1,1,1,1,1,1,1,
1),(-0.00422065824801885,-0.0028137721653459,-0.00140688608267295,4.19953148656676E-18,
0.00140688608267296,0.00281377216534591,0.00422065824801886,0.00562754433069181,
0.00703443041336477,0.00844131649603772,0.00984820257871067,0.0112550886613836,
0.0126619747440566,0.0140688608267295,0.0154757469094025),.UNSPECIFIED.);
#264=B_SPLINE_CURVE_WITH_KNOTS('',3,(#720,#721,#722,#723,#724,#725,#726,
#727,#728,#729,#730),.UNSPECIFIED.,.T.,.F.,(1,1,1,1,1,1,1,1,1,1,1,1,1,1,
1),(-0.00422065824801957,-0.00281377216534637,-0.00140688608267318,6.45871685331629E-18,
0.0014068860826732,0.00281377216534639,0.00422065824801958,0.00562754433069277,
0.00703443041336596,0.00844131649603915,0.00984820257871235,0.0112550886613855,
0.0126619747440587,0.0140688608267319,0.0154757469094051),.UNSPECIFIED.);
#265=B_SPLINE_CURVE_WITH_KNOTS('',3,(#757,#758,#759,#760,#761,#762,#763,
#764,#765,#766,#767),.UNSPECIFIED.,.T.,.F.,(1,1,1,1,1,1,1,1,1,1,1,1,1,1,
1),(-0.00898866491348834,-0.00599244327565889,-0.00299622163782944,7.5158268071107E-18,
0.00299622163782946,0.0059924432756589,0.00898866491348835,0.0119848865513178,
0.0149811081891472,0.0179773298269767,0.0209735514648061,0.0239697731026356,
0.026965994740465,0.0299622163782945,0.0329584380161239),.UNSPECIFIED.);
#266=B_SPLINE_CURVE_WITH_KNOTS('',3,(#773,#774,#775,#776,#777,#778,#779,
#780,#781,#782,#783),.UNSPECIFIED.,.T.,.F.,(1,1,1,1,1,1,1,1,1,1,1,1,1,1,
1),(-0.00898866491348834,-0.00599244327565889,-0.00299622163782944,7.5158268071107E-18,
0.00299622163782946,0.0059924432756589,0.00898866491348835,0.0119848865513178,
0.0149811081891472,0.0179773298269767,0.0209735514648061,0.0239697731026356,
0.026965994740465,0.0299622163782945,0.0329584380161239),.UNSPECIFIED.);
#267=B_SPLINE_CURVE_WITH_KNOTS('',3,(#785,#786,#787,#788,#789,#790,#791,
#792,#793,#794,#795),.UNSPECIFIED.,.T.,.F.,(1,1,1,1,1,1,1,1,1,1,1,1,1,1,
1),(-0.00749238285457673,-0.00499492190305115,-0.00249746095152557,3.85128335035526E-18,
0.00249746095152558,0.00499492190305116,0.00749238285457674,0.00998984380610232,
0.0124873047576279,0.0149847657091535,0.0174822266606791,0.0199796876122046,
0.0224771485637302,0.0249746095152558,0.0274720704667814),.UNSPECIFIED.);
#268=B_SPLINE_CURVE_WITH_KNOTS('',3,(#797,#798,#799,#800,#801,#802,#803,
#804,#805,#806,#807),.UNSPECIFIED.,.T.,.F.,(1,1,1,1,1,1,1,1,1,1,1,1,1,1,
1),(-0.00749238285457673,-0.00499492190305115,-0.00249746095152557,3.85128335035526E-18,
0.00249746095152558,0.00499492190305116,0.00749238285457674,0.00998984380610232,
0.0124873047576279,0.0149847657091535,0.0174822266606791,0.0199796876122046,
0.0224771485637302,0.0249746095152558,0.0274720704667814),.UNSPECIFIED.);
#269=B_SPLINE_CURVE_WITH_KNOTS('',3,(#809,#810,#811,#812,#813,#814,#815,
#816,#817,#818,#819),.UNSPECIFIED.,.T.,.F.,(1,1,1,1,1,1,1,1,1,1,1,1,1,1,
1),(-0.0105581467942531,-0.00703876452950208,-0.00351938226475104,3.68628738645072E-18,
0.00351938226475104,0.00703876452950208,0.0105581467942531,0.0140775290590042,
0.0175969113237552,0.0211162935885062,0.0246356758532573,0.0281550581180083,
0.0316744403827594,0.0351938226475104,0.0387132049122614),.UNSPECIFIED.);
#270=B_SPLINE_CURVE_WITH_KNOTS('',3,(#821,#822,#823,#824,#825,#826,#827,
#828,#829,#830,#831),.UNSPECIFIED.,.T.,.F.,(1,1,1,1,1,1,1,1,1,1,1,1,1,1,
1),(-0.0105583606217692,-0.00703890708117945,-0.00351945354058972,2.43838337049251E-18,
0.00351945354058973,0.00703890708117945,0.0105583606217692,0.0140778141623589,
0.0175972677029486,0.0211167212435384,0.0246361747841281,0.0281556283247178,
0.0316750818653075,0.0351945354058973,0.038713988946487),.UNSPECIFIED.);
#271=EDGE_LOOP('',(#73));
#272=EDGE_LOOP('',(#74));
#273=EDGE_LOOP('',(#75));
#274=EDGE_LOOP('',(#76));
#275=EDGE_LOOP('',(#77));
#276=EDGE_LOOP('',(#78));
#277=EDGE_LOOP('',(#79));
#278=EDGE_LOOP('',(#80));
#279=EDGE_LOOP('',(#81,#82,#83,#84));
#280=EDGE_LOOP('',(#85,#86,#87,#88));
#281=EDGE_LOOP('',(#89,#90,#91,#92));
#282=EDGE_LOOP('',(#93));
#283=EDGE_LOOP('',(#94));
#284=EDGE_LOOP('',(#95));
#285=EDGE_LOOP('',(#96));
#286=EDGE_LOOP('',(#97));
#287=EDGE_LOOP('',(#98));
#288=EDGE_LOOP('',(#99));
#289=EDGE_LOOP('',(#100));
#290=EDGE_LOOP('',(#101));
#291=EDGE_LOOP('',(#102));
#292=EDGE_LOOP('',(#103));
#293=EDGE_LOOP('',(#104));
#294=EDGE_LOOP('',(#105));
#295=EDGE_LOOP('',(#106));
#296=EDGE_LOOP('',(#107));
#297=EDGE_LOOP('',(#108));
#298=EDGE_LOOP('',(#109));
#299=EDGE_LOOP('',(#110));
#300=EDGE_LOOP('',(#111));
#301=EDGE_LOOP('',(#112));
#302=EDGE_LOOP('',(#113));
#303=EDGE_LOOP('',(#114));
#304=EDGE_LOOP('',(#115));
#305=EDGE_LOOP('',(#116));
#306=EDGE_LOOP('',(#117));
#307=EDGE_LOOP('',(#118));
#308=EDGE_LOOP('',(#119));
#309=EDGE_LOOP('',(#120));
#310=EDGE_LOOP('',(#121));
#311=EDGE_LOOP('',(#122));
#312=EDGE_LOOP('',(#123));
#313=EDGE_LOOP('',(#124));
#314=EDGE_LOOP('',(#125));
#315=EDGE_LOOP('',(#126));
#316=EDGE_LOOP('',(#127));
#317=EDGE_LOOP('',(#128));
#318=EDGE_LOOP('',(#129));
#319=EDGE_LOOP('',(#130));
#320=EDGE_LOOP('',(#131));
#321=EDGE_LOOP('',(#132));
#322=EDGE_LOOP('',(#133,#134,#135,#136));
#323=EDGE_LOOP('',(#137,#138,#139,#140));
#324=EDGE_LOOP('',(#141,#142,#143,#144));
#325=EDGE_LOOP('',(#145,#146,#147,#148));
#326=EDGE_LOOP('',(#149));
#327=EDGE_LOOP('',(#150));
#328=EDGE_LOOP('',(#151));
#329=EDGE_LOOP('',(#152));
#330=EDGE_LOOP('',(#153));
#331=EDGE_LOOP('',(#154));
#332=EDGE_LOOP('',(#155));
#333=EDGE_LOOP('',(#156));
#334=EDGE_LOOP('',(#157));
#335=EDGE_LOOP('',(#158));
#336=EDGE_LOOP('',(#159));
#337=EDGE_LOOP('',(#160));
#338=EDGE_LOOP('',(#161,#162));
#339=EDGE_LOOP('',(#163,#164));
#340=EDGE_LOOP('',(#165,#166,#167,#168));
#341=FACE_BOUND('',#271,.T.);
#342=FACE_BOUND('',#272,.T.);
#343=FACE_BOUND('',#273,.T.);
#344=FACE_BOUND('',#274,.T.);
#345=FACE_BOUND('',#275,.T.);
#346=FACE_BOUND('',#276,.T.);
#347=FACE_BOUND('',#277,.T.);
#348=FACE_BOUND('',#278,.T.);
#349=FACE_BOUND('',#279,.T.);
#350=FACE_BOUND('',#280,.T.);
#351=FACE_BOUND('',#281,.T.);
#352=FACE_BOUND('',#282,.T.);
#353=FACE_BOUND('',#283,.T.);
#354=FACE_BOUND('',#284,.T.);
#355=FACE_BOUND('',#285,.T.);
#356=FACE_BOUND('',#286,.T.);
#357=FACE_BOUND('',#287,.T.);
#358=FACE_BOUND('',#288,.T.);
#359=FACE_BOUND('',#289,.T.);
#360=FACE_BOUND('',#290,.T.);
#361=FACE_BOUND('',#291,.T.);
#362=FACE_BOUND('',#292,.T.);
#363=FACE_BOUND('',#293,.T.);
#364=FACE_BOUND('',#294,.T.);
#365=FACE_BOUND('',#295,.T.);
#366=FACE_BOUND('',#296,.T.);
#367=FACE_BOUND('',#297,.T.);
#368=FACE_BOUND('',#298,.T.);
#369=FACE_BOUND('',#299,.T.);
#370=FACE_BOUND('',#300,.T.);
#371=FACE_BOUND('',#301,.T.);
#372=FACE_BOUND('',#302,.T.);
#373=FACE_BOUND('',#303,.T.);
#374=FACE_BOUND('',#304,.T.);
#375=FACE_BOUND('',#305,.T.);
#376=FACE_BOUND('',#306,.T.);
#377=FACE_BOUND('',#307,.T.);
#378=FACE_BOUND('',#308,.T.);
#379=FACE_BOUND('',#309,.T.);
#380=FACE_BOUND('',#310,.T.);
#381=FACE_BOUND('',#311,.T.);
#382=FACE_BOUND('',#312,.T.);
#383=FACE_BOUND('',#313,.T.);
#384=FACE_BOUND('',#314,.T.);
#385=FACE_BOUND('',#315,.T.);
#386=FACE_BOUND('',#316,.T.);
#387=FACE_BOUND('',#317,.T.);
#388=FACE_BOUND('',#318,.T.);
#389=FACE_BOUND('',#319,.T.);
#390=FACE_BOUND('',#320,.T.);
#391=FACE_BOUND('',#321,.T.);
#392=FACE_BOUND('',#322,.T.);
#393=FACE_BOUND('',#323,.T.);
#394=FACE_BOUND('',#324,.T.);
#395=FACE_BOUND('',#325,.T.);
#396=FACE_BOUND('',#326,.T.);
#397=FACE_BOUND('',#327,.T.);
#398=FACE_BOUND('',#328,.T.);
#399=FACE_BOUND('',#329,.T.);
#400=FACE_BOUND('',#330,.T.);
#401=FACE_BOUND('',#331,.T.);
#402=FACE_BOUND('',#332,.T.);
#403=FACE_BOUND('',#333,.T.);
#404=FACE_BOUND('',#334,.T.);
#405=FACE_BOUND('',#335,.T.);
#406=FACE_BOUND('',#336,.T.);
#407=FACE_BOUND('',#337,.T.);
#408=FACE_BOUND('',#338,.T.);
#409=FACE_BOUND('',#339,.T.);
#410=FACE_BOUND('',#340,.T.);
#411=CYLINDRICAL_SURFACE('',#471,4.5);
#412=CYLINDRICAL_SURFACE('',#478,4.7);
#413=CYLINDRICAL_SURFACE('',#486,4.6);
#414=CYLINDRICAL_SURFACE('',#489,0.383223122328431);
#415=CYLINDRICAL_SURFACE('',#493,0.18);
#416=CYLINDRICAL_SURFACE('',#494,0.383223122328431);
#417=CYLINDRICAL_SURFACE('',#498,0.18);
#418=CYLINDRICAL_SURFACE('',#499,0.319470748090426);
#419=CYLINDRICAL_SURFACE('',#503,0.18);
#420=CYLINDRICAL_SURFACE('',#504,0.319470748090426);
#421=CYLINDRICAL_SURFACE('',#508,0.18);
#422=CYLINDRICAL_SURFACE('',#513,0.45);
#423=CYLINDRICAL_SURFACE('',#517,0.18);
#424=CYLINDRICAL_SURFACE('',#519,0.18);
#425=CYLINDRICAL_SURFACE('',#520,0.45);
#426=CYLINDRICAL_SURFACE('',#527,3.96595570440111);
#427=ADVANCED_FACE('',(#341,#342,#343,#344,#345,#346,#347,#348,#349,#350),
#411,.F.);
#428=ADVANCED_FACE('',(#351,#352,#353,#354,#355,#356,#357,#358,#359),#412,
 .T.);
#429=ADVANCED_FACE('',(#360,#361),#12,.T.);
#430=ADVANCED_FACE('',(#362,#363),#13,.F.);
#431=ADVANCED_FACE('',(#364,#365),#413,.F.);
#432=ADVANCED_FACE('',(#366,#367),#14,.F.);
#433=ADVANCED_FACE('',(#368,#369),#414,.F.);
#434=ADVANCED_FACE('',(#370,#371),#15,.F.);
#435=ADVANCED_FACE('',(#372,#373),#415,.F.);
#436=ADVANCED_FACE('',(#374,#375),#416,.F.);
#437=ADVANCED_FACE('',(#376,#377),#16,.F.);
#438=ADVANCED_FACE('',(#378,#379),#417,.F.);
#439=ADVANCED_FACE('',(#380,#381),#418,.F.);
#440=ADVANCED_FACE('',(#382,#383),#17,.T.);
#441=ADVANCED_FACE('',(#384,#385),#419,.F.);
#442=ADVANCED_FACE('',(#386,#387),#420,.F.);
#443=ADVANCED_FACE('',(#388,#389),#18,.T.);
#444=ADVANCED_FACE('',(#390,#391),#421,.F.);
#445=ADVANCED_FACE('',(#392),#19,.F.);
#446=ADVANCED_FACE('',(#393),#20,.F.);
#447=ADVANCED_FACE('',(#394),#21,.T.);
#448=ADVANCED_FACE('',(#395),#22,.F.);
#449=ADVANCED_FACE('',(#396,#397),#422,.F.);
#450=ADVANCED_FACE('',(#398,#399),#23,.T.);
#451=ADVANCED_FACE('',(#400,#401),#423,.F.);
#452=ADVANCED_FACE('',(#402,#403),#424,.F.);
#453=ADVANCED_FACE('',(#404,#405),#425,.F.);
#454=ADVANCED_FACE('',(#406,#407),#24,.F.);
#455=ADVANCED_FACE('',(#408),#25,.T.);
#456=ADVANCED_FACE('',(#409),#26,.F.);
#457=ADVANCED_FACE('',(#410),#426,.F.);
#458=CLOSED_SHELL('',(#427,#428,#429,#430,#431,#432,#433,#434,#435,#436,
#437,#438,#439,#440,#441,#442,#443,#444,#445,#446,#447,#448,#449,#450,#451,
#452,#453,#454,#455,#456,#457));
#459=STYLED_ITEM('',(#460),#467);
#460=PRESENTATION_STYLE_ASSIGNMENT((#461));
#461=SURFACE_STYLE_USAGE(.BOTH.,#462);
#462=SURFACE_SIDE_STYLE('',(#463));
#463=SURFACE_STYLE_FILL_AREA(#464);
#464=FILL_AREA_STYLE('',(#465));
#465=FILL_AREA_STYLE_COLOUR('',#466);
#466=COLOUR_RGB('',0.768627450980392,0.886274509803922,0.952941176470588);
#467=MANIFOLD_SOLID_BREP('Upper tube',#458);
#468=SHAPE_DEFINITION_REPRESENTATION(#902,#469);
#469=SHAPE_REPRESENTATION('Upper tube',(#470),#897);
#470=AXIS2_PLACEMENT_3D('',#654,#528,#529);
#471=AXIS2_PLACEMENT_3D('',#655,#530,#531);
#472=AXIS2_PLACEMENT_3D('',#704,#532,#533);
#473=AXIS2_PLACEMENT_3D('',#706,#534,#535);
#474=AXIS2_PLACEMENT_3D('',#735,#537,#538);
#475=AXIS2_PLACEMENT_3D('',#739,#540,#541);
#476=AXIS2_PLACEMENT_3D('',#743,#543,#544);
#477=AXIS2_PLACEMENT_3D('',#747,#546,#547);
#478=AXIS2_PLACEMENT_3D('',#748,#548,#549);
#479=AXIS2_PLACEMENT_3D('',#749,#550,#551);
#480=AXIS2_PLACEMENT_3D('',#754,#553,#554);
#481=AXIS2_PLACEMENT_3D('',#769,#556,#557);
#482=AXIS2_PLACEMENT_3D('',#771,#558,#559);
#483=AXIS2_PLACEMENT_3D('',#833,#560,#561);
#484=AXIS2_PLACEMENT_3D('',#834,#562,#563);
#485=AXIS2_PLACEMENT_3D('',#835,#564,#565);
#486=AXIS2_PLACEMENT_3D('',#837,#566,#567);
#487=AXIS2_PLACEMENT_3D('',#838,#568,#569);
#488=AXIS2_PLACEMENT_3D('',#840,#570,#571);
#489=AXIS2_PLACEMENT_3D('',#841,#572,#573);
#490=AXIS2_PLACEMENT_3D('',#842,#574,#575);
#491=AXIS2_PLACEMENT_3D('',#844,#576,#577);
#492=AXIS2_PLACEMENT_3D('',#845,#578,#579);
#493=AXIS2_PLACEMENT_3D('',#847,#580,#581);
#494=AXIS2_PLACEMENT_3D('',#848,#582,#583);
#495=AXIS2_PLACEMENT_3D('',#849,#584,#585);
#496=AXIS2_PLACEMENT_3D('',#851,#586,#587);
#497=AXIS2_PLACEMENT_3D('',#852,#588,#589);
#498=AXIS2_PLACEMENT_3D('',#854,#590,#591);
#499=AXIS2_PLACEMENT_3D('',#855,#592,#593);
#500=AXIS2_PLACEMENT_3D('',#856,#594,#595);
#501=AXIS2_PLACEMENT_3D('',#858,#596,#597);
#502=AXIS2_PLACEMENT_3D('',#859,#598,#599);
#503=AXIS2_PLACEMENT_3D('',#861,#600,#601);
#504=AXIS2_PLACEMENT_3D('',#862,#602,#603);
#505=AXIS2_PLACEMENT_3D('',#863,#604,#605);
#506=AXIS2_PLACEMENT_3D('',#865,#606,#607);
#507=AXIS2_PLACEMENT_3D('',#866,#608,#609);
#508=AXIS2_PLACEMENT_3D('',#868,#610,#611);
#509=AXIS2_PLACEMENT_3D('',#869,#612,#613);
#510=AXIS2_PLACEMENT_3D('',#872,#616,#617);
#511=AXIS2_PLACEMENT_3D('',#875,#620,#621);
#512=AXIS2_PLACEMENT_3D('',#876,#622,#623);
#513=AXIS2_PLACEMENT_3D('',#877,#624,#625);
#514=AXIS2_PLACEMENT_3D('',#878,#626,#627);
#515=AXIS2_PLACEMENT_3D('',#880,#628,#629);
#516=AXIS2_PLACEMENT_3D('',#881,#630,#631);
#517=AXIS2_PLACEMENT_3D('',#883,#632,#633);
#518=AXIS2_PLACEMENT_3D('',#884,#634,#635);
#519=AXIS2_PLACEMENT_3D('',#886,#636,#637);
#520=AXIS2_PLACEMENT_3D('',#887,#638,#639);
#521=AXIS2_PLACEMENT_3D('',#888,#640,#641);
#522=AXIS2_PLACEMENT_3D('',#890,#642,#643);
#523=AXIS2_PLACEMENT_3D('',#891,#644,#645);
#524=AXIS2_PLACEMENT_3D('',#892,#646,#647);
#525=AXIS2_PLACEMENT_3D('',#893,#648,#649);
#526=AXIS2_PLACEMENT_3D('',#894,#650,#651);
#527=AXIS2_PLACEMENT_3D('',#895,#652,#653);
#528=DIRECTION('',(0.,0.,1.));
#529=DIRECTION('',(1.,0.,0.));
#530=DIRECTION('',(0.,0.,-1.));
#531=DIRECTION('',(-1.,0.,0.));
#532=DIRECTION('',(0.,0.,1.));
#533=DIRECTION('',(1.,0.,0.));
#534=DIRECTION('',(0.,0.,1.));
#535=DIRECTION('',(1.,0.,0.));
#536=DIRECTION('',(0.,0.,-1.));
#537=DIRECTION('',(0.,0.,-1.));
#538=DIRECTION('',(-1.,0.,0.));
#539=DIRECTION('',(0.,0.,-1.));
#540=DIRECTION('',(0.,0.,-1.));
#541=DIRECTION('',(-1.,0.,0.));
#542=DIRECTION('',(0.,0.,1.));
#543=DIRECTION('',(0.,0.,1.));
#544=DIRECTION('',(1.,0.,0.));
#545=DIRECTION('',(0.,0.,1.));
#546=DIRECTION('',(0.,0.,1.));
#547=DIRECTION('',(1.,0.,0.));
#548=DIRECTION('',(0.,0.,-1.));
#549=DIRECTION('',(-1.,0.,0.));
#550=DIRECTION('',(0.,0.,-1.));
#551=DIRECTION('',(-1.,0.,0.));
#552=DIRECTION('',(0.,0.,-1.));
#553=DIRECTION('',(0.,0.,-1.));
#554=DIRECTION('',(-1.,0.,0.));
#555=DIRECTION('',(0.,0.,-1.));
#556=DIRECTION('',(0.,0.,1.));
#557=DIRECTION('',(1.,0.,0.));
#558=DIRECTION('',(0.,0.,1.));
#559=DIRECTION('',(1.,0.,0.));
#560=DIRECTION('',(0.,0.,1.));
#561=DIRECTION('',(1.,0.,0.));
#562=DIRECTION('',(0.,0.,1.));
#563=DIRECTION('',(1.,0.,0.));
#564=DIRECTION('',(0.,0.,1.));
#565=DIRECTION('',(1.,0.,0.));
#566=DIRECTION('',(0.,0.,1.));
#567=DIRECTION('',(1.,0.,0.));
#568=DIRECTION('',(0.,0.,1.));
#569=DIRECTION('',(1.,0.,0.));
#570=DIRECTION('',(0.,0.,1.));
#571=DIRECTION('',(1.,0.,0.));
#572=DIRECTION('',(0.,-1.,0.));
#573=DIRECTION('',(0.,0.,-1.));
#574=DIRECTION('',(0.,1.,0.));
#575=DIRECTION('',(0.,0.,1.));
#576=DIRECTION('',(0.,1.,0.));
#577=DIRECTION('',(-1.,0.,0.));
#578=DIRECTION('',(0.,-1.,0.));
#579=DIRECTION('',(0.,0.,-1.));
#580=DIRECTION('',(0.,-1.,0.));
#581=DIRECTION('',(0.,0.,-1.));
#582=DIRECTION('',(0.,1.,0.));
#583=DIRECTION('',(0.,0.,-1.));
#584=DIRECTION('',(0.,1.,0.));
#585=DIRECTION('',(0.,0.,1.));
#586=DIRECTION('',(0.,-1.,0.));
#587=DIRECTION('',(-1.,0.,0.));
#588=DIRECTION('',(0.,-1.,0.));
#589=DIRECTION('',(0.,0.,-1.));
#590=DIRECTION('',(0.,1.,0.));
#591=DIRECTION('',(0.,0.,-1.));
#592=DIRECTION('',(1.,0.,0.));
#593=DIRECTION('',(0.,0.,-1.));
#594=DIRECTION('',(1.,0.,0.));
#595=DIRECTION('',(0.,0.,-1.));
#596=DIRECTION('',(1.,0.,0.));
#597=DIRECTION('',(0.,1.,0.));
#598=DIRECTION('',(1.,0.,0.));
#599=DIRECTION('',(0.,0.,-1.));
#600=DIRECTION('',(1.,0.,0.));
#601=DIRECTION('',(0.,0.,-1.));
#602=DIRECTION('',(-1.,0.,0.));
#603=DIRECTION('',(0.,0.,-1.));
#604=DIRECTION('',(1.,0.,0.));
#605=DIRECTION('',(0.,0.,-1.));
#606=DIRECTION('',(-1.,0.,0.));
#607=DIRECTION('',(0.,1.,0.));
#608=DIRECTION('',(1.,0.,0.));
#609=DIRECTION('',(0.,0.,-1.));
#610=DIRECTION('',(-1.,0.,0.));
#611=DIRECTION('',(0.,0.,-1.));
#612=DIRECTION('',(0.,1.,0.));
#613=DIRECTION('',(0.,0.,1.));
#614=DIRECTION('',(-1.,0.,0.));
#615=DIRECTION('',(-1.,0.,0.));
#616=DIRECTION('',(0.,1.,0.));
#617=DIRECTION('',(0.,0.,1.));
#618=DIRECTION('',(-1.,0.,0.));
#619=DIRECTION('',(-1.,0.,0.));
#620=DIRECTION('',(0.,0.,-1.));
#621=DIRECTION('',(-1.,0.,0.));
#622=DIRECTION('',(0.,0.,-1.));
#623=DIRECTION('',(-1.,0.,0.));
#624=DIRECTION('',(1.,0.,0.));
#625=DIRECTION('',(0.,0.,-1.));
#626=DIRECTION('',(1.,0.,0.));
#627=DIRECTION('',(0.,0.,-1.));
#628=DIRECTION('',(1.,0.,0.));
#629=DIRECTION('',(0.,1.,0.));
#630=DIRECTION('',(1.,0.,0.));
#631=DIRECTION('',(0.,0.,-1.));
#632=DIRECTION('',(1.,0.,0.));
#633=DIRECTION('',(0.,0.,-1.));
#634=DIRECTION('',(1.,0.,0.));
#635=DIRECTION('',(0.,0.,-1.));
#636=DIRECTION('',(1.,0.,0.));
#637=DIRECTION('',(0.,0.,-1.));
#638=DIRECTION('',(-1.,0.,0.));
#639=DIRECTION('',(0.,0.,1.));
#640=DIRECTION('',(1.,0.,0.));
#641=DIRECTION('',(0.,0.,-1.));
#642=DIRECTION('',(1.,0.,0.));
#643=DIRECTION('',(0.,1.,0.));
#644=DIRECTION('',(0.,0.,1.));
#645=DIRECTION('',(6.12323399573677E-17,-1.,0.));
#646=DIRECTION('',(0.,0.,1.));
#647=DIRECTION('',(1.,0.,0.));
#648=DIRECTION('',(0.,0.,1.));
#649=DIRECTION('',(1.,0.,0.));
#650=DIRECTION('',(0.,0.,1.));
#651=DIRECTION('',(1.,0.,0.));
#652=DIRECTION('',(0.,0.,1.));
#653=DIRECTION('',(1.,0.,0.));
#654=CARTESIAN_POINT('',(0.,0.,0.));
#655=CARTESIAN_POINT('',(0.,2.75545529808154E-16,45.));
#656=CARTESIAN_POINT('',(-4.4992489016541,0.0778718855021711,43.2204317171378));
#657=CARTESIAN_POINT('',(-4.50043636482468,0.0131534523972225,43.3590324653938));
#658=CARTESIAN_POINT('',(-4.49900563904719,-0.130485695091059,43.410967413963));
#659=CARTESIAN_POINT('',(-4.49235015369862,-0.268503878448639,43.3464659037093));
#660=CARTESIAN_POINT('',(-4.48847627983281,-0.320780425985898,43.2029713807578));
#661=CARTESIAN_POINT('',(-4.49316186361904,-0.25608134563224,43.0645983646354));
#662=CARTESIAN_POINT('',(-4.49948082728799,-0.112907110905612,43.0124898288731));
#663=CARTESIAN_POINT('',(-4.50029662241407,0.0255743286960466,43.0769082860963));
#664=CARTESIAN_POINT('',(-4.4992489016541,0.0778718855021711,43.2204317171378));
#665=CARTESIAN_POINT('',(-4.50043636482468,0.0131534523972225,43.3590324653938));
#666=CARTESIAN_POINT('',(-4.49900563904719,-0.130485695091059,43.410967413963));
#667=CARTESIAN_POINT('',(-4.5,-5.32278835063478E-17,43.344588165446));
#668=CARTESIAN_POINT('',(4.50036777524609,0.0197828761821833,43.0708104925553));
#669=CARTESIAN_POINT('',(4.49926097315551,-0.121520661383439,43.0122341853534));
#670=CARTESIAN_POINT('',(4.49275172389373,-0.262452648138312,43.0707121795595));
#671=CARTESIAN_POINT('',(4.48846353665556,-0.320915713644494,43.2115204554472));
#672=CARTESIAN_POINT('',(4.4927411205199,-0.262636469381002,43.3526845718224));
#673=CARTESIAN_POINT('',(4.49925525323798,-0.121654694133724,43.4111868289775));
#674=CARTESIAN_POINT('',(4.50036981810719,0.019339335448366,43.3530268990756));
#675=CARTESIAN_POINT('',(4.49924440090271,0.0780310862741715,43.2120276353211));
#676=CARTESIAN_POINT('',(4.50036777524609,0.0197828761821833,43.0708104925553));
#677=CARTESIAN_POINT('',(4.49926097315551,-0.121520661383439,43.0122341853534));
#678=CARTESIAN_POINT('',(4.49275172389373,-0.262452648138312,43.0707121795595));
#679=CARTESIAN_POINT('',(4.49836056529364,-0.121458736248314,43.0317432355881));
#680=CARTESIAN_POINT('',(4.49819538928111,0.14121004754532,28.2396153046509));
#681=CARTESIAN_POINT('',(4.50090142621878,-3.61317980357125E-5,28.1810360356285));
#682=CARTESIAN_POINT('',(4.49819890584377,-0.141065520353177,28.2395700396823));
#683=CARTESIAN_POINT('',(4.49549880837405,-0.199447124089764,28.3804079888461));
#684=CARTESIAN_POINT('',(4.49819721989298,-0.14114582961402,28.5215513535424));
#685=CARTESIAN_POINT('',(4.50089933010868,-2.72152716305059E-5,28.5800088818652));
#686=CARTESIAN_POINT('',(4.49820545693902,0.14087050587108,28.5217425375114));
#687=CARTESIAN_POINT('',(4.49549763223795,0.199479723688515,28.3807658525));
#688=CARTESIAN_POINT('',(4.49819538928111,0.14121004754532,28.2396153046509));
#689=CARTESIAN_POINT('',(4.50090142621878,-3.61317980357125E-5,28.1810360356285));
#690=CARTESIAN_POINT('',(4.49819890584377,-0.141065520353177,28.2395700396823));
#691=CARTESIAN_POINT('',(4.5,4.36713430486468E-16,28.2005549144745));
#692=CARTESIAN_POINT('',(0.141210047545318,-4.49819538928111,28.1874612404723));
#693=CARTESIAN_POINT('',(-3.61317980333652E-5,-4.50090142621878,28.12888197145));
#694=CARTESIAN_POINT('',(-0.141065520353185,-4.49819890584377,28.1874159755038));
#695=CARTESIAN_POINT('',(-0.199447124089765,-4.49549880837405,28.3282539246677));
#696=CARTESIAN_POINT('',(-0.14114582961401,-4.49819721989298,28.4693972893639));
#697=CARTESIAN_POINT('',(-2.72152716416668E-5,-4.50089933010868,28.5278548176867));
#698=CARTESIAN_POINT('',(0.14087050587109,-4.49820545693902,28.4695884733329));
#699=CARTESIAN_POINT('',(0.199479723688513,-4.49549763223795,28.3286117883215));
#700=CARTESIAN_POINT('',(0.141210047545318,-4.49819538928111,28.1874612404723));
#701=CARTESIAN_POINT('',(-3.61317980333652E-5,-4.50090142621878,28.12888197145));
#702=CARTESIAN_POINT('',(-0.141065520353185,-4.49819890584377,28.1874159755038));
#703=CARTESIAN_POINT('',(4.32139783443598E-16,-4.5,28.148400850296));
#704=CARTESIAN_POINT('',(0.,2.75545529808154E-16,25.));
#705=CARTESIAN_POINT('',(4.5,2.75545529808154E-16,25.));
#706=CARTESIAN_POINT('',(0.,2.75545529808154E-16,45.));
#707=CARTESIAN_POINT('',(4.5,2.75545529808154E-16,45.));
#708=CARTESIAN_POINT('',(-0.141210047545318,4.49819538928111,28.1874612404723));
#709=CARTESIAN_POINT('',(3.61317980333652E-5,4.50090142621878,28.12888197145));
#710=CARTESIAN_POINT('',(0.141065520353185,4.49819890584377,28.1874159755038));
#711=CARTESIAN_POINT('',(0.199447124089765,4.49549880837405,28.3282539246677));
#712=CARTESIAN_POINT('',(0.14114582961401,4.49819721989298,28.4693972893639));
#713=CARTESIAN_POINT('',(2.72152716416668E-5,4.50089933010868,28.5278548176867));
#714=CARTESIAN_POINT('',(-0.14087050587109,4.49820545693902,28.4695884733329));
#715=CARTESIAN_POINT('',(-0.199479723688513,4.49549763223795,28.3286117883215));
#716=CARTESIAN_POINT('',(-0.141210047545318,4.49819538928111,28.1874612404723));
#717=CARTESIAN_POINT('',(3.61317980333652E-5,4.50090142621878,28.12888197145));
#718=CARTESIAN_POINT('',(0.141065520353185,4.49819890584377,28.1874159755038));
#719=CARTESIAN_POINT('',(-4.32139783443598E-16,4.5,28.148400850296));
#720=CARTESIAN_POINT('',(-4.49819538928111,0.141210047545318,28.5214945242981));
#721=CARTESIAN_POINT('',(-4.50090142621878,-3.6131798032693E-5,28.5800737933206));
#722=CARTESIAN_POINT('',(-4.49819890584377,-0.141065520353185,28.5215397892666));
#723=CARTESIAN_POINT('',(-4.49549880837405,-0.199447124089762,28.3807018401029));
#724=CARTESIAN_POINT('',(-4.49819721989298,-0.14114582961402,28.2395584754066));
#725=CARTESIAN_POINT('',(-4.50089933010868,-2.7215271632288E-5,28.1811009470838));
#726=CARTESIAN_POINT('',(-4.49820545693902,0.140870505871082,28.2393672914376));
#727=CARTESIAN_POINT('',(-4.49549763223795,0.199479723688515,28.380343976449));
#728=CARTESIAN_POINT('',(-4.49819538928111,0.141210047545318,28.5214945242981));
#729=CARTESIAN_POINT('',(-4.50090142621878,-3.6131798032693E-5,28.5800737933206));
#730=CARTESIAN_POINT('',(-4.49819890584377,-0.141065520353185,28.5215397892666));
#731=CARTESIAN_POINT('',(-4.5,9.40159787670674E-16,28.5605549144745));
#732=CARTESIAN_POINT('',(3.45138139076094,-2.88755372166634,45.));
#733=CARTESIAN_POINT('',(3.45138139076094,-2.88755372166634,38.7867659330368));
#734=CARTESIAN_POINT('',(3.45138139076094,-2.88755372166634,28.8271933794021));
#735=CARTESIAN_POINT('',(0.,2.75545529808154E-16,38.7867659330368));
#736=CARTESIAN_POINT('',(-3.45138139076094,-2.88755372166634,38.7867659330368));
#737=CARTESIAN_POINT('',(-3.45138139076094,-2.88755372166634,45.));
#738=CARTESIAN_POINT('',(-3.45138139076094,-2.88755372166634,28.8271933794021));
#739=CARTESIAN_POINT('',(0.,2.75545529808154E-16,28.8271933794021));
#740=CARTESIAN_POINT('',(2.76768879640486,3.54822472882638,33.3779235720635));
#741=CARTESIAN_POINT('',(2.76768879640486,3.54822472882638,28.8279235720635));
#742=CARTESIAN_POINT('',(2.76768879640486,3.54822472882638,37.9279235720634));
#743=CARTESIAN_POINT('',(0.,2.75545529808154E-16,28.8279235720635));
#744=CARTESIAN_POINT('',(-2.76768879640474,3.54822472882647,28.8279235720635));
#745=CARTESIAN_POINT('',(-2.76768879640474,3.54822472882647,33.3779235720635));
#746=CARTESIAN_POINT('',(-2.76768879640474,3.54822472882647,37.9279235720634));
#747=CARTESIAN_POINT('',(0.,2.75545529808154E-16,37.9279235720634));
#748=CARTESIAN_POINT('',(0.,2.87791997799628E-16,45.));
#749=CARTESIAN_POINT('',(0.,2.87791997799628E-16,38.7867659330368));
#750=CARTESIAN_POINT('',(3.70837343110034,-2.88755372166634,38.7867659330368));
#751=CARTESIAN_POINT('',(-3.70837343110034,-2.88755372166634,38.7867659330368));
#752=CARTESIAN_POINT('',(3.70837343110034,-2.88755372166634,45.));
#753=CARTESIAN_POINT('',(3.70837343110034,-2.88755372166634,28.8271933794021));
#754=CARTESIAN_POINT('',(0.,2.87791997799628E-16,28.8271933794021));
#755=CARTESIAN_POINT('',(-3.70837343110034,-2.88755372166634,28.8271933794021));
#756=CARTESIAN_POINT('',(-3.70837343110034,-2.88755372166634,45.));
#757=CARTESIAN_POINT('',(-0.300636316105658,-4.69216842275628,28.028341876291));
#758=CARTESIAN_POINT('',(7.59174258797141E-5,-4.7039120241702,27.9036192175032));
#759=CARTESIAN_POINT('',(0.300332646402139,-4.69218348056291,28.0282476215018));
#760=CARTESIAN_POINT('',(0.424630932820072,-4.6804356301516,28.3280768276829));
#761=CARTESIAN_POINT('',(0.300482019345023,-4.69217730284555,28.6286053833373));
#762=CARTESIAN_POINT('',(6.81005592911144E-5,-4.70390267099214,28.7530353067594));
#763=CARTESIAN_POINT('',(-0.299920206677569,-4.69221200084699,28.6289970740424));
#764=CARTESIAN_POINT('',(-0.424695278594889,-4.68043073564388,28.3288280015794));
#765=CARTESIAN_POINT('',(-0.300636316105658,-4.69216842275628,28.028341876291));
#766=CARTESIAN_POINT('',(7.59174258797141E-5,-4.7039120241702,27.9036192175032));
#767=CARTESIAN_POINT('',(0.300332646402139,-4.69218348056291,28.0282476215018));
#768=CARTESIAN_POINT('',(-7.73430625407609E-16,-4.7,27.9451777279676));
#769=CARTESIAN_POINT('',(0.,2.87791997799628E-16,20.));
#770=CARTESIAN_POINT('',(4.7,2.87791997799628E-16,20.));
#771=CARTESIAN_POINT('',(0.,2.87791997799628E-16,45.));
#772=CARTESIAN_POINT('',(4.7,2.87791997799628E-16,45.));
#773=CARTESIAN_POINT('',(0.300636316105658,4.69216842275628,28.028341876291));
#774=CARTESIAN_POINT('',(-7.59174258797141E-5,4.7039120241702,27.9036192175032));
#775=CARTESIAN_POINT('',(-0.300332646402139,4.69218348056291,28.0282476215018));
#776=CARTESIAN_POINT('',(-0.424630932820072,4.6804356301516,28.3280768276829));
#777=CARTESIAN_POINT('',(-0.300482019345023,4.69217730284555,28.6286053833373));
#778=CARTESIAN_POINT('',(-6.81005592911144E-5,4.70390267099214,28.7530353067594));
#779=CARTESIAN_POINT('',(0.299920206677569,4.69221200084699,28.6289970740424));
#780=CARTESIAN_POINT('',(0.424695278594889,4.68043073564388,28.3288280015794));
#781=CARTESIAN_POINT('',(0.300636316105658,4.69216842275628,28.028341876291));
#782=CARTESIAN_POINT('',(-7.59174258797141E-5,4.7039120241702,27.9036192175032));
#783=CARTESIAN_POINT('',(-0.300332646402139,4.69218348056291,28.0282476215018));
#784=CARTESIAN_POINT('',(7.73430625407609E-16,4.7,27.9451777279676));
#785=CARTESIAN_POINT('',(4.69455734189973,0.250623704438043,28.1304118750772));
#786=CARTESIAN_POINT('',(4.70271869879032,-6.36228725201741E-5,28.02644011911));
#787=CARTESIAN_POINT('',(4.694567862939,-0.250369212947963,28.1303326467871));
#788=CARTESIAN_POINT('',(4.68641195215949,-0.353988493851416,28.3802885730688));
#789=CARTESIAN_POINT('',(4.69456324961419,-0.250501022599731,28.6308109570363));
#790=CARTESIAN_POINT('',(4.70271226973758,-5.3331746583715E-5,28.7345500496764));
#791=CARTESIAN_POINT('',(4.69458766299423,0.250024359428147,28.6311426954613));
#792=CARTESIAN_POINT('',(4.68640849037633,0.354043870882713,28.3809185988395));
#793=CARTESIAN_POINT('',(4.69455734189973,0.250623704438043,28.1304118750772));
#794=CARTESIAN_POINT('',(4.70271869879032,-6.36228725201741E-5,28.02644011911));
#795=CARTESIAN_POINT('',(4.694567862939,-0.250369212947963,28.1303326467871));
#796=CARTESIAN_POINT('',(4.7,-3.96315967959388E-16,28.061084166384));
#797=CARTESIAN_POINT('',(-4.69455734189973,0.250623704438043,28.1304118750772));
#798=CARTESIAN_POINT('',(-4.70271869879032,-6.36228725201741E-5,28.02644011911));
#799=CARTESIAN_POINT('',(-4.694567862939,-0.250369212947963,28.1303326467871));
#800=CARTESIAN_POINT('',(-4.68641195215949,-0.353988493851416,28.3802885730688));
#801=CARTESIAN_POINT('',(-4.69456324961419,-0.250501022599731,28.6308109570363));
#802=CARTESIAN_POINT('',(-4.70271226973758,-5.3331746583715E-5,28.7345500496764));
#803=CARTESIAN_POINT('',(-4.69458766299423,0.250024359428147,28.6311426954613));
#804=CARTESIAN_POINT('',(-4.68640849037633,0.354043870882713,28.3809185988395));
#805=CARTESIAN_POINT('',(-4.69455734189973,0.250623704438043,28.1304118750772));
#806=CARTESIAN_POINT('',(-4.70271869879032,-6.36228725201741E-5,28.02644011911));
#807=CARTESIAN_POINT('',(-4.694567862939,-0.250369212947963,28.1303326467871));
#808=CARTESIAN_POINT('',(-4.7,-3.96315967959388E-16,28.061084166384));
#809=CARTESIAN_POINT('',(4.69675031934465,0.231810323751681,42.8595097202197));
#810=CARTESIAN_POINT('',(4.70382194910878,-0.121694338506412,42.712963272758));
#811=CARTESIAN_POINT('',(4.67854399800433,-0.473785387215919,42.8590966022768));
#812=CARTESIAN_POINT('',(4.65844303577993,-0.620105915232567,43.210923020752));
#813=CARTESIAN_POINT('',(4.67846225240484,-0.474540712970524,43.5638833270117));
#814=CARTESIAN_POINT('',(4.70378753417349,-0.122518131046045,43.7103409731236));
#815=CARTESIAN_POINT('',(4.69682747543551,0.230378775913448,43.5652066286829));
#816=CARTESIAN_POINT('',(4.68436016850618,0.377263534862549,43.2126465074838));
#817=CARTESIAN_POINT('',(4.69675031934465,0.231810323751681,42.8595097202197));
#818=CARTESIAN_POINT('',(4.70382194910878,-0.121694338506412,42.712963272758));
#819=CARTESIAN_POINT('',(4.67854399800433,-0.473785387215919,42.8590966022768));
#820=CARTESIAN_POINT('',(4.69843035229735,-0.121458736248314,42.7617432355881));
#821=CARTESIAN_POINT('',(-4.68972754391638,-0.366262191017698,43.6517378151982));
#822=CARTESIAN_POINT('',(-4.70494698527456,0.0132560158789533,43.697318392802));
#823=CARTESIAN_POINT('',(-4.69048451498537,0.313238127501887,43.4608106685641));
#824=CARTESIAN_POINT('',(-4.68629062947396,0.358198882999519,43.0820492078903));
#825=CARTESIAN_POINT('',(-4.70241564456691,0.121967614589651,42.7818815060707));
#826=CARTESIAN_POINT('',(-4.69790598942725,-0.257593708712925,42.7374128034489));
#827=CARTESIAN_POINT('',(-4.66789007925036,-0.556419258461599,42.9727635675884));
#828=CARTESIAN_POINT('',(-4.66126324325536,-0.601887423964575,43.3521767683806));
#829=CARTESIAN_POINT('',(-4.68972754391638,-0.366262191017698,43.6517378151982));
#830=CARTESIAN_POINT('',(-4.70494698527456,0.0132560158789533,43.697318392802));
#831=CARTESIAN_POINT('',(-4.69048451498537,0.313238127501887,43.4608106685641));
#832=CARTESIAN_POINT('',(-4.7,5.86452753267662E-16,43.6503036758284));
#833=CARTESIAN_POINT('',(0.,0.,45.));
#834=CARTESIAN_POINT('',(0.,0.,20.));
#835=CARTESIAN_POINT('',(0.,2.81668763803891E-16,20.));
#836=CARTESIAN_POINT('',(4.6,2.81668763803891E-16,20.));
#837=CARTESIAN_POINT('',(0.,2.81668763803891E-16,19.9998));
#838=CARTESIAN_POINT('',(0.,2.81668763803891E-16,25.));
#839=CARTESIAN_POINT('',(4.6,2.81668763803891E-16,25.));
#840=CARTESIAN_POINT('',(0.,0.,25.));
#841=CARTESIAN_POINT('',(0.,-4.62,28.328400850296));
#842=CARTESIAN_POINT('',(0.,-4.62,28.328400850296));
#843=CARTESIAN_POINT('',(0.,-4.62,28.7116239726244));
#844=CARTESIAN_POINT('',(0.,-4.62,28.328400850296));
#845=CARTESIAN_POINT('',(0.,-4.62,28.328400850296));
#846=CARTESIAN_POINT('',(0.,-4.62,28.148400850296));
#847=CARTESIAN_POINT('',(0.,-4.12,28.328400850296));
#848=CARTESIAN_POINT('',(0.,4.62,28.328400850296));
#849=CARTESIAN_POINT('',(0.,4.62,28.328400850296));
#850=CARTESIAN_POINT('',(0.,4.62,28.7116239726244));
#851=CARTESIAN_POINT('',(0.,4.62,28.328400850296));
#852=CARTESIAN_POINT('',(0.,4.62,28.328400850296));
#853=CARTESIAN_POINT('',(0.,4.62,28.148400850296));
#854=CARTESIAN_POINT('',(0.,4.12,28.328400850296));
#855=CARTESIAN_POINT('',(4.61407048309678,0.,28.3805549144745));
#856=CARTESIAN_POINT('',(4.61407048309678,0.,28.3805549144745));
#857=CARTESIAN_POINT('',(4.61407048309678,0.,28.0610841663841));
#858=CARTESIAN_POINT('',(4.61407048309678,0.,28.3805549144745));
#859=CARTESIAN_POINT('',(4.61407048309678,0.,28.3805549144745));
#860=CARTESIAN_POINT('',(4.61407048309678,0.,28.2005549144745));
#861=CARTESIAN_POINT('',(4.11407048309678,0.,28.3805549144745));
#862=CARTESIAN_POINT('',(-4.61407048309678,0.,28.3805549144745));
#863=CARTESIAN_POINT('',(-4.61407048309678,0.,28.3805549144745));
#864=CARTESIAN_POINT('',(-4.61407048309678,0.,28.0610841663841));
#865=CARTESIAN_POINT('',(-4.61407048309678,0.,28.3805549144745));
#866=CARTESIAN_POINT('',(-4.61407048309678,0.,28.3805549144745));
#867=CARTESIAN_POINT('',(-4.61407048309678,0.,28.2005549144745));
#868=CARTESIAN_POINT('',(-4.11407048309678,0.,28.3805549144745));
#869=CARTESIAN_POINT('',(9.31407048309678,-2.88755372166634,33.8069796562195));
#870=CARTESIAN_POINT('',(9.31407048309678,-2.88755372166634,28.8271933794021));
#871=CARTESIAN_POINT('',(9.31407048309678,-2.88755372166634,38.7867659330368));
#872=CARTESIAN_POINT('',(9.31407048309678,-2.88755372166634,33.8069796562195));
#873=CARTESIAN_POINT('',(9.31407048309678,-2.88755372166634,38.7867659330368));
#874=CARTESIAN_POINT('',(9.31407048309678,-2.88755372166634,28.8271933794021));
#875=CARTESIAN_POINT('',(9.31407048309678,-4.60784323513508,38.7867659330368));
#876=CARTESIAN_POINT('',(9.31407048309678,-4.60784323513508,28.8271933794021));
#877=CARTESIAN_POINT('',(4.61407048309678,-0.121458736248314,43.2117432355881));
#878=CARTESIAN_POINT('',(4.61407048309678,-0.121458736248314,43.2117432355881));
#879=CARTESIAN_POINT('',(4.61407048309678,-0.121458736248314,42.7617432355881));
#880=CARTESIAN_POINT('',(4.61407048309678,-0.121458736248314,43.2117432355881));
#881=CARTESIAN_POINT('',(4.61407048309678,-0.121458736248314,43.2117432355881));
#882=CARTESIAN_POINT('',(4.61407048309678,-0.121458736248314,43.0317432355881));
#883=CARTESIAN_POINT('',(-95.3859295169032,-0.121458736248314,43.2117432355881));
#884=CARTESIAN_POINT('',(-4.55392951690322,-0.121458736248314,43.2117432355881));
#885=CARTESIAN_POINT('',(-4.55392951690322,-0.121458736248314,43.0317432355881));
#886=CARTESIAN_POINT('',(-95.3859295169032,-0.121458736248314,43.2117432355881));
#887=CARTESIAN_POINT('',(-4.55392951690322,-0.12182448990643,43.2171076536178));
#888=CARTESIAN_POINT('',(-4.55392951690322,-0.12182448990643,43.2171076536178));
#889=CARTESIAN_POINT('',(-4.55392951690322,-0.12182448990643,42.7671076536178));
#890=CARTESIAN_POINT('',(-4.55392951690322,-0.12182448990643,43.2171076536178));
#891=CARTESIAN_POINT('',(4.75271753802886E-33,-3.88088838458394E-17,28.8279235720635));
#892=CARTESIAN_POINT('',(1.16226472890446E-14,0.707678412441663,28.8279235720635));
#893=CARTESIAN_POINT('',(5.55111512312578E-14,3.95284207972345,37.9279235720634));
#894=CARTESIAN_POINT('',(1.16226472890446E-14,0.707678412441663,37.9279235720634));
#895=CARTESIAN_POINT('',(1.16226472890446E-14,0.707678412441663,28.8277235720635));
#896=MECHANICAL_DESIGN_GEOMETRIC_PRESENTATION_REPRESENTATION('',(#459),
#897);
#897=(
GEOMETRIC_REPRESENTATION_CONTEXT(3)
GLOBAL_UNCERTAINTY_ASSIGNED_CONTEXT((#898))
GLOBAL_UNIT_ASSIGNED_CONTEXT((#901,#900,#899))
REPRESENTATION_CONTEXT('Upper tube','TOP_LEVEL_ASSEMBLY_PART')
);
#898=UNCERTAINTY_MEASURE_WITH_UNIT(LENGTH_MEASURE(0.002),#901,
'DISTANCE_ACCURACY_VALUE','Maximum Tolerance applied to model');
#899=(
NAMED_UNIT(*)
SI_UNIT($,.STERADIAN.)
SOLID_ANGLE_UNIT()
);
#900=(
NAMED_UNIT(*)
PLANE_ANGLE_UNIT()
SI_UNIT($,.RADIAN.)
);
#901=(
LENGTH_UNIT()
NAMED_UNIT(*)
SI_UNIT(.CENTI.,.METRE.)
);
#902=PRODUCT_DEFINITION_SHAPE('','',#903);
#903=PRODUCT_DEFINITION('','',#905,#904);
#904=PRODUCT_DEFINITION_CONTEXT('',#911,'design');
#905=PRODUCT_DEFINITION_FORMATION_WITH_SPECIFIED_SOURCE('','',#907,
 .NOT_KNOWN.);
#906=PRODUCT_RELATED_PRODUCT_CATEGORY('','',(#907));
#907=PRODUCT('Upper tube','Upper tube','Upper tube',(#909));
#908=PRODUCT_CATEGORY('','');
#909=PRODUCT_CONTEXT('',#911,'mechanical');
#910=APPLICATION_PROTOCOL_DEFINITION('international standard',
'ap242_managed_model_based_3d_engineering',2020,#911);
#911=APPLICATION_CONTEXT('managed model based 3d engineering');
ENDSEC;
END-ISO-10303-21;
