ISO-10303-21;
HEADER;
/* Generated by software containing ST-Developer
 * from STEP Tools, Inc. (www.steptools.com) 
 */
/* OPTION: using custom renumber hook */

FILE_DESCRIPTION(
/* description */ ('STEP AP242 Edition 2',
'CAx-IF Rec.Pracs.---Representation and Presentation of Product Manufa
cturing Information (PMI)---4.0---2014-10-13',
'CAx-IF Rec.Pracs.---3D Tessellated Geometry---0.4---2014-09-14','2;1',
'CAx-IF Rec.Pracs.---User Defined Attributes---1.5---2016-08-15'),
/* implementation_level */ '2;1');

FILE_NAME(
/* name */ 'All - Nose flap 1',
/* time_stamp */ '2026-09-01T00:15:44Z',
/* author */ (''),
/* organization */ (''),
/* preprocessor_version */ 'ST-DEVELOPER v20',
/* originating_system */ 'ONSHAPE BY PTC INC, 1.220',
/* authorisation */ '  ');

FILE_SCHEMA (('AP242_MANAGED_MODEL_BASED_3D_ENGINEERING_MIM_LF { 1 0 10303 442 3 1 4 }'));
ENDSEC;

DATA;
#10=SHAPE_REPRESENTATION_RELATIONSHIP('','',#325,#11);
#11=ADVANCED_BREP_SHAPE_REPRESENTATION('',(#323),#571);
#12=CYLINDRICAL_SURFACE('',#356,4.65455566160902);
#13=CYLINDRICAL_SURFACE('',#360,3.88244382089617);
#14=CYLINDRICAL_SURFACE('',#363,0.1);
#15=LINE('',#505,#33);
#16=LINE('',#506,#34);
#17=LINE('',#508,#35);
#18=LINE('',#512,#36);
#19=LINE('',#534,#37);
#20=LINE('',#536,#38);
#21=LINE('',#538,#39);
#22=LINE('',#540,#40);
#23=LINE('',#546,#41);
#24=LINE('',#548,#42);
#25=LINE('',#554,#43);
#26=LINE('',#556,#44);
#27=LINE('',#558,#45);
#28=LINE('',#560,#46);
#29=LINE('',#562,#47);
#30=LINE('',#564,#48);
#31=LINE('',#566,#49);
#32=LINE('',#568,#50);
#33=VECTOR('',#393,100.);
#34=VECTOR('',#394,100.);
#35=VECTOR('',#397,100.);
#36=VECTOR('',#400,100.);
#37=VECTOR('',#433,100.);
#38=VECTOR('',#434,100.);
#39=VECTOR('',#435,100.);
#40=VECTOR('',#438,100.);
#41=VECTOR('',#445,100.);
#42=VECTOR('',#446,100.);
#43=VECTOR('',#457,100.);
#44=VECTOR('',#458,100.);
#45=VECTOR('',#459,100.);
#46=VECTOR('',#462,100.);
#47=VECTOR('',#463,100.);
#48=VECTOR('',#466,100.);
#49=VECTOR('',#467,100.);
#50=VECTOR('',#470,100.);
#51=PLANE('',#336);
#52=PLANE('',#338);
#53=PLANE('',#352);
#54=PLANE('',#353);
#55=PLANE('',#354);
#56=PLANE('',#358);
#57=PLANE('',#362);
#58=PLANE('',#364);
#59=PLANE('',#365);
#60=PLANE('',#366);
#61=PLANE('',#367);
#62=PLANE('',#368);
#63=B_SPLINE_CURVE_WITH_KNOTS('',3,(#487,#488,#489,#490),.UNSPECIFIED.,
 .F.,.F.,(4,4),(0.0399579725531379,0.0480886753466213),.UNSPECIFIED.);
#64=B_SPLINE_CURVE_WITH_KNOTS('',3,(#495,#496,#497,#498),.UNSPECIFIED.,
 .F.,.F.,(4,4),(0.0399578857389594,0.0480886695581815),.UNSPECIFIED.);
#65=ORIENTED_EDGE('',*,*,#151,.T.);
#66=ORIENTED_EDGE('',*,*,#152,.T.);
#67=ORIENTED_EDGE('',*,*,#153,.T.);
#68=ORIENTED_EDGE('',*,*,#154,.T.);
#69=ORIENTED_EDGE('',*,*,#155,.F.);
#70=ORIENTED_EDGE('',*,*,#156,.F.);
#71=ORIENTED_EDGE('',*,*,#157,.F.);
#72=ORIENTED_EDGE('',*,*,#158,.F.);
#73=ORIENTED_EDGE('',*,*,#159,.T.);
#74=ORIENTED_EDGE('',*,*,#160,.T.);
#75=ORIENTED_EDGE('',*,*,#161,.T.);
#76=ORIENTED_EDGE('',*,*,#162,.T.);
#77=ORIENTED_EDGE('',*,*,#151,.F.);
#78=ORIENTED_EDGE('',*,*,#163,.T.);
#79=ORIENTED_EDGE('',*,*,#164,.F.);
#80=ORIENTED_EDGE('',*,*,#165,.T.);
#81=ORIENTED_EDGE('',*,*,#166,.F.);
#82=ORIENTED_EDGE('',*,*,#153,.F.);
#83=ORIENTED_EDGE('',*,*,#167,.T.);
#84=ORIENTED_EDGE('',*,*,#168,.F.);
#85=ORIENTED_EDGE('',*,*,#165,.F.);
#86=ORIENTED_EDGE('',*,*,#169,.F.);
#87=ORIENTED_EDGE('',*,*,#161,.F.);
#88=ORIENTED_EDGE('',*,*,#170,.T.);
#89=ORIENTED_EDGE('',*,*,#171,.T.);
#90=ORIENTED_EDGE('',*,*,#172,.F.);
#91=ORIENTED_EDGE('',*,*,#167,.F.);
#92=ORIENTED_EDGE('',*,*,#173,.T.);
#93=ORIENTED_EDGE('',*,*,#174,.F.);
#94=ORIENTED_EDGE('',*,*,#155,.T.);
#95=ORIENTED_EDGE('',*,*,#175,.T.);
#96=ORIENTED_EDGE('',*,*,#171,.F.);
#97=ORIENTED_EDGE('',*,*,#156,.T.);
#98=ORIENTED_EDGE('',*,*,#174,.T.);
#99=ORIENTED_EDGE('',*,*,#173,.F.);
#100=ORIENTED_EDGE('',*,*,#170,.F.);
#101=ORIENTED_EDGE('',*,*,#163,.F.);
#102=ORIENTED_EDGE('',*,*,#154,.F.);
#103=ORIENTED_EDGE('',*,*,#166,.T.);
#104=ORIENTED_EDGE('',*,*,#168,.T.);
#105=ORIENTED_EDGE('',*,*,#172,.T.);
#106=ORIENTED_EDGE('',*,*,#175,.F.);
#107=ORIENTED_EDGE('',*,*,#176,.F.);
#108=ORIENTED_EDGE('',*,*,#162,.F.);
#109=ORIENTED_EDGE('',*,*,#177,.F.);
#110=ORIENTED_EDGE('',*,*,#178,.T.);
#111=ORIENTED_EDGE('',*,*,#179,.T.);
#112=ORIENTED_EDGE('',*,*,#169,.T.);
#113=ORIENTED_EDGE('',*,*,#180,.F.);
#114=ORIENTED_EDGE('',*,*,#181,.F.);
#115=ORIENTED_EDGE('',*,*,#177,.T.);
#116=ORIENTED_EDGE('',*,*,#182,.F.);
#117=ORIENTED_EDGE('',*,*,#164,.T.);
#118=ORIENTED_EDGE('',*,*,#183,.F.);
#119=ORIENTED_EDGE('',*,*,#184,.F.);
#120=ORIENTED_EDGE('',*,*,#180,.T.);
#121=ORIENTED_EDGE('',*,*,#152,.F.);
#122=ORIENTED_EDGE('',*,*,#179,.F.);
#123=ORIENTED_EDGE('',*,*,#185,.T.);
#124=ORIENTED_EDGE('',*,*,#183,.T.);
#125=ORIENTED_EDGE('',*,*,#178,.F.);
#126=ORIENTED_EDGE('',*,*,#181,.T.);
#127=ORIENTED_EDGE('',*,*,#184,.T.);
#128=ORIENTED_EDGE('',*,*,#185,.F.);
#129=ORIENTED_EDGE('',*,*,#176,.T.);
#130=ORIENTED_EDGE('',*,*,#182,.T.);
#131=ORIENTED_EDGE('',*,*,#186,.T.);
#132=ORIENTED_EDGE('',*,*,#187,.T.);
#133=ORIENTED_EDGE('',*,*,#188,.F.);
#134=ORIENTED_EDGE('',*,*,#157,.T.);
#135=ORIENTED_EDGE('',*,*,#189,.F.);
#136=ORIENTED_EDGE('',*,*,#186,.F.);
#137=ORIENTED_EDGE('',*,*,#160,.F.);
#138=ORIENTED_EDGE('',*,*,#190,.T.);
#139=ORIENTED_EDGE('',*,*,#191,.F.);
#140=ORIENTED_EDGE('',*,*,#190,.F.);
#141=ORIENTED_EDGE('',*,*,#159,.F.);
#142=ORIENTED_EDGE('',*,*,#192,.T.);
#143=ORIENTED_EDGE('',*,*,#188,.T.);
#144=ORIENTED_EDGE('',*,*,#193,.T.);
#145=ORIENTED_EDGE('',*,*,#192,.F.);
#146=ORIENTED_EDGE('',*,*,#158,.T.);
#147=ORIENTED_EDGE('',*,*,#187,.F.);
#148=ORIENTED_EDGE('',*,*,#189,.T.);
#149=ORIENTED_EDGE('',*,*,#191,.T.);
#150=ORIENTED_EDGE('',*,*,#193,.F.);
#151=EDGE_CURVE('',#194,#195,#222,.T.);
#152=EDGE_CURVE('',#195,#196,#223,.T.);
#153=EDGE_CURVE('',#196,#197,#224,.T.);
#154=EDGE_CURVE('',#197,#198,#225,.T.);
#155=EDGE_CURVE('',#199,#198,#226,.T.);
#156=EDGE_CURVE('',#194,#199,#227,.T.);
#157=EDGE_CURVE('',#200,#201,#63,.T.);
#158=EDGE_CURVE('',#202,#200,#228,.F.);
#159=EDGE_CURVE('',#202,#203,#64,.T.);
#160=EDGE_CURVE('',#203,#201,#229,.F.);
#161=EDGE_CURVE('',#204,#205,#230,.T.);
#162=EDGE_CURVE('',#205,#195,#15,.T.);
#163=EDGE_CURVE('',#194,#204,#16,.T.);
#164=EDGE_CURVE('',#206,#196,#17,.T.);
#165=EDGE_CURVE('',#206,#207,#231,.T.);
#166=EDGE_CURVE('',#197,#207,#18,.T.);
#167=EDGE_CURVE('',#208,#209,#232,.T.);
#168=EDGE_CURVE('',#207,#209,#233,.T.);
#169=EDGE_CURVE('',#205,#206,#234,.T.);
#170=EDGE_CURVE('',#204,#208,#235,.T.);
#171=EDGE_CURVE('',#210,#211,#236,.T.);
#172=EDGE_CURVE('',#209,#211,#237,.T.);
#173=EDGE_CURVE('',#208,#210,#238,.T.);
#174=EDGE_CURVE('',#199,#210,#239,.T.);
#175=EDGE_CURVE('',#198,#211,#240,.T.);
#176=EDGE_CURVE('',#212,#212,#241,.T.);
#177=EDGE_CURVE('',#213,#205,#19,.T.);
#178=EDGE_CURVE('',#213,#214,#20,.T.);
#179=EDGE_CURVE('',#214,#195,#21,.T.);
#180=EDGE_CURVE('',#215,#206,#22,.T.);
#181=EDGE_CURVE('',#213,#215,#242,.T.);
#182=EDGE_CURVE('',#216,#216,#243,.T.);
#183=EDGE_CURVE('',#217,#196,#23,.T.);
#184=EDGE_CURVE('',#215,#217,#24,.T.);
#185=EDGE_CURVE('',#214,#217,#244,.T.);
#186=EDGE_CURVE('',#201,#218,#25,.T.);
#187=EDGE_CURVE('',#218,#219,#26,.T.);
#188=EDGE_CURVE('',#200,#219,#27,.T.);
#189=EDGE_CURVE('',#218,#220,#28,.T.);
#190=EDGE_CURVE('',#203,#220,#29,.T.);
#191=EDGE_CURVE('',#220,#221,#30,.T.);
#192=EDGE_CURVE('',#202,#221,#31,.T.);
#193=EDGE_CURVE('',#219,#221,#32,.T.);
#194=VERTEX_POINT('',#476);
#195=VERTEX_POINT('',#477);
#196=VERTEX_POINT('',#479);
#197=VERTEX_POINT('',#481);
#198=VERTEX_POINT('',#483);
#199=VERTEX_POINT('',#485);
#200=VERTEX_POINT('',#491);
#201=VERTEX_POINT('',#492);
#202=VERTEX_POINT('',#494);
#203=VERTEX_POINT('',#499);
#204=VERTEX_POINT('',#503);
#205=VERTEX_POINT('',#504);
#206=VERTEX_POINT('',#509);
#207=VERTEX_POINT('',#511);
#208=VERTEX_POINT('',#515);
#209=VERTEX_POINT('',#516);
#210=VERTEX_POINT('',#522);
#211=VERTEX_POINT('',#523);
#212=VERTEX_POINT('',#533);
#213=VERTEX_POINT('',#535);
#214=VERTEX_POINT('',#537);
#215=VERTEX_POINT('',#541);
#216=VERTEX_POINT('',#545);
#217=VERTEX_POINT('',#547);
#218=VERTEX_POINT('',#555);
#219=VERTEX_POINT('',#557);
#220=VERTEX_POINT('',#561);
#221=VERTEX_POINT('',#565);
#222=CIRCLE('',#328,3.90991252652526);
#223=CIRCLE('',#329,3.88244382089617);
#224=CIRCLE('',#330,3.90991252652526);
#225=CIRCLE('',#331,48.270473837089);
#226=CIRCLE('',#332,1.93778406828642);
#227=CIRCLE('',#333,48.270473837089);
#228=CIRCLE('',#334,3.83365055808712);
#229=CIRCLE('',#335,3.7600508438945);
#230=CIRCLE('',#337,4.64718014437437);
#231=CIRCLE('',#339,4.64718014437437);
#232=CIRCLE('',#341,2.49416157603264);
#233=CIRCLE('',#342,40.0762896518554);
#234=CIRCLE('',#343,4.65455566160902);
#235=CIRCLE('',#344,40.0762896518554);
#236=CIRCLE('',#346,1.27424983203272);
#237=CIRCLE('',#347,2.61690019550343);
#238=CIRCLE('',#348,2.61690019550343);
#239=CIRCLE('',#350,4.56427839919116);
#240=CIRCLE('',#351,4.56427839919116);
#241=CIRCLE('',#355,0.1);
#242=CIRCLE('',#357,4.65455566160902);
#243=CIRCLE('',#359,0.1);
#244=CIRCLE('',#361,3.88244382089617);
#245=EDGE_LOOP('',(#65,#66,#67,#68,#69,#70));
#246=EDGE_LOOP('',(#71,#72,#73,#74));
#247=EDGE_LOOP('',(#75,#76,#77,#78));
#248=EDGE_LOOP('',(#79,#80,#81,#82));
#249=EDGE_LOOP('',(#83,#84,#85,#86,#87,#88));
#250=EDGE_LOOP('',(#89,#90,#91,#92));
#251=EDGE_LOOP('',(#93,#94,#95,#96));
#252=EDGE_LOOP('',(#97,#98,#99,#100,#101));
#253=EDGE_LOOP('',(#102,#103,#104,#105,#106));
#254=EDGE_LOOP('',(#107));
#255=EDGE_LOOP('',(#108,#109,#110,#111));
#256=EDGE_LOOP('',(#112,#113,#114,#115));
#257=EDGE_LOOP('',(#116));
#258=EDGE_LOOP('',(#117,#118,#119,#120));
#259=EDGE_LOOP('',(#121,#122,#123,#124));
#260=EDGE_LOOP('',(#125,#126,#127,#128));
#261=EDGE_LOOP('',(#129));
#262=EDGE_LOOP('',(#130));
#263=EDGE_LOOP('',(#131,#132,#133,#134));
#264=EDGE_LOOP('',(#135,#136,#137,#138));
#265=EDGE_LOOP('',(#139,#140,#141,#142));
#266=EDGE_LOOP('',(#143,#144,#145,#146));
#267=EDGE_LOOP('',(#147,#148,#149,#150));
#268=FACE_BOUND('',#245,.T.);
#269=FACE_BOUND('',#246,.T.);
#270=FACE_BOUND('',#247,.T.);
#271=FACE_BOUND('',#248,.T.);
#272=FACE_BOUND('',#249,.T.);
#273=FACE_BOUND('',#250,.T.);
#274=FACE_BOUND('',#251,.T.);
#275=FACE_BOUND('',#252,.T.);
#276=FACE_BOUND('',#253,.T.);
#277=FACE_BOUND('',#254,.T.);
#278=FACE_BOUND('',#255,.T.);
#279=FACE_BOUND('',#256,.T.);
#280=FACE_BOUND('',#257,.T.);
#281=FACE_BOUND('',#258,.T.);
#282=FACE_BOUND('',#259,.T.);
#283=FACE_BOUND('',#260,.T.);
#284=FACE_BOUND('',#261,.T.);
#285=FACE_BOUND('',#262,.T.);
#286=FACE_BOUND('',#263,.T.);
#287=FACE_BOUND('',#264,.T.);
#288=FACE_BOUND('',#265,.T.);
#289=FACE_BOUND('',#266,.T.);
#290=FACE_BOUND('',#267,.T.);
#291=DEGENERATE_TOROIDAL_SURFACE('',#327,44.2736392977338,48.270473837089,
 .F.);
#292=DEGENERATE_TOROIDAL_SURFACE('',#340,35.3760934240889,40.0762896518554,
 .F.);
#293=DEGENERATE_TOROIDAL_SURFACE('',#345,0.0209812730422554,2.61690019550343,
 .T.);
#294=DEGENERATE_TOROIDAL_SURFACE('',#349,2.47717369996695,4.56427839919116,
 .F.);
#295=ADVANCED_FACE('',(#268,#269),#291,.T.);
#296=ADVANCED_FACE('',(#270),#51,.T.);
#297=ADVANCED_FACE('',(#271),#52,.T.);
#298=ADVANCED_FACE('',(#272),#292,.F.);
#299=ADVANCED_FACE('',(#273),#293,.T.);
#300=ADVANCED_FACE('',(#274),#294,.T.);
#301=ADVANCED_FACE('',(#275),#53,.F.);
#302=ADVANCED_FACE('',(#276),#54,.T.);
#303=ADVANCED_FACE('',(#277,#278),#55,.T.);
#304=ADVANCED_FACE('',(#279),#12,.T.);
#305=ADVANCED_FACE('',(#280,#281),#56,.F.);
#306=ADVANCED_FACE('',(#282),#13,.F.);
#307=ADVANCED_FACE('',(#283),#57,.T.);
#308=ADVANCED_FACE('',(#284,#285),#14,.F.);
#309=ADVANCED_FACE('',(#286),#58,.F.);
#310=ADVANCED_FACE('',(#287),#59,.T.);
#311=ADVANCED_FACE('',(#288),#60,.T.);
#312=ADVANCED_FACE('',(#289),#61,.F.);
#313=ADVANCED_FACE('',(#290),#62,.T.);
#314=CLOSED_SHELL('',(#295,#296,#297,#298,#299,#300,#301,#302,#303,#304,
#305,#306,#307,#308,#309,#310,#311,#312,#313));
#315=STYLED_ITEM('',(#316),#323);
#316=PRESENTATION_STYLE_ASSIGNMENT((#317));
#317=SURFACE_STYLE_USAGE(.BOTH.,#318);
#318=SURFACE_SIDE_STYLE('',(#319));
#319=SURFACE_STYLE_FILL_AREA(#320);
#320=FILL_AREA_STYLE('',(#321));
#321=FILL_AREA_STYLE_COLOUR('',#322);
#322=COLOUR_RGB('',0.972549019607843,0.529411764705882,0.00392156862745098);
#323=MANIFOLD_SOLID_BREP('Nose flap 1',#314);
#324=SHAPE_DEFINITION_REPRESENTATION(#576,#325);
#325=SHAPE_REPRESENTATION('Nose flap 1',(#326),#571);
#326=AXIS2_PLACEMENT_3D('',#473,#369,#370);
#327=AXIS2_PLACEMENT_3D('',#474,#371,#372);
#328=AXIS2_PLACEMENT_3D('',#475,#373,#374);
#329=AXIS2_PLACEMENT_3D('',#478,#375,#376);
#330=AXIS2_PLACEMENT_3D('',#480,#377,#378);
#331=AXIS2_PLACEMENT_3D('',#482,#379,#380);
#332=AXIS2_PLACEMENT_3D('',#484,#381,#382);
#333=AXIS2_PLACEMENT_3D('',#486,#383,#384);
#334=AXIS2_PLACEMENT_3D('',#493,#385,#386);
#335=AXIS2_PLACEMENT_3D('',#500,#387,#388);
#336=AXIS2_PLACEMENT_3D('',#501,#389,#390);
#337=AXIS2_PLACEMENT_3D('',#502,#391,#392);
#338=AXIS2_PLACEMENT_3D('',#507,#395,#396);
#339=AXIS2_PLACEMENT_3D('',#510,#398,#399);
#340=AXIS2_PLACEMENT_3D('',#513,#401,#402);
#341=AXIS2_PLACEMENT_3D('',#514,#403,#404);
#342=AXIS2_PLACEMENT_3D('',#517,#405,#406);
#343=AXIS2_PLACEMENT_3D('',#518,#407,#408);
#344=AXIS2_PLACEMENT_3D('',#519,#409,#410);
#345=AXIS2_PLACEMENT_3D('',#520,#411,#412);
#346=AXIS2_PLACEMENT_3D('',#521,#413,#414);
#347=AXIS2_PLACEMENT_3D('',#524,#415,#416);
#348=AXIS2_PLACEMENT_3D('',#525,#417,#418);
#349=AXIS2_PLACEMENT_3D('',#526,#419,#420);
#350=AXIS2_PLACEMENT_3D('',#527,#421,#422);
#351=AXIS2_PLACEMENT_3D('',#528,#423,#424);
#352=AXIS2_PLACEMENT_3D('',#529,#425,#426);
#353=AXIS2_PLACEMENT_3D('',#530,#427,#428);
#354=AXIS2_PLACEMENT_3D('',#531,#429,#430);
#355=AXIS2_PLACEMENT_3D('',#532,#431,#432);
#356=AXIS2_PLACEMENT_3D('',#539,#436,#437);
#357=AXIS2_PLACEMENT_3D('',#542,#439,#440);
#358=AXIS2_PLACEMENT_3D('',#543,#441,#442);
#359=AXIS2_PLACEMENT_3D('',#544,#443,#444);
#360=AXIS2_PLACEMENT_3D('',#549,#447,#448);
#361=AXIS2_PLACEMENT_3D('',#550,#449,#450);
#362=AXIS2_PLACEMENT_3D('',#551,#451,#452);
#363=AXIS2_PLACEMENT_3D('',#552,#453,#454);
#364=AXIS2_PLACEMENT_3D('',#553,#455,#456);
#365=AXIS2_PLACEMENT_3D('',#559,#460,#461);
#366=AXIS2_PLACEMENT_3D('',#563,#464,#465);
#367=AXIS2_PLACEMENT_3D('',#567,#468,#469);
#368=AXIS2_PLACEMENT_3D('',#569,#471,#472);
#369=DIRECTION('',(0.,0.,1.));
#370=DIRECTION('',(1.,0.,0.));
#371=DIRECTION('',(0.,0.,-1.));
#372=DIRECTION('',(-1.,0.,0.));
#373=DIRECTION('',(0.,0.,-1.));
#374=DIRECTION('',(-1.,0.,0.));
#375=DIRECTION('',(0.,0.,-1.));
#376=DIRECTION('',(-1.,0.,0.));
#377=DIRECTION('',(0.,0.,-1.));
#378=DIRECTION('',(-1.,0.,0.));
#379=DIRECTION('',(0.,-1.,0.));
#380=DIRECTION('',(0.,0.,-1.));
#381=DIRECTION('',(0.,0.,-1.));
#382=DIRECTION('',(-1.,0.,0.));
#383=DIRECTION('',(1.22464679914735E-16,1.,0.));
#384=DIRECTION('',(0.,0.,-1.));
#385=DIRECTION('',(0.,0.,1.));
#386=DIRECTION('',(1.,0.,0.));
#387=DIRECTION('',(0.,0.,1.));
#388=DIRECTION('',(1.,0.,0.));
#389=DIRECTION('',(0.,0.,-1.));
#390=DIRECTION('',(-1.,0.,0.));
#391=DIRECTION('',(0.,0.,-1.));
#392=DIRECTION('',(-1.,0.,0.));
#393=DIRECTION('',(0.,-1.,0.));
#394=DIRECTION('',(-1.,1.22464679914735E-16,0.));
#395=DIRECTION('',(0.,0.,-1.));
#396=DIRECTION('',(-1.,0.,0.));
#397=DIRECTION('',(0.,-1.,0.));
#398=DIRECTION('',(0.,0.,-1.));
#399=DIRECTION('',(-1.,0.,0.));
#400=DIRECTION('',(1.,0.,0.));
#401=DIRECTION('',(0.,0.,-1.));
#402=DIRECTION('',(-1.,0.,0.));
#403=DIRECTION('',(0.,0.,-1.));
#404=DIRECTION('',(-1.,0.,0.));
#405=DIRECTION('',(0.,-1.,0.));
#406=DIRECTION('',(0.,0.,-1.));
#407=DIRECTION('',(0.,0.,-1.));
#408=DIRECTION('',(-1.,0.,0.));
#409=DIRECTION('',(1.22464679914735E-16,1.,0.));
#410=DIRECTION('',(0.,0.,-1.));
#411=DIRECTION('',(0.,0.,-1.));
#412=DIRECTION('',(-1.,0.,0.));
#413=DIRECTION('',(0.,0.,-1.));
#414=DIRECTION('',(-1.,0.,0.));
#415=DIRECTION('',(0.,-1.,0.));
#416=DIRECTION('',(0.,0.,-1.));
#417=DIRECTION('',(1.22464679914735E-16,1.,0.));
#418=DIRECTION('',(0.,0.,-1.));
#419=DIRECTION('',(0.,0.,-1.));
#420=DIRECTION('',(-1.,0.,0.));
#421=DIRECTION('',(1.22464679914735E-16,1.,0.));
#422=DIRECTION('',(0.,0.,-1.));
#423=DIRECTION('',(0.,-1.,0.));
#424=DIRECTION('',(0.,0.,-1.));
#425=DIRECTION('',(1.22464679914735E-16,1.,0.));
#426=DIRECTION('',(-1.,1.22464679914735E-16,0.));
#427=DIRECTION('',(0.,-1.,0.));
#428=DIRECTION('',(1.,0.,0.));
#429=DIRECTION('',(-1.,0.,0.));
#430=DIRECTION('',(0.,0.,1.));
#431=DIRECTION('',(-1.,0.,0.));
#432=DIRECTION('',(0.,0.,1.));
#433=DIRECTION('',(0.,0.,1.));
#434=DIRECTION('',(0.,-1.,0.));
#435=DIRECTION('',(0.,0.,1.));
#436=DIRECTION('',(0.,0.,1.));
#437=DIRECTION('',(1.,0.,0.));
#438=DIRECTION('',(0.,0.,1.));
#439=DIRECTION('',(0.,0.,-1.));
#440=DIRECTION('',(-1.,0.,0.));
#441=DIRECTION('',(-1.,0.,0.));
#442=DIRECTION('',(0.,0.,1.));
#443=DIRECTION('',(1.,0.,0.));
#444=DIRECTION('',(0.,0.,-1.));
#445=DIRECTION('',(0.,0.,1.));
#446=DIRECTION('',(0.,-1.,0.));
#447=DIRECTION('',(0.,0.,1.));
#448=DIRECTION('',(1.,0.,0.));
#449=DIRECTION('',(0.,0.,-1.));
#450=DIRECTION('',(-1.,0.,0.));
#451=DIRECTION('',(0.,0.,-1.));
#452=DIRECTION('',(1.,0.,0.));
#453=DIRECTION('',(1.,0.,0.));
#454=DIRECTION('',(0.,0.,-1.));
#455=DIRECTION('',(-1.,0.,0.));
#456=DIRECTION('',(0.,0.,1.));
#457=DIRECTION('',(0.,-1.,0.));
#458=DIRECTION('',(0.,0.,-1.));
#459=DIRECTION('',(0.,-1.,0.));
#460=DIRECTION('',(0.,0.,1.));
#461=DIRECTION('',(1.,0.,0.));
#462=DIRECTION('',(-1.,0.,0.));
#463=DIRECTION('',(0.,-1.,0.));
#464=DIRECTION('',(-1.,0.,0.));
#465=DIRECTION('',(0.,0.,1.));
#466=DIRECTION('',(0.,0.,-1.));
#467=DIRECTION('',(0.,-1.,0.));
#468=DIRECTION('',(0.,0.,1.));
#469=DIRECTION('',(1.,0.,0.));
#470=DIRECTION('',(-1.,0.,0.));
#471=DIRECTION('',(0.,-1.,0.));
#472=DIRECTION('',(1.,0.,0.));
#473=CARTESIAN_POINT('',(0.,0.,0.));
#474=CARTESIAN_POINT('',(0.,0.,44.2906213965335));
#475=CARTESIAN_POINT('',(0.,0.,47.1861313785627));
#476=CARTESIAN_POINT('',(-3.90991252652526,4.7882618605553E-16,47.1861313785627));
#477=CARTESIAN_POINT('',(-0.975904312623447,3.78612738214321,47.1861313785627));
#478=CARTESIAN_POINT('',(0.00023743566515376,0.0283124055156347,47.1861313785627));
#479=CARTESIAN_POINT('',(0.976369870904925,3.78605746594527,47.1861313785627));
#480=CARTESIAN_POINT('',(0.,0.,47.1861313785627));
#481=CARTESIAN_POINT('',(3.90991252652526,0.,47.1861313785627));
#482=CARTESIAN_POINT('',(-44.2736392977338,0.,44.2906213965335));
#483=CARTESIAN_POINT('',(1.93778406828642,0.,58.2384884357452));
#484=CARTESIAN_POINT('',(0.,0.,58.2384884357452));
#485=CARTESIAN_POINT('',(-1.93778406828642,2.3731010566657E-16,58.2384884357452));
#486=CARTESIAN_POINT('',(44.2736392977338,-5.42195706525742E-15,44.2906213965335));
#487=CARTESIAN_POINT('',(0.951070990413427,3.7138040568554,48.2563883066177));
#488=CARTESIAN_POINT('',(0.951070990413427,3.69082301577265,48.5264480609369));
#489=CARTESIAN_POINT('',(0.951070990413427,3.66548485692325,48.7962845378146));
#490=CARTESIAN_POINT('',(0.951070990413427,3.63778041116635,49.0658968687058));
#491=CARTESIAN_POINT('',(0.951070990413427,3.71380405685541,48.2563883066177));
#492=CARTESIAN_POINT('',(0.951070990413427,3.63778041116637,49.0658968687058));
#493=CARTESIAN_POINT('',(0.,0.,48.2563883066177));
#494=CARTESIAN_POINT('',(-0.967111997306347,3.70965914690121,48.2563883066177));
#495=CARTESIAN_POINT('',(-0.967111997306347,3.70965914690121,48.2563883066177));
#496=CARTESIAN_POINT('',(-0.967111997306347,3.68665237793011,48.5264486537609));
#497=CARTESIAN_POINT('',(-0.967111997306347,3.66128542774842,48.7962851420072));
#498=CARTESIAN_POINT('',(-0.967111997306347,3.6335487795458,49.0658968687044));
#499=CARTESIAN_POINT('',(-0.967111997306347,3.63354877954582,49.0658968687044));
#500=CARTESIAN_POINT('',(0.,0.,49.0658968687058));
#501=CARTESIAN_POINT('',(-4.27854633544981,5.23970807471225E-16,47.1861313785627));
#502=CARTESIAN_POINT('',(0.,0.,47.1861313785627));
#503=CARTESIAN_POINT('',(-4.64718014437437,5.69115428886921E-16,47.1861313785627));
#504=CARTESIAN_POINT('',(-0.975894648247105,4.54355902491694,47.1861313785627));
#505=CARTESIAN_POINT('',(-0.975895002765116,4.16479986292234,47.1861313785627));
#506=CARTESIAN_POINT('',(-4.27854633544981,5.23970807471225E-16,47.1861313785627));
#507=CARTESIAN_POINT('',(-4.27854633544981,5.23970807471225E-16,47.1861313785627));
#508=CARTESIAN_POINT('',(0.976369874095419,4.16474885195328,47.1861313785627));
#509=CARTESIAN_POINT('',(0.976369871859782,4.54345794385881,47.1861313785627));
#510=CARTESIAN_POINT('',(0.,0.,47.1861313785627));
#511=CARTESIAN_POINT('',(4.64718014437437,0.,47.1861313785627));
#512=CARTESIAN_POINT('',(4.27854633544981,0.,47.1861313785627));
#513=CARTESIAN_POINT('',(0.,0.,45.1254118140982));
#514=CARTESIAN_POINT('',(0.,0.,58.2384884357452));
#515=CARTESIAN_POINT('',(-2.49416157603264,3.0544669906447E-16,58.2384884357452));
#516=CARTESIAN_POINT('',(2.49416157603264,0.,58.2384884357452));
#517=CARTESIAN_POINT('',(-35.3760934240889,0.,45.1254118140982));
#518=CARTESIAN_POINT('',(-3.9421197252712E-7,-0.00754353624988907,47.1861313785627));
#519=CARTESIAN_POINT('',(35.3760934240889,-4.33232195781482E-15,45.1254118140982));
#520=CARTESIAN_POINT('',(0.,0.,57.3831839156319));
#521=CARTESIAN_POINT('',(0.,0.,59.6804615549851));
#522=CARTESIAN_POINT('',(-1.27424983203272,1.56050597811293E-16,59.6804615549851));
#523=CARTESIAN_POINT('',(1.27424983203272,0.,59.6804615549851));
#524=CARTESIAN_POINT('',(0.0209812730422554,0.,57.3831839156319));
#525=CARTESIAN_POINT('',(-0.0209812730422554,2.56946488732347E-18,57.3831839156319));
#526=CARTESIAN_POINT('',(0.,0.,57.0805656361328));
#527=CARTESIAN_POINT('',(2.47717369996695,-3.03366284259653E-16,57.0805656361328));
#528=CARTESIAN_POINT('',(-2.47717369996695,0.,57.0805656361328));
#529=CARTESIAN_POINT('',(-2.35009811388329,2.87804013284939E-16,52.5000420555677));
#530=CARTESIAN_POINT('',(2.35009811388329,0.,52.5000420555677));
#531=CARTESIAN_POINT('',(-0.975895002765116,4.16479986292234,46.1861313785627));
#532=CARTESIAN_POINT('',(-0.975895002765116,4.17131148278713,46.7367947101593));
#533=CARTESIAN_POINT('',(-0.975895002765116,4.17131148278713,46.8367947101593));
#534=CARTESIAN_POINT('',(-0.975895002765116,4.54355722290866,46.1861313785627));
#535=CARTESIAN_POINT('',(-0.975895002765116,4.54355722290866,46.1861313785627));
#536=CARTESIAN_POINT('',(-0.975895002765116,4.16479986292234,46.1861313785627));
#537=CARTESIAN_POINT('',(-0.975895002765116,3.78604250293602,46.1861313785627));
#538=CARTESIAN_POINT('',(-0.975895002765116,3.78604250293602,46.1861313785627));
#539=CARTESIAN_POINT('',(-3.9421197252712E-7,-0.00754353624988907,46.1861313785627));
#540=CARTESIAN_POINT('',(0.976369874095419,4.54345520097054,46.1861313785627));
#541=CARTESIAN_POINT('',(0.976369874095419,4.54345520097054,46.1861313785627));
#542=CARTESIAN_POINT('',(-3.9421197252712E-7,-0.00754353624988907,46.1861313785627));
#543=CARTESIAN_POINT('',(0.976369874095419,4.16474885195328,46.1861313785627));
#544=CARTESIAN_POINT('',(0.976369874095419,4.17131148278713,46.7367947101593));
#545=CARTESIAN_POINT('',(0.976369874095419,4.17131148278713,46.6367947101593));
#546=CARTESIAN_POINT('',(0.976369874095653,3.78604250293596,46.1861313785627));
#547=CARTESIAN_POINT('',(0.976369874095653,3.78604250293596,46.1861313785627));
#548=CARTESIAN_POINT('',(0.976369874095419,4.16474885195328,46.1861313785627));
#549=CARTESIAN_POINT('',(0.00023743566515376,0.0283124055156347,46.1861313785627));
#550=CARTESIAN_POINT('',(0.00023743566515376,0.0283124055156347,46.1861313785627));
#551=CARTESIAN_POINT('',(0.,2.32359007218718,46.1861313785627));
#552=CARTESIAN_POINT('',(-9.02363012590458,4.17131148278713,46.7367947101593));
#553=CARTESIAN_POINT('',(0.951070990413427,4.35,48.6611425876617));
#554=CARTESIAN_POINT('',(0.951070990413427,4.35,49.0658968687058));
#555=CARTESIAN_POINT('',(0.951070990413427,3.,49.0658968687058));
#556=CARTESIAN_POINT('',(0.951070990413427,3.,48.6611425876617));
#557=CARTESIAN_POINT('',(0.951070990413427,3.,48.2563883066177));
#558=CARTESIAN_POINT('',(0.951070990413427,4.35,48.2563883066177));
#559=CARTESIAN_POINT('',(-0.00802050344645977,4.35,49.0658968687058));
#560=CARTESIAN_POINT('',(-0.00802050344645977,3.,49.0658968687058));
#561=CARTESIAN_POINT('',(-0.967111997306347,3.,49.0658968687058));
#562=CARTESIAN_POINT('',(-0.967111997306347,4.35,49.0658968687058));
#563=CARTESIAN_POINT('',(-0.967111997306347,4.35,48.6611425876617));
#564=CARTESIAN_POINT('',(-0.967111997306347,3.,48.6611425876617));
#565=CARTESIAN_POINT('',(-0.967111997306347,3.,48.2563883066177));
#566=CARTESIAN_POINT('',(-0.967111997306347,4.35,48.2563883066177));
#567=CARTESIAN_POINT('',(-0.00802050344645977,4.35,48.2563883066177));
#568=CARTESIAN_POINT('',(-0.00802050344645977,3.,48.2563883066177));
#569=CARTESIAN_POINT('',(-0.00802050344645977,3.,48.6611425876617));
#570=MECHANICAL_DESIGN_GEOMETRIC_PRESENTATION_REPRESENTATION('',(#315),
#571);
#571=(
GEOMETRIC_REPRESENTATION_CONTEXT(3)
GLOBAL_UNCERTAINTY_ASSIGNED_CONTEXT((#572))
GLOBAL_UNIT_ASSIGNED_CONTEXT((#575,#574,#573))
REPRESENTATION_CONTEXT('Nose flap 1','TOP_LEVEL_ASSEMBLY_PART')
);
#572=UNCERTAINTY_MEASURE_WITH_UNIT(LENGTH_MEASURE(0.00217077650044267),
#575,'DISTANCE_ACCURACY_VALUE','Maximum Tolerance applied to model');
#573=(
NAMED_UNIT(*)
SI_UNIT($,.STERADIAN.)
SOLID_ANGLE_UNIT()
);
#574=(
NAMED_UNIT(*)
PLANE_ANGLE_UNIT()
SI_UNIT($,.RADIAN.)
);
#575=(
LENGTH_UNIT()
NAMED_UNIT(*)
SI_UNIT(.CENTI.,.METRE.)
);
#576=PRODUCT_DEFINITION_SHAPE('','',#577);
#577=PRODUCT_DEFINITION('','',#579,#578);
#578=PRODUCT_DEFINITION_CONTEXT('',#585,'design');
#579=PRODUCT_DEFINITION_FORMATION_WITH_SPECIFIED_SOURCE('','',#581,
 .NOT_KNOWN.);
#580=PRODUCT_RELATED_PRODUCT_CATEGORY('','',(#581));
#581=PRODUCT('Nose flap 1','Nose flap 1','Nose flap 1',(#583));
#582=PRODUCT_CATEGORY('','');
#583=PRODUCT_CONTEXT('',#585,'mechanical');
#584=APPLICATION_PROTOCOL_DEFINITION('international standard',
'ap242_managed_model_based_3d_engineering',2020,#585);
#585=APPLICATION_CONTEXT('managed model based 3d engineering');
ENDSEC;
END-ISO-10303-21;
