ISO-10303-21;
HEADER;
/* Generated by software containing ST-Developer
 * from STEP Tools, Inc. (www.steptools.com) 
 */
/* OPTION: using custom renumber hook */

FILE_DESCRIPTION(
/* description */ ('STEP AP242 Edition 2',
'CAx-IF Rec.Pracs.---Representation and Presentation of Product Manufa
cturing Information (PMI)---4.0---2014-10-13',
'CAx-IF Rec.Pracs.---3D Tessellated Geometry---0.4---2014-09-14','2;1',
'CAx-IF Rec.Pracs.---User Defined Attributes---1.5---2016-08-15'),
/* implementation_level */ '2;1');

FILE_NAME(
/* name */ 'All - Lower tube',
/* time_stamp */ '2026-09-01T00:15:36Z',
/* author */ (''),
/* organization */ (''),
/* preprocessor_version */ 'ST-DEVELOPER v20',
/* originating_system */ 'ONSHAPE BY PTC INC, 1.220',
/* authorisation */ '  ');

FILE_SCHEMA (('AP242_MANAGED_MODEL_BASED_3D_ENGINEERING_MIM_LF { 1 0 10303 442 3 1 4 }'));
ENDSEC;

DATA;
#10=SHAPE_REPRESENTATION_RELATIONSHIP('','',#173,#11);
#11=ADVANCED_BREP_SHAPE_REPRESENTATION('',(#171),#325);
#12=PLANE('',#183);
#13=PLANE('',#185);
#14=PLANE('',#188);
#15=PLANE('',#193);
#16=PLANE('',#196);
#17=CIRCLE('',#176,0.1);
#18=CIRCLE('',#178,4.7);
#19=CIRCLE('',#179,4.7);
#20=CIRCLE('',#181,4.5);
#21=CIRCLE('',#182,4.5);
#22=CIRCLE('',#184,4.59);
#23=CIRCLE('',#187,4.59);
#24=CIRCLE('',#190,0.1);
#25=CIRCLE('',#192,0.3);
#26=CIRCLE('',#195,0.3);
#27=ORIENTED_EDGE('',*,*,#55,.F.);
#28=ORIENTED_EDGE('',*,*,#56,.T.);
#29=ORIENTED_EDGE('',*,*,#57,.T.);
#30=ORIENTED_EDGE('',*,*,#58,.F.);
#31=ORIENTED_EDGE('',*,*,#59,.T.);
#32=ORIENTED_EDGE('',*,*,#60,.F.);
#33=ORIENTED_EDGE('',*,*,#55,.T.);
#34=ORIENTED_EDGE('',*,*,#61,.F.);
#35=ORIENTED_EDGE('',*,*,#62,.T.);
#36=ORIENTED_EDGE('',*,*,#63,.T.);
#37=ORIENTED_EDGE('',*,*,#64,.F.);
#38=ORIENTED_EDGE('',*,*,#58,.T.);
#39=ORIENTED_EDGE('',*,*,#61,.T.);
#40=ORIENTED_EDGE('',*,*,#57,.F.);
#41=ORIENTED_EDGE('',*,*,#65,.F.);
#42=ORIENTED_EDGE('',*,*,#64,.T.);
#43=ORIENTED_EDGE('',*,*,#62,.F.);
#44=ORIENTED_EDGE('',*,*,#65,.T.);
#45=ORIENTED_EDGE('',*,*,#66,.F.);
#46=ORIENTED_EDGE('',*,*,#63,.F.);
#47=ORIENTED_EDGE('',*,*,#67,.T.);
#48=ORIENTED_EDGE('',*,*,#59,.F.);
#49=ORIENTED_EDGE('',*,*,#66,.T.);
#50=ORIENTED_EDGE('',*,*,#67,.F.);
#51=ORIENTED_EDGE('',*,*,#60,.T.);
#52=ORIENTED_EDGE('',*,*,#68,.F.);
#53=ORIENTED_EDGE('',*,*,#56,.F.);
#54=ORIENTED_EDGE('',*,*,#68,.T.);
#55=EDGE_CURVE('',#69,#69,#83,.T.);
#56=EDGE_CURVE('',#70,#70,#17,.T.);
#57=EDGE_CURVE('',#71,#71,#18,.T.);
#58=EDGE_CURVE('',#72,#72,#19,.T.);
#59=EDGE_CURVE('',#73,#73,#84,.T.);
#60=EDGE_CURVE('',#74,#74,#85,.T.);
#61=EDGE_CURVE('',#75,#75,#20,.T.);
#62=EDGE_CURVE('',#76,#76,#21,.T.);
#63=EDGE_CURVE('',#77,#77,#86,.T.);
#64=EDGE_CURVE('',#78,#78,#22,.T.);
#65=EDGE_CURVE('',#79,#79,#23,.T.);
#66=EDGE_CURVE('',#80,#80,#24,.T.);
#67=EDGE_CURVE('',#81,#81,#25,.T.);
#68=EDGE_CURVE('',#82,#82,#26,.T.);
#69=VERTEX_POINT('',#256);
#70=VERTEX_POINT('',#258);
#71=VERTEX_POINT('',#261);
#72=VERTEX_POINT('',#263);
#73=VERTEX_POINT('',#275);
#74=VERTEX_POINT('',#287);
#75=VERTEX_POINT('',#290);
#76=VERTEX_POINT('',#292);
#77=VERTEX_POINT('',#304);
#78=VERTEX_POINT('',#307);
#79=VERTEX_POINT('',#311);
#80=VERTEX_POINT('',#315);
#81=VERTEX_POINT('',#318);
#82=VERTEX_POINT('',#322);
#83=B_SPLINE_CURVE_WITH_KNOTS('',3,(#245,#246,#247,#248,#249,#250,#251,
#252,#253,#254,#255),.UNSPECIFIED.,.T.,.F.,(1,1,1,1,1,1,1,1,1,1,1,1,1,1,
1),(-0.00234464988836285,-0.00156309992557524,-0.000781549962787617,9.2067307792201E-19,
0.000781549962787619,0.00156309992557524,0.00234464988836286,0.00312619985115047,
0.00390774981393809,0.00468929977672571,0.00547084973951333,0.00625239970230095,
0.00703394966508857,0.00781549962787618,0.0085970495906638),
 .UNSPECIFIED.);
#84=B_SPLINE_CURVE_WITH_KNOTS('',3,(#264,#265,#266,#267,#268,#269,#270,
#271,#272,#273,#274),.UNSPECIFIED.,.T.,.F.,(1,1,1,1,1,1,1,1,1,1,1,1,1,1,
1),(-0.00703550743430148,-0.00469033828953432,-0.00234516914476716,1.19685874037472E-18,
0.00234516914476716,0.00469033828953432,0.00703550743430148,0.00938067657906864,
0.0117258457238358,0.014071014868603,0.0164161840133701,0.0187613531581373,
0.0211065223029044,0.0234516914476716,0.0257968605924387),.UNSPECIFIED.);
#85=B_SPLINE_CURVE_WITH_KNOTS('',3,(#276,#277,#278,#279,#280,#281,#282,
#283,#284,#285,#286),.UNSPECIFIED.,.T.,.F.,(1,1,1,1,1,1,1,1,1,1,1,1,1,1,
1),(-0.00703550743430138,-0.00469033828953426,-0.00234516914476713,9.80932581324652E-19,
0.00234516914476713,0.00469033828953426,0.00703550743430138,0.00938067657906851,
0.0117258457238356,0.0140710148686028,0.0164161840133699,0.018761353158137,
0.0211065223029042,0.0234516914476713,0.0257968605924384),.UNSPECIFIED.);
#86=B_SPLINE_CURVE_WITH_KNOTS('',3,(#293,#294,#295,#296,#297,#298,#299,
#300,#301,#302,#303),.UNSPECIFIED.,.T.,.F.,(1,1,1,1,1,1,1,1,1,1,1,1,1,1,
1),(-0.00234464988836286,-0.00156309992557524,-0.000781549962787617,7.33076207457661E-19,
0.000781549962787619,0.00156309992557524,0.00234464988836286,0.00312619985115048,
0.00390774981393809,0.00468929977672571,0.00547084973951333,0.00625239970230095,
0.00703394966508857,0.00781549962787619,0.00859704959066381),
 .UNSPECIFIED.);
#87=EDGE_LOOP('',(#27));
#88=EDGE_LOOP('',(#28));
#89=EDGE_LOOP('',(#29));
#90=EDGE_LOOP('',(#30));
#91=EDGE_LOOP('',(#31));
#92=EDGE_LOOP('',(#32));
#93=EDGE_LOOP('',(#33));
#94=EDGE_LOOP('',(#34));
#95=EDGE_LOOP('',(#35));
#96=EDGE_LOOP('',(#36));
#97=EDGE_LOOP('',(#37));
#98=EDGE_LOOP('',(#38));
#99=EDGE_LOOP('',(#39));
#100=EDGE_LOOP('',(#40));
#101=EDGE_LOOP('',(#41));
#102=EDGE_LOOP('',(#42));
#103=EDGE_LOOP('',(#43));
#104=EDGE_LOOP('',(#44));
#105=EDGE_LOOP('',(#45));
#106=EDGE_LOOP('',(#46));
#107=EDGE_LOOP('',(#47));
#108=EDGE_LOOP('',(#48));
#109=EDGE_LOOP('',(#49));
#110=EDGE_LOOP('',(#50));
#111=EDGE_LOOP('',(#51));
#112=EDGE_LOOP('',(#52));
#113=EDGE_LOOP('',(#53));
#114=EDGE_LOOP('',(#54));
#115=FACE_BOUND('',#87,.T.);
#116=FACE_BOUND('',#88,.T.);
#117=FACE_BOUND('',#89,.T.);
#118=FACE_BOUND('',#90,.T.);
#119=FACE_BOUND('',#91,.T.);
#120=FACE_BOUND('',#92,.T.);
#121=FACE_BOUND('',#93,.T.);
#122=FACE_BOUND('',#94,.T.);
#123=FACE_BOUND('',#95,.T.);
#124=FACE_BOUND('',#96,.T.);
#125=FACE_BOUND('',#97,.T.);
#126=FACE_BOUND('',#98,.T.);
#127=FACE_BOUND('',#99,.T.);
#128=FACE_BOUND('',#100,.T.);
#129=FACE_BOUND('',#101,.T.);
#130=FACE_BOUND('',#102,.T.);
#131=FACE_BOUND('',#103,.T.);
#132=FACE_BOUND('',#104,.T.);
#133=FACE_BOUND('',#105,.T.);
#134=FACE_BOUND('',#106,.T.);
#135=FACE_BOUND('',#107,.T.);
#136=FACE_BOUND('',#108,.T.);
#137=FACE_BOUND('',#109,.T.);
#138=FACE_BOUND('',#110,.T.);
#139=FACE_BOUND('',#111,.T.);
#140=FACE_BOUND('',#112,.T.);
#141=FACE_BOUND('',#113,.T.);
#142=FACE_BOUND('',#114,.T.);
#143=CYLINDRICAL_SURFACE('',#175,0.1);
#144=CYLINDRICAL_SURFACE('',#177,4.7);
#145=CYLINDRICAL_SURFACE('',#180,4.5);
#146=CYLINDRICAL_SURFACE('',#186,4.59);
#147=CYLINDRICAL_SURFACE('',#189,0.1);
#148=CYLINDRICAL_SURFACE('',#191,0.3);
#149=CYLINDRICAL_SURFACE('',#194,0.3);
#150=ADVANCED_FACE('',(#115,#116),#143,.F.);
#151=ADVANCED_FACE('',(#117,#118,#119,#120),#144,.T.);
#152=ADVANCED_FACE('',(#121,#122,#123,#124),#145,.F.);
#153=ADVANCED_FACE('',(#125,#126),#12,.T.);
#154=ADVANCED_FACE('',(#127,#128),#13,.F.);
#155=ADVANCED_FACE('',(#129,#130),#146,.T.);
#156=ADVANCED_FACE('',(#131,#132),#14,.T.);
#157=ADVANCED_FACE('',(#133,#134),#147,.F.);
#158=ADVANCED_FACE('',(#135,#136),#148,.F.);
#159=ADVANCED_FACE('',(#137,#138),#15,.F.);
#160=ADVANCED_FACE('',(#139,#140),#149,.F.);
#161=ADVANCED_FACE('',(#141,#142),#16,.T.);
#162=CLOSED_SHELL('',(#150,#151,#152,#153,#154,#155,#156,#157,#158,#159,
#160,#161));
#163=STYLED_ITEM('',(#164),#171);
#164=PRESENTATION_STYLE_ASSIGNMENT((#165));
#165=SURFACE_STYLE_USAGE(.BOTH.,#166);
#166=SURFACE_SIDE_STYLE('',(#167));
#167=SURFACE_STYLE_FILL_AREA(#168);
#168=FILL_AREA_STYLE('',(#169));
#169=FILL_AREA_STYLE_COLOUR('',#170);
#170=COLOUR_RGB('',0.917647058823529,0.917647058823529,0.917647058823529);
#171=MANIFOLD_SOLID_BREP('Lower tube',#162);
#172=SHAPE_DEFINITION_REPRESENTATION(#330,#173);
#173=SHAPE_REPRESENTATION('Lower tube',(#174),#325);
#174=AXIS2_PLACEMENT_3D('',#243,#197,#198);
#175=AXIS2_PLACEMENT_3D('',#244,#199,#200);
#176=AXIS2_PLACEMENT_3D('',#257,#201,#202);
#177=AXIS2_PLACEMENT_3D('',#259,#203,#204);
#178=AXIS2_PLACEMENT_3D('',#260,#205,#206);
#179=AXIS2_PLACEMENT_3D('',#262,#207,#208);
#180=AXIS2_PLACEMENT_3D('',#288,#209,#210);
#181=AXIS2_PLACEMENT_3D('',#289,#211,#212);
#182=AXIS2_PLACEMENT_3D('',#291,#213,#214);
#183=AXIS2_PLACEMENT_3D('',#305,#215,#216);
#184=AXIS2_PLACEMENT_3D('',#306,#217,#218);
#185=AXIS2_PLACEMENT_3D('',#308,#219,#220);
#186=AXIS2_PLACEMENT_3D('',#309,#221,#222);
#187=AXIS2_PLACEMENT_3D('',#310,#223,#224);
#188=AXIS2_PLACEMENT_3D('',#312,#225,#226);
#189=AXIS2_PLACEMENT_3D('',#313,#227,#228);
#190=AXIS2_PLACEMENT_3D('',#314,#229,#230);
#191=AXIS2_PLACEMENT_3D('',#316,#231,#232);
#192=AXIS2_PLACEMENT_3D('',#317,#233,#234);
#193=AXIS2_PLACEMENT_3D('',#319,#235,#236);
#194=AXIS2_PLACEMENT_3D('',#320,#237,#238);
#195=AXIS2_PLACEMENT_3D('',#321,#239,#240);
#196=AXIS2_PLACEMENT_3D('',#323,#241,#242);
#197=DIRECTION('',(0.,0.,1.));
#198=DIRECTION('',(1.,0.,0.));
#199=DIRECTION('',(-1.,0.,0.));
#200=DIRECTION('',(0.,0.,1.));
#201=DIRECTION('',(1.,0.,0.));
#202=DIRECTION('',(0.,0.,-1.));
#203=DIRECTION('',(0.,0.,-1.));
#204=DIRECTION('',(-1.,0.,0.));
#205=DIRECTION('',(0.,0.,1.));
#206=DIRECTION('',(1.,0.,0.));
#207=DIRECTION('',(0.,0.,1.));
#208=DIRECTION('',(1.,0.,0.));
#209=DIRECTION('',(0.,0.,-1.));
#210=DIRECTION('',(-1.,0.,0.));
#211=DIRECTION('',(0.,0.,1.));
#212=DIRECTION('',(1.,0.,0.));
#213=DIRECTION('',(0.,0.,1.));
#214=DIRECTION('',(1.,0.,0.));
#215=DIRECTION('',(0.,0.,1.));
#216=DIRECTION('',(1.,0.,0.));
#217=DIRECTION('',(0.,0.,1.));
#218=DIRECTION('',(1.,0.,0.));
#219=DIRECTION('',(0.,0.,1.));
#220=DIRECTION('',(1.,0.,0.));
#221=DIRECTION('',(0.,0.,-1.));
#222=DIRECTION('',(-1.,0.,0.));
#223=DIRECTION('',(0.,0.,1.));
#224=DIRECTION('',(1.,0.,0.));
#225=DIRECTION('',(0.,0.,1.));
#226=DIRECTION('',(1.,0.,0.));
#227=DIRECTION('',(-1.,0.,0.));
#228=DIRECTION('',(0.,0.,1.));
#229=DIRECTION('',(1.,0.,0.));
#230=DIRECTION('',(0.,0.,-1.));
#231=DIRECTION('',(1.,0.,0.));
#232=DIRECTION('',(0.,0.,-1.));
#233=DIRECTION('',(1.,0.,0.));
#234=DIRECTION('',(0.,0.,-1.));
#235=DIRECTION('',(1.,0.,0.));
#236=DIRECTION('',(0.,1.,0.));
#237=DIRECTION('',(-1.,0.,0.));
#238=DIRECTION('',(0.,0.,1.));
#239=DIRECTION('',(1.,0.,0.));
#240=DIRECTION('',(0.,0.,-1.));
#241=DIRECTION('',(1.,0.,0.));
#242=DIRECTION('',(0.,1.,0.));
#243=CARTESIAN_POINT('',(0.,0.,0.));
#244=CARTESIAN_POINT('',(7.3,0.,7.27451220154762));
#245=CARTESIAN_POINT('',(4.49944301940408,0.078450168498123,7.35281217836119));
#246=CARTESIAN_POINT('',(4.50027821815112,-2.01321249834331E-5,7.38535589105923));
#247=CARTESIAN_POINT('',(4.49944410799143,-0.0783696399981893,7.3528374666876));
#248=CARTESIAN_POINT('',(4.49861120846471,-0.110803700165595,7.27459319315453));
#249=CARTESIAN_POINT('',(4.49944357011999,-0.0784154745134092,7.19618201734025));
#250=CARTESIAN_POINT('',(4.50027757525704,-1.45520423677885E-5,7.16370406971633));
#251=CARTESIAN_POINT('',(4.49944612801557,0.0782611779969337,7.19607495071204));
#252=CARTESIAN_POINT('',(4.49861084239337,0.110822085676575,7.2743938442788));
#253=CARTESIAN_POINT('',(4.49944301940408,0.078450168498123,7.35281217836119));
#254=CARTESIAN_POINT('',(4.50027821815112,-2.01321249834331E-5,7.38535589105923));
#255=CARTESIAN_POINT('',(4.49944410799143,-0.0783696399981893,7.3528374666876));
#256=CARTESIAN_POINT('',(4.5,9.47379963894254E-17,7.37451220154762));
#257=CARTESIAN_POINT('',(4.567,0.,7.27451220154762));
#258=CARTESIAN_POINT('',(4.567,0.,7.17451220154762));
#259=CARTESIAN_POINT('',(0.,2.87791997799628E-16,20.));
#260=CARTESIAN_POINT('',(0.,2.87791997799628E-16,0.));
#261=CARTESIAN_POINT('',(4.7,2.87791997799628E-16,0.));
#262=CARTESIAN_POINT('',(0.,2.87791997799628E-16,20.));
#263=CARTESIAN_POINT('',(4.7,2.87791997799628E-16,20.));
#264=CARTESIAN_POINT('',(-4.69520054237487,0.235349164928552,7.51001884710945));
#265=CARTESIAN_POINT('',(-4.70239740603132,-5.98303477674072E-5,7.60765330336969));
#266=CARTESIAN_POINT('',(-4.69520983349985,-0.23510984353748,7.51009342330612));
#267=CARTESIAN_POINT('',(-4.68801976306379,-0.33241361139166,7.27537007225235));
#268=CARTESIAN_POINT('',(-4.69520568980516,-0.235235451053196,7.04011894974303));
#269=CARTESIAN_POINT('',(-4.70239175374233,-4.92196999063213E-5,6.94270013052698));
#270=CARTESIAN_POINT('',(-4.69522728781348,0.234785771094266,7.03980612816514));
#271=CARTESIAN_POINT('',(-4.68801669642593,0.332466043389119,7.2747775284403));
#272=CARTESIAN_POINT('',(-4.69520054237487,0.235349164928552,7.51001884710945));
#273=CARTESIAN_POINT('',(-4.70239740603132,-5.98303477674072E-5,7.60765330336969));
#274=CARTESIAN_POINT('',(-4.69520983349985,-0.23510984353748,7.51009342330612));
#275=CARTESIAN_POINT('',(-4.7,4.10953989272681E-16,7.57512091398239));
#276=CARTESIAN_POINT('',(4.69520054237487,0.23534916492855,7.50683297884621));
#277=CARTESIAN_POINT('',(4.70239740603132,-5.98303477675373E-5,7.60446743510645));
#278=CARTESIAN_POINT('',(4.69520983349985,-0.23510984353748,7.50690755504287));
#279=CARTESIAN_POINT('',(4.68801976306379,-0.33241361139166,7.27218420398912));
#280=CARTESIAN_POINT('',(4.69520568980516,-0.235235451053195,7.03693308147978));
#281=CARTESIAN_POINT('',(4.70239175374234,-4.9219699906634E-5,6.93951426226374));
#282=CARTESIAN_POINT('',(4.69522728781348,0.234785771094266,7.0366202599019));
#283=CARTESIAN_POINT('',(4.68801669642593,0.33246604338912,7.27159166017706));
#284=CARTESIAN_POINT('',(4.69520054237487,0.23534916492855,7.50683297884621));
#285=CARTESIAN_POINT('',(4.70239740603132,-5.98303477675373E-5,7.60446743510645));
#286=CARTESIAN_POINT('',(4.69520983349985,-0.23510984353748,7.50690755504287));
#287=CARTESIAN_POINT('',(4.7,1.00942246683954E-16,7.57193504571915));
#288=CARTESIAN_POINT('',(0.,2.75545529808154E-16,20.));
#289=CARTESIAN_POINT('',(0.,2.75545529808154E-16,0.));
#290=CARTESIAN_POINT('',(4.5,2.75545529808154E-16,0.));
#291=CARTESIAN_POINT('',(0.,2.75545529808154E-16,25.));
#292=CARTESIAN_POINT('',(4.5,2.75545529808154E-16,25.));
#293=CARTESIAN_POINT('',(-4.49944301940408,-0.0784501684981248,7.35281217836119));
#294=CARTESIAN_POINT('',(-4.50027821815112,2.01321249843357E-5,7.38535589105923));
#295=CARTESIAN_POINT('',(-4.49944410799143,0.0783696399981892,7.3528374666876));
#296=CARTESIAN_POINT('',(-4.49861120846471,0.110803700165595,7.27459319315453));
#297=CARTESIAN_POINT('',(-4.49944357011999,0.0784154745134093,7.19618201734025));
#298=CARTESIAN_POINT('',(-4.50027757525705,1.45520423674892E-5,7.16370406971633));
#299=CARTESIAN_POINT('',(-4.49944612801557,-0.0782611779969339,7.19607495071203));
#300=CARTESIAN_POINT('',(-4.49861084239337,-0.110822085676575,7.2743938442788));
#301=CARTESIAN_POINT('',(-4.49944301940408,-0.0784501684981248,7.35281217836119));
#302=CARTESIAN_POINT('',(-4.50027821815112,2.01321249843357E-5,7.38535589105923));
#303=CARTESIAN_POINT('',(-4.49944410799143,0.0783696399981892,7.3528374666876));
#304=CARTESIAN_POINT('',(-4.5,2.00111401494064E-16,7.37451220154762));
#305=CARTESIAN_POINT('',(0.,0.,20.));
#306=CARTESIAN_POINT('',(0.,2.81056440404317E-16,20.));
#307=CARTESIAN_POINT('',(4.59,2.81056440404317E-16,20.));
#308=CARTESIAN_POINT('',(0.,0.,0.));
#309=CARTESIAN_POINT('',(0.,2.81056440404317E-16,25.));
#310=CARTESIAN_POINT('',(0.,2.81056440404317E-16,25.));
#311=CARTESIAN_POINT('',(4.59,2.81056440404317E-16,25.));
#312=CARTESIAN_POINT('',(0.,0.,25.));
#313=CARTESIAN_POINT('',(7.3,0.,7.27451220154762));
#314=CARTESIAN_POINT('',(-4.6,0.,7.27451220154762));
#315=CARTESIAN_POINT('',(-4.6,0.,7.17451220154762));
#316=CARTESIAN_POINT('',(-7.1,0.,7.27512091398239));
#317=CARTESIAN_POINT('',(-4.6,0.,7.27512091398239));
#318=CARTESIAN_POINT('',(-4.6,0.,6.97512091398239));
#319=CARTESIAN_POINT('',(-4.6,0.,7.27512091398239));
#320=CARTESIAN_POINT('',(7.15,0.,7.27193504571915));
#321=CARTESIAN_POINT('',(4.567,0.,7.27193504571915));
#322=CARTESIAN_POINT('',(4.567,0.,6.97193504571915));
#323=CARTESIAN_POINT('',(4.567,0.,7.27193504571915));
#324=MECHANICAL_DESIGN_GEOMETRIC_PRESENTATION_REPRESENTATION('',(#163),
#325);
#325=(
GEOMETRIC_REPRESENTATION_CONTEXT(3)
GLOBAL_UNCERTAINTY_ASSIGNED_CONTEXT((#326))
GLOBAL_UNIT_ASSIGNED_CONTEXT((#329,#328,#327))
REPRESENTATION_CONTEXT('Lower tube','TOP_LEVEL_ASSEMBLY_PART')
);
#326=UNCERTAINTY_MEASURE_WITH_UNIT(LENGTH_MEASURE(0.002),#329,
'DISTANCE_ACCURACY_VALUE','Maximum Tolerance applied to model');
#327=(
NAMED_UNIT(*)
SI_UNIT($,.STERADIAN.)
SOLID_ANGLE_UNIT()
);
#328=(
NAMED_UNIT(*)
PLANE_ANGLE_UNIT()
SI_UNIT($,.RADIAN.)
);
#329=(
LENGTH_UNIT()
NAMED_UNIT(*)
SI_UNIT(.CENTI.,.METRE.)
);
#330=PRODUCT_DEFINITION_SHAPE('','',#331);
#331=PRODUCT_DEFINITION('','',#333,#332);
#332=PRODUCT_DEFINITION_CONTEXT('',#339,'design');
#333=PRODUCT_DEFINITION_FORMATION_WITH_SPECIFIED_SOURCE('','',#335,
 .NOT_KNOWN.);
#334=PRODUCT_RELATED_PRODUCT_CATEGORY('','',(#335));
#335=PRODUCT('Lower tube','Lower tube','Lower tube',(#337));
#336=PRODUCT_CATEGORY('','');
#337=PRODUCT_CONTEXT('',#339,'mechanical');
#338=APPLICATION_PROTOCOL_DEFINITION('international standard',
'ap242_managed_model_based_3d_engineering',2020,#339);
#339=APPLICATION_CONTEXT('managed model based 3d engineering');
ENDSEC;
END-ISO-10303-21;
