ISO-10303-21;
HEADER;
/* Generated by software containing ST-Developer
 * from STEP Tools, Inc. (www.steptools.com) 
 */
/* OPTION: using custom renumber hook */

FILE_DESCRIPTION(
/* description */ ('STEP AP242 Edition 2',
'CAx-IF Rec.Pracs.---Representation and Presentation of Product Manufa
cturing Information (PMI)---4.0---2014-10-13',
'CAx-IF Rec.Pracs.---3D Tessellated Geometry---0.4---2014-09-14','2;1',
'CAx-IF Rec.Pracs.---User Defined Attributes---1.5---2016-08-15'),
/* implementation_level */ '2;1');

FILE_NAME(
/* name */ 'All - Gimabl X axis ring',
/* time_stamp */ '2026-09-01T00:13:36Z',
/* author */ (''),
/* organization */ (''),
/* preprocessor_version */ 'ST-DEVELOPER v20',
/* originating_system */ 'ONSHAPE BY PTC INC, 1.220',
/* authorisation */ '  ');

FILE_SCHEMA (('AP242_MANAGED_MODEL_BASED_3D_ENGINEERING_MIM_LF { 1 0 10303 442 3 1 4 }'));
ENDSEC;

DATA;
#10=SHAPE_REPRESENTATION_RELATIONSHIP('','',#1162,#11);
#11=ADVANCED_BREP_SHAPE_REPRESENTATION('',(#1160),#2024);
#12=(
BOUNDED_SURFACE()
B_SPLINE_SURFACE(3,2,((#1916,#1917,#1918),(#1919,#1920,#1921),(#1922,#1923,
#1924),(#1925,#1926,#1927),(#1928,#1929,#1930)),.UNSPECIFIED.,.F.,.F.,.F.)
B_SPLINE_SURFACE_WITH_KNOTS((4,1,4),(3,3),(3.75773119364863,4.23506008701666,
4.71238898038469),(0.,1.),.UNSPECIFIED.)
GEOMETRIC_REPRESENTATION_ITEM()
RATIONAL_B_SPLINE_SURFACE(((1.,0.912700764207595,1.),(1.,0.892146415492949,
1.),(1.,0.835689064903146,1.),(1.,0.753016369141445,1.),(1.,0.707106781186544,
1.)))
REPRESENTATION_ITEM('')
SURFACE()
);
#13=(
BOUNDED_SURFACE()
B_SPLINE_SURFACE(3,2,((#1932,#1933,#1934),(#1935,#1936,#1937),(#1938,#1939,
#1940),(#1941,#1942,#1943)),.UNSPECIFIED.,.F.,.F.,.F.)
B_SPLINE_SURFACE_WITH_KNOTS((4,4),(3,3),(5.00275437021832,5.32852752044353),
(0.0832071092323672,1.),.PIECEWISE_BEZIER_KNOTS.)
GEOMETRIC_REPRESENTATION_ITEM()
RATIONAL_B_SPLINE_SURFACE(((0.996840842384409,0.981016299900716,1.),(0.994520422596495,
0.96707266089366,1.),(0.990961470926439,0.945686557573345,1.),(0.986680984981654,
0.919964681256076,1.)))
REPRESENTATION_ITEM('')
SURFACE()
);
#14=(
BOUNDED_SURFACE()
B_SPLINE_SURFACE(3,2,((#1947,#1948,#1949),(#1950,#1951,#1952),(#1953,#1954,
#1955),(#1956,#1957,#1958),(#1959,#1960,#1961)),.UNSPECIFIED.,.F.,.F.,.F.)
B_SPLINE_SURFACE_WITH_KNOTS((4,1,4),(3,3),(4.71238898038469,5.18971787375273,
5.66704676712076),(0.,1.),.UNSPECIFIED.)
GEOMETRIC_REPRESENTATION_ITEM()
RATIONAL_B_SPLINE_SURFACE(((1.,0.70710678118655,1.),(1.,0.753016369141363,
1.),(1.,0.835689064903105,1.),(1.,0.892146415493129,1.),(1.,0.912700764207593,
1.)))
REPRESENTATION_ITEM('')
SURFACE()
);
#15=(
BOUNDED_SURFACE()
B_SPLINE_SURFACE(3,2,((#1963,#1964,#1965),(#1966,#1967,#1968),(#1969,#1970,
#1971),(#1972,#1973,#1974)),.UNSPECIFIED.,.F.,.F.,.F.)
B_SPLINE_SURFACE_WITH_KNOTS((4,4),(3,3),(5.00275437021832,5.32852752044353),
(0.,0.916793001403718),.PIECEWISE_BEZIER_KNOTS.)
GEOMETRIC_REPRESENTATION_ITEM()
RATIONAL_B_SPLINE_SURFACE(((1.,0.981016297609813,0.996840846203735),(1.,
0.967072656920344,0.994520429221184),(1.,0.945686551018689,0.990961481853706),
(1.,0.919964671597627,0.986681001083942)))
REPRESENTATION_ITEM('')
SURFACE()
);
#16=CYLINDRICAL_SURFACE('',#1176,4.45);
#17=CYLINDRICAL_SURFACE('',#1178,4.45);
#18=CYLINDRICAL_SURFACE('',#1180,2.81695209700905);
#19=CYLINDRICAL_SURFACE('',#1182,2.81695209700905);
#20=CYLINDRICAL_SURFACE('',#1185,0.500909727599984);
#21=CYLINDRICAL_SURFACE('',#1203,0.5);
#22=CYLINDRICAL_SURFACE('',#1205,0.5);
#23=CYLINDRICAL_SURFACE('',#1208,0.5);
#24=CYLINDRICAL_SURFACE('',#1210,0.0220391472899352);
#25=CYLINDRICAL_SURFACE('',#1213,0.0224385342854613);
#26=CYLINDRICAL_SURFACE('',#1231,0.45);
#27=CYLINDRICAL_SURFACE('',#1236,0.220085805328946);
#28=CYLINDRICAL_SURFACE('',#1240,0.362132034355965);
#29=CYLINDRICAL_SURFACE('',#1244,0.362132);
#30=CYLINDRICAL_SURFACE('',#1251,0.1);
#31=CYLINDRICAL_SURFACE('',#1252,0.1);
#32=CYLINDRICAL_SURFACE('',#1253,0.155);
#33=CYLINDRICAL_SURFACE('',#1262,0.448847);
#34=CYLINDRICAL_SURFACE('',#1263,0.448847);
#35=CYLINDRICAL_SURFACE('',#1264,0.101401163863877);
#36=CYLINDRICAL_SURFACE('',#1267,0.1);
#37=CYLINDRICAL_SURFACE('',#1273,0.168994949366117);
#38=B_SPLINE_CURVE_WITH_KNOTS('',3,(#1638,#1639,#1640,#1641),
 .UNSPECIFIED.,.F.,.F.,(4,4),(0.,0.000417761162579211),.UNSPECIFIED.);
#39=B_SPLINE_CURVE_WITH_KNOTS('',3,(#1643,#1644,#1645,#1646),
 .UNSPECIFIED.,.F.,.F.,(4,4),(1.7085044840333E-17,0.00249655029916189),
 .UNSPECIFIED.);
#40=B_SPLINE_CURVE_WITH_KNOTS('',3,(#1650,#1651,#1652,#1653),
 .UNSPECIFIED.,.F.,.F.,(4,4),(0.,0.00249745116014868),.UNSPECIFIED.);
#41=B_SPLINE_CURVE_WITH_KNOTS('',3,(#1655,#1656,#1657,#1658),
 .UNSPECIFIED.,.F.,.F.,(4,4),(5.65600331161661E-17,0.000417760582729378),
 .UNSPECIFIED.);
#42=B_SPLINE_CURVE_WITH_KNOTS('',3,(#1686,#1687,#1688,#1689,#1690,#1691,
#1692,#1693,#1694,#1695,#1696),.UNSPECIFIED.,.T.,.F.,(1,1,1,1,1,1,1,1,1,
1,1,1,1,1,1),(-0.00234465150425382,-0.00156310100283588,-0.000781550501417936,
2.34273790754617E-18,0.000781550501417942,0.00156310100283588,0.00234465150425382,
0.00312620200567176,0.0039077525070897,0.00468930300850764,0.00547085350992558,
0.00625240401134352,0.00703395451276146,0.0078155050141794,0.00859705551559733),
 .UNSPECIFIED.);
#43=B_SPLINE_CURVE_WITH_KNOTS('',3,(#1704,#1705,#1706,#1707,#1708,#1709,
#1710,#1711,#1712,#1713,#1714),.UNSPECIFIED.,.T.,.F.,(1,1,1,1,1,1,1,1,1,
1,1,1,1,1,1),(-0.00234465150425382,-0.00156310100283588,-0.000781550501417936,
2.26865598695411E-18,0.000781550501417942,0.00156310100283588,0.00234465150425382,
0.00312620200567176,0.0039077525070897,0.00468930300850764,0.00547085350992558,
0.00625240401134352,0.00703395451276146,0.0078155050141794,0.00859705551559733),
 .UNSPECIFIED.);
#44=B_SPLINE_CURVE_WITH_KNOTS('',3,(#1722,#1723,#1724,#1725,#1726,#1727,
#1728,#1729,#1730,#1731,#1732),.UNSPECIFIED.,.T.,.F.,(1,1,1,1,1,1,1,1,1,
1,1,1,1,1,1),(-0.00234476089557412,-0.00156317393038274,-0.000781586965191371,
7.88265127031004E-19,0.000781586965191373,0.00156317393038275,0.00234476089557412,
0.00312634786076549,0.00390793482595686,0.00468952179114823,0.00547110875633961,
0.00625269572153098,0.00703428268672235,0.00781586965191372,0.00859745661710509),
 .UNSPECIFIED.);
#45=B_SPLINE_CURVE_WITH_KNOTS('',3,(#1740,#1741,#1742,#1743,#1744,#1745,
#1746,#1747,#1748,#1749,#1750),.UNSPECIFIED.,.T.,.F.,(1,1,1,1,1,1,1,1,1,
1,1,1,1,1,1),(-0.00234476089557411,-0.00156317393038274,-0.00078158696519137,
1.22354734303567E-18,0.000781586965191373,0.00156317393038274,0.00234476089557412,
0.00312634786076549,0.00390793482595686,0.00468952179114823,0.0054711087563396,
0.00625269572153098,0.00703428268672235,0.00781586965191372,0.00859745661710509),
 .UNSPECIFIED.);
#46=ELLIPSE('',#1173,0.612657984026271,0.5);
#47=ELLIPSE('',#1174,0.612657984026271,0.5);
#48=ELLIPSE('',#1187,0.500929818153503,0.500909727599984);
#49=ELLIPSE('',#1193,0.238572148112776,0.137868);
#50=ELLIPSE('',#1194,0.238572088661879,0.137867965644036);
#51=ELLIPSE('',#1200,0.22008611274281,0.220085805328946);
#52=ELLIPSE('',#1202,0.155000216502599,0.155);
#53=ELLIPSE('',#1204,0.536571602333877,0.5);
#54=ELLIPSE('',#1206,0.518659402643801,0.5);
#55=ELLIPSE('',#1207,0.518659411776167,0.5);
#56=ELLIPSE('',#1209,0.536571584728139,0.5);
#57=ELLIPSE('',#1232,0.45001804865944,0.45);
#58=LINE('',#1600,#155);
#59=LINE('',#1604,#156);
#60=LINE('',#1608,#157);
#61=LINE('',#1612,#158);
#62=LINE('',#1616,#159);
#63=LINE('',#1620,#160);
#64=LINE('',#1622,#161);
#65=LINE('',#1624,#162);
#66=LINE('',#1625,#163);
#67=LINE('',#1628,#164);
#68=LINE('',#1632,#165);
#69=LINE('',#1634,#166);
#70=LINE('',#1648,#167);
#71=LINE('',#1662,#168);
#72=LINE('',#1664,#169);
#73=LINE('',#1667,#170);
#74=LINE('',#1669,#171);
#75=LINE('',#1671,#172);
#76=LINE('',#1673,#173);
#77=LINE('',#1675,#174);
#78=LINE('',#1677,#175);
#79=LINE('',#1679,#176);
#80=LINE('',#1681,#177);
#81=LINE('',#1685,#178);
#82=LINE('',#1702,#179);
#83=LINE('',#1703,#180);
#84=LINE('',#1717,#181);
#85=LINE('',#1719,#182);
#86=LINE('',#1735,#183);
#87=LINE('',#1739,#184);
#88=LINE('',#1753,#185);
#89=LINE('',#1754,#186);
#90=LINE('',#1755,#187);
#91=LINE('',#1756,#188);
#92=LINE('',#1765,#189);
#93=LINE('',#1767,#190);
#94=LINE('',#1769,#191);
#95=LINE('',#1771,#192);
#96=LINE('',#1775,#193);
#97=LINE('',#1778,#194);
#98=LINE('',#1780,#195);
#99=LINE('',#1782,#196);
#100=LINE('',#1784,#197);
#101=LINE('',#1786,#198);
#102=LINE('',#1788,#199);
#103=LINE('',#1793,#200);
#104=LINE('',#1797,#201);
#105=LINE('',#1799,#202);
#106=LINE('',#1803,#203);
#107=LINE('',#1804,#204);
#108=LINE('',#1806,#205);
#109=LINE('',#1807,#206);
#110=LINE('',#1809,#207);
#111=LINE('',#1810,#208);
#112=LINE('',#1812,#209);
#113=LINE('',#1814,#210);
#114=LINE('',#1816,#211);
#115=LINE('',#1818,#212);
#116=LINE('',#1820,#213);
#117=LINE('',#1823,#214);
#118=LINE('',#1825,#215);
#119=LINE('',#1826,#216);
#120=LINE('',#1827,#217);
#121=LINE('',#1830,#218);
#122=LINE('',#1832,#219);
#123=LINE('',#1834,#220);
#124=LINE('',#1847,#221);
#125=LINE('',#1859,#222);
#126=LINE('',#1863,#223);
#127=LINE('',#1867,#224);
#128=LINE('',#1869,#225);
#129=LINE('',#1870,#226);
#130=LINE('',#1872,#227);
#131=LINE('',#1874,#228);
#132=LINE('',#1876,#229);
#133=LINE('',#1881,#230);
#134=LINE('',#1882,#231);
#135=LINE('',#1884,#232);
#136=LINE('',#1886,#233);
#137=LINE('',#1888,#234);
#138=LINE('',#1893,#235);
#139=LINE('',#1894,#236);
#140=LINE('',#1897,#237);
#141=LINE('',#1915,#238);
#142=LINE('',#1982,#239);
#143=LINE('',#1987,#240);
#144=LINE('',#1991,#241);
#145=LINE('',#1993,#242);
#146=LINE('',#1995,#243);
#147=LINE('',#1996,#244);
#148=LINE('',#2000,#245);
#149=LINE('',#2001,#246);
#150=LINE('',#2003,#247);
#151=LINE('',#2004,#248);
#152=LINE('',#2017,#249);
#153=LINE('',#2019,#250);
#154=LINE('',#2021,#251);
#155=VECTOR('',#1282,100.);
#156=VECTOR('',#1285,100.);
#157=VECTOR('',#1288,100.);
#158=VECTOR('',#1291,100.);
#159=VECTOR('',#1294,100.);
#160=VECTOR('',#1297,100.);
#161=VECTOR('',#1298,100.);
#162=VECTOR('',#1299,100.);
#163=VECTOR('',#1300,100.);
#164=VECTOR('',#1301,100.);
#165=VECTOR('',#1304,100.);
#166=VECTOR('',#1305,100.);
#167=VECTOR('',#1308,100.);
#168=VECTOR('',#1311,100.);
#169=VECTOR('',#1314,100.);
#170=VECTOR('',#1315,100.);
#171=VECTOR('',#1316,100.);
#172=VECTOR('',#1317,100.);
#173=VECTOR('',#1318,100.);
#174=VECTOR('',#1319,100.);
#175=VECTOR('',#1320,100.);
#176=VECTOR('',#1321,100.);
#177=VECTOR('',#1324,100.);
#178=VECTOR('',#1327,100.);
#179=VECTOR('',#1332,100.);
#180=VECTOR('',#1333,100.);
#181=VECTOR('',#1336,100.);
#182=VECTOR('',#1337,100.);
#183=VECTOR('',#1342,100.);
#184=VECTOR('',#1345,100.);
#185=VECTOR('',#1348,100.);
#186=VECTOR('',#1349,100.);
#187=VECTOR('',#1350,100.);
#188=VECTOR('',#1351,100.);
#189=VECTOR('',#1362,100.);
#190=VECTOR('',#1363,100.);
#191=VECTOR('',#1364,100.);
#192=VECTOR('',#1365,100.);
#193=VECTOR('',#1370,100.);
#194=VECTOR('',#1371,100.);
#195=VECTOR('',#1372,100.);
#196=VECTOR('',#1373,100.);
#197=VECTOR('',#1374,100.);
#198=VECTOR('',#1375,100.);
#199=VECTOR('',#1378,100.);
#200=VECTOR('',#1381,100.);
#201=VECTOR('',#1384,100.);
#202=VECTOR('',#1385,100.);
#203=VECTOR('',#1390,100.);
#204=VECTOR('',#1391,100.);
#205=VECTOR('',#1394,100.);
#206=VECTOR('',#1395,100.);
#207=VECTOR('',#1396,100.);
#208=VECTOR('',#1397,100.);
#209=VECTOR('',#1398,100.);
#210=VECTOR('',#1399,100.);
#211=VECTOR('',#1400,100.);
#212=VECTOR('',#1401,100.);
#213=VECTOR('',#1404,100.);
#214=VECTOR('',#1405,100.);
#215=VECTOR('',#1406,100.);
#216=VECTOR('',#1407,100.);
#217=VECTOR('',#1408,100.);
#218=VECTOR('',#1409,100.);
#219=VECTOR('',#1410,100.);
#220=VECTOR('',#1411,100.);
#221=VECTOR('',#1432,100.);
#222=VECTOR('',#1449,100.);
#223=VECTOR('',#1452,100.);
#224=VECTOR('',#1457,100.);
#225=VECTOR('',#1460,100.);
#226=VECTOR('',#1461,100.);
#227=VECTOR('',#1464,100.);
#228=VECTOR('',#1465,100.);
#229=VECTOR('',#1468,100.);
#230=VECTOR('',#1475,100.);
#231=VECTOR('',#1476,100.);
#232=VECTOR('',#1479,100.);
#233=VECTOR('',#1480,100.);
#234=VECTOR('',#1483,100.);
#235=VECTOR('',#1486,100.);
#236=VECTOR('',#1487,100.);
#237=VECTOR('',#1490,100.);
#238=VECTOR('',#1517,100.);
#239=VECTOR('',#1542,100.);
#240=VECTOR('',#1545,100.);
#241=VECTOR('',#1548,100.);
#242=VECTOR('',#1549,100.);
#243=VECTOR('',#1552,100.);
#244=VECTOR('',#1553,100.);
#245=VECTOR('',#1558,100.);
#246=VECTOR('',#1559,100.);
#247=VECTOR('',#1562,100.);
#248=VECTOR('',#1563,100.);
#249=VECTOR('',#1584,100.);
#250=VECTOR('',#1587,100.);
#251=VECTOR('',#1590,100.);
#252=ORIENTED_EDGE('',*,*,#560,.T.);
#253=ORIENTED_EDGE('',*,*,#561,.T.);
#254=ORIENTED_EDGE('',*,*,#562,.F.);
#255=ORIENTED_EDGE('',*,*,#563,.T.);
#256=ORIENTED_EDGE('',*,*,#564,.T.);
#257=ORIENTED_EDGE('',*,*,#565,.F.);
#258=ORIENTED_EDGE('',*,*,#566,.F.);
#259=ORIENTED_EDGE('',*,*,#567,.F.);
#260=ORIENTED_EDGE('',*,*,#568,.F.);
#261=ORIENTED_EDGE('',*,*,#569,.T.);
#262=ORIENTED_EDGE('',*,*,#570,.T.);
#263=ORIENTED_EDGE('',*,*,#571,.T.);
#264=ORIENTED_EDGE('',*,*,#572,.T.);
#265=ORIENTED_EDGE('',*,*,#573,.T.);
#266=ORIENTED_EDGE('',*,*,#574,.T.);
#267=ORIENTED_EDGE('',*,*,#575,.F.);
#268=ORIENTED_EDGE('',*,*,#576,.T.);
#269=ORIENTED_EDGE('',*,*,#577,.T.);
#270=ORIENTED_EDGE('',*,*,#578,.F.);
#271=ORIENTED_EDGE('',*,*,#579,.F.);
#272=ORIENTED_EDGE('',*,*,#580,.T.);
#273=ORIENTED_EDGE('',*,*,#581,.T.);
#274=ORIENTED_EDGE('',*,*,#582,.T.);
#275=ORIENTED_EDGE('',*,*,#583,.T.);
#276=ORIENTED_EDGE('',*,*,#584,.T.);
#277=ORIENTED_EDGE('',*,*,#585,.T.);
#278=ORIENTED_EDGE('',*,*,#586,.T.);
#279=ORIENTED_EDGE('',*,*,#587,.F.);
#280=ORIENTED_EDGE('',*,*,#588,.T.);
#281=ORIENTED_EDGE('',*,*,#589,.T.);
#282=ORIENTED_EDGE('',*,*,#590,.F.);
#283=ORIENTED_EDGE('',*,*,#591,.F.);
#284=ORIENTED_EDGE('',*,*,#592,.T.);
#285=ORIENTED_EDGE('',*,*,#593,.F.);
#286=ORIENTED_EDGE('',*,*,#594,.T.);
#287=ORIENTED_EDGE('',*,*,#595,.T.);
#288=ORIENTED_EDGE('',*,*,#560,.F.);
#289=ORIENTED_EDGE('',*,*,#596,.T.);
#290=ORIENTED_EDGE('',*,*,#597,.F.);
#291=ORIENTED_EDGE('',*,*,#598,.F.);
#292=ORIENTED_EDGE('',*,*,#561,.F.);
#293=ORIENTED_EDGE('',*,*,#599,.T.);
#294=ORIENTED_EDGE('',*,*,#600,.F.);
#295=ORIENTED_EDGE('',*,*,#601,.T.);
#296=ORIENTED_EDGE('',*,*,#563,.F.);
#297=ORIENTED_EDGE('',*,*,#602,.F.);
#298=ORIENTED_EDGE('',*,*,#603,.T.);
#299=ORIENTED_EDGE('',*,*,#604,.T.);
#300=ORIENTED_EDGE('',*,*,#565,.T.);
#301=ORIENTED_EDGE('',*,*,#605,.F.);
#302=ORIENTED_EDGE('',*,*,#606,.F.);
#303=ORIENTED_EDGE('',*,*,#607,.T.);
#304=ORIENTED_EDGE('',*,*,#608,.F.);
#305=ORIENTED_EDGE('',*,*,#609,.F.);
#306=ORIENTED_EDGE('',*,*,#610,.T.);
#307=ORIENTED_EDGE('',*,*,#567,.T.);
#308=ORIENTED_EDGE('',*,*,#611,.T.);
#309=ORIENTED_EDGE('',*,*,#612,.T.);
#310=ORIENTED_EDGE('',*,*,#606,.T.);
#311=ORIENTED_EDGE('',*,*,#613,.T.);
#312=ORIENTED_EDGE('',*,*,#609,.T.);
#313=ORIENTED_EDGE('',*,*,#614,.F.);
#314=ORIENTED_EDGE('',*,*,#600,.T.);
#315=ORIENTED_EDGE('',*,*,#615,.T.);
#316=ORIENTED_EDGE('',*,*,#597,.T.);
#317=ORIENTED_EDGE('',*,*,#616,.F.);
#318=ORIENTED_EDGE('',*,*,#617,.F.);
#319=ORIENTED_EDGE('',*,*,#618,.F.);
#320=ORIENTED_EDGE('',*,*,#587,.T.);
#321=ORIENTED_EDGE('',*,*,#619,.T.);
#322=ORIENTED_EDGE('',*,*,#620,.T.);
#323=ORIENTED_EDGE('',*,*,#621,.F.);
#324=ORIENTED_EDGE('',*,*,#622,.T.);
#325=ORIENTED_EDGE('',*,*,#623,.F.);
#326=ORIENTED_EDGE('',*,*,#624,.T.);
#327=ORIENTED_EDGE('',*,*,#625,.T.);
#328=ORIENTED_EDGE('',*,*,#626,.T.);
#329=ORIENTED_EDGE('',*,*,#627,.T.);
#330=ORIENTED_EDGE('',*,*,#628,.F.);
#331=ORIENTED_EDGE('',*,*,#629,.T.);
#332=ORIENTED_EDGE('',*,*,#630,.T.);
#333=ORIENTED_EDGE('',*,*,#631,.T.);
#334=ORIENTED_EDGE('',*,*,#632,.T.);
#335=ORIENTED_EDGE('',*,*,#633,.T.);
#336=ORIENTED_EDGE('',*,*,#634,.T.);
#337=ORIENTED_EDGE('',*,*,#635,.F.);
#338=ORIENTED_EDGE('',*,*,#636,.F.);
#339=ORIENTED_EDGE('',*,*,#627,.F.);
#340=ORIENTED_EDGE('',*,*,#637,.T.);
#341=ORIENTED_EDGE('',*,*,#592,.F.);
#342=ORIENTED_EDGE('',*,*,#638,.T.);
#343=ORIENTED_EDGE('',*,*,#639,.F.);
#344=ORIENTED_EDGE('',*,*,#590,.T.);
#345=ORIENTED_EDGE('',*,*,#640,.F.);
#346=ORIENTED_EDGE('',*,*,#641,.T.);
#347=ORIENTED_EDGE('',*,*,#575,.T.);
#348=ORIENTED_EDGE('',*,*,#622,.F.);
#349=ORIENTED_EDGE('',*,*,#642,.F.);
#350=ORIENTED_EDGE('',*,*,#643,.F.);
#351=ORIENTED_EDGE('',*,*,#644,.T.);
#352=ORIENTED_EDGE('',*,*,#645,.F.);
#353=ORIENTED_EDGE('',*,*,#646,.T.);
#354=ORIENTED_EDGE('',*,*,#629,.F.);
#355=ORIENTED_EDGE('',*,*,#647,.F.);
#356=ORIENTED_EDGE('',*,*,#648,.T.);
#357=ORIENTED_EDGE('',*,*,#649,.T.);
#358=ORIENTED_EDGE('',*,*,#643,.T.);
#359=ORIENTED_EDGE('',*,*,#650,.T.);
#360=ORIENTED_EDGE('',*,*,#651,.T.);
#361=ORIENTED_EDGE('',*,*,#652,.T.);
#362=ORIENTED_EDGE('',*,*,#653,.F.);
#363=ORIENTED_EDGE('',*,*,#654,.F.);
#364=ORIENTED_EDGE('',*,*,#655,.T.);
#365=ORIENTED_EDGE('',*,*,#568,.T.);
#366=ORIENTED_EDGE('',*,*,#610,.F.);
#367=ORIENTED_EDGE('',*,*,#613,.F.);
#368=ORIENTED_EDGE('',*,*,#605,.T.);
#369=ORIENTED_EDGE('',*,*,#656,.T.);
#370=ORIENTED_EDGE('',*,*,#566,.T.);
#371=ORIENTED_EDGE('',*,*,#604,.F.);
#372=ORIENTED_EDGE('',*,*,#612,.F.);
#373=ORIENTED_EDGE('',*,*,#608,.T.);
#374=ORIENTED_EDGE('',*,*,#586,.F.);
#375=ORIENTED_EDGE('',*,*,#657,.T.);
#376=ORIENTED_EDGE('',*,*,#619,.F.);
#377=ORIENTED_EDGE('',*,*,#583,.F.);
#378=ORIENTED_EDGE('',*,*,#658,.T.);
#379=ORIENTED_EDGE('',*,*,#632,.F.);
#380=ORIENTED_EDGE('',*,*,#659,.T.);
#381=ORIENTED_EDGE('',*,*,#580,.F.);
#382=ORIENTED_EDGE('',*,*,#660,.F.);
#383=ORIENTED_EDGE('',*,*,#661,.T.);
#384=ORIENTED_EDGE('',*,*,#662,.F.);
#385=ORIENTED_EDGE('',*,*,#618,.T.);
#386=ORIENTED_EDGE('',*,*,#662,.T.);
#387=ORIENTED_EDGE('',*,*,#663,.F.);
#388=ORIENTED_EDGE('',*,*,#623,.T.);
#389=ORIENTED_EDGE('',*,*,#663,.T.);
#390=ORIENTED_EDGE('',*,*,#664,.T.);
#391=ORIENTED_EDGE('',*,*,#665,.T.);
#392=ORIENTED_EDGE('',*,*,#624,.F.);
#393=ORIENTED_EDGE('',*,*,#646,.F.);
#394=ORIENTED_EDGE('',*,*,#666,.F.);
#395=ORIENTED_EDGE('',*,*,#621,.T.);
#396=ORIENTED_EDGE('',*,*,#667,.T.);
#397=ORIENTED_EDGE('',*,*,#668,.F.);
#398=ORIENTED_EDGE('',*,*,#650,.F.);
#399=ORIENTED_EDGE('',*,*,#642,.T.);
#400=ORIENTED_EDGE('',*,*,#668,.T.);
#401=ORIENTED_EDGE('',*,*,#669,.T.);
#402=ORIENTED_EDGE('',*,*,#664,.F.);
#403=ORIENTED_EDGE('',*,*,#670,.F.);
#404=ORIENTED_EDGE('',*,*,#647,.T.);
#405=ORIENTED_EDGE('',*,*,#645,.T.);
#406=ORIENTED_EDGE('',*,*,#671,.F.);
#407=ORIENTED_EDGE('',*,*,#672,.F.);
#408=ORIENTED_EDGE('',*,*,#666,.T.);
#409=ORIENTED_EDGE('',*,*,#644,.F.);
#410=ORIENTED_EDGE('',*,*,#649,.F.);
#411=ORIENTED_EDGE('',*,*,#673,.T.);
#412=ORIENTED_EDGE('',*,*,#671,.T.);
#413=ORIENTED_EDGE('',*,*,#648,.F.);
#414=ORIENTED_EDGE('',*,*,#670,.T.);
#415=ORIENTED_EDGE('',*,*,#672,.T.);
#416=ORIENTED_EDGE('',*,*,#673,.F.);
#417=ORIENTED_EDGE('',*,*,#595,.F.);
#418=ORIENTED_EDGE('',*,*,#674,.T.);
#419=ORIENTED_EDGE('',*,*,#675,.F.);
#420=ORIENTED_EDGE('',*,*,#652,.F.);
#421=ORIENTED_EDGE('',*,*,#676,.T.);
#422=ORIENTED_EDGE('',*,*,#675,.T.);
#423=ORIENTED_EDGE('',*,*,#677,.T.);
#424=ORIENTED_EDGE('',*,*,#678,.F.);
#425=ORIENTED_EDGE('',*,*,#653,.T.);
#426=ORIENTED_EDGE('',*,*,#679,.F.);
#427=ORIENTED_EDGE('',*,*,#680,.T.);
#428=ORIENTED_EDGE('',*,*,#681,.T.);
#429=ORIENTED_EDGE('',*,*,#640,.T.);
#430=ORIENTED_EDGE('',*,*,#589,.F.);
#431=ORIENTED_EDGE('',*,*,#682,.F.);
#432=ORIENTED_EDGE('',*,*,#654,.T.);
#433=ORIENTED_EDGE('',*,*,#678,.T.);
#434=ORIENTED_EDGE('',*,*,#683,.T.);
#435=ORIENTED_EDGE('',*,*,#684,.F.);
#436=ORIENTED_EDGE('',*,*,#682,.T.);
#437=ORIENTED_EDGE('',*,*,#588,.F.);
#438=ORIENTED_EDGE('',*,*,#676,.F.);
#439=ORIENTED_EDGE('',*,*,#651,.F.);
#440=ORIENTED_EDGE('',*,*,#685,.T.);
#441=ORIENTED_EDGE('',*,*,#686,.F.);
#442=ORIENTED_EDGE('',*,*,#687,.F.);
#443=ORIENTED_EDGE('',*,*,#686,.T.);
#444=ORIENTED_EDGE('',*,*,#687,.T.);
#445=ORIENTED_EDGE('',*,*,#655,.F.);
#446=ORIENTED_EDGE('',*,*,#688,.F.);
#447=ORIENTED_EDGE('',*,*,#616,.T.);
#448=ORIENTED_EDGE('',*,*,#591,.T.);
#449=ORIENTED_EDGE('',*,*,#639,.T.);
#450=ORIENTED_EDGE('',*,*,#628,.T.);
#451=ORIENTED_EDGE('',*,*,#638,.F.);
#452=ORIENTED_EDGE('',*,*,#594,.F.);
#453=ORIENTED_EDGE('',*,*,#689,.T.);
#454=ORIENTED_EDGE('',*,*,#634,.F.);
#455=ORIENTED_EDGE('',*,*,#690,.F.);
#456=ORIENTED_EDGE('',*,*,#691,.F.);
#457=ORIENTED_EDGE('',*,*,#683,.F.);
#458=ORIENTED_EDGE('',*,*,#677,.F.);
#459=ORIENTED_EDGE('',*,*,#674,.F.);
#460=ORIENTED_EDGE('',*,*,#581,.F.);
#461=ORIENTED_EDGE('',*,*,#661,.F.);
#462=ORIENTED_EDGE('',*,*,#690,.T.);
#463=ORIENTED_EDGE('',*,*,#633,.F.);
#464=ORIENTED_EDGE('',*,*,#692,.F.);
#465=ORIENTED_EDGE('',*,*,#582,.F.);
#466=ORIENTED_EDGE('',*,*,#692,.T.);
#467=ORIENTED_EDGE('',*,*,#658,.F.);
#468=ORIENTED_EDGE('',*,*,#667,.F.);
#469=ORIENTED_EDGE('',*,*,#620,.F.);
#470=ORIENTED_EDGE('',*,*,#693,.F.);
#471=ORIENTED_EDGE('',*,*,#630,.F.);
#472=ORIENTED_EDGE('',*,*,#694,.T.);
#473=ORIENTED_EDGE('',*,*,#625,.F.);
#474=ORIENTED_EDGE('',*,*,#665,.F.);
#475=ORIENTED_EDGE('',*,*,#669,.F.);
#476=ORIENTED_EDGE('',*,*,#585,.F.);
#477=ORIENTED_EDGE('',*,*,#695,.F.);
#478=ORIENTED_EDGE('',*,*,#631,.F.);
#479=ORIENTED_EDGE('',*,*,#693,.T.);
#480=ORIENTED_EDGE('',*,*,#657,.F.);
#481=ORIENTED_EDGE('',*,*,#584,.F.);
#482=ORIENTED_EDGE('',*,*,#659,.F.);
#483=ORIENTED_EDGE('',*,*,#695,.T.);
#484=ORIENTED_EDGE('',*,*,#593,.T.);
#485=ORIENTED_EDGE('',*,*,#637,.F.);
#486=ORIENTED_EDGE('',*,*,#626,.F.);
#487=ORIENTED_EDGE('',*,*,#694,.F.);
#488=ORIENTED_EDGE('',*,*,#635,.T.);
#489=ORIENTED_EDGE('',*,*,#689,.F.);
#490=ORIENTED_EDGE('',*,*,#598,.T.);
#491=ORIENTED_EDGE('',*,*,#615,.F.);
#492=ORIENTED_EDGE('',*,*,#602,.T.);
#493=ORIENTED_EDGE('',*,*,#562,.T.);
#494=ORIENTED_EDGE('',*,*,#685,.F.);
#495=ORIENTED_EDGE('',*,*,#564,.F.);
#496=ORIENTED_EDGE('',*,*,#601,.F.);
#497=ORIENTED_EDGE('',*,*,#614,.T.);
#498=ORIENTED_EDGE('',*,*,#596,.F.);
#499=ORIENTED_EDGE('',*,*,#617,.T.);
#500=ORIENTED_EDGE('',*,*,#603,.F.);
#501=ORIENTED_EDGE('',*,*,#611,.F.);
#502=ORIENTED_EDGE('',*,*,#599,.F.);
#503=ORIENTED_EDGE('',*,*,#607,.F.);
#504=ORIENTED_EDGE('',*,*,#688,.T.);
#505=ORIENTED_EDGE('',*,*,#656,.F.);
#506=ORIENTED_EDGE('',*,*,#696,.T.);
#507=ORIENTED_EDGE('',*,*,#697,.T.);
#508=ORIENTED_EDGE('',*,*,#698,.T.);
#509=ORIENTED_EDGE('',*,*,#699,.T.);
#510=ORIENTED_EDGE('',*,*,#700,.T.);
#511=ORIENTED_EDGE('',*,*,#701,.T.);
#512=ORIENTED_EDGE('',*,*,#700,.F.);
#513=ORIENTED_EDGE('',*,*,#702,.T.);
#514=ORIENTED_EDGE('',*,*,#574,.F.);
#515=ORIENTED_EDGE('',*,*,#703,.F.);
#516=ORIENTED_EDGE('',*,*,#704,.F.);
#517=ORIENTED_EDGE('',*,*,#698,.F.);
#518=ORIENTED_EDGE('',*,*,#705,.T.);
#519=ORIENTED_EDGE('',*,*,#570,.F.);
#520=ORIENTED_EDGE('',*,*,#706,.T.);
#521=ORIENTED_EDGE('',*,*,#572,.F.);
#522=ORIENTED_EDGE('',*,*,#707,.T.);
#523=ORIENTED_EDGE('',*,*,#696,.F.);
#524=ORIENTED_EDGE('',*,*,#708,.T.);
#525=ORIENTED_EDGE('',*,*,#701,.F.);
#526=ORIENTED_EDGE('',*,*,#703,.T.);
#527=ORIENTED_EDGE('',*,*,#573,.F.);
#528=ORIENTED_EDGE('',*,*,#708,.F.);
#529=ORIENTED_EDGE('',*,*,#697,.F.);
#530=ORIENTED_EDGE('',*,*,#707,.F.);
#531=ORIENTED_EDGE('',*,*,#571,.F.);
#532=ORIENTED_EDGE('',*,*,#705,.F.);
#533=ORIENTED_EDGE('',*,*,#699,.F.);
#534=ORIENTED_EDGE('',*,*,#706,.F.);
#535=ORIENTED_EDGE('',*,*,#569,.F.);
#536=ORIENTED_EDGE('',*,*,#702,.F.);
#537=ORIENTED_EDGE('',*,*,#709,.T.);
#538=ORIENTED_EDGE('',*,*,#636,.T.);
#539=ORIENTED_EDGE('',*,*,#709,.F.);
#540=ORIENTED_EDGE('',*,*,#710,.F.);
#541=ORIENTED_EDGE('',*,*,#704,.T.);
#542=ORIENTED_EDGE('',*,*,#710,.T.);
#543=ORIENTED_EDGE('',*,*,#684,.T.);
#544=ORIENTED_EDGE('',*,*,#691,.T.);
#545=ORIENTED_EDGE('',*,*,#660,.T.);
#546=ORIENTED_EDGE('',*,*,#579,.T.);
#547=ORIENTED_EDGE('',*,*,#711,.F.);
#548=ORIENTED_EDGE('',*,*,#681,.F.);
#549=ORIENTED_EDGE('',*,*,#712,.T.);
#550=ORIENTED_EDGE('',*,*,#576,.F.);
#551=ORIENTED_EDGE('',*,*,#641,.F.);
#552=ORIENTED_EDGE('',*,*,#578,.T.);
#553=ORIENTED_EDGE('',*,*,#713,.T.);
#554=ORIENTED_EDGE('',*,*,#679,.T.);
#555=ORIENTED_EDGE('',*,*,#711,.T.);
#556=ORIENTED_EDGE('',*,*,#680,.F.);
#557=ORIENTED_EDGE('',*,*,#713,.F.);
#558=ORIENTED_EDGE('',*,*,#577,.F.);
#559=ORIENTED_EDGE('',*,*,#712,.F.);
#560=EDGE_CURVE('',#714,#715,#822,.T.);
#561=EDGE_CURVE('',#715,#716,#823,.T.);
#562=EDGE_CURVE('',#717,#716,#58,.T.);
#563=EDGE_CURVE('',#717,#718,#824,.T.);
#564=EDGE_CURVE('',#718,#714,#59,.T.);
#565=EDGE_CURVE('',#719,#720,#825,.T.);
#566=EDGE_CURVE('',#721,#719,#60,.T.);
#567=EDGE_CURVE('',#722,#721,#826,.T.);
#568=EDGE_CURVE('',#720,#722,#61,.T.);
#569=EDGE_CURVE('',#723,#724,#827,.F.);
#570=EDGE_CURVE('',#724,#725,#62,.T.);
#571=EDGE_CURVE('',#725,#726,#828,.F.);
#572=EDGE_CURVE('',#726,#727,#63,.T.);
#573=EDGE_CURVE('',#727,#728,#64,.T.);
#574=EDGE_CURVE('',#728,#723,#65,.T.);
#575=EDGE_CURVE('',#729,#730,#66,.T.);
#576=EDGE_CURVE('',#729,#731,#67,.T.);
#577=EDGE_CURVE('',#731,#732,#829,.F.);
#578=EDGE_CURVE('',#733,#732,#68,.T.);
#579=EDGE_CURVE('',#734,#733,#69,.T.);
#580=EDGE_CURVE('',#734,#735,#46,.F.);
#581=EDGE_CURVE('',#735,#736,#38,.T.);
#582=EDGE_CURVE('',#736,#737,#39,.T.);
#583=EDGE_CURVE('',#737,#738,#70,.T.);
#584=EDGE_CURVE('',#738,#739,#40,.T.);
#585=EDGE_CURVE('',#739,#740,#41,.T.);
#586=EDGE_CURVE('',#740,#741,#47,.F.);
#587=EDGE_CURVE('',#730,#741,#71,.T.);
#588=EDGE_CURVE('',#742,#743,#72,.T.);
#589=EDGE_CURVE('',#743,#744,#73,.T.);
#590=EDGE_CURVE('',#745,#744,#74,.T.);
#591=EDGE_CURVE('',#746,#745,#75,.T.);
#592=EDGE_CURVE('',#746,#747,#76,.T.);
#593=EDGE_CURVE('',#748,#747,#77,.T.);
#594=EDGE_CURVE('',#748,#749,#78,.T.);
#595=EDGE_CURVE('',#749,#742,#79,.T.);
#596=EDGE_CURVE('',#714,#750,#80,.F.);
#597=EDGE_CURVE('',#751,#750,#830,.F.);
#598=EDGE_CURVE('',#716,#751,#81,.F.);
#599=EDGE_CURVE('',#752,#752,#42,.T.);
#600=EDGE_CURVE('',#753,#754,#831,.F.);
#601=EDGE_CURVE('',#753,#718,#82,.T.);
#602=EDGE_CURVE('',#754,#717,#83,.T.);
#603=EDGE_CURVE('',#755,#755,#43,.T.);
#604=EDGE_CURVE('',#756,#719,#84,.T.);
#605=EDGE_CURVE('',#757,#720,#85,.T.);
#606=EDGE_CURVE('',#756,#757,#832,.T.);
#607=EDGE_CURVE('',#758,#758,#44,.T.);
#608=EDGE_CURVE('',#759,#721,#86,.T.);
#609=EDGE_CURVE('',#760,#759,#833,.T.);
#610=EDGE_CURVE('',#760,#722,#87,.T.);
#611=EDGE_CURVE('',#761,#761,#45,.T.);
#612=EDGE_CURVE('',#759,#756,#88,.T.);
#613=EDGE_CURVE('',#757,#760,#89,.T.);
#614=EDGE_CURVE('',#753,#750,#90,.T.);
#615=EDGE_CURVE('',#754,#751,#91,.T.);
#616=EDGE_CURVE('',#762,#762,#834,.T.);
#617=EDGE_CURVE('',#763,#763,#48,.F.);
#618=EDGE_CURVE('',#764,#764,#835,.T.);
#619=EDGE_CURVE('',#741,#765,#92,.T.);
#620=EDGE_CURVE('',#765,#766,#93,.F.);
#621=EDGE_CURVE('',#767,#766,#94,.T.);
#622=EDGE_CURVE('',#767,#730,#95,.T.);
#623=EDGE_CURVE('',#768,#768,#836,.T.);
#624=EDGE_CURVE('',#769,#770,#96,.T.);
#625=EDGE_CURVE('',#770,#771,#97,.F.);
#626=EDGE_CURVE('',#771,#772,#98,.T.);
#627=EDGE_CURVE('',#772,#773,#99,.T.);
#628=EDGE_CURVE('',#774,#773,#100,.T.);
#629=EDGE_CURVE('',#774,#769,#101,.T.);
#630=EDGE_CURVE('',#775,#776,#102,.T.);
#631=EDGE_CURVE('',#776,#777,#49,.T.);
#632=EDGE_CURVE('',#777,#778,#103,.F.);
#633=EDGE_CURVE('',#778,#779,#50,.T.);
#634=EDGE_CURVE('',#779,#780,#104,.F.);
#635=EDGE_CURVE('',#775,#780,#105,.T.);
#636=EDGE_CURVE('',#781,#781,#837,.T.);
#637=EDGE_CURVE('',#772,#747,#106,.T.);
#638=EDGE_CURVE('',#746,#773,#107,.T.);
#639=EDGE_CURVE('',#745,#774,#108,.T.);
#640=EDGE_CURVE('',#782,#744,#109,.T.);
#641=EDGE_CURVE('',#782,#729,#110,.T.);
#642=EDGE_CURVE('',#783,#767,#111,.T.);
#643=EDGE_CURVE('',#784,#783,#112,.T.);
#644=EDGE_CURVE('',#784,#785,#113,.T.);
#645=EDGE_CURVE('',#786,#785,#114,.T.);
#646=EDGE_CURVE('',#786,#769,#115,.T.);
#647=EDGE_CURVE('',#787,#788,#116,.T.);
#648=EDGE_CURVE('',#787,#789,#117,.T.);
#649=EDGE_CURVE('',#789,#784,#118,.T.);
#650=EDGE_CURVE('',#783,#788,#119,.T.);
#651=EDGE_CURVE('',#790,#791,#120,.T.);
#652=EDGE_CURVE('',#791,#792,#121,.T.);
#653=EDGE_CURVE('',#793,#792,#122,.T.);
#654=EDGE_CURVE('',#790,#793,#123,.T.);
#655=EDGE_CURVE('',#794,#794,#51,.T.);
#656=EDGE_CURVE('',#795,#795,#52,.T.);
#657=EDGE_CURVE('',#740,#765,#53,.T.);
#658=EDGE_CURVE('',#737,#778,#54,.F.);
#659=EDGE_CURVE('',#777,#738,#55,.T.);
#660=EDGE_CURVE('',#796,#734,#124,.F.);
#661=EDGE_CURVE('',#796,#735,#56,.T.);
#662=EDGE_CURVE('',#797,#797,#838,.T.);
#663=EDGE_CURVE('',#798,#798,#839,.T.);
#664=EDGE_CURVE('',#799,#800,#125,.T.);
#665=EDGE_CURVE('',#800,#770,#840,.T.);
#666=EDGE_CURVE('',#799,#786,#126,.T.);
#667=EDGE_CURVE('',#766,#801,#841,.F.);
#668=EDGE_CURVE('',#788,#801,#127,.T.);
#669=EDGE_CURVE('',#801,#800,#128,.T.);
#670=EDGE_CURVE('',#787,#799,#129,.T.);
#671=EDGE_CURVE('',#802,#785,#130,.T.);
#672=EDGE_CURVE('',#799,#802,#131,.T.);
#673=EDGE_CURVE('',#789,#802,#132,.T.);
#674=EDGE_CURVE('',#749,#803,#842,.T.);
#675=EDGE_CURVE('',#792,#803,#133,.T.);
#676=EDGE_CURVE('',#791,#742,#134,.T.);
#677=EDGE_CURVE('',#803,#804,#135,.T.);
#678=EDGE_CURVE('',#793,#804,#136,.T.);
#679=EDGE_CURVE('',#805,#806,#137,.T.);
#680=EDGE_CURVE('',#805,#807,#843,.F.);
#681=EDGE_CURVE('',#807,#782,#138,.T.);
#682=EDGE_CURVE('',#790,#743,#139,.T.);
#683=EDGE_CURVE('',#804,#808,#844,.F.);
#684=EDGE_CURVE('',#806,#808,#140,.T.);
#685=EDGE_CURVE('',#809,#809,#57,.F.);
#686=EDGE_CURVE('',#810,#810,#845,.T.);
#687=EDGE_CURVE('',#811,#811,#846,.T.);
#688=EDGE_CURVE('',#812,#812,#847,.T.);
#689=EDGE_CURVE('',#748,#780,#848,.T.);
#690=EDGE_CURVE('',#796,#779,#849,.T.);
#691=EDGE_CURVE('',#808,#796,#141,.T.);
#692=EDGE_CURVE('',#736,#778,#850,.T.);
#693=EDGE_CURVE('',#776,#765,#851,.T.);
#694=EDGE_CURVE('',#775,#771,#852,.T.);
#695=EDGE_CURVE('',#777,#739,#853,.T.);
#696=EDGE_CURVE('',#813,#814,#142,.T.);
#697=EDGE_CURVE('',#814,#815,#854,.F.);
#698=EDGE_CURVE('',#815,#816,#143,.T.);
#699=EDGE_CURVE('',#816,#817,#855,.F.);
#700=EDGE_CURVE('',#817,#818,#144,.T.);
#701=EDGE_CURVE('',#818,#813,#145,.T.);
#702=EDGE_CURVE('',#817,#723,#146,.T.);
#703=EDGE_CURVE('',#818,#728,#147,.T.);
#704=EDGE_CURVE('',#819,#819,#856,.T.);
#705=EDGE_CURVE('',#815,#725,#148,.T.);
#706=EDGE_CURVE('',#724,#816,#149,.F.);
#707=EDGE_CURVE('',#726,#814,#150,.F.);
#708=EDGE_CURVE('',#813,#727,#151,.T.);
#709=EDGE_CURVE('',#820,#820,#857,.F.);
#710=EDGE_CURVE('',#821,#821,#858,.T.);
#711=EDGE_CURVE('',#806,#733,#152,.T.);
#712=EDGE_CURVE('',#807,#731,#153,.T.);
#713=EDGE_CURVE('',#732,#805,#154,.F.);
#714=VERTEX_POINT('',#1596);
#715=VERTEX_POINT('',#1597);
#716=VERTEX_POINT('',#1599);
#717=VERTEX_POINT('',#1601);
#718=VERTEX_POINT('',#1603);
#719=VERTEX_POINT('',#1606);
#720=VERTEX_POINT('',#1607);
#721=VERTEX_POINT('',#1609);
#722=VERTEX_POINT('',#1611);
#723=VERTEX_POINT('',#1614);
#724=VERTEX_POINT('',#1615);
#725=VERTEX_POINT('',#1617);
#726=VERTEX_POINT('',#1619);
#727=VERTEX_POINT('',#1621);
#728=VERTEX_POINT('',#1623);
#729=VERTEX_POINT('',#1626);
#730=VERTEX_POINT('',#1627);
#731=VERTEX_POINT('',#1629);
#732=VERTEX_POINT('',#1631);
#733=VERTEX_POINT('',#1633);
#734=VERTEX_POINT('',#1635);
#735=VERTEX_POINT('',#1637);
#736=VERTEX_POINT('',#1642);
#737=VERTEX_POINT('',#1647);
#738=VERTEX_POINT('',#1649);
#739=VERTEX_POINT('',#1654);
#740=VERTEX_POINT('',#1659);
#741=VERTEX_POINT('',#1661);
#742=VERTEX_POINT('',#1665);
#743=VERTEX_POINT('',#1666);
#744=VERTEX_POINT('',#1668);
#745=VERTEX_POINT('',#1670);
#746=VERTEX_POINT('',#1672);
#747=VERTEX_POINT('',#1674);
#748=VERTEX_POINT('',#1676);
#749=VERTEX_POINT('',#1678);
#750=VERTEX_POINT('',#1682);
#751=VERTEX_POINT('',#1684);
#752=VERTEX_POINT('',#1697);
#753=VERTEX_POINT('',#1700);
#754=VERTEX_POINT('',#1701);
#755=VERTEX_POINT('',#1715);
#756=VERTEX_POINT('',#1718);
#757=VERTEX_POINT('',#1720);
#758=VERTEX_POINT('',#1733);
#759=VERTEX_POINT('',#1736);
#760=VERTEX_POINT('',#1738);
#761=VERTEX_POINT('',#1751);
#762=VERTEX_POINT('',#1759);
#763=VERTEX_POINT('',#1761);
#764=VERTEX_POINT('',#1764);
#765=VERTEX_POINT('',#1766);
#766=VERTEX_POINT('',#1768);
#767=VERTEX_POINT('',#1770);
#768=VERTEX_POINT('',#1774);
#769=VERTEX_POINT('',#1776);
#770=VERTEX_POINT('',#1777);
#771=VERTEX_POINT('',#1779);
#772=VERTEX_POINT('',#1781);
#773=VERTEX_POINT('',#1783);
#774=VERTEX_POINT('',#1785);
#775=VERTEX_POINT('',#1789);
#776=VERTEX_POINT('',#1790);
#777=VERTEX_POINT('',#1792);
#778=VERTEX_POINT('',#1794);
#779=VERTEX_POINT('',#1796);
#780=VERTEX_POINT('',#1798);
#781=VERTEX_POINT('',#1801);
#782=VERTEX_POINT('',#1808);
#783=VERTEX_POINT('',#1811);
#784=VERTEX_POINT('',#1813);
#785=VERTEX_POINT('',#1815);
#786=VERTEX_POINT('',#1817);
#787=VERTEX_POINT('',#1821);
#788=VERTEX_POINT('',#1822);
#789=VERTEX_POINT('',#1824);
#790=VERTEX_POINT('',#1828);
#791=VERTEX_POINT('',#1829);
#792=VERTEX_POINT('',#1831);
#793=VERTEX_POINT('',#1833);
#794=VERTEX_POINT('',#1837);
#795=VERTEX_POINT('',#1840);
#796=VERTEX_POINT('',#1848);
#797=VERTEX_POINT('',#1852);
#798=VERTEX_POINT('',#1856);
#799=VERTEX_POINT('',#1860);
#800=VERTEX_POINT('',#1861);
#801=VERTEX_POINT('',#1866);
#802=VERTEX_POINT('',#1873);
#803=VERTEX_POINT('',#1880);
#804=VERTEX_POINT('',#1885);
#805=VERTEX_POINT('',#1889);
#806=VERTEX_POINT('',#1890);
#807=VERTEX_POINT('',#1892);
#808=VERTEX_POINT('',#1896);
#809=VERTEX_POINT('',#1901);
#810=VERTEX_POINT('',#1903);
#811=VERTEX_POINT('',#1906);
#812=VERTEX_POINT('',#1910);
#813=VERTEX_POINT('',#1983);
#814=VERTEX_POINT('',#1984);
#815=VERTEX_POINT('',#1986);
#816=VERTEX_POINT('',#1988);
#817=VERTEX_POINT('',#1990);
#818=VERTEX_POINT('',#1992);
#819=VERTEX_POINT('',#1999);
#820=VERTEX_POINT('',#2010);
#821=VERTEX_POINT('',#2014);
#822=CIRCLE('',#1165,4.45);
#823=CIRCLE('',#1166,4.45);
#824=CIRCLE('',#1167,4.45);
#825=CIRCLE('',#1168,2.81695209700905);
#826=CIRCLE('',#1169,2.81695209700905);
#827=CIRCLE('',#1170,0.448847);
#828=CIRCLE('',#1171,0.448847);
#829=CIRCLE('',#1172,0.168994949366117);
#830=CIRCLE('',#1177,4.45);
#831=CIRCLE('',#1179,4.45);
#832=CIRCLE('',#1181,2.81695209700905);
#833=CIRCLE('',#1183,2.81695209700905);
#834=CIRCLE('',#1186,0.500909727599984);
#835=CIRCLE('',#1189,0.0220391472899352);
#836=CIRCLE('',#1191,0.0224385342854613);
#837=CIRCLE('',#1195,0.101401163863877);
#838=CIRCLE('',#1211,0.0220391472899352);
#839=CIRCLE('',#1214,0.0224385342854613);
#840=CIRCLE('',#1217,0.362132);
#841=CIRCLE('',#1219,0.362132);
#842=CIRCLE('',#1225,0.362132034355965);
#843=CIRCLE('',#1228,0.168994949366117);
#844=CIRCLE('',#1229,0.362132034355965);
#845=CIRCLE('',#1233,0.45);
#846=CIRCLE('',#1235,0.220085805328946);
#847=CIRCLE('',#1238,0.155);
#848=CIRCLE('',#1241,0.362132034355962);
#849=CIRCLE('',#1242,0.362132034355965);
#850=CIRCLE('',#1243,0.362132034355965);
#851=CIRCLE('',#1245,0.362132);
#852=CIRCLE('',#1246,0.362132);
#853=CIRCLE('',#1247,0.362132);
#854=CIRCLE('',#1255,0.448847);
#855=CIRCLE('',#1256,0.448847);
#856=CIRCLE('',#1259,0.1);
#857=CIRCLE('',#1265,0.101401163863877);
#858=CIRCLE('',#1268,0.1);
#859=EDGE_LOOP('',(#252,#253,#254,#255,#256));
#860=EDGE_LOOP('',(#257,#258,#259,#260));
#861=EDGE_LOOP('',(#261,#262,#263,#264,#265,#266));
#862=EDGE_LOOP('',(#267,#268,#269,#270,#271,#272,#273,#274,#275,#276,#277,
#278,#279));
#863=EDGE_LOOP('',(#280,#281,#282,#283,#284,#285,#286,#287));
#864=EDGE_LOOP('',(#288,#289,#290,#291,#292));
#865=EDGE_LOOP('',(#293));
#866=EDGE_LOOP('',(#294,#295,#296,#297));
#867=EDGE_LOOP('',(#298));
#868=EDGE_LOOP('',(#299,#300,#301,#302));
#869=EDGE_LOOP('',(#303));
#870=EDGE_LOOP('',(#304,#305,#306,#307));
#871=EDGE_LOOP('',(#308));
#872=EDGE_LOOP('',(#309,#310,#311,#312));
#873=EDGE_LOOP('',(#313,#314,#315,#316));
#874=EDGE_LOOP('',(#317));
#875=EDGE_LOOP('',(#318));
#876=EDGE_LOOP('',(#319));
#877=EDGE_LOOP('',(#320,#321,#322,#323,#324));
#878=EDGE_LOOP('',(#325));
#879=EDGE_LOOP('',(#326,#327,#328,#329,#330,#331));
#880=EDGE_LOOP('',(#332,#333,#334,#335,#336,#337));
#881=EDGE_LOOP('',(#338));
#882=EDGE_LOOP('',(#339,#340,#341,#342));
#883=EDGE_LOOP('',(#343,#344,#345,#346,#347,#348,#349,#350,#351,#352,#353,
#354));
#884=EDGE_LOOP('',(#355,#356,#357,#358,#359));
#885=EDGE_LOOP('',(#360,#361,#362,#363));
#886=EDGE_LOOP('',(#364));
#887=EDGE_LOOP('',(#365,#366,#367,#368));
#888=EDGE_LOOP('',(#369));
#889=EDGE_LOOP('',(#370,#371,#372,#373));
#890=EDGE_LOOP('',(#374,#375,#376));
#891=EDGE_LOOP('',(#377,#378,#379,#380));
#892=EDGE_LOOP('',(#381,#382,#383));
#893=EDGE_LOOP('',(#384));
#894=EDGE_LOOP('',(#385));
#895=EDGE_LOOP('',(#386));
#896=EDGE_LOOP('',(#387));
#897=EDGE_LOOP('',(#388));
#898=EDGE_LOOP('',(#389));
#899=EDGE_LOOP('',(#390,#391,#392,#393,#394));
#900=EDGE_LOOP('',(#395,#396,#397,#398,#399));
#901=EDGE_LOOP('',(#400,#401,#402,#403,#404));
#902=EDGE_LOOP('',(#405,#406,#407,#408));
#903=EDGE_LOOP('',(#409,#410,#411,#412));
#904=EDGE_LOOP('',(#413,#414,#415,#416));
#905=EDGE_LOOP('',(#417,#418,#419,#420,#421));
#906=EDGE_LOOP('',(#422,#423,#424,#425));
#907=EDGE_LOOP('',(#426,#427,#428,#429,#430,#431,#432,#433,#434,#435));
#908=EDGE_LOOP('',(#436,#437,#438,#439));
#909=EDGE_LOOP('',(#440));
#910=EDGE_LOOP('',(#441));
#911=EDGE_LOOP('',(#442));
#912=EDGE_LOOP('',(#443));
#913=EDGE_LOOP('',(#444));
#914=EDGE_LOOP('',(#445));
#915=EDGE_LOOP('',(#446));
#916=EDGE_LOOP('',(#447));
#917=EDGE_LOOP('',(#448,#449,#450,#451));
#918=EDGE_LOOP('',(#452,#453,#454,#455,#456,#457,#458,#459));
#919=EDGE_LOOP('',(#460,#461,#462,#463,#464));
#920=EDGE_LOOP('',(#465,#466,#467));
#921=EDGE_LOOP('',(#468,#469,#470,#471,#472,#473,#474,#475));
#922=EDGE_LOOP('',(#476,#477,#478,#479,#480));
#923=EDGE_LOOP('',(#481,#482,#483));
#924=EDGE_LOOP('',(#484,#485,#486,#487,#488,#489));
#925=EDGE_LOOP('',(#490,#491,#492,#493));
#926=EDGE_LOOP('',(#494));
#927=EDGE_LOOP('',(#495,#496,#497,#498));
#928=EDGE_LOOP('',(#499));
#929=EDGE_LOOP('',(#500));
#930=EDGE_LOOP('',(#501));
#931=EDGE_LOOP('',(#502));
#932=EDGE_LOOP('',(#503));
#933=EDGE_LOOP('',(#504));
#934=EDGE_LOOP('',(#505));
#935=EDGE_LOOP('',(#506,#507,#508,#509,#510,#511));
#936=EDGE_LOOP('',(#512,#513,#514,#515));
#937=EDGE_LOOP('',(#516));
#938=EDGE_LOOP('',(#517,#518,#519,#520));
#939=EDGE_LOOP('',(#521,#522,#523,#524));
#940=EDGE_LOOP('',(#525,#526,#527,#528));
#941=EDGE_LOOP('',(#529,#530,#531,#532));
#942=EDGE_LOOP('',(#533,#534,#535,#536));
#943=EDGE_LOOP('',(#537));
#944=EDGE_LOOP('',(#538));
#945=EDGE_LOOP('',(#539));
#946=EDGE_LOOP('',(#540));
#947=EDGE_LOOP('',(#541));
#948=EDGE_LOOP('',(#542));
#949=EDGE_LOOP('',(#543,#544,#545,#546,#547));
#950=EDGE_LOOP('',(#548,#549,#550,#551));
#951=EDGE_LOOP('',(#552,#553,#554,#555));
#952=EDGE_LOOP('',(#556,#557,#558,#559));
#953=FACE_BOUND('',#859,.T.);
#954=FACE_BOUND('',#860,.T.);
#955=FACE_BOUND('',#861,.T.);
#956=FACE_BOUND('',#862,.T.);
#957=FACE_BOUND('',#863,.T.);
#958=FACE_BOUND('',#864,.T.);
#959=FACE_BOUND('',#865,.T.);
#960=FACE_BOUND('',#866,.T.);
#961=FACE_BOUND('',#867,.T.);
#962=FACE_BOUND('',#868,.T.);
#963=FACE_BOUND('',#869,.T.);
#964=FACE_BOUND('',#870,.T.);
#965=FACE_BOUND('',#871,.T.);
#966=FACE_BOUND('',#872,.T.);
#967=FACE_BOUND('',#873,.T.);
#968=FACE_BOUND('',#874,.T.);
#969=FACE_BOUND('',#875,.T.);
#970=FACE_BOUND('',#876,.T.);
#971=FACE_BOUND('',#877,.T.);
#972=FACE_BOUND('',#878,.T.);
#973=FACE_BOUND('',#879,.T.);
#974=FACE_BOUND('',#880,.T.);
#975=FACE_BOUND('',#881,.T.);
#976=FACE_BOUND('',#882,.T.);
#977=FACE_BOUND('',#883,.T.);
#978=FACE_BOUND('',#884,.T.);
#979=FACE_BOUND('',#885,.T.);
#980=FACE_BOUND('',#886,.T.);
#981=FACE_BOUND('',#887,.T.);
#982=FACE_BOUND('',#888,.T.);
#983=FACE_BOUND('',#889,.T.);
#984=FACE_BOUND('',#890,.T.);
#985=FACE_BOUND('',#891,.T.);
#986=FACE_BOUND('',#892,.T.);
#987=FACE_BOUND('',#893,.T.);
#988=FACE_BOUND('',#894,.T.);
#989=FACE_BOUND('',#895,.T.);
#990=FACE_BOUND('',#896,.T.);
#991=FACE_BOUND('',#897,.T.);
#992=FACE_BOUND('',#898,.T.);
#993=FACE_BOUND('',#899,.T.);
#994=FACE_BOUND('',#900,.T.);
#995=FACE_BOUND('',#901,.T.);
#996=FACE_BOUND('',#902,.T.);
#997=FACE_BOUND('',#903,.T.);
#998=FACE_BOUND('',#904,.T.);
#999=FACE_BOUND('',#905,.T.);
#1000=FACE_BOUND('',#906,.T.);
#1001=FACE_BOUND('',#907,.T.);
#1002=FACE_BOUND('',#908,.T.);
#1003=FACE_BOUND('',#909,.T.);
#1004=FACE_BOUND('',#910,.T.);
#1005=FACE_BOUND('',#911,.T.);
#1006=FACE_BOUND('',#912,.T.);
#1007=FACE_BOUND('',#913,.T.);
#1008=FACE_BOUND('',#914,.T.);
#1009=FACE_BOUND('',#915,.T.);
#1010=FACE_BOUND('',#916,.T.);
#1011=FACE_BOUND('',#917,.T.);
#1012=FACE_BOUND('',#918,.T.);
#1013=FACE_BOUND('',#919,.T.);
#1014=FACE_BOUND('',#920,.T.);
#1015=FACE_BOUND('',#921,.T.);
#1016=FACE_BOUND('',#922,.T.);
#1017=FACE_BOUND('',#923,.T.);
#1018=FACE_BOUND('',#924,.T.);
#1019=FACE_BOUND('',#925,.T.);
#1020=FACE_BOUND('',#926,.T.);
#1021=FACE_BOUND('',#927,.T.);
#1022=FACE_BOUND('',#928,.T.);
#1023=FACE_BOUND('',#929,.T.);
#1024=FACE_BOUND('',#930,.T.);
#1025=FACE_BOUND('',#931,.T.);
#1026=FACE_BOUND('',#932,.T.);
#1027=FACE_BOUND('',#933,.T.);
#1028=FACE_BOUND('',#934,.T.);
#1029=FACE_BOUND('',#935,.T.);
#1030=FACE_BOUND('',#936,.T.);
#1031=FACE_BOUND('',#937,.T.);
#1032=FACE_BOUND('',#938,.T.);
#1033=FACE_BOUND('',#939,.T.);
#1034=FACE_BOUND('',#940,.T.);
#1035=FACE_BOUND('',#941,.T.);
#1036=FACE_BOUND('',#942,.T.);
#1037=FACE_BOUND('',#943,.T.);
#1038=FACE_BOUND('',#944,.T.);
#1039=FACE_BOUND('',#945,.T.);
#1040=FACE_BOUND('',#946,.T.);
#1041=FACE_BOUND('',#947,.T.);
#1042=FACE_BOUND('',#948,.T.);
#1043=FACE_BOUND('',#949,.T.);
#1044=FACE_BOUND('',#950,.T.);
#1045=FACE_BOUND('',#951,.T.);
#1046=FACE_BOUND('',#952,.T.);
#1047=PLANE('',#1164);
#1048=PLANE('',#1175);
#1049=PLANE('',#1184);
#1050=PLANE('',#1188);
#1051=PLANE('',#1190);
#1052=PLANE('',#1192);
#1053=PLANE('',#1196);
#1054=PLANE('',#1197);
#1055=PLANE('',#1198);
#1056=PLANE('',#1199);
#1057=PLANE('',#1201);
#1058=PLANE('',#1212);
#1059=PLANE('',#1215);
#1060=PLANE('',#1216);
#1061=PLANE('',#1218);
#1062=PLANE('',#1220);
#1063=PLANE('',#1221);
#1064=PLANE('',#1222);
#1065=PLANE('',#1223);
#1066=PLANE('',#1224);
#1067=PLANE('',#1226);
#1068=PLANE('',#1227);
#1069=PLANE('',#1230);
#1070=PLANE('',#1234);
#1071=PLANE('',#1237);
#1072=PLANE('',#1239);
#1073=PLANE('',#1248);
#1074=PLANE('',#1249);
#1075=PLANE('',#1250);
#1076=PLANE('',#1254);
#1077=PLANE('',#1257);
#1078=PLANE('',#1258);
#1079=PLANE('',#1260);
#1080=PLANE('',#1261);
#1081=PLANE('',#1266);
#1082=PLANE('',#1269);
#1083=PLANE('',#1270);
#1084=PLANE('',#1271);
#1085=PLANE('',#1272);
#1086=ADVANCED_FACE('',(#953,#954,#955,#956),#1047,.T.);
#1087=ADVANCED_FACE('',(#957),#1048,.T.);
#1088=ADVANCED_FACE('',(#958,#959),#16,.T.);
#1089=ADVANCED_FACE('',(#960,#961),#17,.T.);
#1090=ADVANCED_FACE('',(#962,#963),#18,.F.);
#1091=ADVANCED_FACE('',(#964,#965),#19,.F.);
#1092=ADVANCED_FACE('',(#966,#967),#1049,.F.);
#1093=ADVANCED_FACE('',(#968,#969),#20,.F.);
#1094=ADVANCED_FACE('',(#970,#971),#1050,.F.);
#1095=ADVANCED_FACE('',(#972,#973),#1051,.F.);
#1096=ADVANCED_FACE('',(#974,#975),#1052,.T.);
#1097=ADVANCED_FACE('',(#976),#1053,.T.);
#1098=ADVANCED_FACE('',(#977),#1054,.F.);
#1099=ADVANCED_FACE('',(#978,#979),#1055,.T.);
#1100=ADVANCED_FACE('',(#980,#981),#1056,.F.);
#1101=ADVANCED_FACE('',(#982,#983),#1057,.F.);
#1102=ADVANCED_FACE('',(#984),#21,.T.);
#1103=ADVANCED_FACE('',(#985),#22,.T.);
#1104=ADVANCED_FACE('',(#986),#23,.T.);
#1105=ADVANCED_FACE('',(#987,#988),#24,.F.);
#1106=ADVANCED_FACE('',(#989),#1058,.T.);
#1107=ADVANCED_FACE('',(#990,#991),#25,.F.);
#1108=ADVANCED_FACE('',(#992),#1059,.T.);
#1109=ADVANCED_FACE('',(#993),#1060,.T.);
#1110=ADVANCED_FACE('',(#994),#1061,.F.);
#1111=ADVANCED_FACE('',(#995),#1062,.T.);
#1112=ADVANCED_FACE('',(#996),#1063,.F.);
#1113=ADVANCED_FACE('',(#997),#1064,.T.);
#1114=ADVANCED_FACE('',(#998),#1065,.T.);
#1115=ADVANCED_FACE('',(#999),#1066,.T.);
#1116=ADVANCED_FACE('',(#1000),#1067,.F.);
#1117=ADVANCED_FACE('',(#1001),#1068,.F.);
#1118=ADVANCED_FACE('',(#1002),#1069,.T.);
#1119=ADVANCED_FACE('',(#1003,#1004),#26,.F.);
#1120=ADVANCED_FACE('',(#1005,#1006),#1070,.T.);
#1121=ADVANCED_FACE('',(#1007,#1008),#27,.F.);
#1122=ADVANCED_FACE('',(#1009,#1010),#1071,.T.);
#1123=ADVANCED_FACE('',(#1011),#1072,.F.);
#1124=ADVANCED_FACE('',(#1012),#28,.T.);
#1125=ADVANCED_FACE('',(#1013),#12,.T.);
#1126=ADVANCED_FACE('',(#1014),#13,.T.);
#1127=ADVANCED_FACE('',(#1015),#29,.T.);
#1128=ADVANCED_FACE('',(#1016),#14,.T.);
#1129=ADVANCED_FACE('',(#1017),#15,.T.);
#1130=ADVANCED_FACE('',(#1018),#1073,.F.);
#1131=ADVANCED_FACE('',(#1019,#1020),#1074,.F.);
#1132=ADVANCED_FACE('',(#1021,#1022),#1075,.T.);
#1133=ADVANCED_FACE('',(#1023,#1024),#30,.F.);
#1134=ADVANCED_FACE('',(#1025,#1026),#31,.F.);
#1135=ADVANCED_FACE('',(#1027,#1028),#32,.F.);
#1136=ADVANCED_FACE('',(#1029),#1076,.F.);
#1137=ADVANCED_FACE('',(#1030),#1077,.T.);
#1138=ADVANCED_FACE('',(#1031,#1032),#1078,.T.);
#1139=ADVANCED_FACE('',(#1033),#1079,.T.);
#1140=ADVANCED_FACE('',(#1034),#1080,.T.);
#1141=ADVANCED_FACE('',(#1035),#33,.T.);
#1142=ADVANCED_FACE('',(#1036),#34,.T.);
#1143=ADVANCED_FACE('',(#1037,#1038),#35,.F.);
#1144=ADVANCED_FACE('',(#1039),#1081,.T.);
#1145=ADVANCED_FACE('',(#1040,#1041),#36,.F.);
#1146=ADVANCED_FACE('',(#1042),#1082,.T.);
#1147=ADVANCED_FACE('',(#1043),#1083,.F.);
#1148=ADVANCED_FACE('',(#1044),#1084,.T.);
#1149=ADVANCED_FACE('',(#1045),#1085,.F.);
#1150=ADVANCED_FACE('',(#1046),#37,.T.);
#1151=CLOSED_SHELL('',(#1086,#1087,#1088,#1089,#1090,#1091,#1092,#1093,
#1094,#1095,#1096,#1097,#1098,#1099,#1100,#1101,#1102,#1103,#1104,#1105,
#1106,#1107,#1108,#1109,#1110,#1111,#1112,#1113,#1114,#1115,#1116,#1117,
#1118,#1119,#1120,#1121,#1122,#1123,#1124,#1125,#1126,#1127,#1128,#1129,
#1130,#1131,#1132,#1133,#1134,#1135,#1136,#1137,#1138,#1139,#1140,#1141,
#1142,#1143,#1144,#1145,#1146,#1147,#1148,#1149,#1150));
#1152=STYLED_ITEM('',(#1153),#1160);
#1153=PRESENTATION_STYLE_ASSIGNMENT((#1154));
#1154=SURFACE_STYLE_USAGE(.BOTH.,#1155);
#1155=SURFACE_SIDE_STYLE('',(#1156));
#1156=SURFACE_STYLE_FILL_AREA(#1157);
#1157=FILL_AREA_STYLE('',(#1158));
#1158=FILL_AREA_STYLE_COLOUR('',#1159);
#1159=COLOUR_RGB('',0.615686274509804,0.811764705882353,0.929411764705882);
#1160=MANIFOLD_SOLID_BREP('Gimabl X axis ring',#1151);
#1161=SHAPE_DEFINITION_REPRESENTATION(#2029,#1162);
#1162=SHAPE_REPRESENTATION('Gimabl X axis ring',(#1163),#2024);
#1163=AXIS2_PLACEMENT_3D('',#1593,#1274,#1275);
#1164=AXIS2_PLACEMENT_3D('',#1594,#1276,#1277);
#1165=AXIS2_PLACEMENT_3D('',#1595,#1278,#1279);
#1166=AXIS2_PLACEMENT_3D('',#1598,#1280,#1281);
#1167=AXIS2_PLACEMENT_3D('',#1602,#1283,#1284);
#1168=AXIS2_PLACEMENT_3D('',#1605,#1286,#1287);
#1169=AXIS2_PLACEMENT_3D('',#1610,#1289,#1290);
#1170=AXIS2_PLACEMENT_3D('',#1613,#1292,#1293);
#1171=AXIS2_PLACEMENT_3D('',#1618,#1295,#1296);
#1172=AXIS2_PLACEMENT_3D('',#1630,#1302,#1303);
#1173=AXIS2_PLACEMENT_3D('',#1636,#1306,#1307);
#1174=AXIS2_PLACEMENT_3D('',#1660,#1309,#1310);
#1175=AXIS2_PLACEMENT_3D('',#1663,#1312,#1313);
#1176=AXIS2_PLACEMENT_3D('',#1680,#1322,#1323);
#1177=AXIS2_PLACEMENT_3D('',#1683,#1325,#1326);
#1178=AXIS2_PLACEMENT_3D('',#1698,#1328,#1329);
#1179=AXIS2_PLACEMENT_3D('',#1699,#1330,#1331);
#1180=AXIS2_PLACEMENT_3D('',#1716,#1334,#1335);
#1181=AXIS2_PLACEMENT_3D('',#1721,#1338,#1339);
#1182=AXIS2_PLACEMENT_3D('',#1734,#1340,#1341);
#1183=AXIS2_PLACEMENT_3D('',#1737,#1343,#1344);
#1184=AXIS2_PLACEMENT_3D('',#1752,#1346,#1347);
#1185=AXIS2_PLACEMENT_3D('',#1757,#1352,#1353);
#1186=AXIS2_PLACEMENT_3D('',#1758,#1354,#1355);
#1187=AXIS2_PLACEMENT_3D('',#1760,#1356,#1357);
#1188=AXIS2_PLACEMENT_3D('',#1762,#1358,#1359);
#1189=AXIS2_PLACEMENT_3D('',#1763,#1360,#1361);
#1190=AXIS2_PLACEMENT_3D('',#1772,#1366,#1367);
#1191=AXIS2_PLACEMENT_3D('',#1773,#1368,#1369);
#1192=AXIS2_PLACEMENT_3D('',#1787,#1376,#1377);
#1193=AXIS2_PLACEMENT_3D('',#1791,#1379,#1380);
#1194=AXIS2_PLACEMENT_3D('',#1795,#1382,#1383);
#1195=AXIS2_PLACEMENT_3D('',#1800,#1386,#1387);
#1196=AXIS2_PLACEMENT_3D('',#1802,#1388,#1389);
#1197=AXIS2_PLACEMENT_3D('',#1805,#1392,#1393);
#1198=AXIS2_PLACEMENT_3D('',#1819,#1402,#1403);
#1199=AXIS2_PLACEMENT_3D('',#1835,#1412,#1413);
#1200=AXIS2_PLACEMENT_3D('',#1836,#1414,#1415);
#1201=AXIS2_PLACEMENT_3D('',#1838,#1416,#1417);
#1202=AXIS2_PLACEMENT_3D('',#1839,#1418,#1419);
#1203=AXIS2_PLACEMENT_3D('',#1841,#1420,#1421);
#1204=AXIS2_PLACEMENT_3D('',#1842,#1422,#1423);
#1205=AXIS2_PLACEMENT_3D('',#1843,#1424,#1425);
#1206=AXIS2_PLACEMENT_3D('',#1844,#1426,#1427);
#1207=AXIS2_PLACEMENT_3D('',#1845,#1428,#1429);
#1208=AXIS2_PLACEMENT_3D('',#1846,#1430,#1431);
#1209=AXIS2_PLACEMENT_3D('',#1849,#1433,#1434);
#1210=AXIS2_PLACEMENT_3D('',#1850,#1435,#1436);
#1211=AXIS2_PLACEMENT_3D('',#1851,#1437,#1438);
#1212=AXIS2_PLACEMENT_3D('',#1853,#1439,#1440);
#1213=AXIS2_PLACEMENT_3D('',#1854,#1441,#1442);
#1214=AXIS2_PLACEMENT_3D('',#1855,#1443,#1444);
#1215=AXIS2_PLACEMENT_3D('',#1857,#1445,#1446);
#1216=AXIS2_PLACEMENT_3D('',#1858,#1447,#1448);
#1217=AXIS2_PLACEMENT_3D('',#1862,#1450,#1451);
#1218=AXIS2_PLACEMENT_3D('',#1864,#1453,#1454);
#1219=AXIS2_PLACEMENT_3D('',#1865,#1455,#1456);
#1220=AXIS2_PLACEMENT_3D('',#1868,#1458,#1459);
#1221=AXIS2_PLACEMENT_3D('',#1871,#1462,#1463);
#1222=AXIS2_PLACEMENT_3D('',#1875,#1466,#1467);
#1223=AXIS2_PLACEMENT_3D('',#1877,#1469,#1470);
#1224=AXIS2_PLACEMENT_3D('',#1878,#1471,#1472);
#1225=AXIS2_PLACEMENT_3D('',#1879,#1473,#1474);
#1226=AXIS2_PLACEMENT_3D('',#1883,#1477,#1478);
#1227=AXIS2_PLACEMENT_3D('',#1887,#1481,#1482);
#1228=AXIS2_PLACEMENT_3D('',#1891,#1484,#1485);
#1229=AXIS2_PLACEMENT_3D('',#1895,#1488,#1489);
#1230=AXIS2_PLACEMENT_3D('',#1898,#1491,#1492);
#1231=AXIS2_PLACEMENT_3D('',#1899,#1493,#1494);
#1232=AXIS2_PLACEMENT_3D('',#1900,#1495,#1496);
#1233=AXIS2_PLACEMENT_3D('',#1902,#1497,#1498);
#1234=AXIS2_PLACEMENT_3D('',#1904,#1499,#1500);
#1235=AXIS2_PLACEMENT_3D('',#1905,#1501,#1502);
#1236=AXIS2_PLACEMENT_3D('',#1907,#1503,#1504);
#1237=AXIS2_PLACEMENT_3D('',#1908,#1505,#1506);
#1238=AXIS2_PLACEMENT_3D('',#1909,#1507,#1508);
#1239=AXIS2_PLACEMENT_3D('',#1911,#1509,#1510);
#1240=AXIS2_PLACEMENT_3D('',#1912,#1511,#1512);
#1241=AXIS2_PLACEMENT_3D('',#1913,#1513,#1514);
#1242=AXIS2_PLACEMENT_3D('',#1914,#1515,#1516);
#1243=AXIS2_PLACEMENT_3D('',#1931,#1518,#1519);
#1244=AXIS2_PLACEMENT_3D('',#1944,#1520,#1521);
#1245=AXIS2_PLACEMENT_3D('',#1945,#1522,#1523);
#1246=AXIS2_PLACEMENT_3D('',#1946,#1524,#1525);
#1247=AXIS2_PLACEMENT_3D('',#1962,#1526,#1527);
#1248=AXIS2_PLACEMENT_3D('',#1975,#1528,#1529);
#1249=AXIS2_PLACEMENT_3D('',#1976,#1530,#1531);
#1250=AXIS2_PLACEMENT_3D('',#1977,#1532,#1533);
#1251=AXIS2_PLACEMENT_3D('',#1978,#1534,#1535);
#1252=AXIS2_PLACEMENT_3D('',#1979,#1536,#1537);
#1253=AXIS2_PLACEMENT_3D('',#1980,#1538,#1539);
#1254=AXIS2_PLACEMENT_3D('',#1981,#1540,#1541);
#1255=AXIS2_PLACEMENT_3D('',#1985,#1543,#1544);
#1256=AXIS2_PLACEMENT_3D('',#1989,#1546,#1547);
#1257=AXIS2_PLACEMENT_3D('',#1994,#1550,#1551);
#1258=AXIS2_PLACEMENT_3D('',#1997,#1554,#1555);
#1259=AXIS2_PLACEMENT_3D('',#1998,#1556,#1557);
#1260=AXIS2_PLACEMENT_3D('',#2002,#1560,#1561);
#1261=AXIS2_PLACEMENT_3D('',#2005,#1564,#1565);
#1262=AXIS2_PLACEMENT_3D('',#2006,#1566,#1567);
#1263=AXIS2_PLACEMENT_3D('',#2007,#1568,#1569);
#1264=AXIS2_PLACEMENT_3D('',#2008,#1570,#1571);
#1265=AXIS2_PLACEMENT_3D('',#2009,#1572,#1573);
#1266=AXIS2_PLACEMENT_3D('',#2011,#1574,#1575);
#1267=AXIS2_PLACEMENT_3D('',#2012,#1576,#1577);
#1268=AXIS2_PLACEMENT_3D('',#2013,#1578,#1579);
#1269=AXIS2_PLACEMENT_3D('',#2015,#1580,#1581);
#1270=AXIS2_PLACEMENT_3D('',#2016,#1582,#1583);
#1271=AXIS2_PLACEMENT_3D('',#2018,#1585,#1586);
#1272=AXIS2_PLACEMENT_3D('',#2020,#1588,#1589);
#1273=AXIS2_PLACEMENT_3D('',#2022,#1591,#1592);
#1274=DIRECTION('',(0.,0.,1.));
#1275=DIRECTION('',(1.,0.,0.));
#1276=DIRECTION('',(0.,0.,1.));
#1277=DIRECTION('',(1.,0.,0.));
#1278=DIRECTION('',(0.,0.,1.));
#1279=DIRECTION('',(1.,0.,0.));
#1280=DIRECTION('',(0.,0.,1.));
#1281=DIRECTION('',(1.,0.,0.));
#1282=DIRECTION('',(-1.,0.,0.));
#1283=DIRECTION('',(0.,0.,1.));
#1284=DIRECTION('',(1.,0.,0.));
#1285=DIRECTION('',(-1.,0.,0.));
#1286=DIRECTION('',(0.,0.,1.));
#1287=DIRECTION('',(1.,0.,0.));
#1288=DIRECTION('',(-0.999943527549988,0.0106274037698391,0.));
#1289=DIRECTION('',(0.,0.,1.));
#1290=DIRECTION('',(1.,0.,0.));
#1291=DIRECTION('',(0.999943527549988,0.0106274037698391,0.));
#1292=DIRECTION('',(0.,0.,1.));
#1293=DIRECTION('',(1.,0.,0.));
#1294=DIRECTION('',(0.,1.,0.));
#1295=DIRECTION('',(0.,0.,1.));
#1296=DIRECTION('',(1.,0.,0.));
#1297=DIRECTION('',(1.,0.,0.));
#1298=DIRECTION('',(0.,-1.,0.));
#1299=DIRECTION('',(-1.,0.,0.));
#1300=DIRECTION('',(0.,-1.,0.));
#1301=DIRECTION('',(1.,0.,0.));
#1302=DIRECTION('',(0.,0.,1.));
#1303=DIRECTION('',(1.,0.,0.));
#1304=DIRECTION('',(0.,1.,0.));
#1305=DIRECTION('',(1.,0.,0.));
#1306=DIRECTION('',(0.,0.,1.));
#1307=DIRECTION('',(1.,0.,0.));
#1308=DIRECTION('',(0.,-1.,0.));
#1309=DIRECTION('',(0.,0.,1.));
#1310=DIRECTION('',(-1.,0.,0.));
#1311=DIRECTION('',(1.,0.,0.));
#1312=DIRECTION('',(0.,1.,0.));
#1313=DIRECTION('',(0.,0.,1.));
#1314=DIRECTION('',(0.,0.,-1.));
#1315=DIRECTION('',(-1.,0.,0.));
#1316=DIRECTION('',(0.,0.,-1.));
#1317=DIRECTION('',(-1.,0.,0.));
#1318=DIRECTION('',(0.,0.,1.));
#1319=DIRECTION('',(-1.,0.,0.));
#1320=DIRECTION('',(0.,0.,-1.));
#1321=DIRECTION('',(-1.,0.,0.));
#1322=DIRECTION('',(0.,0.,1.));
#1323=DIRECTION('',(1.,0.,0.));
#1324=DIRECTION('',(0.,0.,1.));
#1325=DIRECTION('',(0.,0.,1.));
#1326=DIRECTION('',(1.,0.,0.));
#1327=DIRECTION('',(0.,0.,1.));
#1328=DIRECTION('',(0.,0.,1.));
#1329=DIRECTION('',(1.,0.,0.));
#1330=DIRECTION('',(0.,0.,1.));
#1331=DIRECTION('',(1.,0.,0.));
#1332=DIRECTION('',(0.,0.,1.));
#1333=DIRECTION('',(0.,0.,1.));
#1334=DIRECTION('',(0.,0.,-1.));
#1335=DIRECTION('',(-1.,0.,0.));
#1336=DIRECTION('',(0.,0.,1.));
#1337=DIRECTION('',(0.,0.,1.));
#1338=DIRECTION('',(0.,0.,1.));
#1339=DIRECTION('',(1.,0.,0.));
#1340=DIRECTION('',(0.,0.,-1.));
#1341=DIRECTION('',(-1.,0.,0.));
#1342=DIRECTION('',(0.,0.,1.));
#1343=DIRECTION('',(0.,0.,1.));
#1344=DIRECTION('',(1.,0.,0.));
#1345=DIRECTION('',(0.,0.,1.));
#1346=DIRECTION('',(0.,0.,1.));
#1347=DIRECTION('',(1.,0.,0.));
#1348=DIRECTION('',(-0.999943527549988,0.0106274037698391,0.));
#1349=DIRECTION('',(0.999943527549988,0.0106274037698391,0.));
#1350=DIRECTION('',(-1.,0.,0.));
#1351=DIRECTION('',(-1.,0.,0.));
#1352=DIRECTION('',(0.00895608387892653,0.99995989347651,0.));
#1353=DIRECTION('',(-0.99995989347651,0.00895608387892653,0.));
#1354=DIRECTION('',(0.00895608387892653,0.99995989347651,0.));
#1355=DIRECTION('',(-0.99995989347651,0.00895608387892653,0.));
#1356=DIRECTION('',(0.,1.,0.));
#1357=DIRECTION('',(1.,0.,0.));
#1358=DIRECTION('',(0.,1.,0.));
#1359=DIRECTION('',(0.,0.,1.));
#1360=DIRECTION('',(0.,-1.,0.));
#1361=DIRECTION('',(0.,0.,-1.));
#1362=DIRECTION('',(0.577888077424814,0.,0.816116027272012));
#1363=DIRECTION('',(0.,0.,-1.));
#1364=DIRECTION('',(1.,0.,0.));
#1365=DIRECTION('',(0.,0.,-1.));
#1366=DIRECTION('',(0.,1.,0.));
#1367=DIRECTION('',(0.,0.,1.));
#1368=DIRECTION('',(0.,-1.,0.));
#1369=DIRECTION('',(0.,0.,-1.));
#1370=DIRECTION('',(1.,0.,0.));
#1371=DIRECTION('',(0.,0.,-1.));
#1372=DIRECTION('',(-1.,0.,0.));
#1373=DIRECTION('',(0.,0.,-1.));
#1374=DIRECTION('',(1.,0.,0.));
#1375=DIRECTION('',(0.,0.,-1.));
#1376=DIRECTION('',(1.,0.,0.));
#1377=DIRECTION('',(0.,0.,-1.));
#1378=DIRECTION('',(0.,0.,-1.));
#1379=DIRECTION('',(1.,0.,0.));
#1380=DIRECTION('',(0.,0.,-1.));
#1381=DIRECTION('',(0.,-1.,0.));
#1382=DIRECTION('',(1.,0.,0.));
#1383=DIRECTION('',(0.,0.,1.));
#1384=DIRECTION('',(0.,0.,-1.));
#1385=DIRECTION('',(0.,1.,0.));
#1386=DIRECTION('',(1.,0.,0.));
#1387=DIRECTION('',(0.,0.,-1.));
#1388=DIRECTION('',(-1.,0.,0.));
#1389=DIRECTION('',(0.,0.,1.));
#1390=DIRECTION('',(0.,1.,0.));
#1391=DIRECTION('',(0.,-1.,0.));
#1392=DIRECTION('',(1.,0.,0.));
#1393=DIRECTION('',(0.,0.,-1.));
#1394=DIRECTION('',(0.,-1.,0.));
#1395=DIRECTION('',(0.,-1.,0.));
#1396=DIRECTION('',(0.,0.,-1.));
#1397=DIRECTION('',(0.,-1.,0.));
#1398=DIRECTION('',(0.,0.,-1.));
#1399=DIRECTION('',(0.,-1.,0.));
#1400=DIRECTION('',(0.,0.,1.));
#1401=DIRECTION('',(0.,-1.,0.));
#1402=DIRECTION('',(0.,-1.,0.));
#1403=DIRECTION('',(1.,0.,0.));
#1404=DIRECTION('',(0.,0.,-1.));
#1405=DIRECTION('',(0.,0.,1.));
#1406=DIRECTION('',(-1.,0.,0.));
#1407=DIRECTION('',(1.,0.,0.));
#1408=DIRECTION('',(0.,0.,1.));
#1409=DIRECTION('',(1.,0.,0.));
#1410=DIRECTION('',(0.,0.,1.));
#1411=DIRECTION('',(1.,0.,0.));
#1412=DIRECTION('',(0.0106274037698391,-0.999943527549988,0.));
#1413=DIRECTION('',(0.999943527549988,0.0106274037698391,0.));
#1414=DIRECTION('',(0.0106274037698391,-0.999943527549988,0.));
#1415=DIRECTION('',(-0.999943527549988,-0.0106274037698391,0.));
#1416=DIRECTION('',(0.0106274037698391,0.999943527549988,0.));
#1417=DIRECTION('',(-0.999943527549988,0.0106274037698391,0.));
#1418=DIRECTION('',(0.0106274037698391,0.999943527549988,0.));
#1419=DIRECTION('',(-0.999943527549988,0.0106274037698391,0.));
#1420=DIRECTION('',(-0.577888077424814,0.,-0.816116027272012));
#1421=DIRECTION('',(-0.816116027272012,0.,0.577888077424814));
#1422=DIRECTION('',(-0.834639610853113,0.,-0.550796441523513));
#1423=DIRECTION('',(0.550796441523513,0.,-0.834639610853113));
#1424=DIRECTION('',(0.,-1.,0.));
#1425=DIRECTION('',(0.,0.,-1.));
#1426=DIRECTION('',(-0.153611894816488,0.964023784108246,-0.21693669455513));
#1427=DIRECTION('',(0.557097851190108,0.265815995894938,0.786755260882154));
#1428=DIRECTION('',(0.153611930391013,0.964023767134067,0.216936744794858));
#1429=DIRECTION('',(0.557097841380931,-0.265816057454479,0.786755247029255));
#1430=DIRECTION('',(0.577888077424814,0.,0.816116027272012));
#1431=DIRECTION('',(0.816116027272012,0.,-0.577888077424814));
#1432=DIRECTION('',(0.577888077424814,0.,0.816116027272012));
#1433=DIRECTION('',(-0.834639564442627,0.,-0.550796511850813));
#1434=DIRECTION('',(-0.550796511850813,0.,0.834639564442627));
#1435=DIRECTION('',(0.,-1.,0.));
#1436=DIRECTION('',(0.,0.,-1.));
#1437=DIRECTION('',(0.,-1.,0.));
#1438=DIRECTION('',(0.,0.,-1.));
#1439=DIRECTION('',(0.,-1.,0.));
#1440=DIRECTION('',(1.,0.,0.));
#1441=DIRECTION('',(0.,-1.,0.));
#1442=DIRECTION('',(0.,0.,-1.));
#1443=DIRECTION('',(0.,-1.,0.));
#1444=DIRECTION('',(0.,0.,-1.));
#1445=DIRECTION('',(0.,-1.,0.));
#1446=DIRECTION('',(1.,0.,0.));
#1447=DIRECTION('',(0.,0.,-1.));
#1448=DIRECTION('',(-1.,0.,0.));
#1449=DIRECTION('',(0.,-1.,0.));
#1450=DIRECTION('',(0.,0.,-1.));
#1451=DIRECTION('',(-1.,0.,0.));
#1452=DIRECTION('',(-1.,0.,0.));
#1453=DIRECTION('',(0.,0.,-1.));
#1454=DIRECTION('',(-1.,0.,0.));
#1455=DIRECTION('',(0.,0.,-1.));
#1456=DIRECTION('',(-1.,0.,0.));
#1457=DIRECTION('',(0.,-1.,0.));
#1458=DIRECTION('',(-1.,0.,0.));
#1459=DIRECTION('',(0.,0.,1.));
#1460=DIRECTION('',(0.,0.,1.));
#1461=DIRECTION('',(0.,-1.,0.));
#1462=DIRECTION('',(0.,-1.,0.));
#1463=DIRECTION('',(0.,0.,-1.));
#1464=DIRECTION('',(-1.,0.,0.));
#1465=DIRECTION('',(0.,0.,1.));
#1466=DIRECTION('',(0.,0.,-1.));
#1467=DIRECTION('',(-1.,0.,0.));
#1468=DIRECTION('',(0.,-1.,0.));
#1469=DIRECTION('',(-1.,0.,0.));
#1470=DIRECTION('',(0.,-1.,0.));
#1471=DIRECTION('',(0.,0.,-1.));
#1472=DIRECTION('',(-1.,0.,0.));
#1473=DIRECTION('',(0.,0.,-1.));
#1474=DIRECTION('',(-1.,0.,0.));
#1475=DIRECTION('',(0.,1.,0.));
#1476=DIRECTION('',(0.,1.,0.));
#1477=DIRECTION('',(1.,0.,0.));
#1478=DIRECTION('',(0.,0.,-1.));
#1479=DIRECTION('',(0.,0.,-1.));
#1480=DIRECTION('',(0.,1.,0.));
#1481=DIRECTION('',(0.,0.,-1.));
#1482=DIRECTION('',(-1.,0.,0.));
#1483=DIRECTION('',(0.,-1.,0.));
#1484=DIRECTION('',(0.,0.,-1.));
#1485=DIRECTION('',(-1.,0.,0.));
#1486=DIRECTION('',(-1.,0.,0.));
#1487=DIRECTION('',(0.,1.,0.));
#1488=DIRECTION('',(0.,0.,-1.));
#1489=DIRECTION('',(-1.,0.,0.));
#1490=DIRECTION('',(-1.,0.,0.));
#1491=DIRECTION('',(1.,0.,0.));
#1492=DIRECTION('',(0.,0.,-1.));
#1493=DIRECTION('',(0.00895608387892681,-0.99995989347651,0.));
#1494=DIRECTION('',(0.99995989347651,0.00895608387892681,0.));
#1495=DIRECTION('',(0.,1.,0.));
#1496=DIRECTION('',(1.,0.,0.));
#1497=DIRECTION('',(0.00895608387892681,-0.99995989347651,0.));
#1498=DIRECTION('',(0.99995989347651,0.00895608387892681,0.));
#1499=DIRECTION('',(0.00895608387892681,-0.99995989347651,0.));
#1500=DIRECTION('',(0.99995989347651,0.00895608387892681,0.));
#1501=DIRECTION('',(0.00895608387892681,-0.99995989347651,0.));
#1502=DIRECTION('',(0.99995989347651,0.00895608387892681,0.));
#1503=DIRECTION('',(0.00895608387892681,-0.99995989347651,0.));
#1504=DIRECTION('',(0.99995989347651,0.00895608387892681,0.));
#1505=DIRECTION('',(0.00895608387892653,0.99995989347651,0.));
#1506=DIRECTION('',(-0.99995989347651,0.00895608387892653,0.));
#1507=DIRECTION('',(0.00895608387892653,0.99995989347651,0.));
#1508=DIRECTION('',(-0.99995989347651,0.00895608387892653,0.));
#1509=DIRECTION('',(0.,0.,-1.));
#1510=DIRECTION('',(-1.,0.,0.));
#1511=DIRECTION('',(0.,0.,-1.));
#1512=DIRECTION('',(-1.,0.,0.));
#1513=DIRECTION('',(0.,0.,-1.));
#1514=DIRECTION('',(-1.,0.,0.));
#1515=DIRECTION('',(-9.58061320955455E-16,0.,-1.));
#1516=DIRECTION('',(-1.,0.,9.58061320955455E-16));
#1517=DIRECTION('',(0.,0.,-1.));
#1518=DIRECTION('',(3.02880843607724E-16,-0.632278617209318,-0.774741085924758));
#1519=DIRECTION('',(0.,0.774741085924758,-0.632278617209317));
#1520=DIRECTION('',(0.,0.,1.));
#1521=DIRECTION('',(1.,0.,0.));
#1522=DIRECTION('',(0.,0.,-1.));
#1523=DIRECTION('',(-1.,0.,0.));
#1524=DIRECTION('',(0.,0.,-1.));
#1525=DIRECTION('',(-1.,0.,0.));
#1526=DIRECTION('',(0.,0.632278617209331,-0.774741085924747));
#1527=DIRECTION('',(0.,0.774741085924747,0.632278617209331));
#1528=DIRECTION('',(0.,0.,-1.));
#1529=DIRECTION('',(1.,0.,0.));
#1530=DIRECTION('',(0.,1.,0.));
#1531=DIRECTION('',(0.,0.,1.));
#1532=DIRECTION('',(0.,1.,0.));
#1533=DIRECTION('',(0.,0.,1.));
#1534=DIRECTION('',(-1.,0.,0.));
#1535=DIRECTION('',(0.,0.,1.));
#1536=DIRECTION('',(-1.,0.,0.));
#1537=DIRECTION('',(0.,0.,1.));
#1538=DIRECTION('',(0.00895608387892653,0.99995989347651,0.));
#1539=DIRECTION('',(-0.99995989347651,0.00895608387892653,0.));
#1540=DIRECTION('',(0.,0.,-1.));
#1541=DIRECTION('',(1.,0.,0.));
#1542=DIRECTION('',(-1.,0.,0.));
#1543=DIRECTION('',(0.,0.,-1.));
#1544=DIRECTION('',(-1.,0.,0.));
#1545=DIRECTION('',(0.,-1.,0.));
#1546=DIRECTION('',(0.,0.,-1.));
#1547=DIRECTION('',(-1.,0.,0.));
#1548=DIRECTION('',(1.,0.,0.));
#1549=DIRECTION('',(0.,1.,0.));
#1550=DIRECTION('',(0.,-1.,0.));
#1551=DIRECTION('',(0.,0.,-1.));
#1552=DIRECTION('',(0.,0.,-1.));
#1553=DIRECTION('',(0.,0.,-1.));
#1554=DIRECTION('',(-1.,0.,0.));
#1555=DIRECTION('',(0.,0.,1.));
#1556=DIRECTION('',(-1.,0.,0.));
#1557=DIRECTION('',(0.,0.,1.));
#1558=DIRECTION('',(0.,0.,-1.));
#1559=DIRECTION('',(0.,0.,-1.));
#1560=DIRECTION('',(0.,1.,0.));
#1561=DIRECTION('',(0.,0.,1.));
#1562=DIRECTION('',(0.,0.,-1.));
#1563=DIRECTION('',(0.,0.,-1.));
#1564=DIRECTION('',(1.,0.,0.));
#1565=DIRECTION('',(0.,0.,-1.));
#1566=DIRECTION('',(0.,0.,-1.));
#1567=DIRECTION('',(-1.,0.,0.));
#1568=DIRECTION('',(0.,0.,-1.));
#1569=DIRECTION('',(-1.,0.,0.));
#1570=DIRECTION('',(-1.,0.,0.));
#1571=DIRECTION('',(0.,0.,1.));
#1572=DIRECTION('',(1.,0.,0.));
#1573=DIRECTION('',(0.,0.,-1.));
#1574=DIRECTION('',(1.,0.,0.));
#1575=DIRECTION('',(0.,1.,0.));
#1576=DIRECTION('',(-1.,0.,0.));
#1577=DIRECTION('',(0.,0.,1.));
#1578=DIRECTION('',(-1.,0.,0.));
#1579=DIRECTION('',(0.,0.,1.));
#1580=DIRECTION('',(-1.,0.,0.));
#1581=DIRECTION('',(0.,-1.,0.));
#1582=DIRECTION('',(0.,1.,0.));
#1583=DIRECTION('',(0.,0.,1.));
#1584=DIRECTION('',(0.,0.,-1.));
#1585=DIRECTION('',(0.,1.,0.));
#1586=DIRECTION('',(0.,0.,1.));
#1587=DIRECTION('',(0.,0.,-1.));
#1588=DIRECTION('',(-1.,0.,0.));
#1589=DIRECTION('',(0.,0.,1.));
#1590=DIRECTION('',(0.,0.,-1.));
#1591=DIRECTION('',(0.,0.,1.));
#1592=DIRECTION('',(1.,0.,0.));
#1593=CARTESIAN_POINT('',(0.,0.,0.));
#1594=CARTESIAN_POINT('',(0.,0.,8.01));
#1595=CARTESIAN_POINT('',(0.,2.72483912810286E-16,8.01));
#1596=CARTESIAN_POINT('',(-3.28653795490325,3.00019470551169,8.01));
#1597=CARTESIAN_POINT('',(-4.33892567190195,-0.988040491938591,8.01));
#1598=CARTESIAN_POINT('',(0.,2.72483912810286E-16,8.01));
#1599=CARTESIAN_POINT('',(-3.28653795490325,-3.00019470551169,8.01));
#1600=CARTESIAN_POINT('',(-1.36968176811933,-3.00019470551169,8.01));
#1601=CARTESIAN_POINT('',(3.28653795490325,-3.00019470551169,8.01));
#1602=CARTESIAN_POINT('',(0.,2.72483912810286E-16,8.01));
#1603=CARTESIAN_POINT('',(3.28653795490325,3.00019470551169,8.01));
#1604=CARTESIAN_POINT('',(-0.599915347993374,3.00019470551169,8.01));
#1605=CARTESIAN_POINT('',(0.,1.72488568447677E-16,8.01));
#1606=CARTESIAN_POINT('',(-1.19626843127724,2.55032565708248,8.01));
#1607=CARTESIAN_POINT('',(-1.19626843127724,-2.55032565708248,8.01));
#1608=CARTESIAN_POINT('',(0.0269667013070449,2.53732510925026,8.01));
#1609=CARTESIAN_POINT('',(1.25020183389133,2.52432456141805,8.01));
#1610=CARTESIAN_POINT('',(0.,1.72488568447677E-16,8.01));
#1611=CARTESIAN_POINT('',(1.25020183389133,-2.52432456141804,8.01));
#1612=CARTESIAN_POINT('',(0.0269667013070449,-2.53732510925026,8.01));
#1613=CARTESIAN_POINT('',(-3.89007867190195,-0.539193491938591,8.01));
#1614=CARTESIAN_POINT('',(-3.89007867190195,-0.988040491938591,8.01));
#1615=CARTESIAN_POINT('',(-4.33892567190195,-0.539193491938591,8.01));
#1616=CARTESIAN_POINT('',(-4.33892567190195,-0.0612950883805752,8.01));
#1617=CARTESIAN_POINT('',(-4.33892567190195,0.416603315177441,8.01));
#1618=CARTESIAN_POINT('',(-3.89007867190195,0.416603315177441,8.01));
#1619=CARTESIAN_POINT('',(-3.89007867190195,0.865450315177441,8.01));
#1620=CARTESIAN_POINT('',(-4.07383980469239,0.865450315177441,8.01));
#1621=CARTESIAN_POINT('',(-3.80875393748284,0.865450315177441,8.01));
#1622=CARTESIAN_POINT('',(-3.80875393748284,-0.0612950883805752,8.01));
#1623=CARTESIAN_POINT('',(-3.80875393748284,-0.988040491938591,8.01));
#1624=CARTESIAN_POINT('',(-4.07383980469239,-0.988040491938591,8.01));
#1625=CARTESIAN_POINT('',(2.86647198512043,0.553968329044355,8.01));
#1626=CARTESIAN_POINT('',(2.86647198512043,1.70192606747151,8.01));
#1627=CARTESIAN_POINT('',(2.86647198512043,-0.423676334321499,8.01));
#1628=CARTESIAN_POINT('',(3.37627969140765,1.70192606747151,8.01));
#1629=CARTESIAN_POINT('',(3.71709244832876,1.70192606747151,8.01));
#1630=CARTESIAN_POINT('',(3.71709244832876,1.53293111810539,8.01));
#1631=CARTESIAN_POINT('',(3.88608739769488,1.53293111810539,8.01));
#1632=CARTESIAN_POINT('',(3.88608739769488,1.61676952994085,8.01));
#1633=CARTESIAN_POINT('',(3.88608739769488,1.53161299241021,8.01));
#1634=CARTESIAN_POINT('',(3.55204178846819,1.53161299241021,8.01));
#1635=CARTESIAN_POINT('',(3.62495360778968,1.53161299241021,8.01));
#1636=CARTESIAN_POINT('',(3.62495360778968,1.03161299241021,8.01));
#1637=CARTESIAN_POINT('',(4.10896139515592,1.33815802174242,8.01));
#1638=CARTESIAN_POINT('',(4.10896139515592,1.33815802174242,8.01));
#1639=CARTESIAN_POINT('',(4.11857415651285,1.32804897870971,8.01));
#1640=CARTESIAN_POINT('',(4.12754719110155,1.31739999911888,8.01));
#1641=CARTESIAN_POINT('',(4.13590646924159,1.30623300221051,8.01));
#1642=CARTESIAN_POINT('',(4.13590646924159,1.30623300221051,8.01));
#1643=CARTESIAN_POINT('',(4.13590646924159,1.3062330022105,8.01));
#1644=CARTESIAN_POINT('',(4.18654434704112,1.23858684720032,8.01));
#1645=CARTESIAN_POINT('',(4.21162339938944,1.15571265219263,8.01));
#1646=CARTESIAN_POINT('',(4.21162339938944,1.07134150013991,8.01));
#1647=CARTESIAN_POINT('',(4.21162339938944,1.07134150013991,8.01));
#1648=CARTESIAN_POINT('',(4.21162339938944,1.53181299241021,8.01));
#1649=CARTESIAN_POINT('',(4.21162339938944,0.0365951480486633,8.01));
#1650=CARTESIAN_POINT('',(4.21162339938944,0.0365951480486633,8.01));
#1651=CARTESIAN_POINT('',(4.21162339938944,-0.0477656272348213,8.01));
#1652=CARTESIAN_POINT('',(4.18653953324129,-0.130656634111249,8.01));
#1653=CARTESIAN_POINT('',(4.13590645582447,-0.198296363975693,8.01));
#1654=CARTESIAN_POINT('',(4.13590645582447,-0.198296363975693,8.01));
#1655=CARTESIAN_POINT('',(4.13590645582448,-0.19829636397569,8.01));
#1656=CARTESIAN_POINT('',(4.12754718834119,-0.209463344599436,8.01));
#1657=CARTESIAN_POINT('',(4.11857416605209,-0.220112309279012,8.01));
#1658=CARTESIAN_POINT('',(4.108961418736,-0.230221338856248,8.01));
#1659=CARTESIAN_POINT('',(4.108961418736,-0.230221338856248,8.01));
#1660=CARTESIAN_POINT('',(3.62495360778968,0.0763236656785011,8.01));
#1661=CARTESIAN_POINT('',(3.62495360778968,-0.423676334321499,8.01));
#1662=CARTESIAN_POINT('',(3.55204178846819,-0.423676334321499,8.01));
#1663=CARTESIAN_POINT('',(3.55204178846819,1.53161299241021,14.2));
#1664=CARTESIAN_POINT('',(2.96276565641165,1.53161299241021,11.4415488615632));
#1665=CARTESIAN_POINT('',(2.96276565641165,1.53161299241021,11.6712698191404));
#1666=CARTESIAN_POINT('',(2.96276565641165,1.53161299241021,11.211827903986));
#1667=CARTESIAN_POINT('',(3.55204178846819,1.53161299241021,11.211827903986));
#1668=CARTESIAN_POINT('',(2.86647198512043,1.53161299241021,11.211827903986));
#1669=CARTESIAN_POINT('',(2.86647198512043,1.53161299241021,14.2));
#1670=CARTESIAN_POINT('',(2.86647198512043,1.53161299241021,12.4262174069881));
#1671=CARTESIAN_POINT('',(3.55204178846819,1.53161299241021,12.4262174069881));
#1672=CARTESIAN_POINT('',(3.82083021104336,1.53161299241021,12.4262174069881));
#1673=CARTESIAN_POINT('',(3.82083021104336,1.53161299241021,14.2));
#1674=CARTESIAN_POINT('',(3.82083021104336,1.53161299241021,20.));
#1675=CARTESIAN_POINT('',(3.84815488425167,1.53161299241021,20.));
#1676=CARTESIAN_POINT('',(3.87547955745998,1.53161299241021,20.));
#1677=CARTESIAN_POINT('',(3.87547955745998,1.53161299241021,14.2));
#1678=CARTESIAN_POINT('',(3.87547955745998,1.53161299241021,11.6712698191404));
#1679=CARTESIAN_POINT('',(3.42335617169738,1.53161299241021,11.6712698191404));
#1680=CARTESIAN_POINT('',(0.,2.72483912810286E-16,6.6098));
#1681=CARTESIAN_POINT('',(-3.28653795490325,3.00019470551169,6.6098));
#1682=CARTESIAN_POINT('',(-3.28653795490325,3.00019470551169,6.61));
#1683=CARTESIAN_POINT('',(0.,2.72483912810286E-16,6.61));
#1684=CARTESIAN_POINT('',(-3.28653795490325,-3.00019470551169,6.61));
#1685=CARTESIAN_POINT('',(-3.28653795490325,-3.00019470551169,6.6098));
#1686=CARTESIAN_POINT('',(-4.44943676121523,0.0784501670446124,7.35281217646413));
#1687=CARTESIAN_POINT('',(-4.45028134419599,-2.01315273943339E-5,7.3853558923735));
#1688=CARTESIAN_POINT('',(-4.4494378620008,-0.0783696409350352,7.35283746332759));
#1689=CARTESIAN_POINT('',(-4.44859559932299,-0.11080370276086,7.27459319953424));
#1690=CARTESIAN_POINT('',(-4.44943731826414,-0.0784154631899906,7.19618200554777));
#1691=CARTESIAN_POINT('',(-4.45028069403695,-1.45577436402258E-5,7.16370407347167));
#1692=CARTESIAN_POINT('',(-4.44943990474234,0.0782611800856045,7.19607494748647));
#1693=CARTESIAN_POINT('',(-4.44859522916939,0.110822085528337,7.27439385592603));
#1694=CARTESIAN_POINT('',(-4.44943676121523,0.0784501670446124,7.35281217646413));
#1695=CARTESIAN_POINT('',(-4.45028134419599,-2.01315273943339E-5,7.3853558923735));
#1696=CARTESIAN_POINT('',(-4.4494378620008,-0.0783696409350352,7.35283746332759));
#1697=CARTESIAN_POINT('',(-4.45,-2.41069631302697E-16,7.37451220154762));
#1698=CARTESIAN_POINT('',(0.,2.72483912810286E-16,6.6098));
#1699=CARTESIAN_POINT('',(0.,2.72483912810286E-16,6.61));
#1700=CARTESIAN_POINT('',(3.28653795490325,3.00019470551169,6.61));
#1701=CARTESIAN_POINT('',(3.28653795490325,-3.00019470551169,6.61));
#1702=CARTESIAN_POINT('',(3.28653795490325,3.00019470551169,6.6098));
#1703=CARTESIAN_POINT('',(3.28653795490325,-3.00019470551169,6.6098));
#1704=CARTESIAN_POINT('',(4.44943676121523,-0.0784501670446124,7.35281217646413));
#1705=CARTESIAN_POINT('',(4.45028134419599,2.01315273943393E-5,7.3853558923735));
#1706=CARTESIAN_POINT('',(4.4494378620008,0.0783696409350352,7.35283746332759));
#1707=CARTESIAN_POINT('',(4.44859559932299,0.11080370276086,7.27459319953424));
#1708=CARTESIAN_POINT('',(4.44943731826414,0.0784154631899906,7.19618200554778));
#1709=CARTESIAN_POINT('',(4.45028069403695,1.45577436402651E-5,7.16370407347167));
#1710=CARTESIAN_POINT('',(4.44943990474234,-0.0782611800856045,7.19607494748647));
#1711=CARTESIAN_POINT('',(4.44859522916939,-0.110822085528337,7.27439385592603));
#1712=CARTESIAN_POINT('',(4.44943676121523,-0.0784501670446124,7.35281217646413));
#1713=CARTESIAN_POINT('',(4.45028134419599,2.01315273943393E-5,7.3853558923735));
#1714=CARTESIAN_POINT('',(4.4494378620008,0.0783696409350352,7.35283746332759));
#1715=CARTESIAN_POINT('',(4.45,2.33446541572602E-16,7.37451220154762));
#1716=CARTESIAN_POINT('',(0.,1.72488568447677E-16,8.01));
#1717=CARTESIAN_POINT('',(-1.19626843127724,2.55032565708248,5.51));
#1718=CARTESIAN_POINT('',(-1.19626843127724,2.55032565708248,6.61));
#1719=CARTESIAN_POINT('',(-1.19626843127724,-2.55032565708248,5.51));
#1720=CARTESIAN_POINT('',(-1.19626843127724,-2.55032565708248,6.61));
#1721=CARTESIAN_POINT('',(0.,1.72488568447677E-16,6.61));
#1722=CARTESIAN_POINT('',(-2.81606233870447,-0.0784500696407972,7.35281204542868));
#1723=CARTESIAN_POINT('',(-2.81739654230918,2.00912468386336E-5,7.3853559821756));
#1724=CARTESIAN_POINT('',(-2.8160640741131,0.0783697046534427,7.35283723515465));
#1725=CARTESIAN_POINT('',(-2.81473302775093,0.110803878590524,7.27459363193025));
#1726=CARTESIAN_POINT('',(-2.81606323425111,0.0784146957789825,7.19618120658101));
#1727=CARTESIAN_POINT('',(-2.81739551081515,1.49447339829285E-5,7.16370432757851));
#1728=CARTESIAN_POINT('',(-2.81606730319852,-0.0782613248333528,7.19607473025138));
#1729=CARTESIAN_POINT('',(-2.81473244634368,-0.110822074411567,7.27439465129285));
#1730=CARTESIAN_POINT('',(-2.81606233870447,-0.0784500696407972,7.35281204542868));
#1731=CARTESIAN_POINT('',(-2.81739654230918,2.00912468386336E-5,7.3853559821756));
#1732=CARTESIAN_POINT('',(-2.8160640741131,0.0783697046534427,7.35283723515465));
#1733=CARTESIAN_POINT('',(-2.81695209700905,-1.09641903407809E-16,7.37451220154762));
#1734=CARTESIAN_POINT('',(0.,1.72488568447677E-16,8.01));
#1735=CARTESIAN_POINT('',(1.25020183389133,2.52432456141805,5.51));
#1736=CARTESIAN_POINT('',(1.25020183389133,2.52432456141805,6.61));
#1737=CARTESIAN_POINT('',(0.,1.72488568447677E-16,6.61));
#1738=CARTESIAN_POINT('',(1.25020183389133,-2.52432456141804,6.61));
#1739=CARTESIAN_POINT('',(1.25020183389133,-2.52432456141804,5.51));
#1740=CARTESIAN_POINT('',(2.81606233870447,0.0784500696407973,7.35281204542868));
#1741=CARTESIAN_POINT('',(2.81739654230917,-2.00912468386675E-5,7.3853559821756));
#1742=CARTESIAN_POINT('',(2.81606407411311,-0.0783697046534427,7.35283723515464));
#1743=CARTESIAN_POINT('',(2.81473302775093,-0.110803878590524,7.27459363193026));
#1744=CARTESIAN_POINT('',(2.81606323425111,-0.0784146957789824,7.19618120658101));
#1745=CARTESIAN_POINT('',(2.81739551081515,-1.49447339830597E-5,7.16370432757851));
#1746=CARTESIAN_POINT('',(2.81606730319852,0.0782613248333545,7.19607473025138));
#1747=CARTESIAN_POINT('',(2.81473244634368,0.110822074411566,7.27439465129286));
#1748=CARTESIAN_POINT('',(2.81606233870447,0.0784500696407973,7.35281204542868));
#1749=CARTESIAN_POINT('',(2.81739654230917,-2.00912468386675E-5,7.3853559821756));
#1750=CARTESIAN_POINT('',(2.81606407411311,-0.0783697046534427,7.35283723515464));
#1751=CARTESIAN_POINT('',(2.81695209700905,1.25904935995102E-16,7.37451220154762));
#1752=CARTESIAN_POINT('',(0.,0.,6.61));
#1753=CARTESIAN_POINT('',(0.0269667013070449,2.53732510925026,6.61));
#1754=CARTESIAN_POINT('',(0.0269667013070449,-2.53732510925026,6.61));
#1755=CARTESIAN_POINT('',(0.,3.00019470551169,6.61));
#1756=CARTESIAN_POINT('',(0.,-3.00019470551169,6.61));
#1757=CARTESIAN_POINT('',(-0.0603628237129476,2.61163784909655,7.30747649818659));
#1758=CARTESIAN_POINT('',(-0.0603628237129476,2.61163784909655,7.30747649818659));
#1759=CARTESIAN_POINT('',(-0.561252461565175,2.61612403863271,7.30747649818659));
#1760=CARTESIAN_POINT('',(-0.0568827363409557,3.00019470551169,7.30747649818659));
#1761=CARTESIAN_POINT('',(0.444047081812547,3.00019470551169,7.30747649818659));
#1762=CARTESIAN_POINT('',(3.55204178846819,-0.423676334321499,14.2));
#1763=CARTESIAN_POINT('',(3.42815890908241,-0.423676334321499,8.44774185121059));
#1764=CARTESIAN_POINT('',(3.42815890908241,-0.423676334321499,8.42570270392065));
#1765=CARTESIAN_POINT('',(3.82955357817994,-0.423676334321499,8.29894403871241));
#1766=CARTESIAN_POINT('',(3.87547959181595,-0.423676334321499,8.36380254204766));
#1767=CARTESIAN_POINT('',(3.87547959181595,-0.423676334321499,16.68));
#1768=CARTESIAN_POINT('',(3.87547959181595,-0.423676334321499,8.6905806735158));
#1769=CARTESIAN_POINT('',(3.45580971694929,-0.423676334321499,8.6905806735158));
#1770=CARTESIAN_POINT('',(2.86647198512043,-0.423676334321499,8.6905806735158));
#1771=CARTESIAN_POINT('',(2.86647198512043,-0.423676334321499,14.2));
#1772=CARTESIAN_POINT('',(3.55204178846819,-0.423676334321499,14.2));
#1773=CARTESIAN_POINT('',(3.42815890908241,-0.423676334321499,11.2425846457481));
#1774=CARTESIAN_POINT('',(3.42815890908241,-0.423676334321499,11.2201461114627));
#1775=CARTESIAN_POINT('',(3.45580971694929,-0.423676334321499,11.0052516162395));
#1776=CARTESIAN_POINT('',(2.86647198512043,-0.423676334321499,11.0052516162395));
#1777=CARTESIAN_POINT('',(3.87547959181595,-0.423676334321499,11.0052516162395));
#1778=CARTESIAN_POINT('',(3.87547959181595,-0.423676334321499,16.68));
#1779=CARTESIAN_POINT('',(3.87547959181595,-0.423676334321498,20.));
#1780=CARTESIAN_POINT('',(3.84815490142965,-0.423676334321499,20.));
#1781=CARTESIAN_POINT('',(3.82083021104336,-0.423676334321499,20.));
#1782=CARTESIAN_POINT('',(3.82083021104336,-0.423676334321499,14.5631087034941));
#1783=CARTESIAN_POINT('',(3.82083021104336,-0.423676334321499,12.4262174069881));
#1784=CARTESIAN_POINT('',(3.34365109808189,-0.423676334321499,12.4262174069881));
#1785=CARTESIAN_POINT('',(2.86647198512043,-0.423676334321499,12.4262174069881));
#1786=CARTESIAN_POINT('',(2.86647198512043,-0.423676334321499,14.2));
#1787=CARTESIAN_POINT('',(4.23761159181595,0.553968329044355,14.2));
#1788=CARTESIAN_POINT('',(4.23761159181595,-0.0615443343214988,8.8752194421939));
#1789=CARTESIAN_POINT('',(4.23761159181595,-0.0615443343214988,20.));
#1790=CARTESIAN_POINT('',(4.23761159181595,-0.0615443343214988,8.36380254204766));
#1791=CARTESIAN_POINT('',(4.23761159181595,0.0763236656785011,8.36380254204766));
#1792=CARTESIAN_POINT('',(4.23761159181595,-0.00334860777990165,8.16909998831211));
#1793=CARTESIAN_POINT('',(4.23761159181595,0.553968329044355,8.16909998831211));
#1794=CARTESIAN_POINT('',(4.23761159181595,1.11128524601471,8.16909998831211));
#1795=CARTESIAN_POINT('',(4.23761159181595,1.03161299241021,8.36380249352883));
#1796=CARTESIAN_POINT('',(4.23761159181595,1.16948095805424,8.36380249352883));
#1797=CARTESIAN_POINT('',(4.23761159181595,1.16948095805424,14.2));
#1798=CARTESIAN_POINT('',(4.23761159181595,1.16948095805424,20.));
#1799=CARTESIAN_POINT('',(4.23761159181595,0.553968311866373,20.));
#1800=CARTESIAN_POINT('',(4.23761159181595,0.578423868864775,19.3141415715218));
#1801=CARTESIAN_POINT('',(4.23761159181595,0.578423868864775,19.2127404076579));
#1802=CARTESIAN_POINT('',(3.82083021104336,2.0763236656785,14.5631087034941));
#1803=CARTESIAN_POINT('',(3.82083021104336,0.553968329044355,20.));
#1804=CARTESIAN_POINT('',(3.82083021104336,2.0763236656785,12.4262174069881));
#1805=CARTESIAN_POINT('',(2.86647198512043,0.553968329044355,14.2));
#1806=CARTESIAN_POINT('',(2.86647198512043,2.0763236656785,12.4262174069881));
#1807=CARTESIAN_POINT('',(2.86647198512043,1.61676952994085,11.211827903986));
#1808=CARTESIAN_POINT('',(2.86647198512043,1.70192606747151,11.211827903986));
#1809=CARTESIAN_POINT('',(2.86647198512043,1.70192606747151,11.212027903986));
#1810=CARTESIAN_POINT('',(2.86647198512043,1.4013236656785,8.6905806735158));
#1811=CARTESIAN_POINT('',(2.86647198512043,1.4013236656785,8.6905806735158));
#1812=CARTESIAN_POINT('',(2.86647198512043,1.4013236656785,14.2));
#1813=CARTESIAN_POINT('',(2.86647198512043,1.4013236656785,11.6963890790939));
#1814=CARTESIAN_POINT('',(2.86647198512043,0.804670622479171,11.6963890790939));
#1815=CARTESIAN_POINT('',(2.86647198512043,0.20801757927984,11.6963890790939));
#1816=CARTESIAN_POINT('',(2.86647198512043,0.20801757927984,11.3508203476667));
#1817=CARTESIAN_POINT('',(2.86647198512043,0.20801757927984,11.0052516162395));
#1818=CARTESIAN_POINT('',(2.86647198512043,1.4013236656785,11.0052516162395));
#1819=CARTESIAN_POINT('',(3.55204178846819,1.4013236656785,10.8206544670089));
#1820=CARTESIAN_POINT('',(4.04514744877816,1.4013236656785,9.84791614487767));
#1821=CARTESIAN_POINT('',(4.04530971694929,1.4013236656785,11.0052516162395));
#1822=CARTESIAN_POINT('',(4.04514744877816,1.4013236656785,8.6905806735158));
#1823=CARTESIAN_POINT('',(4.04547198512043,1.4013236656785,11.3508203476667));
#1824=CARTESIAN_POINT('',(4.04547198512043,1.4013236656785,11.6963890790939));
#1825=CARTESIAN_POINT('',(4.04547198512043,1.4013236656785,11.6963890790939));
#1826=CARTESIAN_POINT('',(3.45580971694929,1.4013236656785,8.6905806735158));
#1827=CARTESIAN_POINT('',(2.96276565641165,1.4013236656785,10.8206544670089));
#1828=CARTESIAN_POINT('',(2.96276565641165,1.4013236656785,11.211827903986));
#1829=CARTESIAN_POINT('',(2.96276565641165,1.4013236656785,11.6712698191404));
#1830=CARTESIAN_POINT('',(3.55204178846819,1.4013236656785,11.6712698191404));
#1831=CARTESIAN_POINT('',(3.88394668698311,1.4013236656785,11.6712698191404));
#1832=CARTESIAN_POINT('',(3.88394668698311,1.4013236656785,10.8206544670089));
#1833=CARTESIAN_POINT('',(3.88394668698311,1.4013236656785,11.211827903986));
#1834=CARTESIAN_POINT('',(3.55204178846819,1.4013236656785,11.211827903986));
#1835=CARTESIAN_POINT('',(0.0269667013070449,-2.53732510925026,6.61));
#1836=CARTESIAN_POINT('',(-0.00707832218156212,-2.53768693989469,7.30747649818659));
#1837=CARTESIAN_POINT('',(-0.227152006122371,-2.54002588387894,7.30747649818659));
#1838=CARTESIAN_POINT('',(0.0269667013070449,2.53732510925026,6.61));
#1839=CARTESIAN_POINT('',(-0.0610200261597858,2.53826023253814,7.30747649818659));
#1840=CARTESIAN_POINT('',(-0.216011489420407,2.53990748242333,7.30747649818659));
#1841=CARTESIAN_POINT('',(6.51995520704978,0.0763236656785011,12.0984338965129));
#1842=CARTESIAN_POINT('',(3.87547959181595,0.0763236656785011,8.36380254204766));
#1843=CARTESIAN_POINT('',(3.73761159181595,1.53181299241021,8.16909998831211));
#1844=CARTESIAN_POINT('',(3.73761159181595,1.03161299241021,8.16909998831211));
#1845=CARTESIAN_POINT('',(3.73761159181595,0.0763236656785012,8.16909998831211));
#1846=CARTESIAN_POINT('',(3.33426542965757,1.03161299241021,7.59947884481492));
#1847=CARTESIAN_POINT('',(6.51995520704978,1.53161299241021,12.0984338965129));
#1848=CARTESIAN_POINT('',(3.87547955745998,1.53161299241021,8.36380249352883));
#1849=CARTESIAN_POINT('',(3.87547955745998,1.03161299241021,8.36380249352883));
#1850=CARTESIAN_POINT('',(3.42815890908241,-0.123676334321499,8.44774185121059));
#1851=CARTESIAN_POINT('',(3.42815890908241,-0.123676334321499,8.44774185121059));
#1852=CARTESIAN_POINT('',(3.42815890908241,-0.123676334321499,8.42570270392065));
#1853=CARTESIAN_POINT('',(3.55204178846819,-0.123676334321499,10.8206544670089));
#1854=CARTESIAN_POINT('',(3.42815890908241,-0.123676334321499,11.2425846457481));
#1855=CARTESIAN_POINT('',(3.42815890908241,-0.123676334321499,11.2425846457481));
#1856=CARTESIAN_POINT('',(3.42815890908241,-0.123676334321499,11.2201461114627));
#1857=CARTESIAN_POINT('',(3.55204178846819,-0.123676334321499,10.8206544670089));
#1858=CARTESIAN_POINT('',(3.45580971694929,1.4013236656785,11.0052516162395));
#1859=CARTESIAN_POINT('',(4.04514744877816,1.4013236656785,11.0052516162395));
#1860=CARTESIAN_POINT('',(4.04530971694929,0.20801757927984,11.0052516162395));
#1861=CARTESIAN_POINT('',(4.04514744877816,-0.381469956518054,11.0052516162395));
#1862=CARTESIAN_POINT('',(3.87547959181595,-0.0615443343214988,11.0052516162395));
#1863=CARTESIAN_POINT('',(4.04547198512043,0.20801757927984,11.0052516162395));
#1864=CARTESIAN_POINT('',(3.45580971694929,1.4013236656785,8.6905806735158));
#1865=CARTESIAN_POINT('',(3.87547959181595,-0.0615443343214988,8.6905806735158));
#1866=CARTESIAN_POINT('',(4.04514744877816,-0.381469956518054,8.6905806735158));
#1867=CARTESIAN_POINT('',(4.04514744877816,1.4013236656785,8.6905806735158));
#1868=CARTESIAN_POINT('',(4.04514744877816,1.4013236656785,9.84791614487767));
#1869=CARTESIAN_POINT('',(4.04514744877816,-0.381469956518054,8.6905806735158));
#1870=CARTESIAN_POINT('',(4.04514744877816,1.4013236656785,11.0052516162395));
#1871=CARTESIAN_POINT('',(4.04547198512043,0.20801757927984,11.3508203476667));
#1872=CARTESIAN_POINT('',(4.04547198512043,0.20801757927984,11.6963890790939));
#1873=CARTESIAN_POINT('',(4.04547198512043,0.20801757927984,11.6963890790939));
#1874=CARTESIAN_POINT('',(4.04547198512043,0.20801757927984,11.3508203476667));
#1875=CARTESIAN_POINT('',(4.04547198512043,0.804670622479171,11.6963890790939));
#1876=CARTESIAN_POINT('',(4.04547198512043,0.804670622479171,11.6963890790939));
#1877=CARTESIAN_POINT('',(4.04547198512043,0.553968329044355,11.105));
#1878=CARTESIAN_POINT('',(3.42335617169738,1.17161299241021,11.6712698191404));
#1879=CARTESIAN_POINT('',(3.87547955745998,1.16948095805424,11.6712698191404));
#1880=CARTESIAN_POINT('',(3.88394668698311,1.5315139924923,11.6712698191404));
#1881=CARTESIAN_POINT('',(3.88394668698311,1.17161299241021,11.6712698191404));
#1882=CARTESIAN_POINT('',(2.96276565641165,1.17161299241021,11.6712698191404));
#1883=CARTESIAN_POINT('',(3.88394668698311,1.17161299241021,11.4415488615632));
#1884=CARTESIAN_POINT('',(3.88394668698311,1.5315139924923,11.6712698191404));
#1885=CARTESIAN_POINT('',(3.88394668698311,1.5315139924923,11.211827903986));
#1886=CARTESIAN_POINT('',(3.88394668698311,1.17161299241021,11.211827903986));
#1887=CARTESIAN_POINT('',(3.42335617169738,1.17161299241021,11.211827903986));
#1888=CARTESIAN_POINT('',(3.88608739769488,1.61676952994085,11.211827903986));
#1889=CARTESIAN_POINT('',(3.88608739769488,1.53293111810539,11.211827903986));
#1890=CARTESIAN_POINT('',(3.88608739769488,1.53161299241021,11.211827903986));
#1891=CARTESIAN_POINT('',(3.71709244832876,1.53293111810539,11.211827903986));
#1892=CARTESIAN_POINT('',(3.71709244832876,1.70192606747151,11.211827903986));
#1893=CARTESIAN_POINT('',(3.37627969140765,1.70192606747151,11.211827903986));
#1894=CARTESIAN_POINT('',(2.96276565641165,1.17161299241021,11.211827903986));
#1895=CARTESIAN_POINT('',(3.87547955745998,1.16948095805424,11.211827903986));
#1896=CARTESIAN_POINT('',(3.87547955745998,1.53161299241021,11.211827903986));
#1897=CARTESIAN_POINT('',(3.55204178846819,1.53161299241021,11.211827903986));
#1898=CARTESIAN_POINT('',(2.96276565641165,1.17161299241021,11.4415488615632));
#1899=CARTESIAN_POINT('',(-0.00606206887015851,-2.6511531118013,7.30747649818659));
#1900=CARTESIAN_POINT('',(-0.00293589769979655,-3.00019470551169,7.30747649818659));
#1901=CARTESIAN_POINT('',(0.447082150959644,-3.00019470551169,7.30747649818659));
#1902=CARTESIAN_POINT('',(-0.00606206887015851,-2.6511531118013,7.30747649818659));
#1903=CARTESIAN_POINT('',(0.443919883194271,-2.64712287405578,7.30747649818659));
#1904=CARTESIAN_POINT('',(0.0237425111106314,-2.65088616877686,7.31));
#1905=CARTESIAN_POINT('',(-0.00606206887015849,-2.6511531118013,7.30747649818659));
#1906=CARTESIAN_POINT('',(0.214014909582266,-2.64918200486821,7.30747649818659));
#1907=CARTESIAN_POINT('',(-0.0072353158582979,-2.52015836575588,7.30747649818659));
#1908=CARTESIAN_POINT('',(0.0233842677554743,2.6108877730378,7.31));
#1909=CARTESIAN_POINT('',(-0.0603628237129476,2.61163784909655,7.30747649818659));
#1910=CARTESIAN_POINT('',(-0.215356607201807,2.61302604209778,7.30747649818659));
#1911=CARTESIAN_POINT('',(3.34365109808189,2.0763236656785,12.4262174069881));
#1912=CARTESIAN_POINT('',(3.87547955745998,1.16948095805424,14.2));
#1913=CARTESIAN_POINT('',(3.87547955745998,1.16948095805424,20.));
#1914=CARTESIAN_POINT('',(3.87547955745998,1.16948095805424,8.36380249352883));
#1915=CARTESIAN_POINT('',(3.87547955745998,1.53161299241021,14.2));
#1916=CARTESIAN_POINT('',(4.11667592226068,1.32055703112261,7.99830993042972));
#1917=CARTESIAN_POINT('',(4.23761159181595,1.23689514168738,8.06658773926967));
#1918=CARTESIAN_POINT('',(4.23761159181595,1.11128524601471,8.16909998831211));
#1919=CARTESIAN_POINT('',(4.0895015762918,1.38548299798293,8.03948808569464));
#1920=CARTESIAN_POINT('',(4.23761159181574,1.28987284772544,8.09612126923313));
#1921=CARTESIAN_POINT('',(4.23761159181595,1.12918766795123,8.19103611177962));
#1922=CARTESIAN_POINT('',(4.01650543324537,1.49290320808615,8.15010147507935));
#1923=CARTESIAN_POINT('',(4.23761159181633,1.39559609507786,8.18059440842872));
#1924=CARTESIAN_POINT('',(4.23761159181595,1.1588072796241,8.24996126155713));
#1925=CARTESIAN_POINT('',(3.92250310018763,1.53161299241021,8.29254621579899));
#1926=CARTESIAN_POINT('',(4.23761159181536,1.48745636289873,8.29689054052197));
#1927=CARTESIAN_POINT('',(4.23761159181595,1.16948095805391,8.32584337428258));
#1928=CARTESIAN_POINT('',(3.87547955745998,1.53161299241021,8.36380249352884));
#1929=CARTESIAN_POINT('',(4.23761159181595,1.53161299241021,8.36380249352883));
#1930=CARTESIAN_POINT('',(4.23761159181595,1.16948095805424,8.36380249352883));
#1931=CARTESIAN_POINT('',(3.87547955745998,1.11128524601471,8.16909998831211));
#1932=CARTESIAN_POINT('',(4.15831028044253,1.16660631067365,7.93038039941337));
#1933=CARTESIAN_POINT('',(4.19614361237221,1.12055515685895,7.96417295764081));
#1934=CARTESIAN_POINT('',(4.21131337658859,1.07108491338917,8.00907930495143));
#1935=CARTESIAN_POINT('',(4.15713974817718,1.21612779675592,7.95294411045638));
#1936=CARTESIAN_POINT('',(4.21316698056275,1.15483640822387,7.99825178596858));
#1937=CARTESIAN_POINT('',(4.22869019221763,1.0854294362246,8.06051908388669));
#1938=CARTESIAN_POINT('',(4.14920317851736,1.2637994085292,7.97953366089771));
#1939=CARTESIAN_POINT('',(4.22776190278349,1.19008006524591,8.03530072257185));
#1940=CARTESIAN_POINT('',(4.23761159181595,1.09906698629417,8.11480445755909));
#1941=CARTESIAN_POINT('',(4.13459192794458,1.30728155710874,8.00914425754208));
#1942=CARTESIAN_POINT('',(4.23761159181595,1.22553423129283,8.07585956032707));
#1943=CARTESIAN_POINT('',(4.23761159181595,1.11128524601471,8.16909998831211));
#1944=CARTESIAN_POINT('',(3.87547959181595,-0.0615443343214988,14.2));
#1945=CARTESIAN_POINT('',(3.87547959181595,-0.0615443343214988,8.36380254204766));
#1946=CARTESIAN_POINT('',(3.87547959181595,-0.0615443343215,20.));
#1947=CARTESIAN_POINT('',(3.87547959181595,-0.423676334321499,8.36380254204765));
#1948=CARTESIAN_POINT('',(4.23761159181595,-0.423676334321497,8.36380254204765));
#1949=CARTESIAN_POINT('',(4.23761159181595,-0.0615443343214989,8.36380254204766));
#1950=CARTESIAN_POINT('',(3.92250313008248,-0.423676334321496,8.29254625801773));
#1951=CARTESIAN_POINT('',(4.23761159181585,-0.379519708999018,8.29689058312485));
#1952=CARTESIAN_POINT('',(4.23761159181595,-0.0615443343210832,8.32584341334221));
#1953=CARTESIAN_POINT('',(4.01650545422184,-0.384966549997359,8.15010150470297));
#1954=CARTESIAN_POINT('',(4.23761159181604,-0.287659446696573,8.18059443666152));
#1955=CARTESIAN_POINT('',(4.23761159181595,-0.0508706532315937,8.24996128170713));
#1956=CARTESIAN_POINT('',(4.0895015903435,-0.27754633989436,8.03948810553916));
#1957=CARTESIAN_POINT('',(4.23761159181586,-0.181936198849367,8.09612128387817));
#1958=CARTESIAN_POINT('',(4.23761159181595,-0.0212510341775654,8.19103611724636));
#1959=CARTESIAN_POINT('',(4.11667593373402,-0.212620373033894,7.9983099466328));
#1960=CARTESIAN_POINT('',(4.23761159181595,-0.128958491535786,8.06658774899514));
#1961=CARTESIAN_POINT('',(4.23761159181595,-0.00334860777990126,8.16909998831211));
#1962=CARTESIAN_POINT('',(3.87547959181595,-0.00334860777990148,8.16909998831211));
#1963=CARTESIAN_POINT('',(4.21131337658859,0.0368517348633481,8.00907930495144));
#1964=CARTESIAN_POINT('',(4.19614361194532,-0.0126185099985798,7.96417295637709));
#1965=CARTESIAN_POINT('',(4.15831027648471,-0.0586696642970937,7.93038039885312));
#1966=CARTESIAN_POINT('',(4.22869019221686,0.0225072084533184,8.06051908388442));
#1967=CARTESIAN_POINT('',(4.21316698012159,-0.0468997656927243,7.99825178417476));
#1968=CARTESIAN_POINT('',(4.15713974181944,-0.108191154074523,7.95294411003937));
#1969=CARTESIAN_POINT('',(4.23761159181595,0.00886965498532571,8.11480445755958));
#1970=CARTESIAN_POINT('',(4.22776190246137,-0.0821434270600958,8.03530072010999));
#1971=CARTESIAN_POINT('',(4.14920316881047,-0.155862768618926,7.97953366090842));
#1972=CARTESIAN_POINT('',(4.23761159181595,-0.00334860777990333,8.16909998831211));
#1973=CARTESIAN_POINT('',(4.23761159181595,-0.117597597205789,8.075859556942));
#1974=CARTESIAN_POINT('',(4.13459191453518,-0.19934491867549,8.00914425770402));
#1975=CARTESIAN_POINT('',(0.,0.,20.));
#1976=CARTESIAN_POINT('',(-1.36968176811933,-3.00019470551169,5.51));
#1977=CARTESIAN_POINT('',(-0.599915347993374,3.00019470551169,5.51));
#1978=CARTESIAN_POINT('',(6.4,0.,7.27451220154762));
#1979=CARTESIAN_POINT('',(6.4,0.,7.27451220154762));
#1980=CARTESIAN_POINT('',(-0.064213939780886,2.18165509490165,7.30747649818659));
#1981=CARTESIAN_POINT('',(0.,0.,20.));
#1982=CARTESIAN_POINT('',(-4.07383980469239,0.865450315177441,20.));
#1983=CARTESIAN_POINT('',(-3.80875393748284,0.865450315177441,20.));
#1984=CARTESIAN_POINT('',(-3.89007867190195,0.865450315177441,20.));
#1985=CARTESIAN_POINT('',(-3.89007867190195,0.416603315177441,20.));
#1986=CARTESIAN_POINT('',(-4.33892567190195,0.416603315177441,20.));
#1987=CARTESIAN_POINT('',(-4.33892567190195,-0.0612950883805752,20.));
#1988=CARTESIAN_POINT('',(-4.33892567190195,-0.539193491938591,20.));
#1989=CARTESIAN_POINT('',(-3.89007867190195,-0.539193491938591,20.));
#1990=CARTESIAN_POINT('',(-3.89007867190195,-0.988040491938591,20.));
#1991=CARTESIAN_POINT('',(-4.07383980469239,-0.988040491938591,20.));
#1992=CARTESIAN_POINT('',(-3.80875393748284,-0.988040491938591,20.));
#1993=CARTESIAN_POINT('',(-3.80875393748284,-0.0612950883805752,20.));
#1994=CARTESIAN_POINT('',(-4.07383980469239,-0.988040491938591,20.0002));
#1995=CARTESIAN_POINT('',(-3.89007867190195,-0.988040491938591,20.0002));
#1996=CARTESIAN_POINT('',(-3.80875393748284,-0.988040491938591,20.0002));
#1997=CARTESIAN_POINT('',(-4.33892567190195,-0.0612950883805752,20.0002));
#1998=CARTESIAN_POINT('',(-4.33892567190195,0.,19.2720338702202));
#1999=CARTESIAN_POINT('',(-4.33892567190195,0.,19.3720338702202));
#2000=CARTESIAN_POINT('',(-4.33892567190195,0.416603315177441,20.0002));
#2001=CARTESIAN_POINT('',(-4.33892567190195,-0.539193491938591,20.0002));
#2002=CARTESIAN_POINT('',(-4.07383980469239,0.865450315177441,20.0002));
#2003=CARTESIAN_POINT('',(-3.89007867190195,0.865450315177441,20.0002));
#2004=CARTESIAN_POINT('',(-3.80875393748284,0.865450315177441,20.0002));
#2005=CARTESIAN_POINT('',(-3.80875393748284,-0.0612950883805752,20.0002));
#2006=CARTESIAN_POINT('',(-3.89007867190195,0.416603315177441,20.0002));
#2007=CARTESIAN_POINT('',(-3.89007867190195,-0.539193491938591,20.0002));
#2008=CARTESIAN_POINT('',(4.23781159181595,0.578423868864775,19.3141415715218));
#2009=CARTESIAN_POINT('',(3.83761159181595,0.578423868864775,19.3141415715218));
#2010=CARTESIAN_POINT('',(3.83761159181595,0.578423868864775,19.2127404076579));
#2011=CARTESIAN_POINT('',(3.83761159181595,0.553968311866373,14.0845499941561));
#2012=CARTESIAN_POINT('',(-3.83892567190195,0.,19.2720338702202));
#2013=CARTESIAN_POINT('',(-3.83892567190195,0.,19.2720338702202));
#2014=CARTESIAN_POINT('',(-3.83892567190195,0.,19.3720338702202));
#2015=CARTESIAN_POINT('',(-3.83892567190195,-0.0612950883805751,14.005));
#2016=CARTESIAN_POINT('',(3.55204178846819,1.53161299241021,11.212027903986));
#2017=CARTESIAN_POINT('',(3.88608739769488,1.53161299241021,11.212027903986));
#2018=CARTESIAN_POINT('',(3.37627969140765,1.70192606747151,11.212027903986));
#2019=CARTESIAN_POINT('',(3.71709244832876,1.70192606747151,8.01));
#2020=CARTESIAN_POINT('',(3.88608739769488,1.61676952994085,11.212027903986));
#2021=CARTESIAN_POINT('',(3.88608739769488,1.53293111810539,11.211827903986));
#2022=CARTESIAN_POINT('',(3.71709244832876,1.53293111810539,11.212027903986));
#2023=MECHANICAL_DESIGN_GEOMETRIC_PRESENTATION_REPRESENTATION('',(#1152),
#2024);
#2024=(
GEOMETRIC_REPRESENTATION_CONTEXT(3)
GLOBAL_UNCERTAINTY_ASSIGNED_CONTEXT((#2025))
GLOBAL_UNIT_ASSIGNED_CONTEXT((#2028,#2027,#2026))
REPRESENTATION_CONTEXT('Gimabl X axis ring','TOP_LEVEL_ASSEMBLY_PART')
);
#2025=UNCERTAINTY_MEASURE_WITH_UNIT(LENGTH_MEASURE(0.00232453634227622),
#2028,'DISTANCE_ACCURACY_VALUE','Maximum Tolerance applied to model');
#2026=(
NAMED_UNIT(*)
SI_UNIT($,.STERADIAN.)
SOLID_ANGLE_UNIT()
);
#2027=(
NAMED_UNIT(*)
PLANE_ANGLE_UNIT()
SI_UNIT($,.RADIAN.)
);
#2028=(
LENGTH_UNIT()
NAMED_UNIT(*)
SI_UNIT(.CENTI.,.METRE.)
);
#2029=PRODUCT_DEFINITION_SHAPE('','',#2030);
#2030=PRODUCT_DEFINITION('','',#2032,#2031);
#2031=PRODUCT_DEFINITION_CONTEXT('',#2038,'design');
#2032=PRODUCT_DEFINITION_FORMATION_WITH_SPECIFIED_SOURCE('','',#2034,
 .NOT_KNOWN.);
#2033=PRODUCT_RELATED_PRODUCT_CATEGORY('','',(#2034));
#2034=PRODUCT('Gimabl X axis ring','Gimabl X axis ring',
'Gimabl X axis ring',(#2036));
#2035=PRODUCT_CATEGORY('','');
#2036=PRODUCT_CONTEXT('',#2038,'mechanical');
#2037=APPLICATION_PROTOCOL_DEFINITION('international standard',
'ap242_managed_model_based_3d_engineering',2020,#2038);
#2038=APPLICATION_CONTEXT('managed model based 3d engineering');
ENDSEC;
END-ISO-10303-21;
