ISO-10303-21;
HEADER;
/* Generated by software containing ST-Developer
 * from STEP Tools, Inc. (www.steptools.com) 
 */
/* OPTION: using custom renumber hook */

FILE_DESCRIPTION(
/* description */ ('STEP AP242 Edition 2',
'CAx-IF Rec.Pracs.---Representation and Presentation of Product Manufa
cturing Information (PMI)---4.0---2014-10-13',
'CAx-IF Rec.Pracs.---3D Tessellated Geometry---0.4---2014-09-14','2;1',
'CAx-IF Rec.Pracs.---User Defined Attributes---1.5---2016-08-15'),
/* implementation_level */ '2;1');

FILE_NAME(
/* name */ 'All - Nose base',
/* time_stamp */ '2026-09-01T00:16:00Z',
/* author */ (''),
/* organization */ (''),
/* preprocessor_version */ 'ST-DEVELOPER v20',
/* originating_system */ 'ONSHAPE BY PTC INC, 1.220',
/* authorisation */ '  ');

FILE_SCHEMA (('AP242_MANAGED_MODEL_BASED_3D_ENGINEERING_MIM_LF { 1 0 10303 442 3 1 4 }'));
ENDSEC;

DATA;
#10=SHAPE_REPRESENTATION_RELATIONSHIP('','',#833,#11);
#11=ADVANCED_BREP_SHAPE_REPRESENTATION('',(#831),#1521);
#12=DEGENERATE_TOROIDAL_SURFACE('',#884,35.3760934240905,40.0762896518571,
 .F.);
#13=LINE('',#1236,#49);
#14=LINE('',#1239,#50);
#15=LINE('',#1241,#51);
#16=LINE('',#1243,#52);
#17=LINE('',#1245,#53);
#18=LINE('',#1247,#54);
#19=LINE('',#1249,#55);
#20=LINE('',#1251,#56);
#21=LINE('',#1270,#57);
#22=LINE('',#1273,#58);
#23=LINE('',#1280,#59);
#24=LINE('',#1284,#60);
#25=LINE('',#1287,#61);
#26=LINE('',#1294,#62);
#27=LINE('',#1298,#63);
#28=LINE('',#1301,#64);
#29=LINE('',#1308,#65);
#30=LINE('',#1312,#66);
#31=LINE('',#1315,#67);
#32=LINE('',#1322,#68);
#33=LINE('',#1324,#69);
#34=LINE('',#1326,#70);
#35=LINE('',#1328,#71);
#36=LINE('',#1330,#72);
#37=LINE('',#1333,#73);
#38=LINE('',#1334,#74);
#39=LINE('',#1336,#75);
#40=LINE('',#1337,#76);
#41=LINE('',#1358,#77);
#42=LINE('',#1360,#78);
#43=LINE('',#1506,#79);
#44=LINE('',#1509,#80);
#45=LINE('',#1511,#81);
#46=LINE('',#1513,#82);
#47=LINE('',#1515,#83);
#48=LINE('',#1517,#84);
#49=VECTOR('',#967,100.);
#50=VECTOR('',#968,100.);
#51=VECTOR('',#969,100.);
#52=VECTOR('',#970,100.);
#53=VECTOR('',#971,100.);
#54=VECTOR('',#972,100.);
#55=VECTOR('',#973,100.);
#56=VECTOR('',#974,100.);
#57=VECTOR('',#997,100.);
#58=VECTOR('',#998,100.);
#59=VECTOR('',#999,100.);
#60=VECTOR('',#1004,100.);
#61=VECTOR('',#1005,100.);
#62=VECTOR('',#1006,100.);
#63=VECTOR('',#1011,100.);
#64=VECTOR('',#1012,100.);
#65=VECTOR('',#1013,100.);
#66=VECTOR('',#1018,100.);
#67=VECTOR('',#1019,100.);
#68=VECTOR('',#1020,100.);
#69=VECTOR('',#1023,100.);
#70=VECTOR('',#1024,100.);
#71=VECTOR('',#1025,100.);
#72=VECTOR('',#1028,100.);
#73=VECTOR('',#1029,100.);
#74=VECTOR('',#1030,100.);
#75=VECTOR('',#1031,100.);
#76=VECTOR('',#1032,100.);
#77=VECTOR('',#1055,100.);
#78=VECTOR('',#1056,100.);
#79=VECTOR('',#1137,100.);
#80=VECTOR('',#1142,100.);
#81=VECTOR('',#1143,100.);
#82=VECTOR('',#1144,100.);
#83=VECTOR('',#1147,100.);
#84=VECTOR('',#1150,100.);
#85=B_SPLINE_CURVE_WITH_KNOTS('',3,(#1162,#1163,#1164,#1165,#1166,#1167,
#1168,#1169,#1170,#1171,#1172),.UNSPECIFIED.,.T.,.F.,(1,1,1,1,1,1,1,1,1,
1,1,1,1,1,1),(-0.00422151371240429,-0.00281434247493619,-0.00140717123746809,
7.80625564189563E-18,0.00140717123746811,0.00281434247493621,0.00422151371240431,
0.00562868494987241,0.00703585618734051,0.00844302742480861,0.00985019866227671,
0.0112573698997448,0.0126645411372129,0.014071712374681,0.0154788836121491),
 .UNSPECIFIED.);
#86=B_SPLINE_CURVE_WITH_KNOTS('',3,(#1174,#1175,#1176,#1177,#1178,#1179,
#1180,#1181,#1182,#1183,#1184),.UNSPECIFIED.,.T.,.F.,(1,1,1,1,1,1,1,1,1,
1,1,1,1,1,1),(-0.00422143328270026,-0.0028142888551335,-0.00140714442756674,
1.43114686768087E-17,0.00140714442756677,0.00281428885513353,0.00422143328270028,
0.00562857771026704,0.0070357221378338,0.00844286656540055,0.00985001099296731,
0.0112571554205341,0.0126642998481008,0.0140714442756676,0.0154785887032343),
 .UNSPECIFIED.);
#87=B_SPLINE_CURVE_WITH_KNOTS('',3,(#1187,#1188,#1189,#1190,#1191,#1192,
#1193,#1194,#1195,#1196,#1197),.UNSPECIFIED.,.T.,.F.,(1,1,1,1,1,1,1,1,1,
1,1,1,1,1,1),(-0.00422158994545661,-0.00281439329697107,-0.00140719664848553,
5.63785129692462E-18,0.00140719664848554,0.00281439329697108,0.00422158994545662,
0.00562878659394216,0.0070359832424277,0.00844317989091323,0.00985037653939877,
0.0112575731878843,0.0126647698363698,0.0140719664848554,0.0154791631333409),
 .UNSPECIFIED.);
#88=B_SPLINE_CURVE_WITH_KNOTS('',3,(#1199,#1200,#1201,#1202,#1203,#1204,
#1205,#1206,#1207,#1208,#1209),.UNSPECIFIED.,.T.,.F.,(1,1,1,1,1,1,1,1,1,
1,1,1,1,1,1),(-0.00422150466388438,-0.00281433644258959,-0.00140716822129479,
4.11996825544492E-18,0.0014071682212948,0.00281433644258959,0.00422150466388439,
0.00562867288517918,0.00703584110647398,0.00844300932776877,0.00985017754906357,
0.0112573457703584,0.0126645139916532,0.014071682212948,0.0154788504342427),
 .UNSPECIFIED.);
#89=B_SPLINE_CURVE_WITH_KNOTS('',3,(#1275,#1276,#1277,#1278),
 .UNSPECIFIED.,.F.,.F.,(4,4),(0.01368837614374,0.0271628176734968),
 .UNSPECIFIED.);
#90=B_SPLINE_CURVE_WITH_KNOTS('',3,(#1289,#1290,#1291,#1292),
 .UNSPECIFIED.,.F.,.F.,(4,4),(0.0137221996557624,0.0271966415003742),
 .UNSPECIFIED.);
#91=B_SPLINE_CURVE_WITH_KNOTS('',3,(#1303,#1304,#1305,#1306),
 .UNSPECIFIED.,.F.,.F.,(4,4),(0.01368837614374,0.0271628176734968),
 .UNSPECIFIED.);
#92=B_SPLINE_CURVE_WITH_KNOTS('',3,(#1317,#1318,#1319,#1320),
 .UNSPECIFIED.,.F.,.F.,(4,4),(0.0137221996557624,0.0271966415003742),
 .UNSPECIFIED.);
#93=B_SPLINE_CURVE_WITH_KNOTS('',3,(#1364,#1365,#1366,#1367,#1368,#1369,
#1370,#1371,#1372,#1373,#1374,#1375,#1376,#1377,#1378,#1379,#1380,#1381,
#1382,#1383,#1384,#1385,#1386),.UNSPECIFIED.,.T.,.F.,(1,1,1,1,1,1,1,1,1,
1,1,1,1,1,1,1,1,1,1,1,1,1,1,1,1,1,1),(-0.00132168529762092,-0.000660842648733855,
-0.000330421324290323,1.53207806969785E-13,0.000330421324596739,0.000660842649040271,
0.00132168529792733,0.0019825279468144,0.00264337059570146,0.00330421324458852,
0.00396505589347559,0.00462589854236265,0.00495631986680618,0.00528674119124971,
0.00561716251569324,0.00594758384013677,0.00660842648902384,0.0072692691379109,
0.00793011178679796,0.00859095443568502,0.00925179708457209,0.00991263973345915,
0.0102430610579027,0.0105734823823462,0.0109039037067897,0.0112343250312333,
0.0118951676801203),.UNSPECIFIED.);
#94=B_SPLINE_CURVE_WITH_KNOTS('',3,(#1388,#1389,#1390,#1391,#1392,#1393,
#1394,#1395,#1396,#1397,#1398,#1399,#1400,#1401,#1402,#1403,#1404,#1405,
#1406,#1407,#1408,#1409,#1410,#1411),.UNSPECIFIED.,.T.,.F.,(1,1,1,1,1,1,
1,1,1,1,1,1,1,1,1,1,1,1,1,1,1,1,1,1,1,1,1,1),(-0.00100000710085585,-0.000666671381422915,
-0.000333335661989981,5.74429510687752E-11,0.000666671496308816,0.00133334293517468,
0.00200001437404055,0.00266668581290641,0.00333335725177228,0.00400002869063814,
0.00433336441007107,0.00466670012950401,0.00500003584893694,0.00533337156836987,
0.0056667072878028,0.00600004300723573,0.0066667144461016,0.00733338588496747,
0.00800005732383333,0.00866672876269919,0.00933340020156506,0.00966673592099799,
0.0100000716404309,0.0103334073598639,0.0106667430792968,0.0113334145181627,
0.0120000859570285,0.0126667573958944),.UNSPECIFIED.);
#95=B_SPLINE_CURVE_WITH_KNOTS('',3,(#1413,#1414,#1415,#1416,#1417,#1418,
#1419,#1420,#1421,#1422,#1423,#1424,#1425,#1426,#1427,#1428,#1429,#1430,
#1431,#1432,#1433,#1434,#1435,#1436),.UNSPECIFIED.,.T.,.F.,(1,1,1,1,1,1,
1,1,1,1,1,1,1,1,1,1,1,1,1,1,1,1,1,1,1,1,1,1),(-0.00197862189807177,-0.00131908126538117,
-0.000659540632690577,1.86835436258807E-17,0.000329770316345316,0.000659540632690614,
0.000989310949035911,0.00131908126538121,0.00164885158172651,0.0019786218980718,
0.0026381625307624,0.00329770316345299,0.00395724379614359,0.00461678442883418,
0.00527632506152478,0.00593586569421538,0.00626563601056067,0.00659540632690597,
0.00692517664325127,0.00725494695959657,0.00791448759228716,0.00857402822497776,
0.00923356885766835,0.00989310949035895,0.0105526501230495,0.0108824204393948,
0.0112121907557401,0.0115419610720854),.UNSPECIFIED.);
#96=B_SPLINE_CURVE_WITH_KNOTS('',3,(#1444,#1445,#1446,#1447,#1448,#1449,
#1450,#1451,#1452,#1453,#1454,#1455,#1456,#1457,#1458,#1459,#1460,#1461,
#1462,#1463,#1464,#1465,#1466,#1467,#1468),.UNSPECIFIED.,.T.,.F.,(1,1,1,
1,1,1,1,1,1,1,1,1,1,1,1,1,1,1,1,1,1,1,1,1,1,1,1,1,1),(-0.0013405149030157,
-0.000670257451507665,-0.000335128725753647,3.7200820362779E-16,0.00033512872575439,
0.000670257451508407,0.00100538617726243,0.00134051490301644,0.00201077235452448,
0.00268102980603251,0.00335128725754055,0.00402154470904858,0.00469180216055662,
0.00502693088631064,0.00536205961206465,0.00569718833781867,0.00603231706357269,
0.00636744578932671,0.00670257451508073,0.00737283196658876,0.0080430894180968,
0.00871334686960483,0.00938360432111287,0.0100538617726209,0.0103889904983749,
0.0107241192241289,0.011059247949883,0.011394376675637,0.011729505401391),
 .UNSPECIFIED.);
#97=CYLINDRICAL_SURFACE('',#838,0.18);
#98=CYLINDRICAL_SURFACE('',#839,0.18);
#99=CYLINDRICAL_SURFACE('',#853,0.025198892118345);
#100=CYLINDRICAL_SURFACE('',#856,0.37);
#101=CYLINDRICAL_SURFACE('',#859,0.37);
#102=CYLINDRICAL_SURFACE('',#872,0.025);
#103=CYLINDRICAL_SURFACE('',#900,0.1);
#104=CYLINDRICAL_SURFACE('',#901,0.1);
#105=CYLINDRICAL_SURFACE('',#902,0.1);
#106=CYLINDRICAL_SURFACE('',#903,0.1);
#107=CYLINDRICAL_SURFACE('',#904,4.25893041790531);
#108=CYLINDRICAL_SURFACE('',#905,4.14460368256671);
#109=CYLINDRICAL_SURFACE('',#908,0.5);
#110=CYLINDRICAL_SURFACE('',#911,0.375);
#111=CYLINDRICAL_SURFACE('',#914,0.15);
#112=CYLINDRICAL_SURFACE('',#915,0.15);
#113=CYLINDRICAL_SURFACE('',#916,0.15);
#114=CYLINDRICAL_SURFACE('',#917,0.15);
#115=CYLINDRICAL_SURFACE('',#918,0.15);
#116=CYLINDRICAL_SURFACE('',#919,0.15);
#117=CYLINDRICAL_SURFACE('',#920,0.15);
#118=CYLINDRICAL_SURFACE('',#921,0.15);
#119=CYLINDRICAL_SURFACE('',#928,4.4);
#120=ORIENTED_EDGE('',*,*,#308,.F.);
#121=ORIENTED_EDGE('',*,*,#309,.T.);
#122=ORIENTED_EDGE('',*,*,#310,.T.);
#123=ORIENTED_EDGE('',*,*,#311,.F.);
#124=ORIENTED_EDGE('',*,*,#312,.T.);
#125=ORIENTED_EDGE('',*,*,#313,.F.);
#126=ORIENTED_EDGE('',*,*,#314,.T.);
#127=ORIENTED_EDGE('',*,*,#315,.T.);
#128=ORIENTED_EDGE('',*,*,#316,.T.);
#129=ORIENTED_EDGE('',*,*,#317,.T.);
#130=ORIENTED_EDGE('',*,*,#318,.F.);
#131=ORIENTED_EDGE('',*,*,#319,.F.);
#132=ORIENTED_EDGE('',*,*,#320,.F.);
#133=ORIENTED_EDGE('',*,*,#321,.F.);
#134=ORIENTED_EDGE('',*,*,#322,.F.);
#135=ORIENTED_EDGE('',*,*,#323,.F.);
#136=ORIENTED_EDGE('',*,*,#324,.F.);
#137=ORIENTED_EDGE('',*,*,#325,.F.);
#138=ORIENTED_EDGE('',*,*,#326,.F.);
#139=ORIENTED_EDGE('',*,*,#327,.T.);
#140=ORIENTED_EDGE('',*,*,#328,.T.);
#141=ORIENTED_EDGE('',*,*,#329,.F.);
#142=ORIENTED_EDGE('',*,*,#330,.T.);
#143=ORIENTED_EDGE('',*,*,#331,.F.);
#144=ORIENTED_EDGE('',*,*,#332,.T.);
#145=ORIENTED_EDGE('',*,*,#333,.F.);
#146=ORIENTED_EDGE('',*,*,#334,.T.);
#147=ORIENTED_EDGE('',*,*,#335,.F.);
#148=ORIENTED_EDGE('',*,*,#336,.F.);
#149=ORIENTED_EDGE('',*,*,#337,.F.);
#150=ORIENTED_EDGE('',*,*,#338,.F.);
#151=ORIENTED_EDGE('',*,*,#339,.F.);
#152=ORIENTED_EDGE('',*,*,#340,.F.);
#153=ORIENTED_EDGE('',*,*,#341,.F.);
#154=ORIENTED_EDGE('',*,*,#342,.F.);
#155=ORIENTED_EDGE('',*,*,#343,.F.);
#156=ORIENTED_EDGE('',*,*,#344,.F.);
#157=ORIENTED_EDGE('',*,*,#345,.T.);
#158=ORIENTED_EDGE('',*,*,#346,.F.);
#159=ORIENTED_EDGE('',*,*,#347,.T.);
#160=ORIENTED_EDGE('',*,*,#348,.F.);
#161=ORIENTED_EDGE('',*,*,#349,.F.);
#162=ORIENTED_EDGE('',*,*,#350,.F.);
#163=ORIENTED_EDGE('',*,*,#351,.F.);
#164=ORIENTED_EDGE('',*,*,#352,.T.);
#165=ORIENTED_EDGE('',*,*,#353,.T.);
#166=ORIENTED_EDGE('',*,*,#354,.T.);
#167=ORIENTED_EDGE('',*,*,#355,.T.);
#168=ORIENTED_EDGE('',*,*,#356,.F.);
#169=ORIENTED_EDGE('',*,*,#357,.T.);
#170=ORIENTED_EDGE('',*,*,#358,.T.);
#171=ORIENTED_EDGE('',*,*,#359,.F.);
#172=ORIENTED_EDGE('',*,*,#360,.F.);
#173=ORIENTED_EDGE('',*,*,#331,.T.);
#174=ORIENTED_EDGE('',*,*,#361,.T.);
#175=ORIENTED_EDGE('',*,*,#362,.F.);
#176=ORIENTED_EDGE('',*,*,#363,.F.);
#177=ORIENTED_EDGE('',*,*,#364,.T.);
#178=ORIENTED_EDGE('',*,*,#332,.F.);
#179=ORIENTED_EDGE('',*,*,#360,.T.);
#180=ORIENTED_EDGE('',*,*,#365,.T.);
#181=ORIENTED_EDGE('',*,*,#366,.F.);
#182=ORIENTED_EDGE('',*,*,#328,.F.);
#183=ORIENTED_EDGE('',*,*,#367,.F.);
#184=ORIENTED_EDGE('',*,*,#368,.T.);
#185=ORIENTED_EDGE('',*,*,#315,.F.);
#186=ORIENTED_EDGE('',*,*,#369,.F.);
#187=ORIENTED_EDGE('',*,*,#370,.F.);
#188=ORIENTED_EDGE('',*,*,#371,.F.);
#189=ORIENTED_EDGE('',*,*,#372,.F.);
#190=ORIENTED_EDGE('',*,*,#373,.F.);
#191=ORIENTED_EDGE('',*,*,#374,.F.);
#192=ORIENTED_EDGE('',*,*,#375,.F.);
#193=ORIENTED_EDGE('',*,*,#376,.F.);
#194=ORIENTED_EDGE('',*,*,#338,.T.);
#195=ORIENTED_EDGE('',*,*,#336,.T.);
#196=ORIENTED_EDGE('',*,*,#362,.T.);
#197=ORIENTED_EDGE('',*,*,#377,.T.);
#198=ORIENTED_EDGE('',*,*,#378,.F.);
#199=ORIENTED_EDGE('',*,*,#365,.F.);
#200=ORIENTED_EDGE('',*,*,#334,.F.);
#201=ORIENTED_EDGE('',*,*,#368,.F.);
#202=ORIENTED_EDGE('',*,*,#379,.T.);
#203=ORIENTED_EDGE('',*,*,#380,.T.);
#204=ORIENTED_EDGE('',*,*,#381,.F.);
#205=ORIENTED_EDGE('',*,*,#382,.F.);
#206=ORIENTED_EDGE('',*,*,#383,.F.);
#207=ORIENTED_EDGE('',*,*,#358,.F.);
#208=ORIENTED_EDGE('',*,*,#384,.T.);
#209=ORIENTED_EDGE('',*,*,#348,.T.);
#210=ORIENTED_EDGE('',*,*,#385,.T.);
#211=ORIENTED_EDGE('',*,*,#343,.T.);
#212=ORIENTED_EDGE('',*,*,#386,.T.);
#213=ORIENTED_EDGE('',*,*,#353,.F.);
#214=ORIENTED_EDGE('',*,*,#387,.F.);
#215=ORIENTED_EDGE('',*,*,#388,.T.);
#216=ORIENTED_EDGE('',*,*,#389,.F.);
#217=ORIENTED_EDGE('',*,*,#349,.T.);
#218=ORIENTED_EDGE('',*,*,#384,.F.);
#219=ORIENTED_EDGE('',*,*,#357,.F.);
#220=ORIENTED_EDGE('',*,*,#390,.F.);
#221=ORIENTED_EDGE('',*,*,#354,.F.);
#222=ORIENTED_EDGE('',*,*,#386,.F.);
#223=ORIENTED_EDGE('',*,*,#342,.T.);
#224=ORIENTED_EDGE('',*,*,#383,.T.);
#225=ORIENTED_EDGE('',*,*,#391,.T.);
#226=ORIENTED_EDGE('',*,*,#392,.F.);
#227=ORIENTED_EDGE('',*,*,#344,.T.);
#228=ORIENTED_EDGE('',*,*,#385,.F.);
#229=ORIENTED_EDGE('',*,*,#347,.F.);
#230=ORIENTED_EDGE('',*,*,#393,.F.);
#231=ORIENTED_EDGE('',*,*,#359,.T.);
#232=ORIENTED_EDGE('',*,*,#387,.T.);
#233=ORIENTED_EDGE('',*,*,#352,.F.);
#234=ORIENTED_EDGE('',*,*,#381,.T.);
#235=ORIENTED_EDGE('',*,*,#355,.F.);
#236=ORIENTED_EDGE('',*,*,#382,.T.);
#237=ORIENTED_EDGE('',*,*,#345,.F.);
#238=ORIENTED_EDGE('',*,*,#388,.F.);
#239=ORIENTED_EDGE('',*,*,#350,.T.);
#240=ORIENTED_EDGE('',*,*,#380,.F.);
#241=ORIENTED_EDGE('',*,*,#340,.T.);
#242=ORIENTED_EDGE('',*,*,#312,.F.);
#243=ORIENTED_EDGE('',*,*,#308,.T.);
#244=ORIENTED_EDGE('',*,*,#310,.F.);
#245=ORIENTED_EDGE('',*,*,#314,.F.);
#246=ORIENTED_EDGE('',*,*,#379,.F.);
#247=ORIENTED_EDGE('',*,*,#341,.T.);
#248=ORIENTED_EDGE('',*,*,#392,.T.);
#249=ORIENTED_EDGE('',*,*,#346,.T.);
#250=ORIENTED_EDGE('',*,*,#389,.T.);
#251=ORIENTED_EDGE('',*,*,#356,.T.);
#252=ORIENTED_EDGE('',*,*,#393,.T.);
#253=ORIENTED_EDGE('',*,*,#351,.T.);
#254=ORIENTED_EDGE('',*,*,#390,.T.);
#255=ORIENTED_EDGE('',*,*,#394,.T.);
#256=ORIENTED_EDGE('',*,*,#316,.F.);
#257=ORIENTED_EDGE('',*,*,#394,.F.);
#258=ORIENTED_EDGE('',*,*,#395,.T.);
#259=ORIENTED_EDGE('',*,*,#317,.F.);
#260=ORIENTED_EDGE('',*,*,#395,.F.);
#261=ORIENTED_EDGE('',*,*,#339,.T.);
#262=ORIENTED_EDGE('',*,*,#337,.T.);
#263=ORIENTED_EDGE('',*,*,#318,.T.);
#264=ORIENTED_EDGE('',*,*,#376,.T.);
#265=ORIENTED_EDGE('',*,*,#319,.T.);
#266=ORIENTED_EDGE('',*,*,#375,.T.);
#267=ORIENTED_EDGE('',*,*,#320,.T.);
#268=ORIENTED_EDGE('',*,*,#374,.T.);
#269=ORIENTED_EDGE('',*,*,#321,.T.);
#270=ORIENTED_EDGE('',*,*,#373,.T.);
#271=ORIENTED_EDGE('',*,*,#322,.T.);
#272=ORIENTED_EDGE('',*,*,#372,.T.);
#273=ORIENTED_EDGE('',*,*,#323,.T.);
#274=ORIENTED_EDGE('',*,*,#371,.T.);
#275=ORIENTED_EDGE('',*,*,#324,.T.);
#276=ORIENTED_EDGE('',*,*,#370,.T.);
#277=ORIENTED_EDGE('',*,*,#325,.T.);
#278=ORIENTED_EDGE('',*,*,#369,.T.);
#279=ORIENTED_EDGE('',*,*,#329,.T.);
#280=ORIENTED_EDGE('',*,*,#366,.T.);
#281=ORIENTED_EDGE('',*,*,#378,.T.);
#282=ORIENTED_EDGE('',*,*,#396,.F.);
#283=ORIENTED_EDGE('',*,*,#396,.T.);
#284=ORIENTED_EDGE('',*,*,#377,.F.);
#285=ORIENTED_EDGE('',*,*,#361,.F.);
#286=ORIENTED_EDGE('',*,*,#330,.F.);
#287=ORIENTED_EDGE('',*,*,#397,.F.);
#288=ORIENTED_EDGE('',*,*,#398,.T.);
#289=ORIENTED_EDGE('',*,*,#399,.T.);
#290=ORIENTED_EDGE('',*,*,#363,.T.);
#291=ORIENTED_EDGE('',*,*,#335,.T.);
#292=ORIENTED_EDGE('',*,*,#327,.F.);
#293=ORIENTED_EDGE('',*,*,#400,.F.);
#294=ORIENTED_EDGE('',*,*,#397,.T.);
#295=ORIENTED_EDGE('',*,*,#367,.T.);
#296=ORIENTED_EDGE('',*,*,#326,.T.);
#297=ORIENTED_EDGE('',*,*,#401,.F.);
#298=ORIENTED_EDGE('',*,*,#398,.F.);
#299=ORIENTED_EDGE('',*,*,#400,.T.);
#300=ORIENTED_EDGE('',*,*,#333,.T.);
#301=ORIENTED_EDGE('',*,*,#364,.F.);
#302=ORIENTED_EDGE('',*,*,#399,.F.);
#303=ORIENTED_EDGE('',*,*,#401,.T.);
#304=ORIENTED_EDGE('',*,*,#391,.F.);
#305=ORIENTED_EDGE('',*,*,#309,.F.);
#306=ORIENTED_EDGE('',*,*,#313,.T.);
#307=ORIENTED_EDGE('',*,*,#311,.T.);
#308=EDGE_CURVE('',#402,#402,#480,.T.);
#309=EDGE_CURVE('',#403,#403,#481,.T.);
#310=EDGE_CURVE('',#404,#404,#85,.T.);
#311=EDGE_CURVE('',#405,#405,#86,.T.);
#312=EDGE_CURVE('',#406,#406,#87,.T.);
#313=EDGE_CURVE('',#407,#407,#88,.T.);
#314=EDGE_CURVE('',#408,#408,#482,.T.);
#315=EDGE_CURVE('',#409,#409,#483,.F.);
#316=EDGE_CURVE('',#410,#410,#484,.F.);
#317=EDGE_CURVE('',#411,#411,#485,.F.);
#318=EDGE_CURVE('',#412,#412,#486,.T.);
#319=EDGE_CURVE('',#413,#413,#487,.T.);
#320=EDGE_CURVE('',#414,#414,#488,.T.);
#321=EDGE_CURVE('',#415,#415,#489,.T.);
#322=EDGE_CURVE('',#416,#416,#490,.T.);
#323=EDGE_CURVE('',#417,#417,#491,.T.);
#324=EDGE_CURVE('',#418,#418,#492,.T.);
#325=EDGE_CURVE('',#419,#419,#493,.T.);
#326=EDGE_CURVE('',#420,#421,#13,.T.);
#327=EDGE_CURVE('',#420,#422,#14,.T.);
#328=EDGE_CURVE('',#422,#423,#15,.T.);
#329=EDGE_CURVE('',#424,#423,#16,.T.);
#330=EDGE_CURVE('',#424,#425,#17,.T.);
#331=EDGE_CURVE('',#426,#425,#18,.T.);
#332=EDGE_CURVE('',#426,#427,#19,.T.);
#333=EDGE_CURVE('',#421,#427,#20,.T.);
#334=EDGE_CURVE('',#428,#428,#494,.T.);
#335=EDGE_CURVE('',#429,#429,#495,.F.);
#336=EDGE_CURVE('',#430,#430,#496,.T.);
#337=EDGE_CURVE('',#431,#431,#497,.F.);
#338=EDGE_CURVE('',#432,#432,#498,.T.);
#339=EDGE_CURVE('',#433,#433,#499,.F.);
#340=EDGE_CURVE('',#434,#434,#500,.F.);
#341=EDGE_CURVE('',#435,#436,#21,.T.);
#342=EDGE_CURVE('',#437,#435,#22,.T.);
#343=EDGE_CURVE('',#438,#437,#89,.T.);
#344=EDGE_CURVE('',#436,#438,#23,.T.);
#345=EDGE_CURVE('',#439,#439,#501,.T.);
#346=EDGE_CURVE('',#440,#441,#24,.F.);
#347=EDGE_CURVE('',#440,#442,#25,.T.);
#348=EDGE_CURVE('',#443,#442,#90,.T.);
#349=EDGE_CURVE('',#441,#443,#26,.T.);
#350=EDGE_CURVE('',#444,#444,#502,.F.);
#351=EDGE_CURVE('',#445,#446,#27,.F.);
#352=EDGE_CURVE('',#445,#447,#28,.T.);
#353=EDGE_CURVE('',#447,#448,#91,.T.);
#354=EDGE_CURVE('',#448,#446,#29,.T.);
#355=EDGE_CURVE('',#449,#449,#503,.T.);
#356=EDGE_CURVE('',#450,#451,#30,.T.);
#357=EDGE_CURVE('',#450,#452,#31,.T.);
#358=EDGE_CURVE('',#452,#453,#92,.T.);
#359=EDGE_CURVE('',#451,#453,#32,.T.);
#360=EDGE_CURVE('',#426,#454,#33,.T.);
#361=EDGE_CURVE('',#425,#455,#34,.T.);
#362=EDGE_CURVE('',#454,#455,#35,.T.);
#363=EDGE_CURVE('',#456,#457,#36,.T.);
#364=EDGE_CURVE('',#456,#427,#37,.T.);
#365=EDGE_CURVE('',#454,#458,#38,.T.);
#366=EDGE_CURVE('',#423,#458,#39,.T.);
#367=EDGE_CURVE('',#457,#422,#40,.T.);
#368=EDGE_CURVE('',#459,#459,#504,.T.);
#369=EDGE_CURVE('',#460,#460,#505,.T.);
#370=EDGE_CURVE('',#461,#461,#506,.T.);
#371=EDGE_CURVE('',#462,#462,#507,.T.);
#372=EDGE_CURVE('',#463,#463,#508,.T.);
#373=EDGE_CURVE('',#464,#464,#509,.T.);
#374=EDGE_CURVE('',#465,#465,#510,.T.);
#375=EDGE_CURVE('',#466,#466,#511,.T.);
#376=EDGE_CURVE('',#467,#467,#512,.T.);
#377=EDGE_CURVE('',#455,#468,#41,.T.);
#378=EDGE_CURVE('',#458,#468,#42,.T.);
#379=EDGE_CURVE('',#469,#469,#513,.T.);
#380=EDGE_CURVE('',#470,#470,#93,.T.);
#381=EDGE_CURVE('',#471,#471,#94,.T.);
#382=EDGE_CURVE('',#472,#472,#95,.T.);
#383=EDGE_CURVE('',#473,#473,#514,.T.);
#384=EDGE_CURVE('',#452,#443,#515,.T.);
#385=EDGE_CURVE('',#442,#438,#516,.F.);
#386=EDGE_CURVE('',#437,#448,#517,.T.);
#387=EDGE_CURVE('',#453,#447,#518,.F.);
#388=EDGE_CURVE('',#474,#474,#96,.T.);
#389=EDGE_CURVE('',#441,#450,#519,.F.);
#390=EDGE_CURVE('',#446,#435,#520,.F.);
#391=EDGE_CURVE('',#475,#475,#521,.F.);
#392=EDGE_CURVE('',#436,#440,#522,.F.);
#393=EDGE_CURVE('',#451,#445,#523,.F.);
#394=EDGE_CURVE('',#476,#476,#524,.T.);
#395=EDGE_CURVE('',#477,#477,#525,.T.);
#396=EDGE_CURVE('',#424,#468,#43,.T.);
#397=EDGE_CURVE('',#478,#457,#44,.T.);
#398=EDGE_CURVE('',#478,#479,#45,.T.);
#399=EDGE_CURVE('',#479,#456,#46,.T.);
#400=EDGE_CURVE('',#478,#420,#47,.T.);
#401=EDGE_CURVE('',#479,#421,#48,.T.);
#402=VERTEX_POINT('',#1158);
#403=VERTEX_POINT('',#1160);
#404=VERTEX_POINT('',#1173);
#405=VERTEX_POINT('',#1185);
#406=VERTEX_POINT('',#1198);
#407=VERTEX_POINT('',#1210);
#408=VERTEX_POINT('',#1213);
#409=VERTEX_POINT('',#1215);
#410=VERTEX_POINT('',#1217);
#411=VERTEX_POINT('',#1219);
#412=VERTEX_POINT('',#1221);
#413=VERTEX_POINT('',#1223);
#414=VERTEX_POINT('',#1225);
#415=VERTEX_POINT('',#1227);
#416=VERTEX_POINT('',#1229);
#417=VERTEX_POINT('',#1231);
#418=VERTEX_POINT('',#1233);
#419=VERTEX_POINT('',#1235);
#420=VERTEX_POINT('',#1237);
#421=VERTEX_POINT('',#1238);
#422=VERTEX_POINT('',#1240);
#423=VERTEX_POINT('',#1242);
#424=VERTEX_POINT('',#1244);
#425=VERTEX_POINT('',#1246);
#426=VERTEX_POINT('',#1248);
#427=VERTEX_POINT('',#1250);
#428=VERTEX_POINT('',#1254);
#429=VERTEX_POINT('',#1256);
#430=VERTEX_POINT('',#1259);
#431=VERTEX_POINT('',#1261);
#432=VERTEX_POINT('',#1264);
#433=VERTEX_POINT('',#1266);
#434=VERTEX_POINT('',#1269);
#435=VERTEX_POINT('',#1271);
#436=VERTEX_POINT('',#1272);
#437=VERTEX_POINT('',#1274);
#438=VERTEX_POINT('',#1279);
#439=VERTEX_POINT('',#1283);
#440=VERTEX_POINT('',#1285);
#441=VERTEX_POINT('',#1286);
#442=VERTEX_POINT('',#1288);
#443=VERTEX_POINT('',#1293);
#444=VERTEX_POINT('',#1297);
#445=VERTEX_POINT('',#1299);
#446=VERTEX_POINT('',#1300);
#447=VERTEX_POINT('',#1302);
#448=VERTEX_POINT('',#1307);
#449=VERTEX_POINT('',#1311);
#450=VERTEX_POINT('',#1313);
#451=VERTEX_POINT('',#1314);
#452=VERTEX_POINT('',#1316);
#453=VERTEX_POINT('',#1321);
#454=VERTEX_POINT('',#1325);
#455=VERTEX_POINT('',#1327);
#456=VERTEX_POINT('',#1331);
#457=VERTEX_POINT('',#1332);
#458=VERTEX_POINT('',#1335);
#459=VERTEX_POINT('',#1340);
#460=VERTEX_POINT('',#1343);
#461=VERTEX_POINT('',#1345);
#462=VERTEX_POINT('',#1347);
#463=VERTEX_POINT('',#1349);
#464=VERTEX_POINT('',#1351);
#465=VERTEX_POINT('',#1353);
#466=VERTEX_POINT('',#1355);
#467=VERTEX_POINT('',#1357);
#468=VERTEX_POINT('',#1359);
#469=VERTEX_POINT('',#1362);
#470=VERTEX_POINT('',#1387);
#471=VERTEX_POINT('',#1412);
#472=VERTEX_POINT('',#1437);
#473=VERTEX_POINT('',#1439);
#474=VERTEX_POINT('',#1469);
#475=VERTEX_POINT('',#1476);
#476=VERTEX_POINT('',#1489);
#477=VERTEX_POINT('',#1493);
#478=VERTEX_POINT('',#1510);
#479=VERTEX_POINT('',#1512);
#480=CIRCLE('',#836,4.25893041790531);
#481=CIRCLE('',#837,4.4);
#482=CIRCLE('',#841,4.25893041790531);
#483=CIRCLE('',#842,0.025);
#484=CIRCLE('',#843,0.5);
#485=CIRCLE('',#844,0.375);
#486=CIRCLE('',#845,0.15);
#487=CIRCLE('',#846,0.15);
#488=CIRCLE('',#847,0.15);
#489=CIRCLE('',#848,0.15);
#490=CIRCLE('',#849,0.15);
#491=CIRCLE('',#850,0.15);
#492=CIRCLE('',#851,0.15);
#493=CIRCLE('',#852,0.15);
#494=CIRCLE('',#854,0.025198892118345);
#495=CIRCLE('',#855,0.025198892118345);
#496=CIRCLE('',#857,0.37);
#497=CIRCLE('',#858,0.37);
#498=CIRCLE('',#860,0.37);
#499=CIRCLE('',#861,0.37);
#500=CIRCLE('',#863,0.1);
#501=CIRCLE('',#865,0.1);
#502=CIRCLE('',#867,0.1);
#503=CIRCLE('',#869,0.1);
#504=CIRCLE('',#873,0.025);
#505=CIRCLE('',#875,0.15);
#506=CIRCLE('',#876,0.15);
#507=CIRCLE('',#877,0.15);
#508=CIRCLE('',#878,0.15);
#509=CIRCLE('',#879,0.15);
#510=CIRCLE('',#880,0.15);
#511=CIRCLE('',#881,0.15);
#512=CIRCLE('',#882,0.15);
#513=CIRCLE('',#883,4.14460368256671);
#514=CIRCLE('',#885,4.7);
#515=CIRCLE('',#886,4.64718014437437);
#516=CIRCLE('',#887,4.69383324032636);
#517=CIRCLE('',#888,4.64718014437437);
#518=CIRCLE('',#889,4.69383324032636);
#519=CIRCLE('',#891,4.14460368256671);
#520=CIRCLE('',#893,4.14460368256671);
#521=CIRCLE('',#895,4.4);
#522=CIRCLE('',#897,4.14460368256671);
#523=CIRCLE('',#899,4.14460368256671);
#524=CIRCLE('',#907,0.5);
#525=CIRCLE('',#910,0.375);
#526=EDGE_LOOP('',(#120));
#527=EDGE_LOOP('',(#121));
#528=EDGE_LOOP('',(#122));
#529=EDGE_LOOP('',(#123));
#530=EDGE_LOOP('',(#124));
#531=EDGE_LOOP('',(#125));
#532=EDGE_LOOP('',(#126));
#533=EDGE_LOOP('',(#127));
#534=EDGE_LOOP('',(#128));
#535=EDGE_LOOP('',(#129));
#536=EDGE_LOOP('',(#130));
#537=EDGE_LOOP('',(#131));
#538=EDGE_LOOP('',(#132));
#539=EDGE_LOOP('',(#133));
#540=EDGE_LOOP('',(#134));
#541=EDGE_LOOP('',(#135));
#542=EDGE_LOOP('',(#136));
#543=EDGE_LOOP('',(#137));
#544=EDGE_LOOP('',(#138,#139,#140,#141,#142,#143,#144,#145));
#545=EDGE_LOOP('',(#146));
#546=EDGE_LOOP('',(#147));
#547=EDGE_LOOP('',(#148));
#548=EDGE_LOOP('',(#149));
#549=EDGE_LOOP('',(#150));
#550=EDGE_LOOP('',(#151));
#551=EDGE_LOOP('',(#152));
#552=EDGE_LOOP('',(#153,#154,#155,#156));
#553=EDGE_LOOP('',(#157));
#554=EDGE_LOOP('',(#158,#159,#160,#161));
#555=EDGE_LOOP('',(#162));
#556=EDGE_LOOP('',(#163,#164,#165,#166));
#557=EDGE_LOOP('',(#167));
#558=EDGE_LOOP('',(#168,#169,#170,#171));
#559=EDGE_LOOP('',(#172,#173,#174,#175));
#560=EDGE_LOOP('',(#176,#177,#178,#179,#180,#181,#182,#183));
#561=EDGE_LOOP('',(#184));
#562=EDGE_LOOP('',(#185));
#563=EDGE_LOOP('',(#186));
#564=EDGE_LOOP('',(#187));
#565=EDGE_LOOP('',(#188));
#566=EDGE_LOOP('',(#189));
#567=EDGE_LOOP('',(#190));
#568=EDGE_LOOP('',(#191));
#569=EDGE_LOOP('',(#192));
#570=EDGE_LOOP('',(#193));
#571=EDGE_LOOP('',(#194));
#572=EDGE_LOOP('',(#195));
#573=EDGE_LOOP('',(#196,#197,#198,#199));
#574=EDGE_LOOP('',(#200));
#575=EDGE_LOOP('',(#201));
#576=EDGE_LOOP('',(#202));
#577=EDGE_LOOP('',(#203));
#578=EDGE_LOOP('',(#204));
#579=EDGE_LOOP('',(#205));
#580=EDGE_LOOP('',(#206));
#581=EDGE_LOOP('',(#207,#208,#209,#210,#211,#212,#213,#214));
#582=EDGE_LOOP('',(#215));
#583=EDGE_LOOP('',(#216,#217,#218,#219));
#584=EDGE_LOOP('',(#220,#221,#222,#223));
#585=EDGE_LOOP('',(#224));
#586=EDGE_LOOP('',(#225));
#587=EDGE_LOOP('',(#226,#227,#228,#229));
#588=EDGE_LOOP('',(#230,#231,#232,#233));
#589=EDGE_LOOP('',(#234));
#590=EDGE_LOOP('',(#235));
#591=EDGE_LOOP('',(#236));
#592=EDGE_LOOP('',(#237));
#593=EDGE_LOOP('',(#238));
#594=EDGE_LOOP('',(#239));
#595=EDGE_LOOP('',(#240));
#596=EDGE_LOOP('',(#241));
#597=EDGE_LOOP('',(#242));
#598=EDGE_LOOP('',(#243));
#599=EDGE_LOOP('',(#244));
#600=EDGE_LOOP('',(#245));
#601=EDGE_LOOP('',(#246));
#602=EDGE_LOOP('',(#247,#248,#249,#250,#251,#252,#253,#254));
#603=EDGE_LOOP('',(#255));
#604=EDGE_LOOP('',(#256));
#605=EDGE_LOOP('',(#257));
#606=EDGE_LOOP('',(#258));
#607=EDGE_LOOP('',(#259));
#608=EDGE_LOOP('',(#260));
#609=EDGE_LOOP('',(#261));
#610=EDGE_LOOP('',(#262));
#611=EDGE_LOOP('',(#263));
#612=EDGE_LOOP('',(#264));
#613=EDGE_LOOP('',(#265));
#614=EDGE_LOOP('',(#266));
#615=EDGE_LOOP('',(#267));
#616=EDGE_LOOP('',(#268));
#617=EDGE_LOOP('',(#269));
#618=EDGE_LOOP('',(#270));
#619=EDGE_LOOP('',(#271));
#620=EDGE_LOOP('',(#272));
#621=EDGE_LOOP('',(#273));
#622=EDGE_LOOP('',(#274));
#623=EDGE_LOOP('',(#275));
#624=EDGE_LOOP('',(#276));
#625=EDGE_LOOP('',(#277));
#626=EDGE_LOOP('',(#278));
#627=EDGE_LOOP('',(#279,#280,#281,#282));
#628=EDGE_LOOP('',(#283,#284,#285,#286));
#629=EDGE_LOOP('',(#287,#288,#289,#290));
#630=EDGE_LOOP('',(#291));
#631=EDGE_LOOP('',(#292,#293,#294,#295));
#632=EDGE_LOOP('',(#296,#297,#298,#299));
#633=EDGE_LOOP('',(#300,#301,#302,#303));
#634=EDGE_LOOP('',(#304));
#635=EDGE_LOOP('',(#305));
#636=EDGE_LOOP('',(#306));
#637=EDGE_LOOP('',(#307));
#638=FACE_BOUND('',#526,.T.);
#639=FACE_BOUND('',#527,.T.);
#640=FACE_BOUND('',#528,.T.);
#641=FACE_BOUND('',#529,.T.);
#642=FACE_BOUND('',#530,.T.);
#643=FACE_BOUND('',#531,.T.);
#644=FACE_BOUND('',#532,.T.);
#645=FACE_BOUND('',#533,.T.);
#646=FACE_BOUND('',#534,.T.);
#647=FACE_BOUND('',#535,.T.);
#648=FACE_BOUND('',#536,.T.);
#649=FACE_BOUND('',#537,.T.);
#650=FACE_BOUND('',#538,.T.);
#651=FACE_BOUND('',#539,.T.);
#652=FACE_BOUND('',#540,.T.);
#653=FACE_BOUND('',#541,.T.);
#654=FACE_BOUND('',#542,.T.);
#655=FACE_BOUND('',#543,.T.);
#656=FACE_BOUND('',#544,.T.);
#657=FACE_BOUND('',#545,.T.);
#658=FACE_BOUND('',#546,.T.);
#659=FACE_BOUND('',#547,.T.);
#660=FACE_BOUND('',#548,.T.);
#661=FACE_BOUND('',#549,.T.);
#662=FACE_BOUND('',#550,.T.);
#663=FACE_BOUND('',#551,.T.);
#664=FACE_BOUND('',#552,.T.);
#665=FACE_BOUND('',#553,.T.);
#666=FACE_BOUND('',#554,.T.);
#667=FACE_BOUND('',#555,.T.);
#668=FACE_BOUND('',#556,.T.);
#669=FACE_BOUND('',#557,.T.);
#670=FACE_BOUND('',#558,.T.);
#671=FACE_BOUND('',#559,.T.);
#672=FACE_BOUND('',#560,.T.);
#673=FACE_BOUND('',#561,.T.);
#674=FACE_BOUND('',#562,.T.);
#675=FACE_BOUND('',#563,.T.);
#676=FACE_BOUND('',#564,.T.);
#677=FACE_BOUND('',#565,.T.);
#678=FACE_BOUND('',#566,.T.);
#679=FACE_BOUND('',#567,.T.);
#680=FACE_BOUND('',#568,.T.);
#681=FACE_BOUND('',#569,.T.);
#682=FACE_BOUND('',#570,.T.);
#683=FACE_BOUND('',#571,.T.);
#684=FACE_BOUND('',#572,.T.);
#685=FACE_BOUND('',#573,.T.);
#686=FACE_BOUND('',#574,.T.);
#687=FACE_BOUND('',#575,.T.);
#688=FACE_BOUND('',#576,.T.);
#689=FACE_BOUND('',#577,.T.);
#690=FACE_BOUND('',#578,.T.);
#691=FACE_BOUND('',#579,.T.);
#692=FACE_BOUND('',#580,.T.);
#693=FACE_BOUND('',#581,.T.);
#694=FACE_BOUND('',#582,.T.);
#695=FACE_BOUND('',#583,.T.);
#696=FACE_BOUND('',#584,.T.);
#697=FACE_BOUND('',#585,.T.);
#698=FACE_BOUND('',#586,.T.);
#699=FACE_BOUND('',#587,.T.);
#700=FACE_BOUND('',#588,.T.);
#701=FACE_BOUND('',#589,.T.);
#702=FACE_BOUND('',#590,.T.);
#703=FACE_BOUND('',#591,.T.);
#704=FACE_BOUND('',#592,.T.);
#705=FACE_BOUND('',#593,.T.);
#706=FACE_BOUND('',#594,.T.);
#707=FACE_BOUND('',#595,.T.);
#708=FACE_BOUND('',#596,.T.);
#709=FACE_BOUND('',#597,.T.);
#710=FACE_BOUND('',#598,.T.);
#711=FACE_BOUND('',#599,.T.);
#712=FACE_BOUND('',#600,.T.);
#713=FACE_BOUND('',#601,.T.);
#714=FACE_BOUND('',#602,.T.);
#715=FACE_BOUND('',#603,.T.);
#716=FACE_BOUND('',#604,.T.);
#717=FACE_BOUND('',#605,.T.);
#718=FACE_BOUND('',#606,.T.);
#719=FACE_BOUND('',#607,.T.);
#720=FACE_BOUND('',#608,.T.);
#721=FACE_BOUND('',#609,.T.);
#722=FACE_BOUND('',#610,.T.);
#723=FACE_BOUND('',#611,.T.);
#724=FACE_BOUND('',#612,.T.);
#725=FACE_BOUND('',#613,.T.);
#726=FACE_BOUND('',#614,.T.);
#727=FACE_BOUND('',#615,.T.);
#728=FACE_BOUND('',#616,.T.);
#729=FACE_BOUND('',#617,.T.);
#730=FACE_BOUND('',#618,.T.);
#731=FACE_BOUND('',#619,.T.);
#732=FACE_BOUND('',#620,.T.);
#733=FACE_BOUND('',#621,.T.);
#734=FACE_BOUND('',#622,.T.);
#735=FACE_BOUND('',#623,.T.);
#736=FACE_BOUND('',#624,.T.);
#737=FACE_BOUND('',#625,.T.);
#738=FACE_BOUND('',#626,.T.);
#739=FACE_BOUND('',#627,.T.);
#740=FACE_BOUND('',#628,.T.);
#741=FACE_BOUND('',#629,.T.);
#742=FACE_BOUND('',#630,.T.);
#743=FACE_BOUND('',#631,.T.);
#744=FACE_BOUND('',#632,.T.);
#745=FACE_BOUND('',#633,.T.);
#746=FACE_BOUND('',#634,.T.);
#747=FACE_BOUND('',#635,.T.);
#748=FACE_BOUND('',#636,.T.);
#749=FACE_BOUND('',#637,.T.);
#750=PLANE('',#835);
#751=PLANE('',#840);
#752=PLANE('',#862);
#753=PLANE('',#864);
#754=PLANE('',#866);
#755=PLANE('',#868);
#756=PLANE('',#870);
#757=PLANE('',#871);
#758=PLANE('',#874);
#759=PLANE('',#890);
#760=PLANE('',#892);
#761=PLANE('',#894);
#762=PLANE('',#896);
#763=PLANE('',#898);
#764=PLANE('',#906);
#765=PLANE('',#909);
#766=PLANE('',#912);
#767=PLANE('',#913);
#768=PLANE('',#922);
#769=PLANE('',#923);
#770=PLANE('',#924);
#771=PLANE('',#925);
#772=PLANE('',#926);
#773=PLANE('',#927);
#774=ADVANCED_FACE('',(#638,#639),#750,.F.);
#775=ADVANCED_FACE('',(#640,#641),#97,.F.);
#776=ADVANCED_FACE('',(#642,#643),#98,.F.);
#777=ADVANCED_FACE('',(#644,#645,#646,#647,#648,#649,#650,#651,#652,#653,
#654,#655,#656),#751,.T.);
#778=ADVANCED_FACE('',(#657,#658),#99,.F.);
#779=ADVANCED_FACE('',(#659,#660),#100,.F.);
#780=ADVANCED_FACE('',(#661,#662),#101,.F.);
#781=ADVANCED_FACE('',(#663,#664),#752,.F.);
#782=ADVANCED_FACE('',(#665,#666),#753,.F.);
#783=ADVANCED_FACE('',(#667,#668),#754,.F.);
#784=ADVANCED_FACE('',(#669,#670),#755,.F.);
#785=ADVANCED_FACE('',(#671),#756,.T.);
#786=ADVANCED_FACE('',(#672),#757,.F.);
#787=ADVANCED_FACE('',(#673,#674),#102,.F.);
#788=ADVANCED_FACE('',(#675,#676,#677,#678,#679,#680,#681,#682,#683,#684,
#685,#686,#687,#688),#758,.F.);
#789=ADVANCED_FACE('',(#689,#690,#691,#692,#693,#694),#12,.F.);
#790=ADVANCED_FACE('',(#695),#759,.F.);
#791=ADVANCED_FACE('',(#696),#760,.F.);
#792=ADVANCED_FACE('',(#697,#698),#761,.T.);
#793=ADVANCED_FACE('',(#699),#762,.F.);
#794=ADVANCED_FACE('',(#700),#763,.F.);
#795=ADVANCED_FACE('',(#701,#702),#103,.F.);
#796=ADVANCED_FACE('',(#703,#704),#104,.F.);
#797=ADVANCED_FACE('',(#705,#706),#105,.F.);
#798=ADVANCED_FACE('',(#707,#708),#106,.F.);
#799=ADVANCED_FACE('',(#709,#710,#711,#712),#107,.F.);
#800=ADVANCED_FACE('',(#713,#714),#108,.F.);
#801=ADVANCED_FACE('',(#715),#764,.T.);
#802=ADVANCED_FACE('',(#716,#717),#109,.T.);
#803=ADVANCED_FACE('',(#718),#765,.T.);
#804=ADVANCED_FACE('',(#719,#720),#110,.T.);
#805=ADVANCED_FACE('',(#721),#766,.F.);
#806=ADVANCED_FACE('',(#722),#767,.F.);
#807=ADVANCED_FACE('',(#723,#724),#111,.F.);
#808=ADVANCED_FACE('',(#725,#726),#112,.F.);
#809=ADVANCED_FACE('',(#727,#728),#113,.F.);
#810=ADVANCED_FACE('',(#729,#730),#114,.F.);
#811=ADVANCED_FACE('',(#731,#732),#115,.F.);
#812=ADVANCED_FACE('',(#733,#734),#116,.F.);
#813=ADVANCED_FACE('',(#735,#736),#117,.F.);
#814=ADVANCED_FACE('',(#737,#738),#118,.F.);
#815=ADVANCED_FACE('',(#739),#768,.F.);
#816=ADVANCED_FACE('',(#740),#769,.T.);
#817=ADVANCED_FACE('',(#741,#742),#770,.T.);
#818=ADVANCED_FACE('',(#743),#771,.T.);
#819=ADVANCED_FACE('',(#744),#772,.F.);
#820=ADVANCED_FACE('',(#745),#773,.F.);
#821=ADVANCED_FACE('',(#746,#747,#748,#749),#119,.T.);
#822=CLOSED_SHELL('',(#774,#775,#776,#777,#778,#779,#780,#781,#782,#783,
#784,#785,#786,#787,#788,#789,#790,#791,#792,#793,#794,#795,#796,#797,#798,
#799,#800,#801,#802,#803,#804,#805,#806,#807,#808,#809,#810,#811,#812,#813,
#814,#815,#816,#817,#818,#819,#820,#821));
#823=STYLED_ITEM('',(#824),#831);
#824=PRESENTATION_STYLE_ASSIGNMENT((#825));
#825=SURFACE_STYLE_USAGE(.BOTH.,#826);
#826=SURFACE_SIDE_STYLE('',(#827));
#827=SURFACE_STYLE_FILL_AREA(#828);
#828=FILL_AREA_STYLE('',(#829));
#829=FILL_AREA_STYLE_COLOUR('',#830);
#830=COLOUR_RGB('',0.972549019607843,0.529411764705882,0.00392156862745098);
#831=MANIFOLD_SOLID_BREP('Nose base',#822);
#832=SHAPE_DEFINITION_REPRESENTATION(#1526,#833);
#833=SHAPE_REPRESENTATION('Nose base',(#834),#1521);
#834=AXIS2_PLACEMENT_3D('',#1155,#929,#930);
#835=AXIS2_PLACEMENT_3D('',#1156,#931,#932);
#836=AXIS2_PLACEMENT_3D('',#1157,#933,#934);
#837=AXIS2_PLACEMENT_3D('',#1159,#935,#936);
#838=AXIS2_PLACEMENT_3D('',#1161,#937,#938);
#839=AXIS2_PLACEMENT_3D('',#1186,#939,#940);
#840=AXIS2_PLACEMENT_3D('',#1211,#941,#942);
#841=AXIS2_PLACEMENT_3D('',#1212,#943,#944);
#842=AXIS2_PLACEMENT_3D('',#1214,#945,#946);
#843=AXIS2_PLACEMENT_3D('',#1216,#947,#948);
#844=AXIS2_PLACEMENT_3D('',#1218,#949,#950);
#845=AXIS2_PLACEMENT_3D('',#1220,#951,#952);
#846=AXIS2_PLACEMENT_3D('',#1222,#953,#954);
#847=AXIS2_PLACEMENT_3D('',#1224,#955,#956);
#848=AXIS2_PLACEMENT_3D('',#1226,#957,#958);
#849=AXIS2_PLACEMENT_3D('',#1228,#959,#960);
#850=AXIS2_PLACEMENT_3D('',#1230,#961,#962);
#851=AXIS2_PLACEMENT_3D('',#1232,#963,#964);
#852=AXIS2_PLACEMENT_3D('',#1234,#965,#966);
#853=AXIS2_PLACEMENT_3D('',#1252,#975,#976);
#854=AXIS2_PLACEMENT_3D('',#1253,#977,#978);
#855=AXIS2_PLACEMENT_3D('',#1255,#979,#980);
#856=AXIS2_PLACEMENT_3D('',#1257,#981,#982);
#857=AXIS2_PLACEMENT_3D('',#1258,#983,#984);
#858=AXIS2_PLACEMENT_3D('',#1260,#985,#986);
#859=AXIS2_PLACEMENT_3D('',#1262,#987,#988);
#860=AXIS2_PLACEMENT_3D('',#1263,#989,#990);
#861=AXIS2_PLACEMENT_3D('',#1265,#991,#992);
#862=AXIS2_PLACEMENT_3D('',#1267,#993,#994);
#863=AXIS2_PLACEMENT_3D('',#1268,#995,#996);
#864=AXIS2_PLACEMENT_3D('',#1281,#1000,#1001);
#865=AXIS2_PLACEMENT_3D('',#1282,#1002,#1003);
#866=AXIS2_PLACEMENT_3D('',#1295,#1007,#1008);
#867=AXIS2_PLACEMENT_3D('',#1296,#1009,#1010);
#868=AXIS2_PLACEMENT_3D('',#1309,#1014,#1015);
#869=AXIS2_PLACEMENT_3D('',#1310,#1016,#1017);
#870=AXIS2_PLACEMENT_3D('',#1323,#1021,#1022);
#871=AXIS2_PLACEMENT_3D('',#1329,#1026,#1027);
#872=AXIS2_PLACEMENT_3D('',#1338,#1033,#1034);
#873=AXIS2_PLACEMENT_3D('',#1339,#1035,#1036);
#874=AXIS2_PLACEMENT_3D('',#1341,#1037,#1038);
#875=AXIS2_PLACEMENT_3D('',#1342,#1039,#1040);
#876=AXIS2_PLACEMENT_3D('',#1344,#1041,#1042);
#877=AXIS2_PLACEMENT_3D('',#1346,#1043,#1044);
#878=AXIS2_PLACEMENT_3D('',#1348,#1045,#1046);
#879=AXIS2_PLACEMENT_3D('',#1350,#1047,#1048);
#880=AXIS2_PLACEMENT_3D('',#1352,#1049,#1050);
#881=AXIS2_PLACEMENT_3D('',#1354,#1051,#1052);
#882=AXIS2_PLACEMENT_3D('',#1356,#1053,#1054);
#883=AXIS2_PLACEMENT_3D('',#1361,#1057,#1058);
#884=AXIS2_PLACEMENT_3D('',#1363,#1059,#1060);
#885=AXIS2_PLACEMENT_3D('',#1438,#1061,#1062);
#886=AXIS2_PLACEMENT_3D('',#1440,#1063,#1064);
#887=AXIS2_PLACEMENT_3D('',#1441,#1065,#1066);
#888=AXIS2_PLACEMENT_3D('',#1442,#1067,#1068);
#889=AXIS2_PLACEMENT_3D('',#1443,#1069,#1070);
#890=AXIS2_PLACEMENT_3D('',#1470,#1071,#1072);
#891=AXIS2_PLACEMENT_3D('',#1471,#1073,#1074);
#892=AXIS2_PLACEMENT_3D('',#1472,#1075,#1076);
#893=AXIS2_PLACEMENT_3D('',#1473,#1077,#1078);
#894=AXIS2_PLACEMENT_3D('',#1474,#1079,#1080);
#895=AXIS2_PLACEMENT_3D('',#1475,#1081,#1082);
#896=AXIS2_PLACEMENT_3D('',#1477,#1083,#1084);
#897=AXIS2_PLACEMENT_3D('',#1478,#1085,#1086);
#898=AXIS2_PLACEMENT_3D('',#1479,#1087,#1088);
#899=AXIS2_PLACEMENT_3D('',#1480,#1089,#1090);
#900=AXIS2_PLACEMENT_3D('',#1481,#1091,#1092);
#901=AXIS2_PLACEMENT_3D('',#1482,#1093,#1094);
#902=AXIS2_PLACEMENT_3D('',#1483,#1095,#1096);
#903=AXIS2_PLACEMENT_3D('',#1484,#1097,#1098);
#904=AXIS2_PLACEMENT_3D('',#1485,#1099,#1100);
#905=AXIS2_PLACEMENT_3D('',#1486,#1101,#1102);
#906=AXIS2_PLACEMENT_3D('',#1487,#1103,#1104);
#907=AXIS2_PLACEMENT_3D('',#1488,#1105,#1106);
#908=AXIS2_PLACEMENT_3D('',#1490,#1107,#1108);
#909=AXIS2_PLACEMENT_3D('',#1491,#1109,#1110);
#910=AXIS2_PLACEMENT_3D('',#1492,#1111,#1112);
#911=AXIS2_PLACEMENT_3D('',#1494,#1113,#1114);
#912=AXIS2_PLACEMENT_3D('',#1495,#1115,#1116);
#913=AXIS2_PLACEMENT_3D('',#1496,#1117,#1118);
#914=AXIS2_PLACEMENT_3D('',#1497,#1119,#1120);
#915=AXIS2_PLACEMENT_3D('',#1498,#1121,#1122);
#916=AXIS2_PLACEMENT_3D('',#1499,#1123,#1124);
#917=AXIS2_PLACEMENT_3D('',#1500,#1125,#1126);
#918=AXIS2_PLACEMENT_3D('',#1501,#1127,#1128);
#919=AXIS2_PLACEMENT_3D('',#1502,#1129,#1130);
#920=AXIS2_PLACEMENT_3D('',#1503,#1131,#1132);
#921=AXIS2_PLACEMENT_3D('',#1504,#1133,#1134);
#922=AXIS2_PLACEMENT_3D('',#1505,#1135,#1136);
#923=AXIS2_PLACEMENT_3D('',#1507,#1138,#1139);
#924=AXIS2_PLACEMENT_3D('',#1508,#1140,#1141);
#925=AXIS2_PLACEMENT_3D('',#1514,#1145,#1146);
#926=AXIS2_PLACEMENT_3D('',#1516,#1148,#1149);
#927=AXIS2_PLACEMENT_3D('',#1518,#1151,#1152);
#928=AXIS2_PLACEMENT_3D('',#1519,#1153,#1154);
#929=DIRECTION('',(0.,0.,1.));
#930=DIRECTION('',(1.,0.,0.));
#931=DIRECTION('',(0.,0.,1.));
#932=DIRECTION('',(1.,0.,0.));
#933=DIRECTION('',(0.,0.,-1.));
#934=DIRECTION('',(-1.,0.,0.));
#935=DIRECTION('',(0.,0.,-1.));
#936=DIRECTION('',(-1.,0.,0.));
#937=DIRECTION('',(1.,0.,0.));
#938=DIRECTION('',(0.,0.,-1.));
#939=DIRECTION('',(1.,0.,0.));
#940=DIRECTION('',(0.,0.,-1.));
#941=DIRECTION('',(0.,0.,-1.));
#942=DIRECTION('',(1.,0.,0.));
#943=DIRECTION('',(0.,0.,-1.));
#944=DIRECTION('',(-1.,0.,0.));
#945=DIRECTION('',(0.,0.,-1.));
#946=DIRECTION('',(-1.,0.,0.));
#947=DIRECTION('',(0.,0.,-1.));
#948=DIRECTION('',(-1.,0.,0.));
#949=DIRECTION('',(0.,0.,-1.));
#950=DIRECTION('',(-1.,0.,0.));
#951=DIRECTION('',(0.,0.,-1.));
#952=DIRECTION('',(-1.,0.,0.));
#953=DIRECTION('',(0.,0.,-1.));
#954=DIRECTION('',(-1.,0.,0.));
#955=DIRECTION('',(0.,0.,-1.));
#956=DIRECTION('',(-1.,0.,0.));
#957=DIRECTION('',(0.,0.,-1.));
#958=DIRECTION('',(-1.,0.,0.));
#959=DIRECTION('',(0.,0.,-1.));
#960=DIRECTION('',(-1.,0.,0.));
#961=DIRECTION('',(0.,0.,-1.));
#962=DIRECTION('',(-1.,0.,0.));
#963=DIRECTION('',(0.,0.,-1.));
#964=DIRECTION('',(-1.,0.,0.));
#965=DIRECTION('',(0.,0.,-1.));
#966=DIRECTION('',(-1.,0.,0.));
#967=DIRECTION('',(0.,1.,0.));
#968=DIRECTION('',(1.,0.,0.));
#969=DIRECTION('',(0.,-1.,0.));
#970=DIRECTION('',(-1.,0.,0.));
#971=DIRECTION('',(0.,1.,0.));
#972=DIRECTION('',(1.,0.,0.));
#973=DIRECTION('',(0.,-1.,0.));
#974=DIRECTION('',(1.,0.,0.));
#975=DIRECTION('',(0.,0.,1.));
#976=DIRECTION('',(1.,0.,0.));
#977=DIRECTION('',(0.,0.,1.));
#978=DIRECTION('',(1.,0.,0.));
#979=DIRECTION('',(0.,0.,-1.));
#980=DIRECTION('',(-1.,0.,0.));
#981=DIRECTION('',(0.,0.,1.));
#982=DIRECTION('',(1.,0.,0.));
#983=DIRECTION('',(0.,0.,-1.));
#984=DIRECTION('',(-1.,0.,0.));
#985=DIRECTION('',(0.,0.,-1.));
#986=DIRECTION('',(-1.,0.,0.));
#987=DIRECTION('',(0.,0.,1.));
#988=DIRECTION('',(1.,0.,0.));
#989=DIRECTION('',(0.,0.,-1.));
#990=DIRECTION('',(-1.,0.,0.));
#991=DIRECTION('',(0.,0.,-1.));
#992=DIRECTION('',(-1.,0.,0.));
#993=DIRECTION('',(1.,0.,0.));
#994=DIRECTION('',(0.,0.,-1.));
#995=DIRECTION('',(1.,0.,0.));
#996=DIRECTION('',(0.,0.,-1.));
#997=DIRECTION('',(0.,0.,-1.));
#998=DIRECTION('',(0.,-1.,0.));
#999=DIRECTION('',(0.,1.,0.));
#1000=DIRECTION('',(-1.,0.,0.));
#1001=DIRECTION('',(0.,0.,1.));
#1002=DIRECTION('',(-1.,0.,0.));
#1003=DIRECTION('',(0.,0.,1.));
#1004=DIRECTION('',(0.,0.,-1.));
#1005=DIRECTION('',(0.,1.,0.));
#1006=DIRECTION('',(0.,1.,0.));
#1007=DIRECTION('',(1.,0.,0.));
#1008=DIRECTION('',(0.,0.,-1.));
#1009=DIRECTION('',(1.,0.,0.));
#1010=DIRECTION('',(0.,0.,-1.));
#1011=DIRECTION('',(0.,0.,-1.));
#1012=DIRECTION('',(0.,-1.,0.));
#1013=DIRECTION('',(0.,1.,0.));
#1014=DIRECTION('',(-1.,0.,0.));
#1015=DIRECTION('',(0.,0.,1.));
#1016=DIRECTION('',(-1.,0.,0.));
#1017=DIRECTION('',(0.,0.,1.));
#1018=DIRECTION('',(0.,0.,-1.));
#1019=DIRECTION('',(0.,-1.,0.));
#1020=DIRECTION('',(0.,-1.,0.));
#1021=DIRECTION('',(0.,-1.,0.));
#1022=DIRECTION('',(0.,0.,-1.));
#1023=DIRECTION('',(0.,0.,1.));
#1024=DIRECTION('',(0.,0.,1.));
#1025=DIRECTION('',(1.,0.,0.));
#1026=DIRECTION('',(-1.,0.,0.));
#1027=DIRECTION('',(0.,0.,1.));
#1028=DIRECTION('',(0.,-1.,0.));
#1029=DIRECTION('',(0.,0.,-1.));
#1030=DIRECTION('',(0.,-1.,0.));
#1031=DIRECTION('',(0.,0.,1.));
#1032=DIRECTION('',(0.,0.,-1.));
#1033=DIRECTION('',(0.,0.,1.));
#1034=DIRECTION('',(1.,0.,0.));
#1035=DIRECTION('',(0.,0.,1.));
#1036=DIRECTION('',(1.,0.,0.));
#1037=DIRECTION('',(0.,0.,-1.));
#1038=DIRECTION('',(-1.,0.,0.));
#1039=DIRECTION('',(0.,0.,1.));
#1040=DIRECTION('',(1.,0.,0.));
#1041=DIRECTION('',(0.,0.,1.));
#1042=DIRECTION('',(1.,0.,0.));
#1043=DIRECTION('',(0.,0.,1.));
#1044=DIRECTION('',(1.,0.,0.));
#1045=DIRECTION('',(0.,0.,1.));
#1046=DIRECTION('',(1.,0.,0.));
#1047=DIRECTION('',(0.,0.,1.));
#1048=DIRECTION('',(1.,0.,0.));
#1049=DIRECTION('',(0.,0.,1.));
#1050=DIRECTION('',(1.,0.,0.));
#1051=DIRECTION('',(0.,0.,1.));
#1052=DIRECTION('',(1.,0.,0.));
#1053=DIRECTION('',(0.,0.,1.));
#1054=DIRECTION('',(1.,0.,0.));
#1055=DIRECTION('',(0.,-1.,0.));
#1056=DIRECTION('',(1.,0.,0.));
#1057=DIRECTION('',(0.,0.,1.));
#1058=DIRECTION('',(1.,0.,0.));
#1059=DIRECTION('',(0.,0.,-1.));
#1060=DIRECTION('',(-1.,0.,0.));
#1061=DIRECTION('',(0.,0.,-1.));
#1062=DIRECTION('',(-1.,0.,0.));
#1063=DIRECTION('',(0.,0.,-1.));
#1064=DIRECTION('',(-1.,0.,0.));
#1065=DIRECTION('',(0.,0.,1.));
#1066=DIRECTION('',(1.,0.,0.));
#1067=DIRECTION('',(0.,0.,-1.));
#1068=DIRECTION('',(-1.,0.,0.));
#1069=DIRECTION('',(0.,0.,-1.));
#1070=DIRECTION('',(1.,0.,0.));
#1071=DIRECTION('',(0.,0.,-1.));
#1072=DIRECTION('',(-1.,0.,0.));
#1073=DIRECTION('',(0.,0.,-1.));
#1074=DIRECTION('',(-1.,0.,0.));
#1075=DIRECTION('',(0.,0.,-1.));
#1076=DIRECTION('',(-1.,0.,0.));
#1077=DIRECTION('',(0.,0.,-1.));
#1078=DIRECTION('',(-1.,0.,0.));
#1079=DIRECTION('',(0.,0.,-1.));
#1080=DIRECTION('',(-1.,0.,0.));
#1081=DIRECTION('',(0.,0.,-1.));
#1082=DIRECTION('',(-1.,0.,0.));
#1083=DIRECTION('',(0.,0.,-1.));
#1084=DIRECTION('',(-1.,0.,0.));
#1085=DIRECTION('',(0.,0.,-1.));
#1086=DIRECTION('',(-1.,0.,0.));
#1087=DIRECTION('',(0.,0.,-1.));
#1088=DIRECTION('',(-1.,0.,0.));
#1089=DIRECTION('',(0.,0.,-1.));
#1090=DIRECTION('',(-1.,0.,0.));
#1091=DIRECTION('',(1.,0.,0.));
#1092=DIRECTION('',(0.,0.,-1.));
#1093=DIRECTION('',(1.,0.,0.));
#1094=DIRECTION('',(0.,0.,-1.));
#1095=DIRECTION('',(-1.,0.,0.));
#1096=DIRECTION('',(0.,0.,1.));
#1097=DIRECTION('',(-1.,0.,0.));
#1098=DIRECTION('',(0.,0.,1.));
#1099=DIRECTION('',(0.,0.,-1.));
#1100=DIRECTION('',(-1.,0.,0.));
#1101=DIRECTION('',(0.,0.,-1.));
#1102=DIRECTION('',(-1.,0.,0.));
#1103=DIRECTION('',(0.,0.,-1.));
#1104=DIRECTION('',(1.,0.,0.));
#1105=DIRECTION('',(0.,0.,-1.));
#1106=DIRECTION('',(-1.,0.,0.));
#1107=DIRECTION('',(0.,0.,1.));
#1108=DIRECTION('',(1.,0.,0.));
#1109=DIRECTION('',(0.,0.,-1.));
#1110=DIRECTION('',(1.,0.,0.));
#1111=DIRECTION('',(0.,0.,-1.));
#1112=DIRECTION('',(-1.,0.,0.));
#1113=DIRECTION('',(0.,0.,1.));
#1114=DIRECTION('',(1.,0.,0.));
#1115=DIRECTION('',(0.,0.,-1.));
#1116=DIRECTION('',(1.,0.,0.));
#1117=DIRECTION('',(0.,0.,-1.));
#1118=DIRECTION('',(1.,0.,0.));
#1119=DIRECTION('',(0.,0.,1.));
#1120=DIRECTION('',(1.,0.,0.));
#1121=DIRECTION('',(0.,0.,1.));
#1122=DIRECTION('',(1.,0.,0.));
#1123=DIRECTION('',(0.,0.,1.));
#1124=DIRECTION('',(1.,0.,0.));
#1125=DIRECTION('',(0.,0.,1.));
#1126=DIRECTION('',(1.,0.,0.));
#1127=DIRECTION('',(0.,0.,1.));
#1128=DIRECTION('',(1.,0.,0.));
#1129=DIRECTION('',(0.,0.,1.));
#1130=DIRECTION('',(1.,0.,0.));
#1131=DIRECTION('',(0.,0.,1.));
#1132=DIRECTION('',(1.,0.,0.));
#1133=DIRECTION('',(0.,0.,1.));
#1134=DIRECTION('',(1.,0.,0.));
#1135=DIRECTION('',(0.,-1.,0.));
#1136=DIRECTION('',(0.,0.,-1.));
#1137=DIRECTION('',(0.,0.,1.));
#1138=DIRECTION('',(-1.,0.,0.));
#1139=DIRECTION('',(0.,0.,1.));
#1140=DIRECTION('',(0.,0.,-1.));
#1141=DIRECTION('',(1.,0.,0.));
#1142=DIRECTION('',(1.,0.,0.));
#1143=DIRECTION('',(0.,1.,0.));
#1144=DIRECTION('',(1.,0.,0.));
#1145=DIRECTION('',(0.,1.,0.));
#1146=DIRECTION('',(0.,0.,1.));
#1147=DIRECTION('',(0.,0.,-1.));
#1148=DIRECTION('',(-1.,0.,0.));
#1149=DIRECTION('',(0.,0.,1.));
#1150=DIRECTION('',(0.,0.,-1.));
#1151=DIRECTION('',(0.,1.,0.));
#1152=DIRECTION('',(0.,0.,1.));
#1153=DIRECTION('',(0.,0.,-1.));
#1154=DIRECTION('',(-1.,0.,0.));
#1155=CARTESIAN_POINT('',(0.,0.,0.));
#1156=CARTESIAN_POINT('',(0.,0.,40.));
#1157=CARTESIAN_POINT('',(0.,-2.30168105225267E-16,40.));
#1158=CARTESIAN_POINT('',(-4.25893041790531,-2.30168105225267E-16,40.));
#1159=CARTESIAN_POINT('',(0.,-2.69422295812418E-16,40.));
#1160=CARTESIAN_POINT('',(-4.4,-2.69422295812418E-16,40.));
#1161=CARTESIAN_POINT('',(-95.3859295169032,-0.121458736248314,43.2117432355881));
#1162=CARTESIAN_POINT('',(4.25931902831171,0.0197865190722648,43.0708113560151));
#1163=CARTESIAN_POINT('',(4.25814951785009,-0.121523651069093,43.0122352873415));
#1164=CARTESIAN_POINT('',(4.25127179435769,-0.262444332285778,43.070706908147));
#1165=CARTESIAN_POINT('',(4.24673909188265,-0.320916933652496,43.2115114002471));
#1166=CARTESIAN_POINT('',(4.25125977780261,-0.262639860947919,43.3526784902905));
#1167=CARTESIAN_POINT('',(4.25814298949076,-0.121674556750482,43.4111854972717));
#1168=CARTESIAN_POINT('',(4.2593213296643,0.0193309372029692,43.3530382052829));
#1169=CARTESIAN_POINT('',(4.25813200199194,0.0780322593507552,43.2120358587108));
#1170=CARTESIAN_POINT('',(4.25931902831171,0.0197865190722648,43.0708113560151));
#1171=CARTESIAN_POINT('',(4.25814951785009,-0.121523651069093,43.0122352873415));
#1172=CARTESIAN_POINT('',(4.25127179435769,-0.262444332285778,43.070706908147));
#1173=CARTESIAN_POINT('',(4.25719814901163,-0.121458736248315,43.0317432355881));
#1174=CARTESIAN_POINT('',(4.40037614060083,0.0197843144830953,43.0708108333852));
#1175=CARTESIAN_POINT('',(4.39924416110253,-0.121521841900267,43.0122346205933));
#1176=CARTESIAN_POINT('',(4.39258696319632,-0.262449364371915,43.0707100977698));
#1177=CARTESIAN_POINT('',(4.38820063321419,-0.320916195558101,43.2115168803328));
#1178=CARTESIAN_POINT('',(4.39257580815628,-0.262637808270873,43.3526821707364));
#1179=CARTESIAN_POINT('',(4.39923812596151,-0.121662536786619,43.4111863033623));
#1180=CARTESIAN_POINT('',(4.40037828448897,0.0193360196941841,43.3530313632113));
#1181=CARTESIAN_POINT('',(4.39922721007882,0.0780315494702185,43.2120308821741));
#1182=CARTESIAN_POINT('',(4.40037614060083,0.0197843144830953,43.0708108333852));
#1183=CARTESIAN_POINT('',(4.39924416110253,-0.121521841900267,43.0122346205933));
#1184=CARTESIAN_POINT('',(4.39258696319632,-0.262449364371915,43.0707100977698));
#1185=CARTESIAN_POINT('',(4.39832329136786,-0.121458736248315,43.0317432355881));
#1186=CARTESIAN_POINT('',(-95.3859295169032,-0.121458736248314,43.2117432355881));
#1187=CARTESIAN_POINT('',(-4.25126386469527,-0.262590343186503,43.0707512127974));
#1188=CARTESIAN_POINT('',(-4.25815160305427,-0.121450770264911,43.0122357437168));
#1189=CARTESIAN_POINT('',(-4.25931861715738,0.0196410067562616,43.0707652258636));
#1190=CARTESIAN_POINT('',(-4.25813231133664,0.0779998418253493,43.2116776824486));
#1191=CARTESIAN_POINT('',(-4.25932048859143,0.0196071997547134,43.3528463917516));
#1192=CARTESIAN_POINT('',(-4.25814453446306,-0.121620443310853,43.4111861791861));
#1193=CARTESIAN_POINT('',(-4.25127639379635,-0.262363967396866,43.3528681956272));
#1194=CARTESIAN_POINT('',(-4.24673691530096,-0.320949474760494,43.2118775175746));
#1195=CARTESIAN_POINT('',(-4.25126386469527,-0.262590343186503,43.0707512127974));
#1196=CARTESIAN_POINT('',(-4.25815160305427,-0.121450770264911,43.0122357437168));
#1197=CARTESIAN_POINT('',(-4.25931861715738,0.0196410067562616,43.0707652258636));
#1198=CARTESIAN_POINT('',(-4.25719814901163,-0.121458736248314,43.0317432355881));
#1199=CARTESIAN_POINT('',(-4.3925792915416,-0.262595317193652,43.0707544834635));
#1200=CARTESIAN_POINT('',(-4.3992461784514,-0.121448981713687,43.0122350488725));
#1201=CARTESIAN_POINT('',(-4.4003757428598,0.0196388265585122,43.0707647345745));
#1202=CARTESIAN_POINT('',(-4.39922750939693,0.0779990749837176,43.2116726396093));
#1203=CARTESIAN_POINT('',(-4.40037747114732,0.0196124434628076,43.3528394497097));
#1204=CARTESIAN_POINT('',(-4.39923961654825,-0.12160859550893,43.4111869426831));
#1205=CARTESIAN_POINT('',(-4.39259189838132,-0.262361731982264,43.3528721069852));
#1206=CARTESIAN_POINT('',(-4.38819852449535,-0.320948785780794,43.2118825638904));
#1207=CARTESIAN_POINT('',(-4.3925792915416,-0.262595317193652,43.0707544834635));
#1208=CARTESIAN_POINT('',(-4.3992461784514,-0.121448981713687,43.0122350488725));
#1209=CARTESIAN_POINT('',(-4.4003757428598,0.0196388265585122,43.0707647345745));
#1210=CARTESIAN_POINT('',(-4.39832329136786,-0.121458736248314,43.0317432355881));
#1211=CARTESIAN_POINT('',(0.,0.,45.));
#1212=CARTESIAN_POINT('',(0.,-2.30168105225267E-16,45.));
#1213=CARTESIAN_POINT('',(-4.25893041790531,-2.30168105225267E-16,45.));
#1214=CARTESIAN_POINT('',(0.855,1.53080849893419E-18,45.));
#1215=CARTESIAN_POINT('',(0.83,1.53080849893419E-18,45.));
#1216=CARTESIAN_POINT('',(0.,-2.3348743095994,45.));
#1217=CARTESIAN_POINT('',(-0.5,-2.3348743095994,45.));
#1218=CARTESIAN_POINT('',(0.,2.32742670923472,45.));
#1219=CARTESIAN_POINT('',(-0.375,2.32742670923472,45.));
#1220=CARTESIAN_POINT('',(-1.18607021868229,-3.43731492757798,45.));
#1221=CARTESIAN_POINT('',(-1.33607021868229,-3.43731492757798,45.));
#1222=CARTESIAN_POINT('',(-1.72229107512349,3.44222076237201,45.));
#1223=CARTESIAN_POINT('',(-1.8722910751235,3.44222076237201,45.));
#1224=CARTESIAN_POINT('',(-1.06463627889752,3.65328565239907,45.));
#1225=CARTESIAN_POINT('',(-1.21463627889752,3.65328565239907,45.));
#1226=CARTESIAN_POINT('',(1.62183288484812,3.44222076237201,45.));
#1227=CARTESIAN_POINT('',(1.47183288484812,3.44222076237201,45.));
#1228=CARTESIAN_POINT('',(-1.72229107512349,-3.16840099866607,45.));
#1229=CARTESIAN_POINT('',(-1.8722910751235,-3.16840099866607,45.));
#1230=CARTESIAN_POINT('',(1.14198010414839,-3.43731492757798,45.));
#1231=CARTESIAN_POINT('',(0.991980104148388,-3.43731492757798,45.));
#1232=CARTESIAN_POINT('',(1.62183288484812,-3.16840099866607,45.));
#1233=CARTESIAN_POINT('',(1.47183288484812,-3.16840099866607,45.));
#1234=CARTESIAN_POINT('',(1.07,3.65328565239907,45.));
#1235=CARTESIAN_POINT('',(0.92,3.65328565239907,45.));
#1236=CARTESIAN_POINT('',(-2.29883845895529,-0.00603736843913794,45.));
#1237=CARTESIAN_POINT('',(-2.29883845895529,-0.440114503726363,45.));
#1238=CARTESIAN_POINT('',(-2.29883845895529,0.428039766848087,45.));
#1239=CARTESIAN_POINT('',(-1.99061343446374,-0.440114503726363,45.));
#1240=CARTESIAN_POINT('',(-1.68238840997219,-0.440114503726363,45.));
#1241=CARTESIAN_POINT('',(-1.68238840997219,-0.000288896262645722,45.));
#1242=CARTESIAN_POINT('',(-1.68238840997219,-0.683184573426843,45.));
#1243=CARTESIAN_POINT('',(0.,-0.683184573426843,45.));
#1244=CARTESIAN_POINT('',(0.676188943907619,-0.683184573426843,45.));
#1245=CARTESIAN_POINT('',(0.676188943907619,0.,45.));
#1246=CARTESIAN_POINT('',(0.676188943907619,0.611865660175681,45.));
#1247=CARTESIAN_POINT('',(-0.544925127178431,0.611865660175681,45.));
#1248=CARTESIAN_POINT('',(-1.68238840997219,0.611865660175681,45.));
#1249=CARTESIAN_POINT('',(-1.68238840997219,-0.000288896262645722,45.));
#1250=CARTESIAN_POINT('',(-1.68238840997219,0.428039766848087,45.));
#1251=CARTESIAN_POINT('',(-1.99061343446374,0.428039766848087,45.));
#1252=CARTESIAN_POINT('',(-1.945,1.54298712873954E-18,42.6444161510467));
#1253=CARTESIAN_POINT('',(-1.945,1.54298712873954E-18,45.8344161510468));
#1254=CARTESIAN_POINT('',(-1.91980110788165,1.54298712873954E-18,45.8344161510468));
#1255=CARTESIAN_POINT('',(-1.945,1.54298712873954E-18,45.52));
#1256=CARTESIAN_POINT('',(-1.97019889211834,1.54298712873954E-18,45.52));
#1257=CARTESIAN_POINT('',(0.,-2.3348743095994,45.2544161510468));
#1258=CARTESIAN_POINT('',(0.,-2.3348743095994,45.8344161510468));
#1259=CARTESIAN_POINT('',(-0.37,-2.3348743095994,45.8344161510468));
#1260=CARTESIAN_POINT('',(0.,-2.3348743095994,45.2544161510468));
#1261=CARTESIAN_POINT('',(-0.37,-2.3348743095994,45.2544161510468));
#1262=CARTESIAN_POINT('',(0.,2.32742670923472,45.2544161510468));
#1263=CARTESIAN_POINT('',(0.,2.32742670923472,45.8344161510468));
#1264=CARTESIAN_POINT('',(-0.37,2.32742670923472,45.8344161510468));
#1265=CARTESIAN_POINT('',(0.,2.32742670923472,45.2544161510468));
#1266=CARTESIAN_POINT('',(-0.37,2.32742670923472,45.2544161510468));
#1267=CARTESIAN_POINT('',(0.991,1.95,46.5313330292702));
#1268=CARTESIAN_POINT('',(0.991,4.17131148278713,46.7367947101593));
#1269=CARTESIAN_POINT('',(0.991,4.17131148278713,46.6367947101593));
#1270=CARTESIAN_POINT('',(0.991,4.02438301923978,48.3344161510468));
#1271=CARTESIAN_POINT('',(0.991,4.02438301923978,47.1861313785627));
#1272=CARTESIAN_POINT('',(0.991,4.02438301923978,45.8395332098007));
#1273=CARTESIAN_POINT('',(0.991,0.,47.1861313785627));
#1274=CARTESIAN_POINT('',(0.991,4.54028658723955,47.1861313785627));
#1275=CARTESIAN_POINT('',(0.991,4.58802675319063,45.8395332098007));
#1276=CARTESIAN_POINT('',(0.991,4.57983763222756,46.2886735608975));
#1277=CARTESIAN_POINT('',(0.991,4.56392747114816,46.7375397317651));
#1278=CARTESIAN_POINT('',(0.991,4.54028658723959,47.1861313785627));
#1279=CARTESIAN_POINT('',(0.991,4.5880267531906,45.8395332098007));
#1280=CARTESIAN_POINT('',(0.991,1.95,45.8395332098007));
#1281=CARTESIAN_POINT('',(-0.991391204297543,1.95,46.5313330292702));
#1282=CARTESIAN_POINT('',(-0.991391204297543,4.17131148278713,46.7367947101593));
#1283=CARTESIAN_POINT('',(-0.991391204297543,4.17131148278713,46.8367947101593));
#1284=CARTESIAN_POINT('',(-0.991391204297543,4.02428666543364,48.3344161510468));
#1285=CARTESIAN_POINT('',(-0.991391204297543,4.02428666543364,45.8395332098007));
#1286=CARTESIAN_POINT('',(-0.991391204297543,4.02428666543364,47.1861313785627));
#1287=CARTESIAN_POINT('',(-0.991391204297543,1.95,45.8395332098007));
#1288=CARTESIAN_POINT('',(-0.991391204297543,4.58794223678046,45.8395332098007));
#1289=CARTESIAN_POINT('',(-0.991391204297543,4.54020118214041,47.1861313785627));
#1290=CARTESIAN_POINT('',(-0.991391204297543,4.56384251020257,46.7375397422359));
#1291=CARTESIAN_POINT('',(-0.991391204297543,4.5797529647731,46.2886735712688));
#1292=CARTESIAN_POINT('',(-0.991391204297543,4.5879422367805,45.8395332098007));
#1293=CARTESIAN_POINT('',(-0.991391204297543,4.54020118214037,47.1861313785627));
#1294=CARTESIAN_POINT('',(-0.991391204297543,0.,47.1861313785627));
#1295=CARTESIAN_POINT('',(0.991,-1.95,46.5313330292702));
#1296=CARTESIAN_POINT('',(0.991,-4.18559983372688,46.7358082532883));
#1297=CARTESIAN_POINT('',(0.991,-4.18559983372688,46.6358082532883));
#1298=CARTESIAN_POINT('',(0.991,-4.02438301923978,48.3344161510468));
#1299=CARTESIAN_POINT('',(0.991,-4.02438301923978,45.8395332098007));
#1300=CARTESIAN_POINT('',(0.991,-4.02438301923978,47.1861313785627));
#1301=CARTESIAN_POINT('',(0.991,-1.95,45.8395332098007));
#1302=CARTESIAN_POINT('',(0.991,-4.5880267531906,45.8395332098007));
#1303=CARTESIAN_POINT('',(0.991,-4.58802675319063,45.8395332098007));
#1304=CARTESIAN_POINT('',(0.991,-4.57983763222756,46.2886735608975));
#1305=CARTESIAN_POINT('',(0.991,-4.56392747114816,46.7375397317651));
#1306=CARTESIAN_POINT('',(0.991,-4.54028658723959,47.1861313785627));
#1307=CARTESIAN_POINT('',(0.991,-4.54028658723955,47.1861313785627));
#1308=CARTESIAN_POINT('',(0.991,0.,47.1861313785627));
#1309=CARTESIAN_POINT('',(-0.991391204297543,-1.95,46.5313330292702));
#1310=CARTESIAN_POINT('',(-0.991391204297543,-4.18559983372688,46.7358082532883));
#1311=CARTESIAN_POINT('',(-0.991391204297543,-4.18559983372688,46.8358082532883));
#1312=CARTESIAN_POINT('',(-0.991391204297543,-4.02428666543364,48.3344161510468));
#1313=CARTESIAN_POINT('',(-0.991391204297543,-4.02428666543364,47.1861313785627));
#1314=CARTESIAN_POINT('',(-0.991391204297543,-4.02428666543364,45.8395332098007));
#1315=CARTESIAN_POINT('',(-0.991391204297543,0.,47.1861313785627));
#1316=CARTESIAN_POINT('',(-0.991391204297543,-4.54020118214037,47.1861313785627));
#1317=CARTESIAN_POINT('',(-0.991391204297543,-4.54020118214041,47.1861313785627));
#1318=CARTESIAN_POINT('',(-0.991391204297543,-4.56384251020257,46.7375397422359));
#1319=CARTESIAN_POINT('',(-0.991391204297543,-4.5797529647731,46.2886735712688));
#1320=CARTESIAN_POINT('',(-0.991391204297543,-4.5879422367805,45.8395332098007));
#1321=CARTESIAN_POINT('',(-0.991391204297543,-4.58794223678046,45.8395332098007));
#1322=CARTESIAN_POINT('',(-0.991391204297543,-1.95,45.8395332098007));
#1323=CARTESIAN_POINT('',(-0.544925127178431,0.611865660175681,42.6444161510467));
#1324=CARTESIAN_POINT('',(-1.68238840997219,0.611865660175681,42.6444161510467));
#1325=CARTESIAN_POINT('',(-1.68238840997219,0.611865660175681,45.8344161510468));
#1326=CARTESIAN_POINT('',(0.676188943907619,0.611865660175681,43.3344161510468));
#1327=CARTESIAN_POINT('',(0.676188943907619,0.611865660175681,45.8344161510468));
#1328=CARTESIAN_POINT('',(-0.544925127178431,0.611865660175681,45.8344161510468));
#1329=CARTESIAN_POINT('',(-1.68238840997219,-0.000288896262645722,42.6444161510467));
#1330=CARTESIAN_POINT('',(-1.68238840997219,-0.000288896262645722,45.52));
#1331=CARTESIAN_POINT('',(-1.68238840997219,0.428039766848087,45.52));
#1332=CARTESIAN_POINT('',(-1.68238840997219,-0.440114503726363,45.52));
#1333=CARTESIAN_POINT('',(-1.68238840997219,0.428039766848087,45.52));
#1334=CARTESIAN_POINT('',(-1.68238840997219,-0.000288896262645722,45.8344161510468));
#1335=CARTESIAN_POINT('',(-1.68238840997219,-0.683184573426843,45.8344161510468));
#1336=CARTESIAN_POINT('',(-1.68238840997219,-0.683184573426843,43.3344161510468));
#1337=CARTESIAN_POINT('',(-1.68238840997219,-0.440114503726363,45.52));
#1338=CARTESIAN_POINT('',(0.855,1.53080849893419E-18,42.6444161510467));
#1339=CARTESIAN_POINT('',(0.855,1.53080849893419E-18,45.8344161510468));
#1340=CARTESIAN_POINT('',(0.88,1.53080849893419E-18,45.8344161510468));
#1341=CARTESIAN_POINT('',(1.98607063304702,0.,45.8344161510468));
#1342=CARTESIAN_POINT('',(1.07,3.65328565239907,45.8344161510468));
#1343=CARTESIAN_POINT('',(1.22,3.65328565239907,45.8344161510468));
#1344=CARTESIAN_POINT('',(1.62183288484812,-3.16840099866607,45.8344161510468));
#1345=CARTESIAN_POINT('',(1.77183288484812,-3.16840099866607,45.8344161510468));
#1346=CARTESIAN_POINT('',(1.14198010414839,-3.43731492757798,45.8344161510468));
#1347=CARTESIAN_POINT('',(1.29198010414839,-3.43731492757798,45.8344161510468));
#1348=CARTESIAN_POINT('',(-1.72229107512349,-3.16840099866607,45.8344161510468));
#1349=CARTESIAN_POINT('',(-1.57229107512349,-3.16840099866607,45.8344161510468));
#1350=CARTESIAN_POINT('',(1.62183288484812,3.44222076237201,45.8344161510468));
#1351=CARTESIAN_POINT('',(1.77183288484812,3.44222076237201,45.8344161510468));
#1352=CARTESIAN_POINT('',(-1.06463627889752,3.65328565239907,45.8344161510468));
#1353=CARTESIAN_POINT('',(-0.914636278897524,3.65328565239907,45.8344161510468));
#1354=CARTESIAN_POINT('',(-1.72229107512349,3.44222076237201,45.8344161510468));
#1355=CARTESIAN_POINT('',(-1.57229107512349,3.44222076237201,45.8344161510468));
#1356=CARTESIAN_POINT('',(-1.18607021868229,-3.43731492757798,45.8344161510468));
#1357=CARTESIAN_POINT('',(-1.03607021868229,-3.43731492757798,45.8344161510468));
#1358=CARTESIAN_POINT('',(0.676188943907619,-0.0356594566255808,45.8344161510468));
#1359=CARTESIAN_POINT('',(0.676188943907619,-0.683184573426843,45.8344161510468));
#1360=CARTESIAN_POINT('',(-0.503099733032286,-0.683184573426843,45.8344161510468));
#1361=CARTESIAN_POINT('',(0.,2.53783781679482E-16,45.8344161510468));
#1362=CARTESIAN_POINT('',(4.14460368256671,2.53783781679482E-16,45.8344161510468));
#1363=CARTESIAN_POINT('',(0.,0.,45.1254118140982));
#1364=CARTESIAN_POINT('',(2.27666734764718,4.07661282311686,46.7002287571589));
#1365=CARTESIAN_POINT('',(2.28685151827461,4.06939749936251,46.7330487116319));
#1366=CARTESIAN_POINT('',(2.27578448329187,4.07409198893147,46.7657412341569));
#1367=CARTESIAN_POINT('',(2.24701345821671,4.08862796198283,46.7966234392329));
#1368=CARTESIAN_POINT('',(2.20215994671217,4.11195295880833,46.8197053692652));
#1369=CARTESIAN_POINT('',(2.14509333787738,4.1413389657238,46.83382896955));
#1370=CARTESIAN_POINT('',(2.08672570520305,4.17084924991558,46.8382013953766));
#1371=CARTESIAN_POINT('',(2.02796077305981,4.19992554415897,46.834125137061));
#1372=CARTESIAN_POINT('',(1.97027025716377,4.22789076285001,46.8213095283552));
#1373=CARTESIAN_POINT('',(1.92404037800591,4.24997766442372,46.8011622478485));
#1374=CARTESIAN_POINT('',(1.89212346301828,4.26545303837051,46.7742155680752));
#1375=CARTESIAN_POINT('',(1.87783007811452,4.27316500777874,46.7423882388526));
#1376=CARTESIAN_POINT('',(1.89083860198072,4.26888526833609,46.7093093770335));
#1377=CARTESIAN_POINT('',(1.92255781780719,4.25598747443649,46.680503704296));
#1378=CARTESIAN_POINT('',(1.96911881164672,4.23569084588207,46.6579774907787));
#1379=CARTESIAN_POINT('',(2.02779634378948,4.20857739105801,46.6424239249961));
#1380=CARTESIAN_POINT('',(2.0863334976612,4.18015045422138,46.6357883979965));
#1381=CARTESIAN_POINT('',(2.14519367348031,4.15018694025796,46.6374048014405));
#1382=CARTESIAN_POINT('',(2.20308498061277,4.11923699404957,46.6491148852738));
#1383=CARTESIAN_POINT('',(2.24775171575933,4.09402506927184,46.6700631798483));
#1384=CARTESIAN_POINT('',(2.27666734764718,4.07661282311686,46.7002287571589));
#1385=CARTESIAN_POINT('',(2.28685151827461,4.06939749936251,46.7330487116319));
#1386=CARTESIAN_POINT('',(2.27578448329187,4.07409198893147,46.7657412341569));
#1387=CARTESIAN_POINT('',(2.28330965070204,4.07138246836138,46.7330274729889));
#1388=CARTESIAN_POINT('',(-2.25720967004939,-4.08694042140949,46.7106450763198));
#1389=CARTESIAN_POINT('',(-2.23169597879406,-4.10254468475941,46.6757184614506));
#1390=CARTESIAN_POINT('',(-2.18679066275188,-4.12780204314628,46.6516577059008));
#1391=CARTESIAN_POINT('',(-2.12928894292929,-4.15834895283776,46.6378881003288));
#1392=CARTESIAN_POINT('',(-2.06953410968518,-4.18855492366682,46.6344441121032));
#1393=CARTESIAN_POINT('',(-2.0103448541178,-4.21707071081022,46.6393994201612));
#1394=CARTESIAN_POINT('',(-1.95074247953887,-4.24440647581583,46.6529048723031));
#1395=CARTESIAN_POINT('',(-1.90257948713616,-4.26528264576692,46.6728927445027));
#1396=CARTESIAN_POINT('',(-1.86855815213144,-4.27918215442749,46.6979700973558));
#1397=CARTESIAN_POINT('',(-1.8477281887949,-4.28700651116339,46.725545991488));
#1398=CARTESIAN_POINT('',(-1.8509414569061,-4.28403735281904,46.7616049504501));
#1399=CARTESIAN_POINT('',(-1.8733976092381,-4.27320415820074,46.7856756227208));
#1400=CARTESIAN_POINT('',(-1.89954135931664,-4.26087778130313,46.8025777698976));
#1401=CARTESIAN_POINT('',(-1.93689292971995,-4.24333433231666,46.8188407702058));
#1402=CARTESIAN_POINT('',(-1.98618833161124,-4.21997901811064,46.8312708202255));
#1403=CARTESIAN_POINT('',(-2.04518786673276,-4.19143217957777,46.8370292800992));
#1404=CARTESIAN_POINT('',(-2.10506786701691,-4.16180225764704,46.8345025164743));
#1405=CARTESIAN_POINT('',(-2.1634582998339,-4.1323152884035,46.8226078368308));
#1406=CARTESIAN_POINT('',(-2.21019717407921,-4.10838925787795,46.8022103393942));
#1407=CARTESIAN_POINT('',(-2.24194962614384,-4.09238076712773,46.7750536338584));
#1408=CARTESIAN_POINT('',(-2.2592418041244,-4.08419686617671,46.7459928171078));
#1409=CARTESIAN_POINT('',(-2.25720967004939,-4.08694042140949,46.7106450763198));
#1410=CARTESIAN_POINT('',(-2.23169597879406,-4.10254468475941,46.6757184614506));
#1411=CARTESIAN_POINT('',(-2.18679066275188,-4.12780204314628,46.6516577059008));
#1412=CARTESIAN_POINT('',(-2.23720686150537,-4.09902712215422,46.6857566238347));
#1413=CARTESIAN_POINT('',(-2.01551399604901,4.20600765529615,46.8321710568768));
#1414=CARTESIAN_POINT('',(-1.96730976950943,4.22927618294235,46.8196942410034));
#1415=CARTESIAN_POINT('',(-1.93031288242818,4.24700071008354,46.8031151141384));
#1416=CARTESIAN_POINT('',(-1.90475090873534,4.25930362447544,46.7860263392098));
#1417=CARTESIAN_POINT('',(-1.88307441293056,4.27001204891076,46.7615527841646));
#1418=CARTESIAN_POINT('',(-1.880796038136,4.27258823312927,46.725865719156));
#1419=CARTESIAN_POINT('',(-1.90110398925885,4.26478865510059,46.6987355887117));
#1420=CARTESIAN_POINT('',(-1.93457575022708,4.25083267735949,46.6736482693948));
#1421=CARTESIAN_POINT('',(-1.98204750813709,4.22983596629667,46.6537273959091));
#1422=CARTESIAN_POINT('',(-2.04005082057264,4.20273886309965,46.6403457812059));
#1423=CARTESIAN_POINT('',(-2.09936362060649,4.17364050240929,46.6353996951823));
#1424=CARTESIAN_POINT('',(-2.15742715573136,4.14376732197931,46.6389689011468));
#1425=CARTESIAN_POINT('',(-2.21437623616576,4.11301108012758,46.6529560297006));
#1426=CARTESIAN_POINT('',(-2.2583259561478,4.08787661532031,46.6772154721856));
#1427=CARTESIAN_POINT('',(-2.28301635486778,4.07250641408658,46.7122700058087));
#1428=CARTESIAN_POINT('',(-2.2846406988091,4.06998063279199,46.7473464461283));
#1429=CARTESIAN_POINT('',(-2.26761936068142,4.07815955700459,46.7761749836292));
#1430=CARTESIAN_POINT('',(-2.23636078681117,4.09415448704949,46.8032383212767));
#1431=CARTESIAN_POINT('',(-2.19059562372487,4.11794552159701,46.8235607451175));
#1432=CARTESIAN_POINT('',(-2.13265998220821,4.1476757322739,46.8355143693342));
#1433=CARTESIAN_POINT('',(-2.0745239623767,4.17693828003282,46.8380357779391));
#1434=CARTESIAN_POINT('',(-2.01551399604901,4.20600765529615,46.8321710568768));
#1435=CARTESIAN_POINT('',(-1.96730976950943,4.22927618294235,46.8196942410034));
#1436=CARTESIAN_POINT('',(-1.93031288242818,4.24700071008354,46.8031151141384));
#1437=CARTESIAN_POINT('',(-1.95819108891833,4.23363312347967,46.8149996531066));
#1438=CARTESIAN_POINT('',(0.,0.,45.));
#1439=CARTESIAN_POINT('',(-4.7,0.,45.));
#1440=CARTESIAN_POINT('',(0.,0.,47.1861313785627));
#1441=CARTESIAN_POINT('',(0.,0.,45.8395332098007));
#1442=CARTESIAN_POINT('',(0.,0.,47.1861313785627));
#1443=CARTESIAN_POINT('',(0.,0.,45.8395332098007));
#1444=CARTESIAN_POINT('',(1.88106498753336,-4.27413705044662,46.6878148986927));
#1445=CARTESIAN_POINT('',(1.85695220703305,-4.28370528621895,46.7099652533713));
#1446=CARTESIAN_POINT('',(1.84517606126763,-4.2872976838792,46.7439571145376));
#1447=CARTESIAN_POINT('',(1.86134284015661,-4.27894301540237,46.7749781425373));
#1448=CARTESIAN_POINT('',(1.88591920900188,-4.26728592310109,46.7946358535404));
#1449=CARTESIAN_POINT('',(1.92218768806652,-4.2502450838075,46.8138072265817));
#1450=CARTESIAN_POINT('',(1.97098877312777,-4.22723418551683,46.8283668091572));
#1451=CARTESIAN_POINT('',(2.02989826770022,-4.19889168171684,46.8363448346111));
#1452=CARTESIAN_POINT('',(2.08999540762301,-4.16932106724127,46.8359429656673));
#1453=CARTESIAN_POINT('',(2.14788653440592,-4.14022844910082,46.8268081632886));
#1454=CARTESIAN_POINT('',(2.19549254250005,-4.11591549924838,46.8097348053629));
#1455=CARTESIAN_POINT('',(2.22963747376494,-4.09855428022177,46.786814732318));
#1456=CARTESIAN_POINT('',(2.25151938726215,-4.08769261470636,46.7627201407707));
#1457=CARTESIAN_POINT('',(2.26138451907899,-4.08379280330632,46.7289477504995));
#1458=CARTESIAN_POINT('',(2.24909781886201,-4.09205433920414,46.6965733479324));
#1459=CARTESIAN_POINT('',(2.22665849346324,-4.10528402509129,46.6748308198585));
#1460=CARTESIAN_POINT('',(2.1918438645034,-4.12492580128593,46.6543600784431));
#1461=CARTESIAN_POINT('',(2.1439250609696,-4.15071797563226,46.6403092507263));
#1462=CARTESIAN_POINT('',(2.08522307817436,-4.18076642245401,46.634464718102));
#1463=CARTESIAN_POINT('',(2.0249034599058,-4.21018695905663,46.6374133770704));
#1464=CARTESIAN_POINT('',(1.96582594296393,-4.23761711090521,46.6486485414199));
#1465=CARTESIAN_POINT('',(1.91717074795434,-4.25904655191988,46.6659121255744));
#1466=CARTESIAN_POINT('',(1.88106498753336,-4.27413705044662,46.6878148986927));
#1467=CARTESIAN_POINT('',(1.85695220703305,-4.28370528621895,46.7099652533713));
#1468=CARTESIAN_POINT('',(1.84517606126763,-4.2872976838792,46.7439571145376));
#1469=CARTESIAN_POINT('',(1.85900831282231,-4.28270931320022,46.711938837786));
#1470=CARTESIAN_POINT('',(4.27854633544981,0.,47.1861313785627));
#1471=CARTESIAN_POINT('',(0.,2.53783781679482E-16,47.1861313785627));
#1472=CARTESIAN_POINT('',(4.27854633544981,0.,47.1861313785627));
#1473=CARTESIAN_POINT('',(0.,2.53783781679482E-16,47.1861313785627));
#1474=CARTESIAN_POINT('',(1.99581088768068,0.,45.));
#1475=CARTESIAN_POINT('',(0.,-2.69422295812418E-16,45.));
#1476=CARTESIAN_POINT('',(-4.4,-2.69422295812418E-16,45.));
#1477=CARTESIAN_POINT('',(-0.000195602148771353,1.95,45.8395332098007));
#1478=CARTESIAN_POINT('',(0.,2.53783781679482E-16,45.8395332098007));
#1479=CARTESIAN_POINT('',(-0.000195602148771353,-1.95,45.8395332098007));
#1480=CARTESIAN_POINT('',(0.,2.53783781679482E-16,45.8395332098007));
#1481=CARTESIAN_POINT('',(-9.02363012590458,-4.18559983372688,46.7358082532883));
#1482=CARTESIAN_POINT('',(-9.02363012590458,4.17131148278713,46.7367947101593));
#1483=CARTESIAN_POINT('',(10.9763698740954,-4.18559983372688,46.7358082532883));
#1484=CARTESIAN_POINT('',(10.9763698740954,4.17131148278713,46.7367947101593));
#1485=CARTESIAN_POINT('',(0.,-2.30168105225267E-16,44.6802));
#1486=CARTESIAN_POINT('',(0.,2.53783781679482E-16,48.3344161510468));
#1487=CARTESIAN_POINT('',(0.,-0.0662238001823426,44.7544161510467));
#1488=CARTESIAN_POINT('',(0.,-2.3348743095994,44.7544161510467));
#1489=CARTESIAN_POINT('',(-0.5,-2.3348743095994,44.7544161510467));
#1490=CARTESIAN_POINT('',(0.,-2.3348743095994,44.7544161510467));
#1491=CARTESIAN_POINT('',(0.,-0.0662238001823426,44.7544161510467));
#1492=CARTESIAN_POINT('',(0.,2.32742670923472,44.7544161510467));
#1493=CARTESIAN_POINT('',(-0.375,2.32742670923472,44.7544161510467));
#1494=CARTESIAN_POINT('',(0.,2.32742670923472,44.7544161510467));
#1495=CARTESIAN_POINT('',(0.,-0.0662238001823426,45.2544161510468));
#1496=CARTESIAN_POINT('',(0.,-0.0662238001823426,45.2544161510468));
#1497=CARTESIAN_POINT('',(-1.18607021868229,-3.43731492757798,40.8144161510467));
#1498=CARTESIAN_POINT('',(-1.72229107512349,3.44222076237201,40.8144161510467));
#1499=CARTESIAN_POINT('',(-1.06463627889752,3.65328565239907,40.8144161510467));
#1500=CARTESIAN_POINT('',(1.62183288484812,3.44222076237201,40.8144161510467));
#1501=CARTESIAN_POINT('',(-1.72229107512349,-3.16840099866607,40.8144161510467));
#1502=CARTESIAN_POINT('',(1.14198010414839,-3.43731492757798,40.8144161510467));
#1503=CARTESIAN_POINT('',(1.62183288484812,-3.16840099866607,40.8144161510467));
#1504=CARTESIAN_POINT('',(1.07,3.65328565239907,40.8144161510467));
#1505=CARTESIAN_POINT('',(-0.503099733032286,-0.683184573426843,43.3344161510468));
#1506=CARTESIAN_POINT('',(0.676188943907619,-0.683184573426843,43.3344161510468));
#1507=CARTESIAN_POINT('',(0.676188943907619,-0.0356594566255808,43.3344161510468));
#1508=CARTESIAN_POINT('',(0.,0.,45.52));
#1509=CARTESIAN_POINT('',(-1.99061343446374,-0.440114503726363,45.52));
#1510=CARTESIAN_POINT('',(-2.29883845895529,-0.440114503726363,45.52));
#1511=CARTESIAN_POINT('',(-2.29883845895529,-0.00603736843913794,45.52));
#1512=CARTESIAN_POINT('',(-2.29883845895529,0.428039766848087,45.52));
#1513=CARTESIAN_POINT('',(-1.99061343446374,0.428039766848087,45.52));
#1514=CARTESIAN_POINT('',(-1.99061343446374,-0.440114503726363,45.52));
#1515=CARTESIAN_POINT('',(-2.29883845895529,-0.440114503726363,45.52));
#1516=CARTESIAN_POINT('',(-2.29883845895529,-0.00603736843913794,45.52));
#1517=CARTESIAN_POINT('',(-2.29883845895529,0.428039766848087,45.52));
#1518=CARTESIAN_POINT('',(-1.99061343446374,0.428039766848087,45.52));
#1519=CARTESIAN_POINT('',(0.,-2.69422295812418E-16,45.0002));
#1520=MECHANICAL_DESIGN_GEOMETRIC_PRESENTATION_REPRESENTATION('',(#823),
#1521);
#1521=(
GEOMETRIC_REPRESENTATION_CONTEXT(3)
GLOBAL_UNCERTAINTY_ASSIGNED_CONTEXT((#1522))
GLOBAL_UNIT_ASSIGNED_CONTEXT((#1525,#1524,#1523))
REPRESENTATION_CONTEXT('Nose base','TOP_LEVEL_ASSEMBLY_PART')
);
#1522=UNCERTAINTY_MEASURE_WITH_UNIT(LENGTH_MEASURE(0.002),#1525,
'DISTANCE_ACCURACY_VALUE','Maximum Tolerance applied to model');
#1523=(
NAMED_UNIT(*)
SI_UNIT($,.STERADIAN.)
SOLID_ANGLE_UNIT()
);
#1524=(
NAMED_UNIT(*)
PLANE_ANGLE_UNIT()
SI_UNIT($,.RADIAN.)
);
#1525=(
LENGTH_UNIT()
NAMED_UNIT(*)
SI_UNIT(.CENTI.,.METRE.)
);
#1526=PRODUCT_DEFINITION_SHAPE('','',#1527);
#1527=PRODUCT_DEFINITION('','',#1529,#1528);
#1528=PRODUCT_DEFINITION_CONTEXT('',#1535,'design');
#1529=PRODUCT_DEFINITION_FORMATION_WITH_SPECIFIED_SOURCE('','',#1531,
 .NOT_KNOWN.);
#1530=PRODUCT_RELATED_PRODUCT_CATEGORY('','',(#1531));
#1531=PRODUCT('Nose base','Nose base','Nose base',(#1533));
#1532=PRODUCT_CATEGORY('','');
#1533=PRODUCT_CONTEXT('',#1535,'mechanical');
#1534=APPLICATION_PROTOCOL_DEFINITION('international standard',
'ap242_managed_model_based_3d_engineering',2020,#1535);
#1535=APPLICATION_CONTEXT('managed model based 3d engineering');
ENDSEC;
END-ISO-10303-21;
