ISO-10303-21;
HEADER;
/* Generated by software containing ST-Developer
 * from STEP Tools, Inc. (www.steptools.com) 
 */
/* OPTION: using custom renumber hook */

FILE_DESCRIPTION(
/* description */ ('STEP AP242 Edition 2',
'CAx-IF Rec.Pracs.---Representation and Presentation of Product Manufa
cturing Information (PMI)---4.0---2014-10-13',
'CAx-IF Rec.Pracs.---3D Tessellated Geometry---0.4---2014-09-14','2;1',
'CAx-IF Rec.Pracs.---User Defined Attributes---1.5---2016-08-15'),
/* implementation_level */ '2;1');

FILE_NAME(
/* name */ 'All - Motor tube',
/* time_stamp */ '2026-09-01T00:13:27Z',
/* author */ (''),
/* organization */ (''),
/* preprocessor_version */ 'ST-DEVELOPER v20',
/* originating_system */ 'ONSHAPE BY PTC INC, 1.220',
/* authorisation */ '  ');

FILE_SCHEMA (('AP242_MANAGED_MODEL_BASED_3D_ENGINEERING_MIM_LF { 1 0 10303 442 3 1 4 }'));
ENDSEC;

DATA;
#10=SHAPE_REPRESENTATION_RELATIONSHIP('','',#149,#11);
#11=ADVANCED_BREP_SHAPE_REPRESENTATION('',(#147),#307);
#12=PLANE('',#157);
#13=PLANE('',#158);
#14=PLANE('',#159);
#15=CIRCLE('',#152,1.54);
#16=CIRCLE('',#153,1.54);
#17=CIRCLE('',#155,1.74);
#18=CIRCLE('',#156,1.74);
#19=ORIENTED_EDGE('',*,*,#43,.F.);
#20=ORIENTED_EDGE('',*,*,#44,.F.);
#21=ORIENTED_EDGE('',*,*,#45,.F.);
#22=ORIENTED_EDGE('',*,*,#46,.F.);
#23=ORIENTED_EDGE('',*,*,#47,.F.);
#24=ORIENTED_EDGE('',*,*,#48,.T.);
#25=ORIENTED_EDGE('',*,*,#49,.T.);
#26=ORIENTED_EDGE('',*,*,#50,.T.);
#27=ORIENTED_EDGE('',*,*,#51,.T.);
#28=ORIENTED_EDGE('',*,*,#52,.T.);
#29=ORIENTED_EDGE('',*,*,#53,.F.);
#30=ORIENTED_EDGE('',*,*,#54,.T.);
#31=ORIENTED_EDGE('',*,*,#53,.T.);
#32=ORIENTED_EDGE('',*,*,#47,.T.);
#33=ORIENTED_EDGE('',*,*,#54,.F.);
#34=ORIENTED_EDGE('',*,*,#48,.F.);
#35=ORIENTED_EDGE('',*,*,#46,.T.);
#36=ORIENTED_EDGE('',*,*,#52,.F.);
#37=ORIENTED_EDGE('',*,*,#45,.T.);
#38=ORIENTED_EDGE('',*,*,#51,.F.);
#39=ORIENTED_EDGE('',*,*,#44,.T.);
#40=ORIENTED_EDGE('',*,*,#50,.F.);
#41=ORIENTED_EDGE('',*,*,#43,.T.);
#42=ORIENTED_EDGE('',*,*,#49,.F.);
#43=EDGE_CURVE('',#55,#55,#67,.T.);
#44=EDGE_CURVE('',#56,#56,#68,.T.);
#45=EDGE_CURVE('',#57,#57,#69,.T.);
#46=EDGE_CURVE('',#58,#58,#70,.T.);
#47=EDGE_CURVE('',#59,#59,#15,.T.);
#48=EDGE_CURVE('',#60,#60,#16,.T.);
#49=EDGE_CURVE('',#61,#61,#71,.T.);
#50=EDGE_CURVE('',#62,#62,#72,.T.);
#51=EDGE_CURVE('',#63,#63,#73,.T.);
#52=EDGE_CURVE('',#64,#64,#74,.T.);
#53=EDGE_CURVE('',#65,#65,#17,.T.);
#54=EDGE_CURVE('',#66,#66,#18,.T.);
#55=VERTEX_POINT('',#205);
#56=VERTEX_POINT('',#217);
#57=VERTEX_POINT('',#229);
#58=VERTEX_POINT('',#241);
#59=VERTEX_POINT('',#243);
#60=VERTEX_POINT('',#245);
#61=VERTEX_POINT('',#258);
#62=VERTEX_POINT('',#270);
#63=VERTEX_POINT('',#282);
#64=VERTEX_POINT('',#294);
#65=VERTEX_POINT('',#296);
#66=VERTEX_POINT('',#298);
#67=B_SPLINE_CURVE_WITH_KNOTS('',3,(#194,#195,#196,#197,#198,#199,#200,
#201,#202,#203,#204),.UNSPECIFIED.,.T.,.F.,(1,1,1,1,1,1,1,1,1,1,1,1,1,1,
1),(-0.00314557125204019,-0.00209704750136013,-0.00104852375068006,0.,0.00104852375068006,
0.00209704750136013,0.00314557125204019,0.00419409500272025,0.00524261875340032,
0.00629114250408038,0.00733966625476044,0.0083881900054405,0.00943671375612057,
0.0104852375068006,0.0115337612574807),.UNSPECIFIED.);
#68=B_SPLINE_CURVE_WITH_KNOTS('',3,(#206,#207,#208,#209,#210,#211,#212,
#213,#214,#215,#216),.UNSPECIFIED.,.T.,.F.,(1,1,1,1,1,1,1,1,1,1,1,1,1,1,
1),(-0.0031455712520402,-0.00209704750136013,-0.00104852375068007,0.,0.00104852375068007,
0.00209704750136013,0.0031455712520402,0.00419409500272026,0.00524261875340033,
0.0062911425040804,0.00733966625476046,0.00838819000544053,0.00943671375612059,
0.0104852375068007,0.0115337612574807),.UNSPECIFIED.);
#69=B_SPLINE_CURVE_WITH_KNOTS('',3,(#218,#219,#220,#221,#222,#223,#224,
#225,#226,#227,#228),.UNSPECIFIED.,.T.,.F.,(1,1,1,1,1,1,1,1,1,1,1,1,1,1,
1),(-0.00292666623814103,-0.00195111082542735,-0.000975555412713677,1.02618884375324E-18,
0.000975555412713679,0.00195111082542736,0.00292666623814103,0.00390222165085471,
0.00487777706356839,0.00585333247628207,0.00682888788899575,0.00780444330170942,
0.0087799987144231,0.00975555412713678,0.0107311095398505),
 .UNSPECIFIED.);
#70=B_SPLINE_CURVE_WITH_KNOTS('',3,(#230,#231,#232,#233,#234,#235,#236,
#237,#238,#239,#240),.UNSPECIFIED.,.T.,.F.,(1,1,1,1,1,1,1,1,1,1,1,1,1,1,
1),(-0.00292668344570052,-0.00195112229713368,-0.000975561148566839,0.,
0.000975561148566839,0.00195112229713368,0.00292668344570052,0.00390224459426736,
0.00487780574283419,0.00585336689140103,0.00682892803996787,0.00780448918853471,
0.00878005033710155,0.00975561148566839,0.0107311726342352),
 .UNSPECIFIED.);
#71=B_SPLINE_CURVE_WITH_KNOTS('',3,(#247,#248,#249,#250,#251,#252,#253,
#254,#255,#256,#257),.UNSPECIFIED.,.T.,.F.,(1,1,1,1,1,1,1,1,1,1,1,1,1,1,
1),(-0.00314518689880306,-0.00209679126586871,-0.00104839563293435,0.,0.00104839563293435,
0.00209679126586871,0.00314518689880306,0.00419358253173742,0.00524197816467177,
0.00629037379760612,0.00733876943054048,0.00838716506347483,0.00943556069640919,
0.0104839563293435,0.0115323519622779),.UNSPECIFIED.);
#72=B_SPLINE_CURVE_WITH_KNOTS('',3,(#259,#260,#261,#262,#263,#264,#265,
#266,#267,#268,#269),.UNSPECIFIED.,.T.,.F.,(1,1,1,1,1,1,1,1,1,1,1,1,1,1,
1),(-0.00314518689880307,-0.00209679126586871,-0.00104839563293436,0.,0.00104839563293436,
0.00209679126586871,0.00314518689880307,0.00419358253173743,0.00524197816467178,
0.00629037379760614,0.0073387694305405,0.00838716506347485,0.00943556069640921,
0.0104839563293436,0.0115323519622779),.UNSPECIFIED.);
#73=B_SPLINE_CURVE_WITH_KNOTS('',3,(#271,#272,#273,#274,#275,#276,#277,
#278,#279,#280,#281),.UNSPECIFIED.,.T.,.F.,(1,1,1,1,1,1,1,1,1,1,1,1,1,1,
1),(-0.00292618515348334,-0.00195079010232223,-0.000975395051161112,8.51948100475608E-19,
0.000975395051161114,0.00195079010232223,0.00292618515348334,0.00390158020464445,
0.00487697525580557,0.00585237030696668,0.00682776535812779,0.0078031604092889,
0.00877855546045002,0.00975395051161113,0.0107293455627722),
 .UNSPECIFIED.);
#74=B_SPLINE_CURVE_WITH_KNOTS('',3,(#283,#284,#285,#286,#287,#288,#289,
#290,#291,#292,#293),.UNSPECIFIED.,.T.,.F.,(1,1,1,1,1,1,1,1,1,1,1,1,1,1,
1),(-0.00292619668859624,-0.0019507977923975,-0.000975398896198749,0.,0.000975398896198748,
0.0019507977923975,0.00292619668859624,0.00390159558479499,0.00487699448099374,
0.00585239337719249,0.00682779227339124,0.00780319116958999,0.00877859006578873,
0.00975398896198748,0.0107293878581862),.UNSPECIFIED.);
#75=EDGE_LOOP('',(#19));
#76=EDGE_LOOP('',(#20));
#77=EDGE_LOOP('',(#21));
#78=EDGE_LOOP('',(#22));
#79=EDGE_LOOP('',(#23));
#80=EDGE_LOOP('',(#24));
#81=EDGE_LOOP('',(#25));
#82=EDGE_LOOP('',(#26));
#83=EDGE_LOOP('',(#27));
#84=EDGE_LOOP('',(#28));
#85=EDGE_LOOP('',(#29));
#86=EDGE_LOOP('',(#30));
#87=EDGE_LOOP('',(#31));
#88=EDGE_LOOP('',(#32));
#89=EDGE_LOOP('',(#33));
#90=EDGE_LOOP('',(#34));
#91=EDGE_LOOP('',(#35));
#92=EDGE_LOOP('',(#36));
#93=EDGE_LOOP('',(#37));
#94=EDGE_LOOP('',(#38));
#95=EDGE_LOOP('',(#39));
#96=EDGE_LOOP('',(#40));
#97=EDGE_LOOP('',(#41));
#98=EDGE_LOOP('',(#42));
#99=FACE_BOUND('',#75,.T.);
#100=FACE_BOUND('',#76,.T.);
#101=FACE_BOUND('',#77,.T.);
#102=FACE_BOUND('',#78,.T.);
#103=FACE_BOUND('',#79,.T.);
#104=FACE_BOUND('',#80,.T.);
#105=FACE_BOUND('',#81,.T.);
#106=FACE_BOUND('',#82,.T.);
#107=FACE_BOUND('',#83,.T.);
#108=FACE_BOUND('',#84,.T.);
#109=FACE_BOUND('',#85,.T.);
#110=FACE_BOUND('',#86,.T.);
#111=FACE_BOUND('',#87,.T.);
#112=FACE_BOUND('',#88,.T.);
#113=FACE_BOUND('',#89,.T.);
#114=FACE_BOUND('',#90,.T.);
#115=FACE_BOUND('',#91,.T.);
#116=FACE_BOUND('',#92,.T.);
#117=FACE_BOUND('',#93,.T.);
#118=FACE_BOUND('',#94,.T.);
#119=FACE_BOUND('',#95,.T.);
#120=FACE_BOUND('',#96,.T.);
#121=FACE_BOUND('',#97,.T.);
#122=FACE_BOUND('',#98,.T.);
#123=CYLINDRICAL_SURFACE('',#151,1.54);
#124=CYLINDRICAL_SURFACE('',#154,1.74);
#125=CYLINDRICAL_SURFACE('',#160,0.124732256733696);
#126=CYLINDRICAL_SURFACE('',#161,0.124732256733696);
#127=CYLINDRICAL_SURFACE('',#162,0.134088204897367);
#128=CYLINDRICAL_SURFACE('',#163,0.134088204897367);
#129=ADVANCED_FACE('',(#99,#100,#101,#102,#103,#104),#123,.F.);
#130=ADVANCED_FACE('',(#105,#106,#107,#108,#109,#110),#124,.T.);
#131=ADVANCED_FACE('',(#111),#12,.T.);
#132=ADVANCED_FACE('',(#112,#113),#13,.F.);
#133=ADVANCED_FACE('',(#114),#14,.F.);
#134=ADVANCED_FACE('',(#115,#116),#125,.F.);
#135=ADVANCED_FACE('',(#117,#118),#126,.F.);
#136=ADVANCED_FACE('',(#119,#120),#127,.F.);
#137=ADVANCED_FACE('',(#121,#122),#128,.F.);
#138=CLOSED_SHELL('',(#129,#130,#131,#132,#133,#134,#135,#136,#137));
#139=STYLED_ITEM('',(#140),#147);
#140=PRESENTATION_STYLE_ASSIGNMENT((#141));
#141=SURFACE_STYLE_USAGE(.BOTH.,#142);
#142=SURFACE_SIDE_STYLE('',(#143));
#143=SURFACE_STYLE_FILL_AREA(#144);
#144=FILL_AREA_STYLE('',(#145));
#145=FILL_AREA_STYLE_COLOUR('',#146);
#146=COLOUR_RGB('',0.615686274509804,0.811764705882353,0.929411764705882);
#147=MANIFOLD_SOLID_BREP('Motor tube',#138);
#148=SHAPE_DEFINITION_REPRESENTATION(#312,#149);
#149=SHAPE_REPRESENTATION('Motor tube',(#150),#307);
#150=AXIS2_PLACEMENT_3D('',#192,#164,#165);
#151=AXIS2_PLACEMENT_3D('',#193,#166,#167);
#152=AXIS2_PLACEMENT_3D('',#242,#168,#169);
#153=AXIS2_PLACEMENT_3D('',#244,#170,#171);
#154=AXIS2_PLACEMENT_3D('',#246,#172,#173);
#155=AXIS2_PLACEMENT_3D('',#295,#174,#175);
#156=AXIS2_PLACEMENT_3D('',#297,#176,#177);
#157=AXIS2_PLACEMENT_3D('',#299,#178,#179);
#158=AXIS2_PLACEMENT_3D('',#300,#180,#181);
#159=AXIS2_PLACEMENT_3D('',#301,#182,#183);
#160=AXIS2_PLACEMENT_3D('',#302,#184,#185);
#161=AXIS2_PLACEMENT_3D('',#303,#186,#187);
#162=AXIS2_PLACEMENT_3D('',#304,#188,#189);
#163=AXIS2_PLACEMENT_3D('',#305,#190,#191);
#164=DIRECTION('',(0.,0.,1.));
#165=DIRECTION('',(1.,0.,0.));
#166=DIRECTION('',(0.,0.,-1.));
#167=DIRECTION('',(-1.,0.,0.));
#168=DIRECTION('',(0.,0.,1.));
#169=DIRECTION('',(1.,0.,0.));
#170=DIRECTION('',(0.,0.,1.));
#171=DIRECTION('',(1.,0.,0.));
#172=DIRECTION('',(0.,0.,-1.));
#173=DIRECTION('',(-1.,0.,0.));
#174=DIRECTION('',(0.,0.,1.));
#175=DIRECTION('',(1.,0.,0.));
#176=DIRECTION('',(0.,0.,1.));
#177=DIRECTION('',(1.,0.,0.));
#178=DIRECTION('',(0.,0.,1.));
#179=DIRECTION('',(1.,0.,0.));
#180=DIRECTION('',(0.,0.,1.));
#181=DIRECTION('',(1.,0.,0.));
#182=DIRECTION('',(0.,0.,1.));
#183=DIRECTION('',(1.,0.,0.));
#184=DIRECTION('',(0.999857384084392,-0.0168882057044866,0.));
#185=DIRECTION('',(0.0168882057044866,0.999857384084392,0.));
#186=DIRECTION('',(0.999857384084392,-0.0168882057044866,0.));
#187=DIRECTION('',(0.0168882057044866,0.999857384084392,0.));
#188=DIRECTION('',(0.00895608387892681,-0.99995989347651,0.));
#189=DIRECTION('',(0.99995989347651,0.00895608387892681,0.));
#190=DIRECTION('',(0.00895608387892681,-0.99995989347651,0.));
#191=DIRECTION('',(0.99995989347651,0.00895608387892681,0.));
#192=CARTESIAN_POINT('',(0.,0.,0.));
#193=CARTESIAN_POINT('',(0.,9.42978035343462E-17,11.));
#194=CARTESIAN_POINT('',(0.0613894003709215,1.53944670659543,7.20224721087245));
#195=CARTESIAN_POINT('',(0.105072804956697,1.53628408608193,7.30750384391112));
#196=CARTESIAN_POINT('',(0.0614245975585652,1.53944192315655,7.41259640260261));
#197=CARTESIAN_POINT('',(-0.043606700580974,1.54084128906755,7.45605031246166));
#198=CARTESIAN_POINT('',(-0.148580242867682,1.53348950649396,7.41259056589024));
#199=CARTESIAN_POINT('',(-0.192078219215215,1.52784651213383,7.30750422759752));
#200=CARTESIAN_POINT('',(-0.148715500158113,1.53347278599721,7.20255512363472));
#201=CARTESIAN_POINT('',(-0.0438700371108063,1.54083558818965,7.15888209532792));
#202=CARTESIAN_POINT('',(0.0613894003709215,1.53944670659543,7.20224721087245));
#203=CARTESIAN_POINT('',(0.105072804956697,1.53628408608193,7.30750384391112));
#204=CARTESIAN_POINT('',(0.0614245975585652,1.53944192315655,7.41259640260261));
#205=CARTESIAN_POINT('',(0.0905175362927126,1.53733749567995,7.30747649818659));
#206=CARTESIAN_POINT('',(0.0889532738390448,-1.53810017098976,7.41270578550073));
#207=CARTESIAN_POINT('',(0.1325730234902,-1.5341556247437,7.30744915246206));
#208=CARTESIAN_POINT('',(0.0889883797019287,-1.53809475788561,7.20235659377057));
#209=CARTESIAN_POINT('',(-0.0160010043429436,-1.54137516208447,7.15890268391153));
#210=CARTESIAN_POINT('',(-0.121089387553298,-1.53590478719212,7.20236243048294));
#211=CARTESIAN_POINT('',(-0.164681460038061,-1.53104180989812,7.30744876877567));
#212=CARTESIAN_POINT('',(-0.121224922633693,-1.53589049203183,7.41239787273846));
#213=CARTESIAN_POINT('',(-0.0162644007385615,-1.54137417886004,7.45607090104526));
#214=CARTESIAN_POINT('',(0.0889532738390448,-1.53810017098976,7.41270578550073));
#215=CARTESIAN_POINT('',(0.1325730234902,-1.5341556247437,7.30744915246206));
#216=CARTESIAN_POINT('',(0.0889883797019287,-1.53809475788561,7.20235659377057));
#217=CARTESIAN_POINT('',(0.118038957916962,-1.53546957130836,7.30747649818659));
#218=CARTESIAN_POINT('',(-1.53856937912992,0.0910655069037946,7.36144148079582));
#219=CARTESIAN_POINT('',(-1.54062891078379,-0.00905358821541019,7.32646610400041));
#220=CARTESIAN_POINT('',(-1.53891497773493,-0.0548511540421533,7.23097027195459));
#221=CARTESIAN_POINT('',(-1.5403757362375,-0.0197913549449607,7.13121159224885));
#222=CARTESIAN_POINT('',(-1.53939824746749,0.0757315689759641,7.08539647718335));
#223=CARTESIAN_POINT('',(-1.53065361968439,0.175264030557574,7.12053372318991));
#224=CARTESIAN_POINT('',(-1.52396115991329,0.220951635247188,7.21568859873928));
#225=CARTESIAN_POINT('',(-1.52922842749402,0.18602735072322,7.31558775428483));
#226=CARTESIAN_POINT('',(-1.53856937912992,0.0910655069037946,7.36144148079582));
#227=CARTESIAN_POINT('',(-1.54062891078379,-0.00905358821541019,7.32646610400041));
#228=CARTESIAN_POINT('',(-1.53891497773493,-0.0548511540421533,7.23097027195459));
#229=CARTESIAN_POINT('',(-1.54,-1.70361238705577E-16,7.31637936145868));
#230=CARTESIAN_POINT('',(1.53517770704021,0.128909975865213,7.32126323017685));
#231=CARTESIAN_POINT('',(1.53052095129147,0.169626134657761,7.22341440444077));
#232=CARTESIAN_POINT('',(1.53517263468356,0.128937158272887,7.12570240415388));
#233=CARTESIAN_POINT('',(1.54094148212949,0.0314499092896751,7.08524180704943));
#234=CARTESIAN_POINT('',(1.53914404668911,-0.0665090269271423,7.12556095868083));
#235=CARTESIAN_POINT('',(1.53616610201201,-0.107004227465462,7.22341950601107));
#236=CARTESIAN_POINT('',(1.53913547616205,-0.0666382526331908,7.32112846601437));
#237=CARTESIAN_POINT('',(1.54094792261337,0.031215041079501,7.36165627362625));
#238=CARTESIAN_POINT('',(1.53517770704021,0.128909975865213,7.32126323017685));
#239=CARTESIAN_POINT('',(1.53052095129147,0.169626134657761,7.22341440444077));
#240=CARTESIAN_POINT('',(1.53517263468356,0.128937158272887,7.12570240415388));
#241=CARTESIAN_POINT('',(1.53207235781494,0.15605861212819,7.2234372086823));
#242=CARTESIAN_POINT('',(0.,9.42978035343462E-17,6.));
#243=CARTESIAN_POINT('',(1.54,9.42978035343462E-17,6.));
#244=CARTESIAN_POINT('',(0.,9.42978035343462E-17,10.5));
#245=CARTESIAN_POINT('',(1.54,9.42978035343462E-17,10.5));
#246=CARTESIAN_POINT('',(0.,1.0654427152582E-16,11.));
#247=CARTESIAN_POINT('',(0.0595994145990351,1.73957204637737,7.20225520607438));
#248=CARTESIAN_POINT('',(0.103275575062065,1.73681983752105,7.30750377481232));
#249=CARTESIAN_POINT('',(0.0596343270205163,1.73956785170455,7.4125886837959));
#250=CARTESIAN_POINT('',(-0.0453733383324593,1.7406992669863,7.45605045741811));
#251=CARTESIAN_POINT('',(-0.15037602276795,1.73408505522457,7.41259770103372));
#252=CARTESIAN_POINT('',(-0.19388024458411,1.72905135035194,7.30750232777128));
#253=CARTESIAN_POINT('',(-0.150513198823998,1.73406995128354,7.20255132375659));
#254=CARTESIAN_POINT('',(-0.0456377226764141,1.74069395747661,7.15888101281825));
#255=CARTESIAN_POINT('',(0.0595994145990351,1.73957204637737,7.20225520607438));
#256=CARTESIAN_POINT('',(0.103275575062065,1.73681983752105,7.30750377481232));
#257=CARTESIAN_POINT('',(0.0596343270205163,1.73956785170455,7.4125886837959));
#258=CARTESIAN_POINT('',(0.0887226736446352,1.73773654136102,7.30747649818659));
#259=CARTESIAN_POINT('',(0.0907481101115958,-1.73822546732846,7.4126977902988));
#260=CARTESIAN_POINT('',(0.134367967869746,-1.73469139665291,7.30744922156086));
#261=CARTESIAN_POINT('',(0.090782941799656,-1.73822064799649,7.20236431257728));
#262=CARTESIAN_POINT('',(-0.0141876126340204,-1.74123272125406,7.15890253895507));
#263=CARTESIAN_POINT('',(-0.119291922355839,-1.73650032082846,7.20235529533946));
#264=CARTESIAN_POINT('',(-0.162879326049513,-1.73224664714339,7.3074506686019));
#265=CARTESIAN_POINT('',(-0.119429346939184,-1.73648767633243,7.41240167261659));
#266=CARTESIAN_POINT('',(-0.0144520496656924,-1.74123214810292,7.45607198355493));
#267=CARTESIAN_POINT('',(0.0907481101115958,-1.73822546732846,7.4126977902988));
#268=CARTESIAN_POINT('',(0.134367967869746,-1.73469139665291,7.30744922156086));
#269=CARTESIAN_POINT('',(0.090782941799656,-1.73822064799649,7.20236431257728));
#270=CARTESIAN_POINT('',(0.119833820565039,-1.73586861698942,7.30747649818659));
#271=CARTESIAN_POINT('',(-1.73882732367827,0.0893205332741265,7.3616467130506));
#272=CARTESIAN_POINT('',(-1.74050952399448,-0.00941759401827662,7.3229810243829));
#273=CARTESIAN_POINT('',(-1.73913458034382,-0.0516501572010194,7.22588087534425));
#274=CARTESIAN_POINT('',(-1.74044101543909,-0.0129496362569328,7.1274958740047));
#275=CARTESIAN_POINT('',(-1.73908352569428,0.0841526888249568,7.08521767757109));
#276=CARTESIAN_POINT('',(-1.73095394580099,0.182369085046256,7.12397982662724));
#277=CARTESIAN_POINT('',(-1.72535369702213,0.224542192410716,7.22078771998798));
#278=CARTESIAN_POINT('',(-1.73052326026061,0.185980805883863,7.31930612577995));
#279=CARTESIAN_POINT('',(-1.73882732367827,0.0893205332741265,7.3616467130506));
#280=CARTESIAN_POINT('',(-1.74050952399448,-0.00941759401827662,7.3229810243829));
#281=CARTESIAN_POINT('',(-1.73913458034382,-0.0516501572010194,7.22588087534425));
#282=CARTESIAN_POINT('',(-1.74,-1.35447868875885E-16,7.31324194765441));
#283=CARTESIAN_POINT('',(1.73598104938856,0.125523821375713,7.32126908285318));
#284=CARTESIAN_POINT('',(1.73194592213975,0.166220946146446,7.22341390883495));
#285=CARTESIAN_POINT('',(1.73597651696835,0.125551907772374,7.12569853390081));
#286=CARTESIAN_POINT('',(1.74089144736746,0.0280311558339449,7.08523911369756));
#287=CARTESIAN_POINT('',(1.73910932364939,-0.069890519563281,7.12557536971438));
#288=CARTESIAN_POINT('',(1.73639626805241,-0.110384005894981,7.22341951249602));
#289=CARTESIAN_POINT('',(1.73910141084615,-0.0700207718518986,7.32111221329304));
#290=CARTESIAN_POINT('',(1.74089674062864,0.0277930828150671,7.36165887142287));
#291=CARTESIAN_POINT('',(1.73598104938856,0.125523821375713,7.32126908285318));
#292=CARTESIAN_POINT('',(1.73194592213975,0.166220946146446,7.22341390883495));
#293=CARTESIAN_POINT('',(1.73597651696835,0.125551907772374,7.12569853390081));
#294=CARTESIAN_POINT('',(1.73329020915266,0.152659918955645,7.2234372086823));
#295=CARTESIAN_POINT('',(0.,1.0654427152582E-16,11.));
#296=CARTESIAN_POINT('',(1.74,1.0654427152582E-16,11.));
#297=CARTESIAN_POINT('',(0.,1.0654427152582E-16,6.));
#298=CARTESIAN_POINT('',(1.74,1.0654427152582E-16,6.));
#299=CARTESIAN_POINT('',(0.,0.,11.));
#300=CARTESIAN_POINT('',(0.,0.,6.));
#301=CARTESIAN_POINT('',(0.,0.,10.5));
#302=CARTESIAN_POINT('',(-1.75618670863228,0.0868492805661083,7.2234372086823));
#303=CARTESIAN_POINT('',(-1.75618670863228,0.0868492805661083,7.2234372086823));
#304=CARTESIAN_POINT('',(-0.0832635119065076,5.96850116996622,7.30747649818659));
#305=CARTESIAN_POINT('',(-0.0832635119065076,5.96850116996622,7.30747649818659));
#306=MECHANICAL_DESIGN_GEOMETRIC_PRESENTATION_REPRESENTATION('',(#139),
#307);
#307=(
GEOMETRIC_REPRESENTATION_CONTEXT(3)
GLOBAL_UNCERTAINTY_ASSIGNED_CONTEXT((#308))
GLOBAL_UNIT_ASSIGNED_CONTEXT((#311,#310,#309))
REPRESENTATION_CONTEXT('Motor tube','TOP_LEVEL_ASSEMBLY_PART')
);
#308=UNCERTAINTY_MEASURE_WITH_UNIT(LENGTH_MEASURE(0.002),#311,
'DISTANCE_ACCURACY_VALUE','Maximum Tolerance applied to model');
#309=(
NAMED_UNIT(*)
SI_UNIT($,.STERADIAN.)
SOLID_ANGLE_UNIT()
);
#310=(
NAMED_UNIT(*)
PLANE_ANGLE_UNIT()
SI_UNIT($,.RADIAN.)
);
#311=(
LENGTH_UNIT()
NAMED_UNIT(*)
SI_UNIT(.CENTI.,.METRE.)
);
#312=PRODUCT_DEFINITION_SHAPE('','',#313);
#313=PRODUCT_DEFINITION('','',#315,#314);
#314=PRODUCT_DEFINITION_CONTEXT('',#321,'design');
#315=PRODUCT_DEFINITION_FORMATION_WITH_SPECIFIED_SOURCE('','',#317,
 .NOT_KNOWN.);
#316=PRODUCT_RELATED_PRODUCT_CATEGORY('','',(#317));
#317=PRODUCT('Motor tube','Motor tube','Motor tube',(#319));
#318=PRODUCT_CATEGORY('','');
#319=PRODUCT_CONTEXT('',#321,'mechanical');
#320=APPLICATION_PROTOCOL_DEFINITION('international standard',
'ap242_managed_model_based_3d_engineering',2020,#321);
#321=APPLICATION_CONTEXT('managed model based 3d engineering');
ENDSEC;
END-ISO-10303-21;
